<svg xmlns="http://www.w3.org/2000/svg" xmlns:xlink="http://www.w3.org/1999/xlink" width="18.982" height="19.705" viewBox="0 0 18.982 19.705">
  <defs>
    <clipPath id="clip-path">
      <path id="Caminho_13505" data-name="Caminho 13505" d="M0,0H18.982V-19.7H0Z" fill="none"/>
    </clipPath>
    <clipPath id="clip-path-2">
      <path id="Caminho_13506" data-name="Caminho 13506" d="M9.49-19.7A9.677,9.677,0,0,0,0-9.852H0A9.676,9.676,0,0,0,9.49,0h0a9.677,9.677,0,0,0,9.492-9.852h0A9.678,9.678,0,0,0,9.49-19.7Z" fill="none"/>
    </clipPath>
    <clipPath id="clip-path-3">
      <rect id="Retângulo_252" data-name="Retângulo 252" width="73.899" height="46.974" transform="translate(-11.908 -27.028)" fill="none"/>
    </clipPath>
  </defs>
  <g id="adesivo_circuloazul" transform="translate(0 19.705)">
    <g id="Grupo_13075" data-name="Grupo 13075" clip-path="url(#clip-path)">
      <g id="Grupo_13074" data-name="Grupo 13074" transform="translate(9.491)">
        <path id="Caminho_13504" data-name="Caminho 13504" d="M0,0A9.676,9.676,0,0,0,9.491-9.852,9.677,9.677,0,0,0,0-19.7,9.677,9.677,0,0,0-9.491-9.852,9.676,9.676,0,0,0,0,0" fill="#387bc2"/>
      </g>
    </g>
  </g>
</svg>
