<svg xmlns="http://www.w3.org/2000/svg" xmlns:xlink="http://www.w3.org/1999/xlink" width="622" height="227" viewBox="0 0 622 227">
  <defs>
    <clipPath id="clip-path">
      <rect id="Retângulo_44" data-name="Retângulo 44" width="622" height="227" transform="translate(758 821)" fill="#fff" stroke="#707070" stroke-width="1"/>
    </clipPath>
    <clipPath id="clip-path-2">
      <path id="Caminho_7170" data-name="Caminho 7170" d="M0,0H1190.551V-226.771H0Z" fill="none"/>
    </clipPath>
    <clipPath id="clip-path-3">
      <path id="Caminho_7184" data-name="Caminho 7184" d="M55.7-226.771C24.659-222.779.122-173.9,0-114.1H0V-.265H628V-226.771Z" fill="none"/>
    </clipPath>
  </defs>
  <g id="bg_abertura_bottom" transform="translate(-758 -821)" clip-path="url(#clip-path)">
    <g id="Grupo_7270" data-name="Grupo 7270" transform="translate(758 1047.771)">
      <g id="Grupo_7255" data-name="Grupo 7255" clip-path="url(#clip-path-2)">
        <g id="Grupo_7254" data-name="Grupo 7254" transform="translate(113.386 -226.771)">
          <path id="Caminho_7169" data-name="Caminho 7169" d="M0,0A113.387,113.387,0,0,0-113.386,113.387V226.771H1077.165V0Z" fill="#c892c7"/>
        </g>
      </g>
      <g id="Grupo_7269" data-name="Grupo 7269" clip-path="url(#clip-path-3)">
        <g id="Grupo_7256" data-name="Grupo 7256" transform="translate(253.035 -213.307)">
          <path id="Caminho_7171" data-name="Caminho 7171" d="M-334.48,0c-17.025-2.961-33.432,4.082-48.853,17.721-12.686,11.219-24.338,25.805-36.112,40.034A172.481,172.481,0,0,1-432.921,72.8c-3.547,3.369-7.42,6.639-11.439,7.084-5.63.623-11.19-4.434-15.638-10.526-8.3-11.366-14.538-28.5-24.182-36.211-10.587-8.462-21.62-.533-31.209,8.831-9.621,9.4-19.282,22.233-30.3,24.563-9.436,1.995-19.34-4.04-28.209-9.454-9.344-5.705-18.809-11.78-28.725-12.244-13.085-.612-25.638,13.956-37.133,23.984-7.006,6.112-14.288,12.155-21.977,14.285-5.969,1.654-12.344.372-18.1-3.049-4.186-2.489-7.959-6.619-11.937-10.029a28.412,28.412,0,0,0-16.107-6.979l.083-4a28.749,28.749,0,0,1,16.249,7.1c3.966,3.407,7.734,7.549,11.913,10.01,5.788,3.407,12.19,4.576,18.174,2.672,7.589-2.415,14.771-8.523,21.715-14.571,11.532-10.042,24.14-24.28,37.251-23.654,9.879.473,19.29,6.411,28.6,12.118,9.039,5.542,18.939,11.437,28.561,9.728,11.122-1.975,20.806-14.706,30.427-24.32,9.2-9.19,20.08-17.7,30.424-10.094,10.022,7.367,16.135,25.579,24.544,37.335,4.348,6.078,9.6,10.529,15.1,10.256,3.881-.192,7.627-3.292,11.04-6.555a161.7,161.7,0,0,0,13.169-14.935c12.043-14.849,23.933-30.116,36.984-41.687,15.551-13.788,32.116-20.586,49.266-17.2Z" transform="translate(707.874 5.605)" fill="#bf7dbd"/>
        </g>
        <g id="Grupo_7257" data-name="Grupo 7257" transform="translate(252.871 -197.895)">
          <path id="Caminho_7172" data-name="Caminho 7172" d="M-292.931,0c-11.9,10.167-22.988,23.15-34.191,35.756a172.426,172.426,0,0,1-13.569,14.1c-3.844,3.429-8.087,6.809-12.393,7.169-5.445.455-11.046-4.346-15.58-9.615-8.976-10.432-16.2-25.963-25.9-34.192-11.195-9.489-22.692-4.091-33.45,4.814-10.39,8.6-20.686,21.516-32.118,24.381-9.364,2.347-19.408-3.973-28.224-9.292-9.213-5.559-18.635-11.63-28.405-12.016-12.714-.5-24.741,13.859-35.937,23.467-7.344,6.3-15.051,12.154-23.155,13.5-6.231,1.035-12.863-.8-18.772-4.68-3.968-2.6-7.548-6.667-11.345-9.985A26.757,26.757,0,0,0-619.943,36.9l.048-2.316a27.448,27.448,0,0,1,14.964,6.683c3.939,3.4,7.661,7.551,11.794,10.118,5.9,3.668,12.5,5.25,18.673,3.847,7.813-1.777,15.212-7.572,22.315-13.722,11.223-9.718,23.4-24.221,36.159-23.857,9.916.282,19.47,6.471,28.811,12.137,8.81,5.344,18.805,11.6,28.17,9.322,11.31-2.751,21.38-15.929,31.508-24.89,10.08-8.919,21.21-15.148,31.937-6.283,9.814,8.112,16.708,24.549,25.558,35.455,4.429,5.457,9.993,10.356,15.412,9.76,8.971-.988,17.727-12.621,25.137-21.163C-317.8,18.549-306.3,4.642-293.866-6.138c14.947-12.961,30.8-20.019,47.268-17.627l-.135,6.5C-262.82-19.451-278.3-12.5-292.931,0" transform="translate(619.943 24.227)" fill="#bf7dbd"/>
        </g>
        <g id="Grupo_7258" data-name="Grupo 7258" transform="translate(252.777 -178.383)">
          <path id="Caminho_7173" data-name="Caminho 7173" d="M-266.9,0c-7.328,7.424-15.666,16.76-24.2,17.481-5.567.47-11.4-3.647-16.338-8.142-9.962-9.076-18.525-22.873-28.668-31.3-5.293-4.4-11.083-7.384-16.883-7.467-6.7-.095-13.3,3.013-19.624,6.953-12.038,7.5-23.817,20.441-36.534,23.3-9.41,2.112-19.316-3.82-28.194-9.081-9.322-5.524-18.832-11.5-28.7-11.805-12.453-.381-24.063,13.724-35.142,22.68-7.3,5.9-14.956,10.762-22.952,11.374-6.514.5-13.436-1.8-19.541-6.184C-547.6,4.983-551.1.7-554.865-2.751A24.441,24.441,0,0,0-564.851-8.4l.029-1.374a25.292,25.292,0,0,1,11.576,6.046c3.714,3.34,7.191,7.465,11.061,10.184,6,4.216,12.777,6.376,19.163,5.776,8.193-.77,16.028-6.153,23.473-12.34,11.13-9.25,22.889-23.41,35.46-22.9,9.749.4,19.148,6.364,28.352,11.856C-426.884-5.866-416.89.285-407.5-1.97c12.1-2.9,23.2-15.7,34.494-23.623,6.165-4.325,12.634-7.926,19.251-8.24,5.64-.267,11.3,2.344,16.436,6.691,9.869,8.353,17.875,22.654,27.38,32.218C-305.156,9.887-299.42,14.3-293.9,13.9c8.988-.653,17.871-11.377,25.477-19.428C-244.5-30.86-220.26-57.889-191.814-54.206l-.159,7.652C-219.691-50.186-243.344-23.865-266.9,0" transform="translate(564.851 54.545)" fill="#bf7dbd"/>
        </g>
        <g id="Grupo_7259" data-name="Grupo 7259" transform="translate(252.705 -156.339)">
          <path id="Caminho_7174" data-name="Caminho 7174" d="M-273.452,0c-7.054,6.261-14.822,13.559-22.77,14-5.99.329-12.144-2.871-17.731-6.689-10.859-7.421-20.759-18.916-31.382-27.369-5.787-4.6-11.9-8.945-18.167-10.189-7.788-1.544-15.667.715-23.239,4.122-7.391,3.325-14.6,7.878-21.849,12.155-6.174,3.644-12.481,7.451-18.943,8.7-9.8,1.9-19.81-3.643-29.085-9.024-9.128-5.295-18.347-10.768-27.971-11.309-12.362-.694-23.578,12.748-34.708,21.06-7.653,5.714-15.68,9.758-23.966,9.277A35.148,35.148,0,0,1-563.085-3.5c-3.717-3.03-7-7.448-10.578-10.948a22.94,22.94,0,0,0-5.056-3.775l.027-1.279a23.3,23.3,0,0,1,6.876,4.613C-568.166-11.4-564.8-7.029-561-4.074c6.145,4.782,13.147,7.42,19.773,7.482,8.049.075,15.831-4.167,23.239-9.83,11.189-8.554,22.635-22.483,35.108-21.895,9.82.463,19.221,6.191,28.52,11.621,8.946,5.224,18.741,10.794,28.2,8.969,6.421-1.238,12.663-5.244,18.747-9.129,6.914-4.416,13.78-9.149,20.834-12.722,6.983-3.538,14.248-6.083,21.5-5.205,6.3.761,12.487,4.741,18.257,9.443,10.273,8.371,19.573,20.506,29.95,28.462,5.4,4.141,11.506,7.791,17.4,7.4,8.172-.547,16.149-8.558,23.318-15.26,22.213-20.763,44.447-44.322,70.082-40.7l-.17,8.2C-230.652-40.911-252.053-18.993-273.452,0" transform="translate(578.719 45.816)" fill="#bf7dbd"/>
        </g>
        <g id="Grupo_7260" data-name="Grupo 7260" transform="translate(252.602 -133.879)">
          <path id="Caminho_7175" data-name="Caminho 7175" d="M-279.648,0c-6.827,5.005-14.109,10.21-21.542,9.791a47.767,47.767,0,0,1-18.022-5.067c-11.893-5.745-23.194-15.012-34.565-23.608-6.375-4.82-12.724-10.469-19.514-12.754-8.672-2.919-17.6-1.708-26.248.95-8.583,2.64-17,6.818-25.425,10.837-7,3.341-14.133,6.984-21.37,7.855-9.674,1.165-19.328-3.689-28.51-8.888s-18.365-10.41-28.013-11.081c-12.2-.849-23.015,11.989-34.146,19.532-14.636,9.917-30.737,9.526-44.877-3.455-3.415-3.135-6.4-7.526-9.7-11.036-.085-.09-.171-.178-.257-.266l.044-2.116a23.137,23.137,0,0,1,1.763,1.623c3.458,3.524,6.585,8.033,10.16,11.182,14.267,12.567,30.131,12.013,44.68,1.738,11-7.769,21.891-20.694,34.009-19.946,9.7.6,18.946,5.908,28.168,11.174,9.329,5.326,19.223,10.454,29.061,8.888,6.846-1.09,13.568-4.7,20.173-8.094,7.845-4.026,15.675-8.249,23.666-11.131,8.267-2.982,16.827-4.658,25.205-2.375,6.839,1.863,13.312,7.193,19.679,12.093,10.99,8.456,21.7,18.411,33.117,24.724,5.909,3.268,12.082,5.673,18.259,5.739,7.453.08,14.771-5.718,21.535-11.051,20.169-15.9,40.247-35.412,62.757-31.585l-.169,8.147c-21.317-3.868-40.587,14-59.925,28.18" transform="translate(591.832 37.31)" fill="#bf7dbd"/>
        </g>
        <g id="Grupo_7261" data-name="Grupo 7261" transform="translate(252.44 -123.455)">
          <path id="Caminho_7176" data-name="Caminho 7176" d="M-285.907,0c-6.577,3.749-13.388,7.219-20.314,6.66a82.371,82.371,0,0,1-19.245-3.668C-338.1-1.148-350.51-8.053-362.457-16.833c-7.059-5.188-13.687-12.346-21.1-15.627-9.441-4.178-19.293-3.914-28.878-1.931-9.438,1.952-18.74,5.663-28.018,9.394-7.62,3.064-15.329,6.552-23.129,7.438-9.834,1.118-19.58-3.4-28.944-8.58-9.225-5.1-18.4-10.131-28.064-10.886-11.806-.923-22.048,11.1-32.911,17.958-15.083,9.516-32.011,7.073-46.156-7a63.3,63.3,0,0,1-5.419-6.512l.063-3.041a85,85,0,0,0,7.006,8.342c14.064,13.542,30.569,15.294,45.413,5.788,10.961-7.019,21.446-19.446,33.379-18.573,9.584.7,18.692,5.648,27.83,10.752,9.317,5.2,19.014,9.919,28.814,8.943,7.573-.754,15.059-4.246,22.433-7.372,8.979-3.807,17.967-7.692,27.1-9.935,9.273-2.276,18.817-2.969,28.025.614,7.359,2.863,14.005,9.561,20.958,14.71,11.745,8.7,23.77,16.437,36.151,21.15A65.76,65.76,0,0,0-308.868,3c7.089.484,14.026-3.514,20.686-7.7,17.9-11.252,35.785-26.294,55.081-22.469l-.155,7.49c-18.289-3.7-35.488,9.894-52.65,19.676" transform="translate(605.077 40.103)" fill="#bf7dbd"/>
        </g>
        <g id="Grupo_7262" data-name="Grupo 7262" transform="translate(252.246 -114.568)">
          <path id="Caminho_7177" data-name="Caminho 7177" d="M-289.987,0c-6.5,2.663-13.072,4.753-19.741,4.151a156.819,156.819,0,0,1-19.728-2.622c-13.324-2.924-26.794-7.857-39.284-17.353-7.483-5.69-14.107-14.169-21.981-18.138-10.02-5.052-20.561-5.378-30.839-3.789-10.045,1.553-19.969,5.026-29.851,8.673-7.94,2.93-15.946,6.418-24.04,7.378-9.89,1.173-19.7-3.384-29.128-8.516-9.3-5.063-18.613-10.094-28.357-10.592-11.353-.58-21.147,11.576-31.677,17.713-15.235,8.879-32.585,4.195-46.513-10.293-.891-.927-1.747-1.947-2.586-3.014l.072-3.46a44.976,44.976,0,0,0,3.42,4.04c13.92,14.26,31.042,18.2,46.153,9.26,10.639-6.3,20.609-18.433,32.093-17.813,9.758.526,19.068,5.557,28.378,10.654,9.445,5.17,19.254,9.7,29.167,8.6,8-.892,15.923-4.342,23.767-7.288,9.683-3.638,19.4-7.164,29.241-8.843,10.051-1.715,20.363-1.6,30.2,3.1,7.757,3.709,14.415,11.724,21.791,17.234a108.271,108.271,0,0,0,38.666,18.2A128.471,128.471,0,0,0-311.193.233c6.7.641,13.273-1.789,19.755-4.779,16.219-7.481,32.525-19.047,49.481-15.81l-.129,6.231C-258.4-16.878-274.252-6.448-289.987,0" transform="translate(613.712 44.398)" fill="#bf7dbd"/>
        </g>
        <g id="Grupo_7263" data-name="Grupo 7263" transform="translate(252.017 -103.849)">
          <path id="Caminho_7178" data-name="Caminho 7178" d="M-291.77,0c-6.618,2.044-13.348,3.864-20.07,3.747a139.336,139.336,0,0,1-20.383-2.36c-13.274-2.22-27.028-5.639-39.392-15.571a59.527,59.527,0,0,1-7.729-7.613,53.327,53.327,0,0,0-14.026-11.962c-10.463-5.874-21.562-6.58-32.383-5.164-10.226,1.338-20.34,4.67-30.395,8.337-8.143,2.969-16.338,6.667-24.623,7.886-9.544,1.405-19.241-3.458-28.364-8.236-9.079-4.756-18.268-9.772-27.747-10.415-11.138-.755-20.741,11.477-31.075,17.349a30.263,30.263,0,0,1-25.134,2.615,54.937,54.937,0,0,1-22.5-13.93c-.648-.665-1.277-1.379-1.894-2.123l.091-4.386c.6.735,1.206,1.442,1.832,2.1,14.1,14.934,31.96,20.866,47.521,11.706,10.43-6.139,19.919-18.469,31.21-17.7,9.523.651,18.641,5.6,27.744,10.511,9.137,4.935,18.755,9.609,28.337,8.373,8.288-1.069,16.5-4.849,24.625-7.88,10.077-3.758,20.21-7.225,30.464-8.669,10.826-1.525,21.948-.913,32.415,5.02,7.864,4.458,14.253,13.653,21.725,19.609,12.384,9.872,26.1,13.631,39.386,15.958a174.009,174.009,0,0,0,20.384,2.3c6.748.376,13.471-1.437,20.1-3.673,15.113-5.1,30.335-13.7,45.821-12.343l-.1,4.6C-261.4-12.076-276.586-4.69-291.77,0" transform="translate(617.486 45.748)" fill="#bf7dbd"/>
        </g>
        <g id="Grupo_7264" data-name="Grupo 7264" transform="translate(251.803 -91.097)">
          <path id="Caminho_7179" data-name="Caminho 7179" d="M-288.381,0c-6.48.84-13.006,2.03-19.5,2.244-6.467.212-13.128-1.414-19.582-2.309C-340.5-1.871-353.9-4.356-366.21-13.189a57.962,57.962,0,0,1-7.37-6.418A56.55,56.55,0,0,0-388-30.429c-9.609-4.9-19.648-6.194-29.564-5.734-17.408.807-34.376,8.206-51.685,10.6-9.769,1.352-19.815-2.822-29.383-6.228-9.334-3.323-19.025-7.661-28.559-7.884-11-.259-21.521,9.039-32.15,13.118A40.794,40.794,0,0,1-583.793-24.8a89.7,89.7,0,0,1-14.249-4.979,33.833,33.833,0,0,1-8.845-5.36,28.949,28.949,0,0,1-3.426-3.545l.064-3.08a30.445,30.445,0,0,0,2.6,2.734c6.95,6.361,15.162,9.533,22.734,11.563a35.964,35.964,0,0,0,24.973-2.259c10.491-4.843,20.822-15.579,31.861-14.8,9.389.659,18.74,5.221,27.859,9.139,9.252,3.975,19.086,8.594,28.624,7.244,8.161-1.156,16.247-4.194,24.317-6.649,9.687-2.947,19.423-5.541,29.233-6.373,10.477-.889,21.136.153,31.282,5.522A53.88,53.88,0,0,1-372.91-24.861a62.975,62.975,0,0,0,7.867,7.2c12.237,9.169,25.656,12.082,38.675,14.123,6.664,1.044,13.561,2.716,20.249,2.48,6.523-.23,13.076-1.75,19.553-3.118,15.917-3.363,31.794-7.64,47.81-8.939l-.144,6.94C-255.407-4.521-271.89-2.137-288.381,0" transform="translate(610.313 44.572)" fill="#bf7dbd"/>
        </g>
        <g id="Grupo_7265" data-name="Grupo 7265" transform="translate(251.687 -81.108)">
          <path id="Caminho_7180" data-name="Caminho 7180" d="M-283.447,0c-13.15-2.166-26.384-2.423-39.576-3.159-12.1-.674-24.474-1.442-36.144-8.105-7.027-4.012-13.417-10.968-20.469-14.949a66.612,66.612,0,0,0-26.087-8.079c-15.512-1.658-30.9,1.742-46.387,2.387-9.654.4-19.425-1.555-29.071-2.442-9.522-.876-19.08-2.419-28.608-2.806-11.557-.47-23.1,4.735-34.572,6.63a71.358,71.358,0,0,1-24.872-.125c-4.972-.927-9.962-2.08-14.916-3.263a25.891,25.891,0,0,1-9.017-3.914,29.73,29.73,0,0,1-6.706-7.1l.031-1.522a28.876,28.876,0,0,0,5.4,5.6,28.015,28.015,0,0,0,8.766,4.338c4.93,1.512,9.934,2.933,14.9,3.924a56.142,56.142,0,0,0,24.674-.7c11.133-2.754,22.356-9.606,33.661-9.1,9.475.426,19.026,3,28.449,4.828,9.561,1.851,19.413,4.749,29.028,3.989,16.31-1.288,32.439-6.293,48.81-5.575a62.53,62.53,0,0,1,27.487,7.181c7.318,3.951,13.819,11.255,21,15.752,11.876,7.435,24.587,8.886,36.992,10.022,6.384.585,12.884,1.882,19.269,1.815,6.789-.071,13.55-.266,20.342.089,17.481.914,34.941,2.214,52.422.5l-.18,8.679c-18.3,1.543-36.424-1.9-54.63-4.9" transform="translate(599.872 46.45)" fill="#bf7dbd"/>
        </g>
        <g id="Grupo_7266" data-name="Grupo 7266" transform="translate(251.606 -78.058)">
          <path id="Caminho_7181" data-name="Caminho 7181" d="M-.588,0Q-.895-.432-1.2-.842l0-.148,0,.006,0-.006.006-.26C1.6,3.081,4.452,6.9,8.016,9.15A23.446,23.446,0,0,0,18.1,12.495c4.812.547,9.554,1.226,14.36,2.055a136.547,136.547,0,0,0,25.472,1.889c12.174-.2,24.35-2.195,36.526-1.793A209.2,209.2,0,0,0,123.084,13.4a198.894,198.894,0,0,1,29.243-.661c13.732.588,27.46.3,41.11,3.693a80.273,80.273,0,0,1,23.435,9.846c6.61,4.137,12.73,10.52,19.515,13.645,11.316,5.213,23.105,4.583,34.662,4.3,6.185-.149,12.342.091,18.522.419,6.994.372,13.863,2.625,20.716,5.181C329.963,57.168,349.369,64.7,369.547,63.7l-.2,9.585c-21.3.617-41.373-9.185-61.818-19.154-6.914-3.371-13.949-6.686-21.113-7.241a119.147,119.147,0,0,0-18.189.162c-11.2.846-22.605,2.315-33.671-2.031-6.621-2.6-12.491-8.58-18.822-12.858a95.4,95.4,0,0,0-21.8-10.957c-22.141-7.807-45.129-9.57-67.488-4.741-9.58,2.068-19.106,3.848-28.762,3.586-12.5-.339-25.01-.217-37.509-1.02-8.581-.552-17.154-1.5-25.708-2.918q-3.462-.573-6.92-1.242c-2.49-.482-4.975-.106-7.474-.242a22.507,22.507,0,0,1-10.39-2.9C6.6,9.919,4.034,6.921,1.6,3.37c.179.3.358.6.536.907q.381.657.764,1.3.443.693.885,1.423c2.749,4.121,5.657,7.477,9.242,9.272A21.708,21.708,0,0,0,24.1,18.29c2.324-.117,4.637-.705,6.96-.562,2.267.14,4.547.621,6.807.969,8.755,1.346,17.492,3.072,26.226,4.849,13.049,2.655,26.239,6.034,39.382,6.3,9.992.2,19.759-3.937,29.459-7.975,9.536-3.969,19.446-7.727,29.23-5.537,11.117,2.488,22.082,7.246,32.759,13.581A174.4,174.4,0,0,1,213.8,42.965c3.32,2.615,6.563,5.979,9.939,8.282a23.441,23.441,0,0,0,7.613,3.037c10.476,2.689,21.027-.284,31.465-2.169,5.81-1.049,11.766-2.1,17.6-1.31,7.526,1.023,14.856,6.177,21.891,10.989,9.6,6.568,19.13,13.521,28.969,18.76,12.324,6.563,24.9,10.187,37.7,10.259l-.2,9.66c-13.5-.29-26.682-4.643-39.535-12.435-10.2-6.182-19.995-14.323-29.876-22.077-7.079-5.555-14.59-11.8-22.318-12.986-5.542-.849-11.3.557-16.8,1.882-10.28,2.481-20.62,6.45-31.025,4.467a21.129,21.129,0,0,1-7.14-2.374c-3.181-1.915-6.264-5.312-9.31-7.923-5.733-4.916-11.493-9.728-17.333-14.175-9.839-7.494-19.982-14.152-30.5-17.217-9.527-2.778-19.627,2.6-28.767,7.391C126.708,30,117.013,35.378,107.08,35.28c-13.453-.132-27.023-5.482-40.291-9.155a221.021,221.021,0,0,0-26.42-5.933,62.277,62.277,0,0,0-6.715-.817c-2.385-.089-4.736.645-7.116.9a21.492,21.492,0,0,1-12-1.694C10.563,16.651,7.374,12.725,4.353,7.949c.121.206.241.412.362.621,3.923,6.794,7.951,12.463,13.252,14.663,4.162,1.727,8.5,1.607,12.712.783,2.454-.479,4.878-1.511,7.346-1.6a38.461,38.461,0,0,1,6.493.512c8.946,1.2,17.792,4.26,26.555,7.779,7.33,2.943,14.618,6.253,21.962,9.061,6.385,2.441,13.083,5.17,19.626,5.2,10.066.049,19.809-7.465,29.075-14.033a81.19,81.19,0,0,1,13.893-8.377c4.751-2.08,9.82-3.89,14.633-1.858,9.373,3.957,17.688,13.819,25.813,23.1,4.81,5.494,9.63,10.965,14.614,15.878,2.627,2.59,5.478,5.9,8.343,7.357a17.341,17.341,0,0,0,7.038,1.429c9.969.546,19.585-4.981,29.288-8.442,5.189-1.852,10.923-3.913,16.217-2.88,8.065,1.574,15.847,9.724,22.965,16.5,10.3,9.805,20.52,20.008,31.326,27.735,13.727,9.815,27.888,15.414,42.568,16.016l-.185,8.9c-15.3-.7-29.986-6.886-44.155-17.77-11.115-8.537-21.536-19.78-32.041-30.649-7.113-7.359-15.013-16.491-23.238-18.232-5.178-1.1-10.893,1.235-15.931,3.349-9.419,3.951-18.648,10.292-28.4,10.464a16.144,16.144,0,0,1-7-.945c-2.715-1.227-5.455-4.41-7.887-6.969a154.964,154.964,0,0,1-13.274-16.662c-7.271-10.185-14.6-21.7-23.543-26.046-4.736-2.3-9.868-.162-14.524,2.145-4.754,2.355-9.319,5.818-13.835,9.443-9.12,7.319-18.845,15.875-28.97,15.823-6.617-.033-13.431-3.3-19.828-6.179C88.163,40.7,80.779,36.755,73.332,33.28c-8.71-4.065-17.551-7.614-26.52-8.721a31.1,31.1,0,0,0-6.345-.324c-2.515.209-4.98,1.4-7.476,2-4.34,1.043-8.822,1.377-13.134-.262-5.505-2.092-9.71-7.81-13.779-14.827A45.23,45.23,0,0,0-1.244,1.107L-1.223.089A35.926,35.926,0,0,1,2.092,4.345Q1.378,3.183.666,1.968.036,1-.588,0" transform="translate(1.244 1.25)" fill="#bf7dbd"/>
        </g>
        <g id="Grupo_7267" data-name="Grupo 7267" transform="translate(251.495 -72.722)">
          <path id="Caminho_7182" data-name="Caminho 7182" d="M-8.63,0C-4.118,7.625.572,13.515,6.684,15.227c9.2,2.576,17.878-4.483,27.012-3.678,8.9.785,17.638,5.159,26.125,10.043C67.4,25.953,74.87,30.95,82.455,35.262c6.363,3.616,13.289,7.751,19.99,7.941,10.351.294,20.026-9.815,28.994-18.349,4.406-4.192,8.877-8.214,13.6-10.946,4.652-2.69,9.921-5.068,14.676-2.255,8.337,4.932,14,18.861,19.867,30.249,3.4,6.609,7.027,12.885,11.221,17.658,2.15,2.447,4.738,5.329,7.23,6.227,2.343.843,5.023.488,7.383.142,9.233-1.355,17.668-8.808,26.488-13.46,4.944-2.608,10.78-5.376,15.932-4.056,8.454,2.167,16.41,12.664,23.492,20.933C282.1,81.918,292.8,94.794,304.376,104.573c14.852,12.544,30.391,19.529,46.658,20.219l-.151,7.311c-16.669-.547-32.577-7.765-47.7-20.986-11.759-10.279-22.548-23.856-33.374-37.2-7.1-8.757-14.9-19.575-23.459-22.259-5.062-1.587-10.931,1.225-15.774,3.969-8.726,4.944-16.935,13.157-26.1,15.021a15.777,15.777,0,0,1-7.354.213c-2.437-.689-4.911-3.05-7.011-5.427-4.048-4.582-7.37-11.005-10.393-17.785-5.392-12.093-10.4-27.49-18.8-32.553-4.7-2.831-9.953-.493-14.53,2.283-4.673,2.835-9.057,7.052-13.366,11.448-8.736,8.912-18.149,19.521-28.419,19.349-6.639-.112-13.488-4.466-19.727-8.348-7.562-4.7-14.98-10.188-22.518-15.015C53.871,19.378,45.048,14.32,36.037,13.67c-5.03-.363-9.463,2.1-14.369,3.748-4.44,1.492-9.023,2.246-13.511,1.08C1.892,16.869-2.971,10.9-7.632,3.152c-3.393-5.638-6.667-10.389-10.631-13l.049-2.358c3.522,2.638,6.5,7,9.585,12.207" transform="translate(18.263 12.207)" fill="#bf7dbd"/>
        </g>
        <g id="Grupo_7268" data-name="Grupo 7268" transform="translate(251.295 -64.697)">
          <path id="Caminho_7183" data-name="Caminho 7183" d="M-.074,0c4.741,2.6,8.495,8.162,12.5,14.5,5.04,7.977,10.4,13.85,17.065,15.053,4.8.867,9.655-.3,14.349-2.211,4.71-1.916,9.13-5.176,14-5.117C66.49,22.329,75,28.175,82.956,34.066c7.437,5.506,14.71,11.778,22.163,17.2,6.221,4.529,13,9.393,19.758,9.643,10.144.376,18.953-10.163,27.357-19.561,7.77-8.689,17.855-19.226,27.206-14.485,8.9,4.512,13.191,21.584,18.072,34.747,2.632,7.1,5.665,13.928,9.751,18.111,4.463,4.568,9.4,4.675,14.315,3.348,8.9-2.4,16.6-11.312,25.027-16.6,4.942-3.1,10.628-5.458,15.85-4.181,8.4,2.054,16.123,13.941,22.822,22.839,11.105,14.751,22.166,29.753,34.433,40.914,15.551,14.149,31.985,21.415,49.248,21.417l-.1,4.888c-17.894.493-34.99-6.893-50.992-22.1-12.117-11.517-22.987-26.707-33.932-41.719-6.412-8.795-13.92-20.71-22.127-22.208-5.111-.933-10.463.818-15.31,3.843-8.6,5.366-16.31,14.868-25.4,17.366-4.793,1.317-10.039,1.558-14.487-2.55-3.99-3.685-6.9-10.309-9.363-17.12-4.944-13.68-9.128-31.609-18.511-35.651-9.535-4.108-18.868,4.919-26.758,14-8.483,9.763-17.121,20.227-27.473,19.145-6.5-.679-12.828-5.343-18.781-10.009C98.4,49.6,91.279,42.988,83.976,37.167c-7.58-6.042-15.868-12.32-24.228-12.111-4.736.119-9.064,3.748-13.616,5.813-5.067,2.3-10.34,3.773-15.557,2.931-6.86-1.108-12.408-7-17.651-15.074C8.73,12.269,4.8,6.54-.157,3.985Z" transform="translate(0.157)" fill="#bf7dbd"/>
        </g>
      </g>
    </g>
  </g>
</svg>
