<svg xmlns="http://www.w3.org/2000/svg" xmlns:xlink="http://www.w3.org/1999/xlink" width="631" height="227" viewBox="0 0 631 227">
  <defs>
    <clipPath id="clip-path">
      <rect id="Retângulo_36" data-name="Retângulo 36" width="631" height="227" transform="translate(604 853)" fill="#fff" stroke="#707070" stroke-width="1"/>
    </clipPath>
    <clipPath id="clip-path-2">
      <path id="Caminho_798" data-name="Caminho 798" d="M0,0H1190.549V-226.771H0Z" fill="none"/>
    </clipPath>
    <clipPath id="clip-path-3">
      <path id="Caminho_812" data-name="Caminho 812" d="M105.578-226.771A113.4,113.4,0,0,0,0-114.1H0V-.265H1190.549V-226.771Z" fill="none"/>
    </clipPath>
    <clipPath id="clip-path-4">
      <path id="Caminho_815" data-name="Caminho 815" d="M1037.446,0h153.1V-146.059h-153.1Z" fill="none"/>
    </clipPath>
    <clipPath id="clip-path-5">
      <path id="Caminho_828" data-name="Caminho 828" d="M1187.824-146.059c-40.1,0-72.609,33.246-72.609,74.258h0c0,34.45,22.943,63.413,54.051,71.8h21.283V-145.989C1189.642-146.023,1188.737-146.059,1187.824-146.059Z" fill="none"/>
    </clipPath>
    <clipPath id="clip-path-6">
      <rect id="Retângulo_16" data-name="Retângulo 16" width="133.43" height="124.393" transform="translate(1120.6 -130.71)" fill="none"/>
    </clipPath>
    <clipPath id="clip-path-7">
      <path id="Caminho_817" data-name="Caminho 817" d="M1120.6-6.317h133.423V-130.71H1120.6Z" fill="none"/>
    </clipPath>
    <clipPath id="clip-path-8">
      <rect id="Retângulo_17" data-name="Retângulo 17" width="112.27" height="103.064" transform="translate(1131.18 -120.046)" fill="none"/>
    </clipPath>
    <clipPath id="clip-path-9">
      <path id="Caminho_819" data-name="Caminho 819" d="M1131.18-16.982h112.272V-120.046H1131.18Z" fill="none"/>
    </clipPath>
    <clipPath id="clip-path-10">
      <rect id="Retângulo_18" data-name="Retângulo 18" width="91.47" height="82.079" transform="translate(1141.58 -109.553)" fill="none"/>
    </clipPath>
    <clipPath id="clip-path-11">
      <path id="Caminho_821" data-name="Caminho 821" d="M1141.584-27.474h91.463v-82.079h-91.463Z" fill="none"/>
    </clipPath>
    <clipPath id="clip-path-12">
      <rect id="Retângulo_19" data-name="Retângulo 19" width="70.65" height="61.096" transform="translate(1151.99 -99.062)" fill="none"/>
    </clipPath>
    <clipPath id="clip-path-13">
      <path id="Caminho_823" data-name="Caminho 823" d="M1151.989-37.966h70.654v-61.1h-70.654Z" fill="none"/>
    </clipPath>
    <clipPath id="clip-path-14">
      <rect id="Retângulo_20" data-name="Retângulo 20" width="49.05" height="39.304" transform="translate(1162.79 -88.165)" fill="none"/>
    </clipPath>
    <clipPath id="clip-path-15">
      <path id="Caminho_825" data-name="Caminho 825" d="M1162.794-48.861h49.045v-39.3h-49.045Z" fill="none"/>
    </clipPath>
    <clipPath id="clip-path-16">
      <rect id="Retângulo_21" data-name="Retângulo 21" width="28.23" height="18.32" transform="translate(1173.2 -77.674)" fill="none"/>
    </clipPath>
    <clipPath id="clip-path-17">
      <path id="Caminho_827" data-name="Caminho 827" d="M1173.2-59.354h28.234v-18.32H1173.2Z" fill="none"/>
    </clipPath>
  </defs>
  <g id="bg_capitulobottom2" transform="translate(-604 -853)" clip-path="url(#clip-path)">
    <g id="bg_bottomabertura" transform="translate(44 1080)">
      <g id="Grupo_840" data-name="Grupo 840" clip-path="url(#clip-path-2)">
        <g id="Grupo_839" data-name="Grupo 839" transform="translate(113.385 -226.771)">
          <path id="Caminho_797" data-name="Caminho 797" d="M0,0A113.387,113.387,0,0,0-113.386,113.387V226.771H1077.165V0Z" fill="#c892c7"/>
        </g>
      </g>
      <g id="Grupo_854" data-name="Grupo 854" clip-path="url(#clip-path-3)">
        <g id="Grupo_841" data-name="Grupo 841" transform="translate(1187.573 -207.702)">
          <path id="Caminho_799" data-name="Caminho 799" d="M0,0C-32.276-2.961-63.379,4.082-92.615,17.721c-24.049,11.219-46.139,25.805-68.461,40.034A287.843,287.843,0,0,1-186.623,72.8c-6.724,3.369-14.067,6.639-21.685,7.084-10.674.623-21.213-4.434-29.647-10.526-15.736-11.366-27.56-28.5-45.843-36.211-20.07-8.462-40.987-.533-59.165,8.831-18.239,9.4-36.554,22.233-57.447,24.563-17.888,1.995-36.664-4.04-53.478-9.454-17.714-5.705-35.657-11.78-54.456-12.244-24.806-.612-48.6,13.956-70.4,23.984-13.282,6.112-27.087,12.155-41.663,14.285a78.608,78.608,0,0,1-34.3-3.049c-7.936-2.489-15.088-6.619-22.629-10.029-9.746-4.409-19.91-6.4-30.536-6.979l.157-4a84.737,84.737,0,0,1,30.8,7.1c7.518,3.407,14.662,7.549,22.584,10.01a75.768,75.768,0,0,0,34.454,2.672c14.387-2.415,28-8.523,41.167-14.571,21.863-10.042,45.765-24.28,70.62-23.654,18.728.473,36.57,6.411,54.217,12.118,17.135,5.542,35.9,11.437,54.145,9.728,21.084-1.975,39.444-14.706,57.683-24.32,17.433-9.19,38.067-17.7,57.677-10.094,19,7.367,30.589,25.579,46.53,37.335,8.243,6.078,18.192,10.529,28.618,10.256,7.357-.192,14.46-3.292,20.929-6.555a266.061,266.061,0,0,0,24.965-14.935c22.831-14.849,45.372-30.116,70.113-41.687C-63.729-1.334-32.326-8.132.186-4.745Z" fill="#bf7dbd"/>
        </g>
        <g id="Grupo_842" data-name="Grupo 842" transform="translate(1099.332 -173.669)">
          <path id="Caminho_800" data-name="Caminho 800" d="M0,0C-22.56,10.167-43.58,23.15-64.819,35.756c-8.4,4.987-16.875,9.94-25.724,14.1-7.288,3.429-15.332,6.809-23.494,7.169-10.322.455-20.941-4.346-29.536-9.615-17.016-10.432-30.7-25.963-49.108-34.192C-213.9,3.732-235.7,9.13-256.1,18.035c-19.7,8.6-39.216,21.516-60.888,24.381-17.752,2.347-36.794-3.973-53.507-9.292-17.466-5.559-35.327-11.63-53.85-12.016-24.1-.5-46.9,13.859-68.128,23.467-13.923,6.3-28.534,12.154-43.9,13.5a87.628,87.628,0,0,1-35.588-4.68c-7.522-2.6-14.309-6.667-21.508-9.985A77.3,77.3,0,0,0-619.943,36.9l.091-2.316a80.419,80.419,0,0,1,28.369,6.683c7.468,3.4,14.524,7.551,22.359,10.118a83.884,83.884,0,0,0,35.4,3.847c14.812-1.777,28.839-7.572,42.3-13.722,21.276-9.718,44.357-24.221,68.549-23.857,18.8.282,36.911,6.471,54.619,12.137,16.7,5.344,35.651,11.6,53.405,9.322,21.441-2.751,40.531-15.929,59.733-24.89C-236,5.3-214.9-.931-194.568,7.934c18.606,8.112,31.674,24.549,48.453,35.455,8.4,5.457,18.944,10.356,29.218,9.76,17.007-.988,33.606-12.621,47.654-21.163,22.1-13.437,43.9-27.344,67.471-38.124C26.565-19.1,56.614-26.157,87.838-23.765l-.256,6.5C57.084-19.451,27.735-12.5,0,0" fill="#bf7dbd"/>
        </g>
        <g id="Grupo_843" data-name="Grupo 843" transform="translate(1044.062 -123.838)">
          <path id="Caminho_801" data-name="Caminho 801" d="M0,0C-13.893,7.424-29.7,16.76-45.869,17.481c-10.554.47-21.621-3.647-30.973-8.142-18.885-9.076-35.119-22.873-54.348-31.3-10.035-4.4-21.011-7.384-32.006-7.467-12.693-.095-25.216,3.013-37.2,6.953-22.822,7.5-45.151,20.441-69.26,23.3C-287.5,2.929-306.276-3-323.108-8.264c-17.673-5.524-35.7-11.5-54.412-11.805-23.608-.381-45.619,13.724-66.621,22.68-13.847,5.9-28.353,10.762-43.512,11.374A96.084,96.084,0,0,1-524.7,7.8c-7.444-2.818-14.086-7.1-21.221-10.552A65.462,65.462,0,0,0-564.851-8.4l.054-1.374a70.081,70.081,0,0,1,21.945,6.046c7.041,3.34,13.633,7.465,20.969,10.184a93.509,93.509,0,0,0,36.329,5.776c15.533-.77,30.386-6.153,44.5-12.34,21.1-9.25,43.392-23.41,67.225-22.9,18.481.4,36.3,6.364,53.749,11.856C-303.3-5.866-284.35.285-266.547-1.97c22.933-2.9,43.985-15.7,65.394-23.623,11.688-4.325,23.952-7.926,36.5-8.24a72.729,72.729,0,0,1,31.16,6.691C-114.788-18.789-99.61-4.488-81.591,5.076c9.065,4.811,19.94,9.223,30.4,8.821,17.04-.653,33.88-11.377,48.3-19.428C42.471-30.86,88.419-57.889,142.346-54.206l-.3,7.652C89.5-50.186,44.657-23.865,0,0" fill="#bf7dbd"/>
        </g>
        <g id="Grupo_844" data-name="Grupo 844" transform="translate(1057.792 -110.524)">
          <path id="Caminho_802" data-name="Caminho 802" d="M0,0C-13.373,6.261-28.1,13.559-43.167,14c-11.355.329-23.022-2.871-33.614-6.689-20.586-7.421-39.355-18.916-59.493-27.369-10.971-4.6-22.554-8.945-34.441-10.189-14.765-1.544-29.7.715-44.056,4.122-14.011,3.325-27.683,7.878-41.421,12.155-11.7,3.644-23.662,7.451-35.911,8.7-18.582,1.9-37.556-3.643-55.139-9.024-17.3-5.295-34.781-10.768-53.026-11.309-23.436-.694-44.7,12.748-65.8,21.06-14.509,5.714-29.725,9.758-45.435,9.277A105.309,105.309,0,0,1-549.08-3.5c-7.046-3.03-13.265-7.448-20.054-10.948a52.611,52.611,0,0,0-9.585-3.775l.051-1.279a57.109,57.109,0,0,1,13.035,4.613c6.921,3.485,13.3,7.857,20.5,10.812A102.219,102.219,0,0,0-507.65,3.408c15.259.075,30.013-4.167,44.056-9.83,21.212-8.554,42.912-22.483,66.557-21.895,18.616.463,36.438,6.191,54.068,11.621,16.96,5.224,35.529,10.794,53.47,8.969,12.173-1.238,24.007-5.244,35.54-9.129,13.107-4.416,26.124-9.149,39.5-12.722,13.239-3.538,27.011-6.083,40.768-5.205,11.942.761,23.672,4.741,34.612,9.443C-119.606-16.969-101.976-4.834-82.3,3.122c10.238,4.141,21.812,7.791,32.986,7.4C-33.826,9.971-18.7,1.96-5.113-4.742,37-25.5,79.149-49.064,127.748-45.445l-.322,8.2C81.14-40.911,40.568-18.993,0,0" fill="#bf7dbd"/>
        </g>
        <g id="Grupo_845" data-name="Grupo 845" transform="translate(1070.71 -96.57)">
          <path id="Caminho_803" data-name="Caminho 803" d="M0,0C-12.942,5.005-26.748,10.21-40.839,9.791A157.241,157.241,0,0,1-75,4.724c-22.547-5.745-43.971-15.012-65.527-23.608-12.086-4.82-24.122-10.469-36.995-12.754-16.441-2.919-33.373-1.708-49.761.95-16.271,2.64-32.231,6.818-48.2,10.837C-288.763-16.51-302.282-12.867-316-12c-18.339,1.165-36.642-3.689-54.049-8.888s-34.816-10.41-53.106-11.081c-23.129-.849-43.631,11.989-64.734,19.532-27.746,9.917-58.27,9.526-85.076-3.455-6.475-3.135-12.133-7.526-18.38-11.036-.162-.09-.325-.178-.487-.266l.083-2.116q1.692.738,3.342,1.623c6.556,3.524,12.483,8.033,19.261,11.182,27.048,12.567,57.122,12.013,84.7,1.738,20.854-7.769,41.5-20.694,64.473-19.946,18.4.6,35.917,5.908,53.4,11.174,17.685,5.326,36.443,10.454,55.093,8.888,12.978-1.09,25.721-4.7,38.244-8.094,14.873-4.026,29.716-8.249,44.866-11.131,15.673-2.982,31.9-4.658,47.784-2.375,12.965,1.863,25.236,7.193,37.308,12.093C-122.438-15.7-102.133-5.743-80.49.57c11.2,3.268,22.9,5.673,34.615,5.739,14.13.08,28-5.718,40.826-11.051,38.237-15.9,76.3-35.412,118.973-31.585l-.32,8.147C73.191-32.048,36.659-14.176,0,0" fill="#bf7dbd"/>
        </g>
        <g id="Grupo_846" data-name="Grupo 846" transform="translate(1083.648 -83.353)">
          <path id="Caminho_804" data-name="Caminho 804" d="M0,0C-12.469,3.749-25.38,7.219-38.51,6.66A284.18,284.18,0,0,1-75,2.992a368.262,368.262,0,0,1-70.127-19.825c-13.382-5.188-25.948-12.346-40-15.627-17.9-4.178-36.576-3.914-54.747-1.931C-257.765-32.439-275.4-28.728-292.988-25c-14.445,3.064-29.061,6.552-43.847,7.438-18.644,1.118-37.12-3.4-54.871-8.58-17.488-5.1-34.878-10.131-53.2-10.886-22.381-.923-41.8,11.1-62.393,17.958a113.03,113.03,0,0,1-87.5-7,98.85,98.85,0,0,1-10.274-6.512l.119-3.041a133.836,133.836,0,0,0,13.281,8.342c26.663,13.542,57.953,15.294,86.094,5.788C-484.8-28.5-464.927-40.932-442.3-40.059c18.169.7,35.436,5.648,52.759,10.752,17.663,5.2,36.046,9.919,54.626,8.943,14.356-.754,28.549-4.246,42.528-7.372,17.023-3.807,34.062-7.692,51.377-9.935,17.58-2.276,35.672-2.969,53.13.614,13.952,2.863,26.551,9.561,39.732,14.71,22.265,8.7,45.062,16.437,68.534,21.15A223.718,223.718,0,0,0-43.53,3C-30.09,3.488-16.939-.51-4.314-4.7c33.926-11.252,67.84-26.294,104.421-22.469l-.294,7.49C65.141-23.375,32.535-9.782,0,0" fill="#bf7dbd"/>
        </g>
        <g id="Grupo_847" data-name="Grupo 847" transform="translate(1091.914 -70.17)">
          <path id="Caminho_805" data-name="Caminho 805" d="M0,0C-12.321,2.663-24.781,4.753-37.424,4.151c-12.506-.6-24.953-1.181-37.4-2.622-25.259-2.924-50.8-7.857-74.474-17.353-14.186-5.69-26.744-14.169-41.672-18.138-18.995-5.052-38.98-5.378-58.465-3.789-19.043,1.553-37.857,5.026-56.591,8.673-15.052,2.93-30.231,6.418-45.574,7.378-18.749,1.173-37.348-3.384-55.221-8.516-17.63-5.063-35.286-10.094-53.759-10.592-21.522-.58-40.091,11.576-60.052,17.713-28.883,8.879-61.774,4.195-88.178-10.293-1.69-.927-3.313-1.947-4.9-3.014l.136-3.46a71.293,71.293,0,0,0,6.483,4.04c26.389,14.26,58.849,18.2,87.5,9.26,20.169-6.3,39.071-18.433,60.841-17.813,18.5.526,36.148,5.557,53.8,10.654,17.906,5.17,36.5,9.7,55.294,8.6,15.173-.892,30.187-4.342,45.057-7.288,18.356-3.638,36.777-7.164,55.434-8.843,19.054-1.715,38.6-1.6,57.254,3.1,14.705,3.709,27.327,11.724,41.311,17.234,23.437,9.234,48.375,14.867,73.3,18.2C-64.959-1.061-52.627-.4-40.2.233-27.5.874-15.039-1.556-2.75-4.546,28-12.027,58.911-23.593,91.055-20.356l-.245,6.231C59.89-16.878,29.83-6.448,0,0" fill="#bf7dbd"/>
        </g>
        <g id="Grupo_848" data-name="Grupo 848" transform="translate(1095.255 -58.101)">
          <path id="Caminho_806" data-name="Caminho 806" d="M0,0C-12.547,2.044-25.305,3.864-38.048,3.747c-12.859-.118-25.838-1.23-38.642-2.36-25.165-2.22-51.24-5.639-74.679-15.571A110.713,110.713,0,0,1-166.022-21.8a111.167,111.167,0,0,0-26.59-11.962c-19.836-5.874-40.877-6.58-61.392-5.164-19.387,1.338-38.56,4.67-57.622,8.337-15.437,2.969-30.973,6.667-46.68,7.886-18.093,1.405-36.476-3.458-53.772-8.236-17.212-4.756-34.633-9.772-52.6-10.415C-485.8-42.106-504-29.874-523.592-24a104.007,104.007,0,0,1-47.648,2.615c-14.513-2.479-29.627-6.876-42.655-13.93-1.228-.665-2.421-1.379-3.591-2.123l.173-4.386c1.133.735,2.287,1.442,3.473,2.1,26.728,14.934,60.589,20.866,90.09,11.706,19.773-6.139,37.762-18.469,59.167-17.7,18.054.651,35.34,5.6,52.6,10.511,17.321,4.935,35.555,9.609,53.721,8.373,15.713-1.069,31.272-4.849,46.684-7.88,19.1-3.758,38.313-7.225,57.753-8.669,20.523-1.525,41.609-.913,61.452,5.02,14.908,4.458,27.021,13.653,41.185,19.609,23.478,9.872,49.475,13.631,74.667,15.958C-63.679-1.6-50.776-.869-37.881-.491c12.792.376,25.538-1.437,38.1-3.673,28.65-5.1,57.509-13.7,86.867-12.343l-.181,4.6C57.575-12.076,28.787-4.69,0,0" fill="#bf7dbd"/>
        </g>
        <g id="Grupo_849" data-name="Grupo 849" transform="translate(1087.677 -46.526)">
          <path id="Caminho_807" data-name="Caminho 807" d="M0,0C-12.285.84-24.657,2.03-36.972,2.244-49.232,2.456-61.86.83-74.1-.065c-24.707-1.806-50.11-4.291-73.45-13.124a119.042,119.042,0,0,1-13.972-6.418,129.132,129.132,0,0,0-27.335-10.822c-18.216-4.9-37.248-6.194-56.046-5.734-33,.807-65.169,8.206-97.983,10.6-18.519,1.352-37.565-2.822-55.7-6.228-17.7-3.323-36.068-7.661-54.141-7.884-20.853-.259-40.8,9.039-60.95,13.118a143.387,143.387,0,0,1-46.36,1.751c-9.05-1.133-18.117-2.976-27.013-4.979a87.8,87.8,0,0,1-16.768-5.36,51.62,51.62,0,0,1-6.495-3.545l.121-3.08a53.584,53.584,0,0,0,4.933,2.734c13.175,6.361,28.744,9.533,43.1,11.563a125.249,125.249,0,0,0,47.344-2.259c19.889-4.843,39.474-15.579,60.4-14.8,17.8.659,35.526,5.221,52.814,9.139,17.539,3.975,36.183,8.594,54.264,7.244,15.471-1.156,30.8-4.194,46.1-6.649,18.364-2.947,36.822-5.541,55.419-6.373,19.862-.889,40.07.153,59.3,5.522a119.984,119.984,0,0,1,26.268,10.788,124.341,124.341,0,0,0,14.914,7.2C-122.136-8.489-96.7-5.576-72.015-3.535c12.633,1.044,25.709,2.716,38.388,2.48,12.367-.23,24.79-1.75,37.069-3.118,30.175-3.363,60.274-7.64,90.637-8.939l-.273,6.94C62.511-4.521,31.264-2.137,0,0" fill="#bf7dbd"/>
        </g>
        <g id="Grupo_850" data-name="Grupo 850" transform="translate(1077.015 -34.658)">
          <path id="Caminho_808" data-name="Caminho 808" d="M0,0C-24.93-2.166-50.019-2.423-75.027-3.159c-22.932-.674-46.4-1.442-68.522-8.105-13.322-4.012-25.436-10.968-38.8-14.949C-198.415-31-215.1-33.35-231.809-34.292c-29.407-1.658-58.579,1.742-87.939,2.387-18.3.4-36.825-1.555-55.112-2.442-18.052-.876-36.171-2.419-54.235-2.806-21.91-.47-43.787,4.735-65.541,6.63a255.035,255.035,0,0,1-47.151-.125c-9.426-.927-18.886-2.08-28.277-3.263a77.153,77.153,0,0,1-17.095-3.914,51.923,51.923,0,0,1-12.713-7.1l.059-1.522a51.32,51.32,0,0,0,10.236,5.6,79.71,79.71,0,0,0,16.619,4.338c9.346,1.512,18.833,2.933,28.252,3.924a199.818,199.818,0,0,0,46.776-.7c21.1-2.754,42.383-9.606,63.813-9.1,17.962.426,36.069,3,53.933,4.828,18.126,1.851,36.8,4.749,55.031,3.989,30.921-1.288,61.5-6.293,92.533-5.575,17.561.4,35.18,2.359,52.11,7.181,13.873,3.951,26.2,11.255,39.816,15.752,22.515,7.435,46.612,8.886,70.128,10.022,12.1.585,24.425,1.882,36.529,1.815,12.871-.071,25.687-.266,38.564.089,33.14.914,66.24,2.214,99.381.5L103.567,4.9C68.869,6.442,34.515,3,0,0" fill="#bf7dbd"/>
        </g>
        <g id="Grupo_851" data-name="Grupo 851" transform="translate(478.234 -76.808)">
          <path id="Caminho_809" data-name="Caminho 809" d="M0,0Q-.582-.432-1.167-.842l.005-.148.008.006L-1.162-.99l.011-.26C4.156,3.081,9.555,6.9,16.31,9.15a74.774,74.774,0,0,0,19.122,3.345c9.122.547,18.112,1.226,27.224,2.055,16.055,1.461,32.171,2.026,48.29,1.889,23.079-.2,46.163-2.195,69.246-1.793,18.145.316,36.146-.249,54.263-1.243,18.526-1.017,36.9-1.08,55.438-.661,26.032.588,52.058.3,77.936,3.693a242.06,242.06,0,0,1,44.428,9.846c12.531,4.137,24.134,10.52,37,13.645,21.452,5.213,43.8,4.583,65.712,4.3,11.725-.149,23.4.091,35.114.419,13.26.372,26.282,2.625,39.273,5.181,37.3,7.338,74.089,14.869,112.342,13.866l-.377,9.585c-40.378.617-78.435-9.185-117.194-19.154-13.108-3.371-26.445-6.686-40.026-7.241-11.506-.47-22.979-.3-34.482.162-21.24.846-42.855,2.315-63.833-2.031-12.551-2.6-23.681-8.58-35.682-12.858A270.217,270.217,0,0,0,368.775,21.2a434.549,434.549,0,0,0-127.942-4.741c-18.161,2.068-36.221,3.848-54.526,3.586-23.7-.339-47.413-.217-71.109-1.02Q90.8,18.2,66.462,16.109q-6.564-.573-13.119-1.242c-4.721-.482-9.431-.106-14.17-.242a73.947,73.947,0,0,1-19.7-2.9A48.165,48.165,0,0,1,4.152,3.37c.339.3.678.6,1.017.907q.723.657,1.448,1.3Q7.457,6.272,8.3,7c5.211,4.121,10.725,7.477,17.521,9.272A74.43,74.43,0,0,0,46.8,18.29c4.406-.117,8.79-.705,13.194-.562,4.3.14,8.62.621,12.9.969,16.6,1.346,33.161,3.072,49.718,4.849,24.739,2.655,49.744,6.034,74.66,6.3,18.943.2,37.458-3.937,55.847-7.975,18.078-3.969,36.865-7.727,55.413-5.537a342.933,342.933,0,0,1,62.1,13.581c12.126,3.8,24.066,8.172,35.8,13.048,6.294,2.615,12.442,5.979,18.843,8.282a71.714,71.714,0,0,0,14.432,3.037c19.86,2.689,39.863-.284,59.65-2.169,11.015-1.049,22.305-2.1,33.37-1.31,14.267,1.023,28.163,6.177,41.5,10.989,18.2,6.568,36.267,13.521,54.918,18.76a266.362,266.362,0,0,0,71.476,10.259l-.379,9.66A254.528,254.528,0,0,1,625.3,88.038c-19.335-6.182-37.906-14.323-56.638-22.077C555.241,60.406,541,54.16,526.35,52.975c-10.506-.849-21.427.557-31.84,1.882-19.488,2.481-39.091,6.45-58.817,4.467a67.561,67.561,0,0,1-13.535-2.374c-6.03-1.915-11.875-5.312-17.649-7.923C393.641,44.111,382.72,39.3,371.65,34.852,353,27.358,333.768,20.7,313.836,17.635c-18.062-2.778-37.209,2.6-54.536,7.391C241.326,30,222.946,35.378,204.114,35.28c-25.5-.132-51.229-5.482-76.382-9.155C111.094,23.7,94.413,21.5,77.645,20.192c-4.225-.33-8.491-.733-12.73-.817-4.522-.089-8.979.645-13.491.9-7.594.434-15.352.206-22.753-1.694-7.532-1.933-13.578-5.859-19.3-10.635.229.206.457.412.686.621,7.437,6.794,15.074,12.463,25.123,14.663,7.89,1.727,16.1,1.607,24.1.783,4.653-.479,9.247-1.511,13.926-1.6,4.088-.081,8.234.224,12.31.512,16.96,1.2,33.729,4.26,50.342,7.779,13.9,2.943,27.712,6.253,41.636,9.061,12.1,2.441,24.8,5.17,37.206,5.2,19.083.049,37.554-7.465,55.119-14.033a211.542,211.542,0,0,1,26.339-8.377c9.007-2.08,18.617-3.89,27.741-1.858,17.769,3.957,33.533,13.819,48.935,23.1,9.119,5.494,18.256,10.965,27.705,15.878,4.981,2.59,10.385,5.9,15.816,7.357,4.237,1.135,8.979,1.3,13.343,1.429,18.9.546,37.128-4.981,55.523-8.442,9.838-1.852,20.708-3.913,30.744-2.88C531.25,58.713,546,66.863,559.5,73.637c19.534,9.805,38.9,20.008,59.388,27.735a242.089,242.089,0,0,0,80.7,16.016l-.35,8.9a236.57,236.57,0,0,1-83.708-17.77c-21.072-8.537-40.827-19.78-60.743-30.649-13.485-7.359-28.461-16.491-44.055-18.232-9.817-1.1-20.65,1.235-30.2,3.349-17.856,3.951-35.353,10.292-53.836,10.464-4.315.04-9.051.06-13.269-.945-5.148-1.227-10.341-4.41-14.953-6.969A232.517,232.517,0,0,1,373.3,48.875c-13.785-10.185-27.687-21.7-44.632-26.046-8.978-2.3-18.707-.162-27.534,2.145a192.562,192.562,0,0,0-26.229,9.443c-17.289,7.319-35.726,15.875-54.92,15.823-12.544-.033-25.463-3.3-37.59-6.179-14.147-3.362-28.147-7.306-42.265-10.781-16.513-4.065-33.272-7.614-50.277-8.721a111.262,111.262,0,0,0-12.028-.324c-4.767.209-9.441,1.4-14.173,2-8.227,1.043-16.725,1.377-24.9-.262-10.437-2.092-18.408-7.81-26.122-14.827A62.769,62.769,0,0,0-1.244,1.107L-1.2.089A52.833,52.833,0,0,1,5.081,4.345q-1.354-1.162-2.7-2.377Q1.183,1,0,0" fill="#bf7dbd"/>
        </g>
        <g id="Grupo_852" data-name="Grupo 852" transform="translate(495.043 -60.515)">
          <path id="Caminho_810" data-name="Caminho 810" d="M0,0C8.552,7.625,17.445,13.515,29.031,15.227,46.473,17.8,62.923,10.744,80.24,11.549c16.874.785,33.438,5.159,49.527,10.043,14.365,4.361,28.529,9.358,42.909,13.67,12.062,3.616,25.193,7.751,37.9,7.941,19.624.294,37.964-9.815,54.966-18.349,8.352-4.192,16.828-8.214,25.788-10.946,8.819-2.69,18.809-5.068,27.822-2.255,15.805,4.932,26.544,18.861,37.663,30.249,6.453,6.609,13.321,12.885,21.272,17.658,4.076,2.447,8.983,5.329,13.707,6.227,4.441.843,9.523.488,14,.142,17.5-1.355,33.494-8.808,50.216-13.46,9.372-2.608,20.437-5.376,30.2-4.056,16.027,2.167,31.109,12.664,44.535,20.933,20.411,12.572,40.7,25.448,62.649,35.227a228.076,228.076,0,0,0,88.453,20.219l-.287,7.311a223.289,223.289,0,0,1-90.431-20.986c-22.292-10.279-42.747-23.856-63.269-37.2-13.466-8.757-28.243-19.575-44.474-22.259-9.6-1.587-20.723,1.225-29.9,3.969C436.935,60.569,421.373,68.782,404,70.646a56.089,56.089,0,0,1-13.941.213c-4.62-.689-9.31-3.05-13.292-5.427-7.674-4.582-13.972-11.005-19.7-17.785-10.222-12.093-19.72-27.49-35.642-32.553-8.9-2.831-18.869-.493-27.545,2.283-8.859,2.835-17.171,7.052-25.339,11.448-16.561,8.912-34.406,19.521-53.876,19.349-12.586-.112-25.57-4.466-37.4-8.348-14.335-4.7-28.4-10.188-42.69-15.015C118.488,19.378,101.76,14.32,84.678,13.67c-9.535-.363-17.939,2.1-27.24,3.748-8.417,1.492-17.106,2.246-25.613,1.08-11.879-1.629-21.1-7.6-29.934-15.346-6.433-5.638-12.64-10.389-20.154-13l.092-2.358C-11.494-9.569-5.843-5.21,0,0" fill="#bf7dbd"/>
        </g>
        <g id="Grupo_853" data-name="Grupo 853" transform="translate(476.557 -64.697)">
          <path id="Caminho_811" data-name="Caminho 811" d="M0,0C8.987,2.6,16.1,8.162,23.694,14.5c9.555,7.977,19.719,13.85,32.351,15.053,9.1.867,18.3-.3,27.2-2.211,8.929-1.916,17.308-5.176,26.548-5.117,16.4.106,32.526,5.952,47.611,11.843,14.1,5.506,27.886,11.778,42.016,17.2,11.793,4.529,24.654,9.393,37.456,9.643,19.23.376,35.931-10.163,51.863-19.561,14.73-8.689,33.85-19.226,51.576-14.485,16.866,4.512,25.007,21.584,34.261,34.747,4.989,7.1,10.739,13.928,18.485,18.111,8.46,4.568,17.821,4.675,27.138,3.348,16.879-2.4,31.477-11.312,47.445-16.6,9.368-3.1,20.148-5.458,30.049-4.181,15.933,2.054,30.566,13.941,43.265,22.839,21.053,14.751,42.021,29.753,65.278,40.914A213.444,213.444,0,0,0,699.6,147.46l-.192,4.888a206.532,206.532,0,0,1-96.67-22.1c-22.972-11.517-43.579-26.707-64.328-41.719-12.156-8.795-26.39-20.71-41.948-22.208-9.689-.933-19.835.818-29.024,3.843-16.3,5.366-30.92,14.868-48.153,17.366-9.087,1.317-19.031,1.558-27.465-2.55-7.564-3.685-13.084-10.309-17.75-17.12-9.372-13.68-17.3-31.609-35.092-35.651-18.076-4.108-35.77,4.919-50.728,14-16.081,9.763-32.458,20.227-52.083,19.145-12.322-.679-24.32-5.343-35.6-10.009-13.881-5.739-27.38-12.355-41.225-18.176-14.37-6.042-30.082-12.32-45.931-12.111-8.978.119-17.183,3.748-25.813,5.813-9.605,2.3-19.6,3.773-29.492,2.931-13.006-1.108-23.522-7-33.463-15.074C16.69,12.269,9.24,6.54-.157,3.985Z" fill="#bf7dbd"/>
        </g>
      </g>
      <g id="Grupo_857" data-name="Grupo 857" clip-path="url(#clip-path-4)">
        <g id="Grupo_855" data-name="Grupo 855" transform="translate(1190.549 -41.13)">
          <path id="Caminho_813" data-name="Caminho 813" d="M0,0H-47.662L-73.968-37.73C-84.343-27.183-92.719-35.7-103.1-25.155s-1.994,19.068-12.369,29.616S-134.222,6.492-144.6,17.04c-8.506,8.651-4.414,15.932-8.38,24.089H0Z" fill="#361252"/>
        </g>
        <g id="Grupo_856" data-name="Grupo 856" transform="translate(1190.549 0)">
          <path id="Caminho_814" data-name="Caminho 814" d="M0,0V-145.989c-.906-.034-1.811-.07-2.725-.07-40.1,0-72.608,33.246-72.608,74.258,0,34.45,22.942,63.413,54.051,71.8Z" fill="#9e2a96"/>
        </g>
      </g>
      <g id="Grupo_888" data-name="Grupo 888" clip-path="url(#clip-path-5)">
        <g id="Grupo_862" data-name="Grupo 862" opacity="0.6">
          <g id="Grupo_861" data-name="Grupo 861">
            <g id="Grupo_860" data-name="Grupo 860" clip-path="url(#clip-path-6)">
              <g id="Grupo_859" data-name="Grupo 859" clip-path="url(#clip-path-7)">
                <g id="Grupo_858" data-name="Grupo 858" transform="translate(1187.316 -128.052)">
                  <path id="Caminho_816" data-name="Caminho 816" d="M0,0C-30.908,0-56.054,25.363-56.054,56.538S-30.908,113.076,0,113.076,56.054,87.713,56.054,56.538,30.908,0,0,0Z" fill="none" stroke="#d7b2d7" stroke-width="3.316"/>
                </g>
              </g>
            </g>
          </g>
        </g>
        <g id="Grupo_867" data-name="Grupo 867" opacity="0.6">
          <g id="Grupo_866" data-name="Grupo 866">
            <g id="Grupo_865" data-name="Grupo 865" clip-path="url(#clip-path-8)">
              <g id="Grupo_864" data-name="Grupo 864" clip-path="url(#clip-path-9)">
                <g id="Grupo_863" data-name="Grupo 863" transform="translate(1187.316 -117.388)">
                  <path id="Caminho_818" data-name="Caminho 818" d="M0,0C-25.077,0-45.478,20.579-45.478,45.874S-25.077,91.748,0,91.748,45.478,71.169,45.478,45.874,25.077,0,0,0Z" fill="none" stroke="#d7b2d7" stroke-width="3.316"/>
                </g>
              </g>
            </g>
          </g>
        </g>
        <g id="Grupo_872" data-name="Grupo 872" opacity="0.6">
          <g id="Grupo_871" data-name="Grupo 871">
            <g id="Grupo_870" data-name="Grupo 870" clip-path="url(#clip-path-10)">
              <g id="Grupo_869" data-name="Grupo 869" clip-path="url(#clip-path-11)">
                <g id="Grupo_868" data-name="Grupo 868" transform="translate(1187.316 -106.895)">
                  <path id="Caminho_820" data-name="Caminho 820" d="M0,0A35.383,35.383,0,0,0,0,70.763,35.268,35.268,0,0,0,35.073,35.381,35.268,35.268,0,0,0,0,0Z" fill="none" stroke="#d7b2d7" stroke-width="3.316"/>
                </g>
              </g>
            </g>
          </g>
        </g>
        <g id="Grupo_877" data-name="Grupo 877" opacity="0.6">
          <g id="Grupo_876" data-name="Grupo 876">
            <g id="Grupo_875" data-name="Grupo 875" clip-path="url(#clip-path-12)">
              <g id="Grupo_874" data-name="Grupo 874" clip-path="url(#clip-path-13)">
                <g id="Grupo_873" data-name="Grupo 873" transform="translate(1187.316 -96.403)">
                  <path id="Caminho_822" data-name="Caminho 822" d="M0,0A24.89,24.89,0,0,0,0,49.779,24.808,24.808,0,0,0,24.669,24.89,24.808,24.808,0,0,0,0,0Z" fill="none" stroke="#d7b2d7" stroke-width="3.316"/>
                </g>
              </g>
            </g>
          </g>
        </g>
        <g id="Grupo_882" data-name="Grupo 882" opacity="0.6">
          <g id="Grupo_881" data-name="Grupo 881">
            <g id="Grupo_880" data-name="Grupo 880" clip-path="url(#clip-path-14)">
              <g id="Grupo_879" data-name="Grupo 879" clip-path="url(#clip-path-15)">
                <g id="Grupo_878" data-name="Grupo 878" transform="translate(1187.316 -85.507)">
                  <path id="Caminho_824" data-name="Caminho 824" d="M0,0A13.994,13.994,0,0,0,0,27.987,13.945,13.945,0,0,0,13.864,13.993,13.945,13.945,0,0,0,0,0Z" fill="none" stroke="#d7b2d7" stroke-width="3.316"/>
                </g>
              </g>
            </g>
          </g>
        </g>
        <g id="Grupo_887" data-name="Grupo 887" opacity="0.6">
          <g id="Grupo_886" data-name="Grupo 886">
            <g id="Grupo_885" data-name="Grupo 885" clip-path="url(#clip-path-16)">
              <g id="Grupo_884" data-name="Grupo 884" clip-path="url(#clip-path-17)">
                <g id="Grupo_883" data-name="Grupo 883" transform="translate(1187.316 -75.016)">
                  <path id="Caminho_826" data-name="Caminho 826" d="M0,0A3.5,3.5,0,0,0,0,7,3.485,3.485,0,0,0,3.459,3.5,3.485,3.485,0,0,0,0,0Z" fill="none" stroke="#c892c7" stroke-width="3.316"/>
                </g>
              </g>
            </g>
          </g>
        </g>
      </g>
    </g>
  </g>
</svg>
