<svg xmlns="http://www.w3.org/2000/svg" xmlns:xlink="http://www.w3.org/1999/xlink" width="27.448" height="22.958" viewBox="0 0 27.448 22.958">
  <defs>
    <clipPath id="clip-path">
      <rect id="Retângulo_158" data-name="Retângulo 158" width="27.448" height="22.958" transform="translate(0 0)" fill="none"/>
    </clipPath>
  </defs>
  <g id="cie_tecla_1" transform="translate(0 0)">
    <g id="Grupo_12911" data-name="Grupo 12911">
      <g id="Grupo_12910" data-name="Grupo 12910" clip-path="url(#clip-path)">
        <path id="Caminho_13086" data-name="Caminho 13086" d="M.165-1.19C.18-.305.84.085,1.655.085c.71,0,1.42-.32,1.42-1.12a.945.945,0,0,0-.695-.91C2.2-2,1.405-2.205,1.35-2.22,1.1-2.29.925-2.43.925-2.68c0-.36.365-.465.655-.465.43,0,.74.17.77.63h.625c0-.745-.625-1.14-1.37-1.14C.96-3.655.3-3.32.3-2.605a.906.906,0,0,0,.79.9c.49.135.815.2,1.065.295a.424.424,0,0,1,.295.44c0,.27-.2.54-.755.54C1.2-.425.79-.64.79-1.19Zm3.32.1H4.94v-.54H3.485Zm1.865-.1C5.365-.305,6.025.085,6.84.085c.71,0,1.42-.32,1.42-1.12a.945.945,0,0,0-.7-.91C7.38-2,6.59-2.205,6.535-2.22c-.255-.07-.425-.21-.425-.46,0-.36.365-.465.655-.465.43,0,.74.17.77.63H8.16c0-.745-.625-1.14-1.37-1.14-.645,0-1.3.335-1.3,1.05a.906.906,0,0,0,.79.9c.49.135.815.2,1.065.295a.424.424,0,0,1,.3.44c0,.27-.2.54-.755.54-.5,0-.905-.215-.905-.765Zm3.415-.095A1.294,1.294,0,0,0,10.23.085,1.294,1.294,0,0,0,11.7-1.285V-3.57H11.07v2.08c0,.48-.03,1.035-.84,1.035S9.39-1.01,9.39-1.49V-3.57H8.765ZM12.4,0H13V-2.755h.01L14,0h.515l.99-2.755h.01V0h.6V-3.57h-.87l-.96,2.8h-.01l-.985-2.8H12.4Z" transform="translate(5.563 4.149)" fill="#e23734"/>
      </g>
    </g>
    <path id="Caminho_13051" data-name="Caminho 13051" d="M22.019,2.075V1.784h1.215V5.366h-.281V2.075Z" fill="#0064b3"/>
    <path id="Caminho_13052" data-name="Caminho 13052" d="M4.5,2.073V5.352H4.214V1.784H5.429v.289Z" fill="#0064b3"/>
    <g id="Grupo_12913" data-name="Grupo 12913">
      <g id="Grupo_12912" data-name="Grupo 12912" clip-path="url(#clip-path)">
        <path id="Caminho_13053" data-name="Caminho 13053" d="M27.073,5.942c0-.109-5.427-.187-13.349-.187S.378,5.833.375,5.942L.378,6l.433,16.4c0,.1,5.41.176,12.913.176s12.915-.079,12.915-.176L27.069,6Z" fill="#b9c73a"/>
        <path id="Caminho_13054" data-name="Caminho 13054" d="M27.073,5.942c0-.109-5.427-.187-13.349-.187S.378,5.833.375,5.942L.378,6l.433,16.4c0,.1,5.41.176,12.913.176s12.915-.079,12.915-.176L27.069,6Z" fill="none" stroke="#669d3e" stroke-miterlimit="10" stroke-width="0.75"/>
        <path id="Caminho_13055" data-name="Caminho 13055" d="M25.445,7.194c0-.086-4.635-.154-11.584-.154s-11.586.068-11.589.154l0,.053.38,13.619c0,.082,4.621.146,11.206.146s11.2-.064,11.2-.146l.377-13.619Z" fill="#b9c73a"/>
        <path id="Caminho_13056" data-name="Caminho 13056" d="M25.445,7.194c0-.086-4.635-.154-11.584-.154s-11.586.068-11.589.154l0,.053.38,13.619c0,.082,4.621.146,11.206.146s11.2-.064,11.2-.146l.377-13.619Z" fill="none" stroke="#669d3e" stroke-miterlimit="10" stroke-width="0.75"/>
      </g>
    </g>
    <path id="Caminho_13085" data-name="Caminho 13085" d="M4.272-8.508h-.78c-.228,1.284-1.284,1.6-2.448,1.6V-6.1H3.252V0h1.02Z" transform="translate(10.389 19.016)" fill="#161615"/>
  </g>
</svg>
