<svg xmlns="http://www.w3.org/2000/svg" xmlns:xlink="http://www.w3.org/1999/xlink" width="27.448" height="22.186" viewBox="0 0 27.448 22.186">
  <defs>
    <clipPath id="clip-path">
      <rect id="Retângulo_194" data-name="Retângulo 194" width="27.448" height="22.186" transform="translate(0 0.001)" fill="none"/>
    </clipPath>
  </defs>
  <g id="cie_tecla_exp" transform="translate(0 0)">
    <g id="Grupo_12978" data-name="Grupo 12978">
      <g id="Grupo_12977" data-name="Grupo 12977" clip-path="url(#clip-path)">
        <path id="Caminho_13189" data-name="Caminho 13189" d="M27.073,5.171c0-.109-5.426-.187-13.349-.187S.379,5.062.376,5.171l0,.061.432,16.4c0,.1,5.41.176,12.913.176s12.916-.079,12.916-.176l.43-16.4Z" fill="#b9c73a"/>
        <path id="Caminho_13190" data-name="Caminho 13190" d="M27.073,5.171c0-.109-5.426-.187-13.349-.187S.379,5.062.376,5.171l0,.061.432,16.4c0,.1,5.41.176,12.913.176s12.916-.079,12.916-.176l.43-16.4Z" fill="none" stroke="#669d3e" stroke-miterlimit="10" stroke-width="0.75"/>
        <path id="Caminho_13191" data-name="Caminho 13191" d="M25.446,6.423c0-.086-4.635-.154-11.584-.154s-11.586.068-11.589.154l0,.053.38,13.619c0,.082,4.621.146,11.206.146s11.2-.064,11.2-.146l.377-13.619Z" fill="#b9c73a"/>
        <path id="Caminho_13192" data-name="Caminho 13192" d="M25.446,6.423c0-.086-4.635-.154-11.584-.154s-11.586.068-11.589.154l0,.053.38,13.619c0,.082,4.621.146,11.206.146s11.2-.064,11.2-.146l.377-13.619Z" fill="none" stroke="#669d3e" stroke-miterlimit="10" stroke-width="0.75"/>
      </g>
    </g>
    <path id="Caminho_13468" data-name="Caminho 13468" d="M.936,0H6.888V-.96H2.076V-3.924H6.528v-.96H2.076V-7.608H6.852v-.96H.936ZM7.32,0H8.6L10.98-3.54,13.284,0h1.392L11.664-4.4,14.5-8.568H13.224L10.992-5.22,8.856-8.568H7.488L10.308-4.4ZM15.6,0h1.14V-3.5h2.616a2.34,2.34,0,0,0,2.628-2.532,2.346,2.346,0,0,0-2.628-2.532H15.6Zm1.14-7.608h2.232c1.284,0,1.872.552,1.872,1.572s-.588,1.584-1.872,1.572H16.74Z" transform="translate(2.504 18.248)" fill="#161615"/>
    <g id="Grupo_12980" data-name="Grupo 12980">
      <g id="Grupo_12979" data-name="Grupo 12979" clip-path="url(#clip-path)">
        <path id="Caminho_13193" data-name="Caminho 13193" d="M15.5,0V.516h-.863a10.293,10.293,0,0,0-.127,1.566.838.838,0,0,0,.129.526.393.393,0,0,0,.32.16.381.381,0,0,0,.27-.108.516.516,0,0,0,.144-.311H15.5a1.438,1.438,0,0,1-.27.8.621.621,0,0,1-.47.23.555.555,0,0,1-.464-.252,1.724,1.724,0,0,1-.185-.946q0-.435.135-1.662h-.927a12.981,12.981,0,0,1-.266,2.366c-.1.33-.25.494-.432.494A.284.284,0,0,1,12.4,3.29a.3.3,0,0,1-.082-.214.407.407,0,0,1,.028-.159,1.489,1.489,0,0,1,.167-.262,1.744,1.744,0,0,0,.3-.606,7.056,7.056,0,0,0,.2-1.533h-.164A.7.7,0,0,0,12.467.6a1.167,1.167,0,0,0-.378.427h-.138a1.918,1.918,0,0,1,.466-.851A.84.84,0,0,1,12.987,0Z" fill="#e23734"/>
      </g>
    </g>
  </g>
</svg>
