<svg xmlns="http://www.w3.org/2000/svg" xmlns:xlink="http://www.w3.org/1999/xlink" width="22.923" height="13.753" viewBox="0 0 22.923 13.753">
  <defs>
    <clipPath id="clip-path">
      <rect id="Retângulo_214" data-name="Retângulo 214" width="22.923" height="13.753" transform="translate(0 0)" fill="none"/>
    </clipPath>
  </defs>
  <g id="cie_tecla_m_mais_2" transform="translate(0 0)">
    <g id="Grupo_13017" data-name="Grupo 13017">
      <g id="Grupo_13016" data-name="Grupo 13016" clip-path="url(#clip-path)">
        <path id="Caminho_13253" data-name="Caminho 13253" d="M22.548.519c0-.084-4.965-.145-11.086-.145S.378.435.375.519l0,.047L.712,13.241c0,.076,4.952.136,10.75.136s10.752-.06,10.752-.136L22.546.566Z" fill="#fff286"/>
        <path id="Caminho_13254" data-name="Caminho 13254" d="M22.548.519c0-.084-4.965-.145-11.086-.145S.378.435.375.519l0,.047L.712,13.241c0,.076,4.952.136,10.75.136s10.752-.06,10.752-.136L22.546.566Z" fill="none" stroke="#f58a2c" stroke-miterlimit="10" stroke-width="0.75"/>
        <path id="Caminho_13255" data-name="Caminho 13255" d="M21.291,1.487c0-.066-4.354-.12-9.723-.12s-9.724.054-9.726.12l0,.041L2.137,12.05c0,.065,4.343.115,9.431.115S21,12.115,21,12.05l.291-10.522Z" fill="#fff6ad"/>
        <path id="Caminho_13256" data-name="Caminho 13256" d="M21.291,1.487c0-.066-4.354-.12-9.723-.12s-9.724.054-9.726.12l0,.041L2.137,12.05c0,.065,4.343.115,9.431.115S21,12.115,21,12.05l.291-10.522Z" fill="none" stroke="#f58a2c" stroke-miterlimit="10" stroke-width="0.75"/>
      </g>
    </g>
    <path id="Caminho_13438" data-name="Caminho 13438" d="M.72,0h.81V-5.346h.018L3.555,0h.729L6.291-5.346h.018V0h.81V-6.426H5.949l-2.034,5.4L1.89-6.426H.72ZM10.845-4.554h-.612v1.971H8.271v.612h1.962V0h.612V-1.971h1.962v-.612H10.845Z" transform="translate(4.738 9.935)" fill="#161615"/>
  </g>
</svg>
