<svg id="cie_tecla_tangente_2" xmlns="http://www.w3.org/2000/svg" xmlns:xlink="http://www.w3.org/1999/xlink" width="22.923" height="13.753" viewBox="0 0 22.923 13.753">
  <defs>
    <clipPath id="clip-path">
      <rect id="Retângulo_239" data-name="Retângulo 239" width="22.923" height="13.753" transform="translate(0 0)" fill="none"/>
    </clipPath>
  </defs>
  <g id="Grupo_13060" data-name="Grupo 13060">
    <g id="Grupo_13059" data-name="Grupo 13059" clip-path="url(#clip-path)">
      <path id="Caminho_13347" data-name="Caminho 13347" d="M22.548.52c0-.084-4.965-.145-11.086-.145S.378.436.375.52l0,.047L.712,13.242c0,.076,4.952.136,10.75.136s10.752-.06,10.752-.136L22.546.567Z" fill="#fff286"/>
      <path id="Caminho_13348" data-name="Caminho 13348" d="M22.548.52c0-.084-4.965-.145-11.086-.145S.378.436.375.52l0,.047L.712,13.242c0,.076,4.952.136,10.75.136s10.752-.06,10.752-.136L22.546.567Z" fill="none" stroke="#f58a2c" stroke-miterlimit="10" stroke-width="0.75"/>
      <path id="Caminho_13349" data-name="Caminho 13349" d="M21.291,1.487c0-.066-4.354-.12-9.723-.12s-9.724.054-9.726.12l0,.041.293,10.523c0,.064,4.343.114,9.431.114s9.43-.05,9.43-.114l.291-10.523Z" fill="#fff6ad"/>
      <path id="Caminho_13350" data-name="Caminho 13350" d="M21.291,1.487c0-.066-4.354-.12-9.723-.12s-9.724.054-9.726.12l0,.041.293,10.523c0,.064,4.343.114,9.431.114s9.43-.05,9.43-.114l.291-10.523Z" fill="none" stroke="#f58a2c" stroke-miterlimit="10" stroke-width="0.75"/>
    </g>
  </g>
  <path id="Caminho_13403" data-name="Caminho 13403" d="M1.638-6.048H.873v1.395H.081v.675H.873v2.961C.873-.162,1.188,0,1.98,0h.585V-.675H2.214c-.477,0-.576-.063-.576-.414V-3.978h.927v-.675H1.638ZM6.291-1.62c0,.423-.414,1.053-1.422,1.053-.468,0-.9-.18-.9-.684,0-.567.432-.747.936-.837A3.94,3.94,0,0,0,6.291-2.4ZM7.533-.612A.657.657,0,0,1,7.3-.567c-.243,0-.243-.162-.243-.522V-3.483c0-1.089-.909-1.278-1.746-1.278-1.035,0-1.926.405-1.971,1.557H4.1c.036-.684.513-.882,1.161-.882.486,0,1.035.108,1.035.774,0,.576-.72.522-1.566.684-.792.153-1.575.378-1.575,1.431C3.159-.27,3.852.108,4.7.108a2.065,2.065,0,0,0,1.638-.72c0,.5.252.72.648.72a1.032,1.032,0,0,0,.549-.126ZM8.244,0h.765V-2.628a1.308,1.308,0,0,1,1.377-1.458.877.877,0,0,1,.945.936V0H12.1V-3.06c0-1-.378-1.7-1.6-1.7a1.62,1.62,0,0,0-1.512.846H8.964v-.738h-.72Z" transform="translate(5.022 9.852)" fill="#161615"/>
</svg>
