<svg xmlns="http://www.w3.org/2000/svg" xmlns:xlink="http://www.w3.org/1999/xlink" width="27.448" height="23.3" viewBox="0 0 27.448 23.3">
  <defs>
    <clipPath id="clip-path">
      <rect id="Retângulo_179" data-name="Retângulo 179" width="27.448" height="23.3" transform="translate(0 0)" fill="none"/>
    </clipPath>
  </defs>
  <g id="cie_tecla_ans" transform="translate(0 0)">
    <g id="Grupo_12953" data-name="Grupo 12953">
      <g id="Grupo_12952" data-name="Grupo 12952" clip-path="url(#clip-path)">
        <path id="Caminho_13138" data-name="Caminho 13138" d="M27.073,6.284c0-.109-5.427-.187-13.349-.187S.378,6.175.375,6.284l0,.061.433,16.4c0,.1,5.41.176,12.913.176s12.915-.079,12.915-.176l.43-16.4Z" fill="#b9c73a"/>
        <path id="Caminho_13139" data-name="Caminho 13139" d="M27.073,6.284c0-.109-5.427-.187-13.349-.187S.378,6.175.375,6.284l0,.061.433,16.4c0,.1,5.41.176,12.913.176s12.915-.079,12.915-.176l.43-16.4Z" fill="none" stroke="#669d3e" stroke-miterlimit="10" stroke-width="0.75"/>
        <path id="Caminho_13140" data-name="Caminho 13140" d="M25.445,7.536c0-.086-4.635-.154-11.584-.154S2.275,7.45,2.272,7.536l0,.053.38,13.619c0,.082,4.621.146,11.206.146s11.2-.064,11.2-.146l.377-13.619Z" fill="#b9c73a"/>
        <path id="Caminho_13141" data-name="Caminho 13141" d="M25.445,7.536c0-.086-4.635-.154-11.584-.154S2.275,7.45,2.272,7.536l0,.053.38,13.619c0,.082,4.621.146,11.206.146s11.2-.064,11.2-.146l.377-13.619Z" fill="none" stroke="#669d3e" stroke-miterlimit="10" stroke-width="0.75"/>
      </g>
    </g>
    <path id="Caminho_13481" data-name="Caminho 13481" d="M-.084,0H1.092l.96-2.58H5.676L6.612,0h1.26L4.524-8.568H3.264ZM3.864-7.536h.024l1.428,4h-2.9ZM8.544,0h1.02V-3.5A1.744,1.744,0,0,1,11.4-5.448,1.169,1.169,0,0,1,12.66-4.2V0h1.02V-4.08c0-1.332-.5-2.268-2.136-2.268A2.16,2.16,0,0,0,9.528-5.22H9.5V-6.2h-.96ZM14.82-1.956c.06,1.536,1.236,2.1,2.628,2.1,1.26,0,2.64-.48,2.64-1.956,0-1.2-1.008-1.536-2.028-1.764-.948-.228-2.028-.348-2.028-1.08,0-.624.708-.792,1.32-.792.672,0,1.368.252,1.44,1.044h1.02c-.084-1.512-1.176-1.944-2.544-1.944-1.08,0-2.316.516-2.316,1.764,0,1.188,1.02,1.524,2.028,1.752s2.028.36,2.028,1.152-.864.924-1.5.924c-.84,0-1.632-.288-1.668-1.2Z" transform="translate(3.542 19.445)" fill="#161615"/>
    <g id="Grupo_12955" data-name="Grupo 12955">
      <g id="Grupo_12954" data-name="Grupo 12954" clip-path="url(#clip-path)">
        <path id="Caminho_13482" data-name="Caminho 13482" d="M1-3.06H1.62c.98,0,1.19.56,1.19,1.275S2.6-.51,1.62-.51H1ZM.38,0H1.86c1.1,0,1.575-.8,1.575-1.785S2.96-3.57,1.86-3.57H.38ZM4.615-3.06H5.63c.325,0,.62.09.62.545,0,.375-.215.57-.61.57H4.615ZM3.99,0h.625V-1.47h.92c.575,0,.71.29.71.945A1,1,0,0,0,6.34,0h.67a1.624,1.624,0,0,1-.2-.94c0-.565-.315-.725-.53-.755v-.01a.867.867,0,0,0,.59-.9c0-.605-.4-.965-1.18-.965H3.99Zm6.635-1.88H9.105v.475h.95a.907.907,0,0,1-1,.98C8.29-.425,7.97-1.1,7.97-1.785s.32-1.36,1.085-1.36a.852.852,0,0,1,.92.71h.61a1.406,1.406,0,0,0-1.53-1.22,1.725,1.725,0,0,0-1.71,1.87A1.725,1.725,0,0,0,9.055.085,1.287,1.287,0,0,0,10.13-.42l.1.42h.4Z" transform="translate(6.678 4.15)" fill="#e23734"/>
        <path id="Caminho_13142" data-name="Caminho 13142" d="M18.344,3.906l0-2.8,2.424,1.4Z" fill="#e23734"/>
      </g>
    </g>
  </g>
</svg>
