<svg xmlns="http://www.w3.org/2000/svg" xmlns:xlink="http://www.w3.org/1999/xlink" width="27.448" height="17.578" viewBox="0 0 27.448 17.578">
  <defs>
    <clipPath id="clip-path">
      <rect id="Retângulo_181" data-name="Retângulo 181" width="27.448" height="17.578" transform="translate(0 0)" fill="none"/>
    </clipPath>
  </defs>
  <g id="cie_tecla_ans_2" transform="translate(0 0)">
    <g id="Grupo_12957" data-name="Grupo 12957">
      <g id="Grupo_12956" data-name="Grupo 12956" clip-path="url(#clip-path)">
        <path id="Caminho_13143" data-name="Caminho 13143" d="M27.073.562c0-.109-5.427-.187-13.349-.187S.378.453.375.562l0,.061.433,16.4c0,.1,5.41.176,12.913.176s12.915-.079,12.915-.176l.43-16.4Z" fill="#b9c73a"/>
        <path id="Caminho_13144" data-name="Caminho 13144" d="M27.073.562c0-.109-5.427-.187-13.349-.187S.378.453.375.562l0,.061.433,16.4c0,.1,5.41.176,12.913.176s12.915-.079,12.915-.176l.43-16.4Z" fill="none" stroke="#669d3e" stroke-miterlimit="10" stroke-width="0.75"/>
        <path id="Caminho_13145" data-name="Caminho 13145" d="M25.445,1.814c0-.086-4.635-.154-11.584-.154s-11.586.068-11.589.154l0,.053.38,13.619c0,.082,4.621.146,11.206.146s11.2-.064,11.2-.146l.377-13.619Z" fill="#b9c73a"/>
        <path id="Caminho_13146" data-name="Caminho 13146" d="M25.445,1.814c0-.086-4.635-.154-11.584-.154s-11.586.068-11.589.154l0,.053.38,13.619c0,.082,4.621.146,11.206.146s11.2-.064,11.2-.146l.377-13.619Z" fill="none" stroke="#669d3e" stroke-miterlimit="10" stroke-width="0.75"/>
      </g>
    </g>
    <path id="Caminho_13480" data-name="Caminho 13480" d="M-.084,0H1.092l.96-2.58H5.676L6.612,0h1.26L4.524-8.568H3.264ZM3.864-7.536h.024l1.428,4h-2.9ZM8.544,0h1.02V-3.5A1.744,1.744,0,0,1,11.4-5.448,1.169,1.169,0,0,1,12.66-4.2V0h1.02V-4.08c0-1.332-.5-2.268-2.136-2.268A2.16,2.16,0,0,0,9.528-5.22H9.5V-6.2h-.96ZM14.82-1.956c.06,1.536,1.236,2.1,2.628,2.1,1.26,0,2.64-.48,2.64-1.956,0-1.2-1.008-1.536-2.028-1.764-.948-.228-2.028-.348-2.028-1.08,0-.624.708-.792,1.32-.792.672,0,1.368.252,1.44,1.044h1.02c-.084-1.512-1.176-1.944-2.544-1.944-1.08,0-2.316.516-2.316,1.764,0,1.188,1.02,1.524,2.028,1.752s2.028.36,2.028,1.152-.864.924-1.5.924c-.84,0-1.632-.288-1.668-1.2Z" transform="translate(3.542 13.723)" fill="#161615"/>
  </g>
</svg>
