<svg xmlns="http://www.w3.org/2000/svg" xmlns:xlink="http://www.w3.org/1999/xlink" width="22.923" height="13.753" viewBox="0 0 22.923 13.753">
  <defs>
    <clipPath id="clip-path">
      <rect id="Retângulo_230" data-name="Retângulo 230" width="22.923" height="13.753" transform="translate(0 0)" fill="none"/>
    </clipPath>
  </defs>
  <g id="cie_tecla_rcl_2" transform="translate(0 0)">
    <g id="Grupo_13044" data-name="Grupo 13044">
      <g id="Grupo_13043" data-name="Grupo 13043" clip-path="url(#clip-path)">
        <path id="Caminho_13311" data-name="Caminho 13311" d="M22.548.519c0-.084-4.965-.145-11.086-.145S.378.435.375.519l0,.047L.712,13.241c0,.076,4.952.136,10.75.136s10.752-.06,10.752-.136L22.546.566Z" fill="#fff286"/>
        <path id="Caminho_13312" data-name="Caminho 13312" d="M22.548.519c0-.084-4.965-.145-11.086-.145S.378.435.375.519l0,.047L.712,13.241c0,.076,4.952.136,10.75.136s10.752-.06,10.752-.136L22.546.566Z" fill="none" stroke="#f58a2c" stroke-miterlimit="10" stroke-width="0.75"/>
        <path id="Caminho_13313" data-name="Caminho 13313" d="M21.291,1.487c0-.066-4.354-.12-9.723-.12s-9.724.054-9.726.12l0,.041L2.137,12.05c0,.065,4.343.115,9.431.115S21,12.115,21,12.05l.291-10.522Z" fill="#fff6ad"/>
        <path id="Caminho_13314" data-name="Caminho 13314" d="M21.291,1.487c0-.066-4.354-.12-9.723-.12s-9.724.054-9.726.12l0,.041L2.137,12.05c0,.065,4.343.115,9.431.115S21,12.115,21,12.05l.291-10.522Z" fill="none" stroke="#f58a2c" stroke-miterlimit="10" stroke-width="0.75"/>
      </g>
    </g>
    <path id="Caminho_13415" data-name="Caminho 13415" d="M1.557-3.465V-5.706H3.681a1.017,1.017,0,0,1,1.143,1.1c0,.936-.684,1.143-1.485,1.143ZM.7,0h.855V-2.745H3.645c.828,0,.981.531,1.071,1.161C4.842-.954,4.707-.261,4.95,0H5.9a3.29,3.29,0,0,1-.378-1.773C5.463-2.4,5.31-2.952,4.563-3.1v-.018A1.541,1.541,0,0,0,5.679-4.743c0-1.026-.747-1.683-1.953-1.683H.7ZM12.24-4.491A2.459,2.459,0,0,0,9.594-6.579c-1.98,0-3.042,1.521-3.042,3.384S7.524.153,9.522.153A2.616,2.616,0,0,0,12.3-2.421h-.855A1.818,1.818,0,0,1,9.594-.567c-1.539,0-2.187-1.224-2.187-2.691,0-1.341.648-2.6,2.178-2.6a1.693,1.693,0,0,1,1.8,1.368ZM13.365,0h4.257V-.72h-3.4V-6.426h-.855Z" transform="translate(2.629 9.936)" fill="#161615"/>
  </g>
</svg>
