<svg xmlns="http://www.w3.org/2000/svg" xmlns:xlink="http://www.w3.org/1999/xlink" width="33.931" height="17.83" viewBox="0 0 33.931 17.83">
  <defs>
    <clipPath id="clip-path">
      <rect id="Retângulo_215" data-name="Retângulo 215" width="33.931" height="17.83" transform="translate(0 0)" fill="none"/>
    </clipPath>
  </defs>
  <g id="cie_tecla_mode_clr" transform="translate(0 0)">
    <g id="Grupo_13018" data-name="Grupo 13018" clip-path="url(#clip-path)">
      <path id="Caminho_13257" data-name="Caminho 13257" d="M22.526,12.956a4.5,4.5,0,1,0-4.5,4.5,4.5,4.5,0,0,0,4.5-4.5" fill="#b9c73a"/>
      <path id="Caminho_13258" data-name="Caminho 13258" d="M22.526,12.956a4.5,4.5,0,1,0-4.5,4.5A4.5,4.5,0,0,0,22.526,12.956Z" fill="none" stroke="#669d3e" stroke-miterlimit="10" stroke-width="0.75"/>
      <path id="Caminho_13436" data-name="Caminho 13436" d="M.511,0h.575V-3.8H1.1L2.524,0h.518L4.467-3.8h.013V0h.575V-4.563H4.224L2.78-.728,1.342-4.563H.511Zm5.3-2.281A2.19,2.19,0,0,0,7.994.109a2.19,2.19,0,0,0,2.185-2.39,2.19,2.19,0,0,0-2.185-2.39A2.19,2.19,0,0,0,5.809-2.281Zm.607,0c0-.92.466-1.879,1.578-1.879S9.572-3.2,9.572-2.281,9.106-.4,7.994-.4,6.416-1.361,6.416-2.281ZM10.921,0h1.566c1.521,0,2.192-.863,2.192-2.39a1.942,1.942,0,0,0-2.192-2.173H10.921Zm.607-4.051H12.55c1.118,0,1.521.658,1.521,1.744,0,1.681-1.118,1.8-1.534,1.8h-1.01ZM15.419,0h3.169V-.511H16.026V-2.09H18.4V-2.6H16.026V-4.051H18.57v-.511h-3.15Z" transform="translate(0 5.303)" fill="#161615"/>
      <path id="Caminho_13437" data-name="Caminho 13437" d="M4.364-3.112A1.781,1.781,0,0,0,2.428-4.671,2.2,2.2,0,0,0,.243-2.281,2.2,2.2,0,0,0,2.428.109,1.869,1.869,0,0,0,4.371-1.738h-.78A1.174,1.174,0,0,1,2.428-.543c-.978,0-1.387-.863-1.387-1.738s.409-1.738,1.387-1.738a1.091,1.091,0,0,1,1.137.907ZM5.1,0H8.218V-.69H5.9V-4.563H5.1ZM9.566-3.911h1.3c.415,0,.792.115.792.7,0,.479-.275.728-.78.728H9.566ZM8.767,0h.8V-1.879h1.176c.735,0,.907.371.907,1.208A1.273,1.273,0,0,0,11.771,0h.856a2.075,2.075,0,0,1-.249-1.2c0-.722-.4-.927-.677-.965v-.013a1.108,1.108,0,0,0,.754-1.15c0-.773-.511-1.233-1.508-1.233H8.767Z" transform="translate(21.151 5.303)" fill="#e23734"/>
      <path id="Caminho_13259" data-name="Caminho 13259" d="M21.03,12.956a3,3,0,1,0-3,3,3,3,0,0,0,3-3" fill="#bbc400"/>
      <path id="Caminho_13260" data-name="Caminho 13260" d="M21.03,12.956a3,3,0,1,0-3,3A3,3,0,0,0,21.03,12.956Z" fill="none" stroke="#669d3e" stroke-miterlimit="10" stroke-width="0.75"/>
    </g>
  </g>
</svg>
