<svg xmlns="http://www.w3.org/2000/svg" xmlns:xlink="http://www.w3.org/1999/xlink" width="22.922" height="13.753" viewBox="0 0 22.922 13.753">
  <defs>
    <clipPath id="clip-path">
      <rect id="Retângulo_228" data-name="Retângulo 228" width="22.922" height="13.753" transform="translate(0 0)" fill="none"/>
    </clipPath>
  </defs>
  <g id="cie_tecla_raiz_quadrada" transform="translate(0 0)">
    <g id="Grupo_13040" data-name="Grupo 13040" clip-path="url(#clip-path)">
      <path id="Caminho_13302" data-name="Caminho 13302" d="M22.547.519c0-.084-4.965-.145-11.086-.145S.377.435.375.519l0,.047L.711,13.241c0,.076,4.953.136,10.75.136s10.752-.06,10.752-.136L22.545.566Z" fill="#fff286"/>
      <path id="Caminho_13303" data-name="Caminho 13303" d="M22.547.519c0-.084-4.965-.145-11.086-.145S.377.435.375.519l0,.047L.711,13.241c0,.076,4.953.136,10.75.136s10.752-.06,10.752-.136L22.545.566Z" fill="none" stroke="#f58a2c" stroke-miterlimit="10" stroke-width="0.75"/>
      <path id="Caminho_13304" data-name="Caminho 13304" d="M21.291,1.487c0-.066-4.354-.12-9.723-.12s-9.724.054-9.726.12l0,.041L2.137,12.05c0,.065,4.343.115,9.431.115S21,12.115,21,12.05l.291-10.522Z" fill="#fff6ad"/>
      <path id="Caminho_13305" data-name="Caminho 13305" d="M21.291,1.487c0-.066-4.354-.12-9.723-.12s-9.724.054-9.726.12l0,.041L2.137,12.05c0,.065,4.343.115,9.431.115S21,12.115,21,12.05l.291-10.522Z" fill="none" stroke="#f58a2c" stroke-miterlimit="10" stroke-width="0.75"/>
      <path id="Caminho_13306" data-name="Caminho 13306" d="M16.617,3.232h-6.1L8.742,9.427l-.277-.736-.27-.654L7.912,7.4,7.6,6.734l-1.474.475.191.6.811-.254.636,1.438c.2.484.407.984.6,1.5h.764l1.918-6.543h5.566Z" fill="#161615"/>
    </g>
  </g>
</svg>
