<svg xmlns="http://www.w3.org/2000/svg" xmlns:xlink="http://www.w3.org/1999/xlink" width="22.923" height="13.753" viewBox="0 0 22.923 13.753">
  <defs>
    <clipPath id="clip-path">
      <rect id="Retângulo_244" data-name="Retângulo 244" width="22.923" height="13.753" transform="translate(0 0)" fill="none"/>
    </clipPath>
  </defs>
  <g id="cie_tecla_x_elevado_3_2" transform="translate(0 0)">
    <g id="Grupo_13065" data-name="Grupo 13065" clip-path="url(#clip-path)">
      <path id="Caminho_13372" data-name="Caminho 13372" d="M22.548.519c0-.084-4.965-.145-11.086-.145S.378.435.375.519l0,.047L.712,13.241c0,.076,4.952.136,10.75.136s10.752-.06,10.752-.136L22.546.566Z" fill="#fff286"/>
      <path id="Caminho_13373" data-name="Caminho 13373" d="M22.548.519c0-.084-4.965-.145-11.086-.145S.378.435.375.519l0,.047L.712,13.241c0,.076,4.952.136,10.75.136s10.752-.06,10.752-.136L22.546.566Z" fill="none" stroke="#f58a2c" stroke-miterlimit="10" stroke-width="0.75"/>
      <path id="Caminho_13374" data-name="Caminho 13374" d="M21.291,1.487c0-.066-4.354-.12-9.723-.12s-9.724.054-9.726.12l0,.041L2.137,12.05c0,.065,4.343.115,9.431.115S21,12.115,21,12.05l.291-10.522Z" fill="#fff6ad"/>
      <path id="Caminho_13375" data-name="Caminho 13375" d="M21.291,1.487c0-.066-4.354-.12-9.723-.12s-9.724.054-9.726.12l0,.041L2.137,12.05c0,.065,4.343.115,9.431.115S21,12.115,21,12.05l.291-10.522Z" fill="none" stroke="#f58a2c" stroke-miterlimit="10" stroke-width="0.75"/>
      <path id="Caminho_13376" data-name="Caminho 13376" d="M8.94,5.919c-.132-.011-.572.4-.9,1.134-.044.1-.144.109-.176.021a.957.957,0,0,1,.065-.593,1.511,1.511,0,0,1,1.4-.991c.341.067.484.285.583.77.054.264.11.594.154.946a10.352,10.352,0,0,0,1.65-1.617c.11-.144.22-.153.22.022a1.8,1.8,0,0,1-.594,1.112,11.468,11.468,0,0,1-1.2,1.045c.077.462.132.912.187,1.2.088.439.22.594.352.6.407.023.88-.78,1.2-1.452.043-.1.131-.109.165-.021a.9.9,0,0,1-.1.693,1.885,1.885,0,0,1-1.451,1.154c-.584,0-.892-.34-1.024-1.254-.011-.066-.022-.187-.045-.318A10.851,10.851,0,0,0,7.906,9.879c-.088.1-.276.154-.253-.032A2.016,2.016,0,0,1,8.313,8.7a10.24,10.24,0,0,1,1.034-.913,6.832,6.832,0,0,0-.407-1.87" fill="#161615"/>
      <path id="Caminho_13377" data-name="Caminho 13377" d="M13.594,4.743c.065.006.126.006.186.006a.6.6,0,0,0,.675-.581.564.564,0,0,0-.631-.571c-.465,0-.665.355-.67.771h-.426a1.052,1.052,0,0,1,1.1-1.147c.617,0,1.081.3,1.081.952a.815.815,0,0,1-.49.706v.009a.81.81,0,0,1,.641.861,1.094,1.094,0,0,1-1.222,1.082,1.072,1.072,0,0,1-1.18-1.156h.425a.721.721,0,0,0,.755.78.706.706,0,0,0,.771-.686.678.678,0,0,0-.756-.68,2.13,2.13,0,0,0-.255.015Z" fill="#161615"/>
    </g>
  </g>
</svg>
