<svg id="cie_tecla_cosseno_2" xmlns="http://www.w3.org/2000/svg" xmlns:xlink="http://www.w3.org/1999/xlink" width="22.925" height="13.753" viewBox="0 0 22.925 13.753">
  <defs>
    <clipPath id="clip-path">
      <rect id="Retângulo_184" data-name="Retângulo 184" width="22.925" height="13.753" transform="translate(0 0)" fill="none"/>
    </clipPath>
  </defs>
  <g id="Grupo_12963" data-name="Grupo 12963">
    <g id="Grupo_12962" data-name="Grupo 12962" clip-path="url(#clip-path)">
      <path id="Caminho_13151" data-name="Caminho 13151" d="M22.549.52c0-.084-4.965-.145-11.086-.145S.379.436.375.52l0,.047L.713,13.242c0,.076,4.951.136,10.75.136s10.752-.06,10.752-.136L22.547.567Z" fill="#fff286"/>
      <path id="Caminho_13152" data-name="Caminho 13152" d="M22.549.52c0-.084-4.965-.145-11.086-.145S.379.436.375.52l0,.047L.713,13.242c0,.076,4.951.136,10.75.136s10.752-.06,10.752-.136L22.547.567Z" fill="none" stroke="#f58a2c" stroke-miterlimit="10" stroke-width="0.75"/>
      <path id="Caminho_13153" data-name="Caminho 13153" d="M21.292,1.487c0-.066-4.354-.12-9.723-.12s-9.724.054-9.726.12l0,.041.293,10.523c0,.064,4.343.114,9.431.114s9.43-.05,9.43-.114L21.29,1.528Z" fill="#fff6ad"/>
      <path id="Caminho_13154" data-name="Caminho 13154" d="M21.292,1.487c0-.066-4.354-.12-9.723-.12s-9.724.054-9.726.12l0,.041.293,10.523c0,.064,4.343.114,9.431.114s9.43-.05,9.43-.114L21.29,1.528Z" fill="none" stroke="#f58a2c" stroke-miterlimit="10" stroke-width="0.75"/>
    </g>
  </g>
  <path id="Caminho_13475" data-name="Caminho 13475" d="M4.527-3.159a1.784,1.784,0,0,0-2.007-1.6,2.193,2.193,0,0,0-2.2,2.493A2.117,2.117,0,0,0,2.5.108,1.934,1.934,0,0,0,4.554-1.7H3.771A1.2,1.2,0,0,1,2.493-.567c-.972,0-1.359-.846-1.359-1.7,0-.945.342-1.818,1.449-1.818a1.083,1.083,0,0,1,1.152.927Zm.63.837A2.205,2.205,0,0,0,7.416.108a2.205,2.205,0,0,0,2.259-2.43A2.208,2.208,0,0,0,7.416-4.761,2.208,2.208,0,0,0,5.157-2.322Zm.81,0c0-1.134.648-1.764,1.449-1.764s1.449.63,1.449,1.764S8.217-.567,7.416-.567,5.967-1.2,5.967-2.322Zm4.311.855C10.323-.315,11.2.108,12.249.108c.945,0,1.98-.36,1.98-1.467,0-.9-.756-1.152-1.521-1.323-.711-.171-1.521-.261-1.521-.81,0-.468.531-.594.99-.594.5,0,1.026.189,1.08.783h.765c-.063-1.134-.882-1.458-1.908-1.458-.81,0-1.737.387-1.737,1.323,0,.891.765,1.143,1.521,1.314s1.521.27,1.521.864-.648.693-1.125.693c-.63,0-1.224-.216-1.251-.9Z" transform="translate(5.01 9.852)" fill="#161615"/>
</svg>
