<svg xmlns="http://www.w3.org/2000/svg" xmlns:xlink="http://www.w3.org/1999/xlink" width="27.448" height="17.578" viewBox="0 0 27.448 17.578">
  <defs>
    <clipPath id="clip-path">
      <rect id="Retângulo_165" data-name="Retângulo 165" width="27.448" height="17.578" transform="translate(0 0)" fill="none"/>
    </clipPath>
  </defs>
  <g id="cie_tecla_4" transform="translate(0 0)">
    <g id="Grupo_12925" data-name="Grupo 12925">
      <g id="Grupo_12924" data-name="Grupo 12924" clip-path="url(#clip-path)">
        <path id="Caminho_13075" data-name="Caminho 13075" d="M27.073.562c0-.109-5.427-.187-13.349-.187S.378.453.375.562l0,.061.433,16.4c0,.1,5.41.176,12.913.176s12.915-.079,12.915-.176l.43-16.4Z" fill="#b9c73a"/>
        <path id="Caminho_13076" data-name="Caminho 13076" d="M27.073.562c0-.109-5.427-.187-13.349-.187S.378.453.375.562l0,.061.433,16.4c0,.1,5.41.176,12.913.176s12.915-.079,12.915-.176l.43-16.4Z" fill="none" stroke="#669d3e" stroke-miterlimit="10" stroke-width="0.75"/>
        <path id="Caminho_13077" data-name="Caminho 13077" d="M25.445,1.814c0-.086-4.635-.154-11.584-.154s-11.586.068-11.589.154l0,.053.38,13.619c0,.082,4.621.146,11.206.146s11.2-.064,11.2-.146l.377-13.619Z" fill="#b9c73a"/>
        <path id="Caminho_13078" data-name="Caminho 13078" d="M25.445,1.814c0-.086-4.635-.154-11.584-.154s-11.586.068-11.589.154l0,.053.38,13.619c0,.082,4.621.146,11.206.146s11.2-.064,11.2-.146l.377-13.619Z" fill="none" stroke="#669d3e" stroke-miterlimit="10" stroke-width="0.75"/>
      </g>
    </g>
    <path id="Caminho_13079" data-name="Caminho 13079" d="M5.028-8.508H4.212L.336-2.976v.984H4.068V0h.96V-1.992H6.18v-.9H5.028ZM1.212-2.892,4.044-7.056h.024v4.164Z" transform="translate(10.388 13.636)" fill="#161615"/>
  </g>
</svg>
