<svg xmlns="http://www.w3.org/2000/svg" xmlns:xlink="http://www.w3.org/1999/xlink" width="27.448" height="17.578" viewBox="0 0 27.448 17.578">
  <defs>
    <clipPath id="clip-path">
      <rect id="Retângulo_177" data-name="Retângulo 177" width="27.448" height="17.578" transform="translate(0 0)" fill="none"/>
    </clipPath>
  </defs>
  <g id="cie_tecla_adicao" transform="translate(0 0)">
    <g id="Grupo_12950" data-name="Grupo 12950">
      <g id="Grupo_12949" data-name="Grupo 12949" clip-path="url(#clip-path)">
        <path id="Caminho_13130" data-name="Caminho 13130" d="M27.073.563c0-.109-5.427-.187-13.349-.187S.378.454.375.563l0,.061.433,16.4c0,.1,5.41.176,12.913.176s12.915-.079,12.915-.176l.43-16.4Z" fill="#b9c73a"/>
        <path id="Caminho_13131" data-name="Caminho 13131" d="M27.073.563c0-.109-5.427-.187-13.349-.187S.378.454.375.563l0,.061.433,16.4c0,.1,5.41.176,12.913.176s12.915-.079,12.915-.176l.43-16.4Z" fill="none" stroke="#669d3e" stroke-miterlimit="10" stroke-width="0.75"/>
        <path id="Caminho_13132" data-name="Caminho 13132" d="M25.445,1.815c0-.086-4.635-.154-11.584-.154s-11.586.068-11.589.154l0,.053.38,13.619c0,.082,4.621.146,11.206.146s11.2-.064,11.2-.146l.377-13.619Z" fill="#b9c73a"/>
        <path id="Caminho_13133" data-name="Caminho 13133" d="M25.445,1.815c0-.086-4.635-.154-11.584-.154s-11.586.068-11.589.154l0,.053.38,13.619c0,.082,4.621.146,11.206.146s11.2-.064,11.2-.146l.377-13.619Z" fill="none" stroke="#669d3e" stroke-miterlimit="10" stroke-width="0.75"/>
      </g>
    </g>
    <path id="Caminho_13484" data-name="Caminho 13484" d="M4.436-6.72h-.9v2.909H.638v.9h2.9V0h.9V-2.909h2.9v-.9h-2.9Z" transform="translate(9.74 13.342)" fill="#161615"/>
  </g>
</svg>
