<svg xmlns="http://www.w3.org/2000/svg" xmlns:xlink="http://www.w3.org/1999/xlink" width="22.925" height="13.753" viewBox="0 0 22.925 13.753">
  <defs>
    <clipPath id="clip-path">
      <rect id="Retângulo_241" data-name="Retângulo 241" width="22.925" height="13.753" transform="translate(0 0)" fill="none"/>
    </clipPath>
  </defs>
  <g id="cie_tecla_virgula_2" transform="translate(0 0)">
    <g id="Grupo_13062" data-name="Grupo 13062" clip-path="url(#clip-path)">
      <path id="Caminho_13355" data-name="Caminho 13355" d="M22.549.519c0-.084-4.965-.145-11.086-.145S.379.435.375.519l0,.047L.713,13.241c0,.076,4.951.136,10.75.136s10.752-.06,10.752-.136L22.547.566Z" fill="#fff286"/>
      <path id="Caminho_13356" data-name="Caminho 13356" d="M22.549.519c0-.084-4.965-.145-11.086-.145S.379.435.375.519l0,.047L.713,13.241c0,.076,4.951.136,10.75.136s10.752-.06,10.752-.136L22.547.566Z" fill="none" stroke="#f58a2c" stroke-miterlimit="10" stroke-width="0.75"/>
      <path id="Caminho_13357" data-name="Caminho 13357" d="M21.292,1.487c0-.066-4.354-.12-9.723-.12s-9.724.054-9.726.12l0,.041L2.138,12.05c0,.065,4.343.115,9.431.115S21,12.115,21,12.05L21.29,1.528Z" fill="#fff6ad"/>
      <path id="Caminho_13358" data-name="Caminho 13358" d="M21.292,1.487c0-.066-4.354-.12-9.723-.12s-9.724.054-9.726.12l0,.041L2.138,12.05c0,.065,4.343.115,9.431.115S21,12.115,21,12.05L21.29,1.528Z" fill="none" stroke="#f58a2c" stroke-miterlimit="10" stroke-width="0.75"/>
      <path id="Caminho_13399" data-name="Caminho 13399" d="M.747-5.427h.531c0,.414-.117.873-.522.873v.45c.693,0,.99-.612.99-1.323v-1h-1Z" transform="translate(11.009 11.646)" fill="#161615"/>
    </g>
  </g>
</svg>
