<svg xmlns="http://www.w3.org/2000/svg" xmlns:xlink="http://www.w3.org/1999/xlink" width="27.448" height="17.578" viewBox="0 0 27.448 17.578">
  <defs>
    <clipPath id="clip-path">
      <rect id="Retângulo_160" data-name="Retângulo 160" width="27.448" height="17.578" transform="translate(0 0)" fill="none"/>
    </clipPath>
  </defs>
  <g id="cie_tecla_1_2" transform="translate(0 0)">
    <g id="Grupo_12915" data-name="Grupo 12915">
      <g id="Grupo_12914" data-name="Grupo 12914" clip-path="url(#clip-path)">
        <path id="Caminho_13057" data-name="Caminho 13057" d="M27.073.563c0-.109-5.427-.187-13.349-.187S.378.454.375.563l0,.061.433,16.4c0,.1,5.41.176,12.913.176s12.915-.079,12.915-.176l.43-16.4Z" fill="#b9c73a"/>
        <path id="Caminho_13058" data-name="Caminho 13058" d="M27.073.563c0-.109-5.427-.187-13.349-.187S.378.454.375.563l0,.061.433,16.4c0,.1,5.41.176,12.913.176s12.915-.079,12.915-.176l.43-16.4Z" fill="none" stroke="#669d3e" stroke-miterlimit="10" stroke-width="0.75"/>
        <path id="Caminho_13059" data-name="Caminho 13059" d="M25.445,1.815c0-.086-4.635-.154-11.584-.154s-11.586.068-11.589.154l0,.053.38,13.619c0,.082,4.621.146,11.206.146s11.2-.064,11.2-.146l.377-13.619Z" fill="#b9c73a"/>
        <path id="Caminho_13060" data-name="Caminho 13060" d="M25.445,1.815c0-.086-4.635-.154-11.584-.154s-11.586.068-11.589.154l0,.053.38,13.619c0,.082,4.621.146,11.206.146s11.2-.064,11.2-.146l.377-13.619Z" fill="none" stroke="#669d3e" stroke-miterlimit="10" stroke-width="0.75"/>
      </g>
    </g>
    <path id="Caminho_13084" data-name="Caminho 13084" d="M4.272-8.508h-.78c-.228,1.284-1.284,1.6-2.448,1.6V-6.1H3.252V0h1.02Z" transform="translate(10.389 13.637)" fill="#161615"/>
  </g>
</svg>
