<svg xmlns="http://www.w3.org/2000/svg" xmlns:xlink="http://www.w3.org/1999/xlink" width="22.924" height="19.29" viewBox="0 0 22.924 19.29">
  <defs>
    <clipPath id="clip-path">
      <rect id="Retângulo_222" data-name="Retângulo 222" width="22.924" height="19.29" transform="translate(0 0)" fill="none"/>
    </clipPath>
  </defs>
  <g id="cie_tecla_pol" transform="translate(0 0)">
    <g id="Grupo_13030" data-name="Grupo 13030">
      <g id="Grupo_13029" data-name="Grupo 13029" clip-path="url(#clip-path)">
        <path id="Caminho_13286" data-name="Caminho 13286" d="M22.548,6.056c0-.084-4.965-.145-11.086-.145S.378,5.972.375,6.056l0,.047L.712,18.778c0,.076,4.952.136,10.75.136s10.752-.06,10.752-.136L22.546,6.1Z" fill="#fff286"/>
        <path id="Caminho_13287" data-name="Caminho 13287" d="M22.548,6.056c0-.084-4.965-.145-11.086-.145S.378,5.972.375,6.056l0,.047L.712,18.778c0,.076,4.952.136,10.75.136s10.752-.06,10.752-.136L22.546,6.1Z" fill="none" stroke="#f58a2c" stroke-miterlimit="10" stroke-width="0.75"/>
        <path id="Caminho_13288" data-name="Caminho 13288" d="M21.292,7.024c0-.066-4.354-.12-9.723-.12s-9.725.054-9.726.12v.041l.294,10.522c0,.065,4.343.115,9.431.115S21,17.652,21,17.587l.291-10.522Z" fill="#fff6ad"/>
        <path id="Caminho_13289" data-name="Caminho 13289" d="M21.292,7.024c0-.066-4.354-.12-9.723-.12s-9.725.054-9.726.12v.041l.294,10.522c0,.065,4.343.115,9.431.115S21,17.652,21,17.587l.291-10.522Z" fill="none" stroke="#f58a2c" stroke-miterlimit="10" stroke-width="0.75"/>
      </g>
    </g>
    <path id="Caminho_13422" data-name="Caminho 13422" d="M.7,0h.855V-2.628H3.519a1.755,1.755,0,0,0,1.971-1.9,1.759,1.759,0,0,0-1.971-1.9H.7Zm.855-5.706H3.231c.963,0,1.4.414,1.4,1.179s-.441,1.188-1.4,1.179H1.557Zm4.6,3.384A2.205,2.205,0,0,0,8.415.108a2.205,2.205,0,0,0,2.259-2.43A2.208,2.208,0,0,0,8.415-4.761,2.208,2.208,0,0,0,6.156-2.322Zm.81,0c0-1.134.648-1.764,1.449-1.764s1.449.63,1.449,1.764S9.216-.567,8.415-.567,6.966-1.2,6.966-2.322ZM11.619,0h.765V-6.426h-.765Zm3.8,1.782A7.586,7.586,0,0,1,14.229-2.43a7.446,7.446,0,0,1,1.188-4.149h-.585A7.079,7.079,0,0,0,13.419-2.43a7.553,7.553,0,0,0,1.413,4.212Z" transform="translate(3.753 15.307)" fill="#161615"/>
    <g id="Grupo_13032" data-name="Grupo 13032">
      <g id="Grupo_13031" data-name="Grupo 13031" clip-path="url(#clip-path)">
        <path id="Caminho_13424" data-name="Caminho 13424" d="M1-3.06H2.02c.325,0,.62.09.62.545,0,.375-.215.57-.61.57H1ZM.38,0H1V-1.47h.92c.575,0,.71.29.71.945A1,1,0,0,0,2.73,0H3.4a1.624,1.624,0,0,1-.195-.94c0-.565-.315-.725-.53-.755v-.01a.867.867,0,0,0,.59-.9c0-.605-.4-.965-1.18-.965H.38ZM6.165-1.145a1.275,1.275,0,0,0-1.22-1.51A1.272,1.272,0,0,0,3.695-1.29,1.226,1.226,0,0,0,4.96.07,1.132,1.132,0,0,0,6.13-.81H5.59a.6.6,0,0,1-.63.43.688.688,0,0,1-.7-.765Zm-1.9-.375a.676.676,0,0,1,.68-.685.676.676,0,0,1,.65.685Zm4.65-.2A1.046,1.046,0,0,0,7.75-2.655a1.244,1.244,0,0,0-1.275,1.39A1.216,1.216,0,0,0,7.73.07,1.113,1.113,0,0,0,8.915-.97h-.57a.614.614,0,0,1-.615.59c-.5,0-.685-.455-.685-.885,0-.785.415-.94.71-.94a.547.547,0,0,1,.59.485ZM10.51.955A4.413,4.413,0,0,1,9.895-1.35a4.623,4.623,0,0,1,.615-2.3h-.465a4.262,4.262,0,0,0-.72,2.3,4.15,4.15,0,0,0,.72,2.305Z" transform="translate(1.045 4.15)" fill="#e23734"/>
        <path id="Caminho_13423" data-name="Caminho 13423" d="M.345-1.855H1.04V-2.53H.345ZM.345,0H1.04V-.675H.345Z" transform="translate(20.49 4.15)" fill="#401a71"/>
      </g>
    </g>
  </g>
</svg>
