<svg xmlns="http://www.w3.org/2000/svg" xmlns:xlink="http://www.w3.org/1999/xlink" width="22.924" height="13.753" viewBox="0 0 22.924 13.753">
  <defs>
    <clipPath id="clip-path">
      <rect id="Retângulo_224" data-name="Retângulo 224" width="22.924" height="13.753" transform="translate(0 0)" fill="none"/>
    </clipPath>
  </defs>
  <g id="cie_tecla_pol_2" transform="translate(0 0)">
    <g id="Grupo_13034" data-name="Grupo 13034">
      <g id="Grupo_13033" data-name="Grupo 13033" clip-path="url(#clip-path)">
        <path id="Caminho_13290" data-name="Caminho 13290" d="M22.548.519c0-.084-4.965-.145-11.086-.145S.378.435.375.519l0,.047L.712,13.241c0,.076,4.952.136,10.75.136s10.752-.06,10.752-.136L22.546.566Z" fill="#fff286"/>
        <path id="Caminho_13291" data-name="Caminho 13291" d="M22.548.519c0-.084-4.965-.145-11.086-.145S.378.435.375.519l0,.047L.712,13.241c0,.076,4.952.136,10.75.136s10.752-.06,10.752-.136L22.546.566Z" fill="none" stroke="#f58a2c" stroke-miterlimit="10" stroke-width="0.75"/>
        <path id="Caminho_13292" data-name="Caminho 13292" d="M21.292,1.487c0-.066-4.354-.12-9.723-.12s-9.725.054-9.726.12v.041L2.138,12.05c0,.065,4.343.115,9.431.115S21,12.115,21,12.05l.291-10.522Z" fill="#fff6ad"/>
        <path id="Caminho_13293" data-name="Caminho 13293" d="M21.292,1.487c0-.066-4.354-.12-9.723-.12s-9.725.054-9.726.12v.041L2.138,12.05c0,.065,4.343.115,9.431.115S21,12.115,21,12.05l.291-10.522Z" fill="none" stroke="#f58a2c" stroke-miterlimit="10" stroke-width="0.75"/>
      </g>
    </g>
    <path id="Caminho_13421" data-name="Caminho 13421" d="M.7,0h.855V-2.628H3.519a1.755,1.755,0,0,0,1.971-1.9,1.759,1.759,0,0,0-1.971-1.9H.7Zm.855-5.706H3.231c.963,0,1.4.414,1.4,1.179s-.441,1.188-1.4,1.179H1.557Zm4.6,3.384A2.205,2.205,0,0,0,8.415.108a2.205,2.205,0,0,0,2.259-2.43A2.208,2.208,0,0,0,8.415-4.761,2.208,2.208,0,0,0,6.156-2.322Zm.81,0c0-1.134.648-1.764,1.449-1.764s1.449.63,1.449,1.764S9.216-.567,8.415-.567,6.966-1.2,6.966-2.322ZM11.619,0h.765V-6.426h-.765Zm3.8,1.782A7.586,7.586,0,0,1,14.229-2.43a7.446,7.446,0,0,1,1.188-4.149h-.585A7.079,7.079,0,0,0,13.419-2.43a7.553,7.553,0,0,0,1.413,4.212Z" transform="translate(3.753 9.77)" fill="#161615"/>
  </g>
</svg>
