<svg xmlns="http://www.w3.org/2000/svg" xmlns:xlink="http://www.w3.org/1999/xlink" width="22.924" height="13.761" viewBox="0 0 22.924 13.761">
  <defs>
    <clipPath id="clip-path">
      <rect id="Ret창ngulo_248" data-name="Ret창ngulo 248" width="22.924" height="13.761" transform="translate(0 0)" fill="none"/>
    </clipPath>
  </defs>
  <g id="cie_tecla_x_elevado_menos_1_2" transform="translate(0 0)">
    <g id="Grupo_13067" data-name="Grupo 13067" clip-path="url(#clip-path)">
      <path id="Caminho_13386" data-name="Caminho 13386" d="M22.549.557c0-.085-4.965-.159-11.087-.178S.378.406.375.491l0,.046.3,12.675c0,.076,4.953.153,10.75.17s10.753-.028,10.753-.1L22.547.6Z" fill="#fff286"/>
      <path id="Caminho_13387" data-name="Caminho 13387" d="M22.549.557c0-.085-4.965-.159-11.087-.178S.378.406.375.491l0,.046.3,12.675c0,.076,4.953.153,10.75.17s10.753-.028,10.753-.1L22.547.6Z" fill="none" stroke="#f58a2c" stroke-miterlimit="10" stroke-width="0.75"/>
      <path id="Caminho_13388" data-name="Caminho 13388" d="M21.289,1.521c0-.066-4.354-.133-9.723-.149s-9.725.024-9.728.09l0,.041L2.1,12.027c0,.063,4.342.126,9.43.141s9.43-.021,9.43-.084l.324-10.522Z" fill="#fff6ad"/>
      <path id="Caminho_13389" data-name="Caminho 13389" d="M21.289,1.521c0-.066-4.354-.133-9.723-.149s-9.725.024-9.728.09l0,.041L2.1,12.027c0,.063,4.342.126,9.43.141s9.43-.021,9.43-.084l.324-10.522Z" fill="none" stroke="#f58a2c" stroke-miterlimit="10" stroke-width="0.75"/>
      <path id="Caminho_13390" data-name="Caminho 13390" d="M8.052,5.924c-.132-.011-.572.4-.9,1.134-.044.1-.144.109-.176.021a.957.957,0,0,1,.065-.593,1.511,1.511,0,0,1,1.4-.991c.341.067.484.285.583.77.054.264.11.594.154.946a10.394,10.394,0,0,0,1.65-1.617c.11-.144.22-.153.22.022a1.8,1.8,0,0,1-.594,1.112,11.468,11.468,0,0,1-1.2,1.045c.077.462.132.912.187,1.2.088.439.22.594.352.6.407.023.88-.78,1.2-1.452.043-.1.131-.109.164-.021a.89.89,0,0,1-.1.693A1.885,1.885,0,0,1,9.6,9.95c-.584,0-.892-.34-1.024-1.254-.011-.066-.022-.187-.045-.318A10.851,10.851,0,0,0,7.018,9.884c-.088.1-.276.154-.253-.032a2.016,2.016,0,0,1,.66-1.145,10.24,10.24,0,0,1,1.034-.913,6.832,6.832,0,0,0-.407-1.87" fill="#161615"/>
      <rect id="Ret창ngulo_247" data-name="Ret창ngulo 247" width="1.447" height="0.4" transform="translate(11.865 5.183)" fill="#161615"/>
      <path id="Caminho_13391" data-name="Caminho 13391" d="M15.342,6.774h-.426V4.231H14v-.34c.485,0,.926-.13,1.021-.666h.325Z" fill="#161615"/>
    </g>
  </g>
</svg>
