<svg xmlns="http://www.w3.org/2000/svg" xmlns:xlink="http://www.w3.org/1999/xlink" width="22.923" height="20.902" viewBox="0 0 22.923 20.902">
  <defs>
    <clipPath id="clip-path">
      <rect id="Retângulo_243" data-name="Retângulo 243" width="22.923" height="20.902" transform="translate(0 0)" fill="none"/>
    </clipPath>
  </defs>
  <g id="cie_tecla_x_elevado_3" transform="translate(0 0)">
    <g id="Grupo_13064" data-name="Grupo 13064" clip-path="url(#clip-path)">
      <path id="Caminho_13365" data-name="Caminho 13365" d="M22.548,7.669c0-.084-4.965-.145-11.086-.145S.378,7.585.375,7.669l0,.047L.712,20.391c0,.076,4.952.136,10.75.136s10.752-.06,10.752-.136l.332-12.675Z" fill="#fff286"/>
      <path id="Caminho_13366" data-name="Caminho 13366" d="M22.548,7.669c0-.084-4.965-.145-11.086-.145S.378,7.585.375,7.669l0,.047L.712,20.391c0,.076,4.952.136,10.75.136s10.752-.06,10.752-.136l.332-12.675Z" fill="none" stroke="#f58a2c" stroke-miterlimit="10" stroke-width="0.75"/>
      <path id="Caminho_13367" data-name="Caminho 13367" d="M21.291,8.636c0-.066-4.354-.12-9.723-.12s-9.724.054-9.726.12l0,.041L2.137,19.2c0,.065,4.343.115,9.431.115S21,19.264,21,19.2l.291-10.522Z" fill="#fff6ad"/>
      <path id="Caminho_13368" data-name="Caminho 13368" d="M21.291,8.636c0-.066-4.354-.12-9.723-.12s-9.724.054-9.726.12l0,.041L2.137,19.2c0,.065,4.343.115,9.431.115S21,19.264,21,19.2l.291-10.522Z" fill="none" stroke="#f58a2c" stroke-miterlimit="10" stroke-width="0.75"/>
      <path id="Caminho_13369" data-name="Caminho 13369" d="M15.613,1.779H11.47l-1.2,4.205-.187-.5L9.9,5.04,9.7,4.61,9.5,4.156l-1,.321.131.408.549-.173.433.975c.139.33.276.669.408,1.02h.518l1.3-4.441h3.779Z" fill="#e23734"/>
      <path id="Caminho_13398" data-name="Caminho 13398" d="M.912-1.3c.36-.016.732.04.732.476a.489.489,0,0,1-.536.5A.516.516,0,0,1,.58-.92H.124a.9.9,0,0,0,.984.976A.9.9,0,0,0,2.1-.8a.66.66,0,0,0-.508-.7v-.008a.591.591,0,0,0,.4-.6A.8.8,0,0,0,1.1-2.856.912.912,0,0,0,.176-1.9H.632A.5.5,0,0,1,1.1-2.476a.4.4,0,0,1,.436.4c0,.344-.316.452-.62.44Z" transform="translate(8.147 3.32)" fill="#e23734"/>
      <path id="Caminho_13370" data-name="Caminho 13370" d="M8.94,13.069c-.132-.011-.572.4-.9,1.134-.044.1-.144.109-.176.021a.957.957,0,0,1,.065-.593,1.511,1.511,0,0,1,1.4-.991c.341.067.484.285.583.77.054.264.11.594.154.946a10.353,10.353,0,0,0,1.65-1.617c.11-.144.22-.153.22.022a1.8,1.8,0,0,1-.594,1.112,11.468,11.468,0,0,1-1.2,1.045c.077.462.132.912.187,1.2.088.439.22.594.352.6.407.023.88-.78,1.2-1.452.043-.1.131-.109.165-.021a.9.9,0,0,1-.1.693,1.885,1.885,0,0,1-1.451,1.154c-.584,0-.892-.34-1.024-1.254-.011-.066-.022-.187-.045-.318a10.851,10.851,0,0,0-1.517,1.506c-.088.1-.276.154-.253-.032a2.016,2.016,0,0,1,.66-1.145,10.24,10.24,0,0,1,1.034-.913,6.832,6.832,0,0,0-.407-1.87" fill="#161615"/>
      <path id="Caminho_13371" data-name="Caminho 13371" d="M13.594,11.892c.065.006.126.006.186.006a.6.6,0,0,0,.675-.581.564.564,0,0,0-.631-.571c-.465,0-.665.355-.67.771h-.426a1.052,1.052,0,0,1,1.1-1.147c.617,0,1.081.3,1.081.952a.815.815,0,0,1-.49.706v.009a.81.81,0,0,1,.641.861,1.094,1.094,0,0,1-1.222,1.082,1.072,1.072,0,0,1-1.18-1.156h.425a.721.721,0,0,0,.755.78.706.706,0,0,0,.771-.686.678.678,0,0,0-.756-.68,2.13,2.13,0,0,0-.255.015Z" fill="#161615"/>
    </g>
  </g>
</svg>
