<svg xmlns="http://www.w3.org/2000/svg" xmlns:xlink="http://www.w3.org/1999/xlink" width="22.923" height="20.987" viewBox="0 0 22.923 20.987">
  <defs>
    <clipPath id="clip-path">
      <rect id="Retângulo_237" data-name="Retângulo 237" width="22.923" height="20.987" transform="translate(0 0)" fill="none"/>
    </clipPath>
  </defs>
  <g id="cie_tecla_tangente" transform="translate(0 0)">
    <g id="Grupo_13056" data-name="Grupo 13056">
      <g id="Grupo_13055" data-name="Grupo 13055" clip-path="url(#clip-path)">
        <path id="Caminho_13343" data-name="Caminho 13343" d="M22.548,7.753c0-.084-4.965-.145-11.086-.145S.378,7.669.375,7.753l0,.047L.712,20.475c0,.076,4.952.136,10.75.136s10.752-.06,10.752-.136L22.546,7.8Z" fill="#fff286"/>
        <path id="Caminho_13344" data-name="Caminho 13344" d="M22.548,7.753c0-.084-4.965-.145-11.086-.145S.378,7.669.375,7.753l0,.047L.712,20.475c0,.076,4.952.136,10.75.136s10.752-.06,10.752-.136L22.546,7.8Z" fill="none" stroke="#f58a2c" stroke-miterlimit="10" stroke-width="0.75"/>
        <path id="Caminho_13345" data-name="Caminho 13345" d="M21.291,8.721c0-.066-4.354-.12-9.723-.12s-9.724.054-9.726.12l0,.041.293,10.523c0,.064,4.343.114,9.431.114s9.43-.05,9.43-.114l.291-10.523Z" fill="#fff6ad"/>
        <path id="Caminho_13346" data-name="Caminho 13346" d="M21.291,8.721c0-.066-4.354-.12-9.723-.12s-9.724.054-9.726.12l0,.041.293,10.523c0,.064,4.343.114,9.431.114s9.43-.05,9.43-.114l.291-10.523Z" fill="none" stroke="#f58a2c" stroke-miterlimit="10" stroke-width="0.75"/>
        <path id="Caminho_13407" data-name="Caminho 13407" d="M.38,0H1V-1.585H2.62V-2.1H1V-3.03h1.84v-.54H.38Z" transform="translate(19.32 6.15)" fill="#3e2176"/>
      </g>
    </g>
    <path id="Caminho_13405" data-name="Caminho 13405" d="M.04-2.16H.47V-.635c.01.43.12.66.715.66.125,0,.245-.02.37-.03v-.44a.974.974,0,0,1-.24.02c-.255,0-.275-.12-.275-.355V-2.16h.515v-.425H1.04V-3.36H.47v.775H.04ZM3.56-.87c0,.36-.39.49-.64.49-.2,0-.525-.075-.525-.33,0-.3.22-.39.465-.43a2.035,2.035,0,0,0,.7-.155Zm.57-1.035c0-.545-.53-.75-1.035-.75-.57,0-1.135.2-1.175.86h.57c.025-.28.25-.41.57-.41.23,0,.535.055.535.35,0,.335-.365.29-.775.365-.48.055-1,.16-1,.8A.786.786,0,0,0,2.71.07a1.326,1.326,0,0,0,.895-.315c.045.235.21.315.44.315a1.431,1.431,0,0,0,.36-.065v-.4a.788.788,0,0,1-.14.01c-.105,0-.135-.055-.135-.195ZM4.745,0h.57V-1.525a.63.63,0,0,1,.625-.68c.335,0,.5.175.505.58V0h.57V-1.775a.817.817,0,0,0-.915-.88.926.926,0,0,0-.805.46l-.01-.01v-.38h-.54Z" transform="translate(1.185 6.15)" fill="#e23734"/>
    <g id="Grupo_13058" data-name="Grupo 13058">
      <g id="Grupo_13057" data-name="Grupo 13057" clip-path="url(#clip-path)">
        <path id="Caminho_13406" data-name="Caminho 13406" d="M.2-.872H1.36V-1.3H.2Zm1.572-1.1h.688V0h.5V-2.8H2.584c-.068.336-.432.468-.816.464Z" transform="translate(8.5 4.15)" fill="#e23734"/>
      </g>
    </g>
    <path id="Caminho_13404" data-name="Caminho 13404" d="M1.638-6.048H.873v1.395H.081v.675H.873v2.961C.873-.162,1.188,0,1.98,0h.585V-.675H2.214c-.477,0-.576-.063-.576-.414V-3.978h.927v-.675H1.638ZM6.291-1.62c0,.423-.414,1.053-1.422,1.053-.468,0-.9-.18-.9-.684,0-.567.432-.747.936-.837A3.94,3.94,0,0,0,6.291-2.4ZM7.533-.612A.657.657,0,0,1,7.3-.567c-.243,0-.243-.162-.243-.522V-3.483c0-1.089-.909-1.278-1.746-1.278-1.035,0-1.926.405-1.971,1.557H4.1c.036-.684.513-.882,1.161-.882.486,0,1.035.108,1.035.774,0,.576-.72.522-1.566.684-.792.153-1.575.378-1.575,1.431C3.159-.27,3.852.108,4.7.108a2.065,2.065,0,0,0,1.638-.72c0,.5.252.72.648.72a1.032,1.032,0,0,0,.549-.126ZM8.244,0h.765V-2.628a1.308,1.308,0,0,1,1.377-1.458.877.877,0,0,1,.945.936V0H12.1V-3.06c0-1-.378-1.7-1.6-1.7a1.62,1.62,0,0,0-1.512.846H8.964v-.738h-.72Z" transform="translate(5.022 17.085)" fill="#161615"/>
  </g>
</svg>
