<svg xmlns="http://www.w3.org/2000/svg" xmlns:xlink="http://www.w3.org/1999/xlink" width="22.923" height="18.987" viewBox="0 0 22.923 18.987">
  <defs>
    <clipPath id="clip-path">
      <rect id="Retângulo_203" data-name="Retângulo 203" width="22.923" height="18.987" transform="translate(0 0)" fill="none"/>
    </clipPath>
  </defs>
  <g id="cie_tecla_hyp" transform="translate(0 0)">
    <g id="Grupo_12996" data-name="Grupo 12996">
      <g id="Grupo_12995" data-name="Grupo 12995" clip-path="url(#clip-path)">
        <path id="Caminho_13215" data-name="Caminho 13215" d="M22.548,5.753c0-.084-4.965-.145-11.086-.145S.378,5.669.375,5.753l0,.047L.712,18.475c0,.076,4.952.136,10.75.136s10.752-.06,10.752-.136L22.546,5.8Z" fill="#fff286"/>
        <path id="Caminho_13216" data-name="Caminho 13216" d="M22.548,5.753c0-.084-4.965-.145-11.086-.145S.378,5.669.375,5.753l0,.047L.712,18.475c0,.076,4.952.136,10.75.136s10.752-.06,10.752-.136L22.546,5.8Z" fill="none" stroke="#f58a2c" stroke-miterlimit="10" stroke-width="0.75"/>
        <path id="Caminho_13217" data-name="Caminho 13217" d="M21.291,6.721c0-.066-4.354-.12-9.723-.12s-9.724.054-9.726.12l0,.041.293,10.523c0,.064,4.343.114,9.431.114s9.43-.05,9.43-.114l.291-10.523Z" fill="#fff6ad"/>
        <path id="Caminho_13218" data-name="Caminho 13218" d="M21.291,6.721c0-.066-4.354-.12-9.723-.12s-9.724.054-9.726.12l0,.041.293,10.523c0,.064,4.343.114,9.431.114s9.43-.05,9.43-.114l.291-10.523Z" fill="none" stroke="#f58a2c" stroke-miterlimit="10" stroke-width="0.75"/>
        <path id="Caminho_13463" data-name="Caminho 13463" d="M3.415-2.435A1.394,1.394,0,0,0,1.9-3.655,1.725,1.725,0,0,0,.19-1.785,1.725,1.725,0,0,0,1.9.085,1.463,1.463,0,0,0,3.42-1.36H2.81a.919.919,0,0,1-.91.935C1.135-.425.815-1.1.815-1.785s.32-1.36,1.085-1.36a.853.853,0,0,1,.89.71Z" transform="translate(18.622 4.15)" fill="#3e2176"/>
      </g>
    </g>
    <path id="Caminho_13462" data-name="Caminho 13462" d="M.576,0h.765V-2.628A1.308,1.308,0,0,1,2.718-4.086a.877.877,0,0,1,.945.936V0h.765V-3.06c0-1-.378-1.7-1.6-1.7a1.575,1.575,0,0,0-1.467.792H1.341V-6.426H.576ZM9.432-4.653h-.81L7.317-.846H7.3L5.94-4.653H5.076L6.921-.027,6.606.765a.661.661,0,0,1-.63.423,1.565,1.565,0,0,1-.45-.108v.7a1.523,1.523,0,0,0,.531.081c.684,0,1-.333,1.35-1.242Zm4.275,2.286c0,.909-.351,1.8-1.395,1.8s-1.467-.846-1.467-1.764c0-.873.4-1.755,1.422-1.755C13.257-4.086,13.707-3.24,13.707-2.367Zm-3.6,4.149h.765v-2.4h.018a1.782,1.782,0,0,0,1.5.729,2.149,2.149,0,0,0,2.124-2.421,2.18,2.18,0,0,0-2.142-2.448,1.566,1.566,0,0,0-1.485.738h-.018v-.63h-.765Z" transform="translate(4.249 15.085)" fill="#161615"/>
  </g>
</svg>
