<svg xmlns="http://www.w3.org/2000/svg" xmlns:xlink="http://www.w3.org/1999/xlink" width="22.923" height="13.753" viewBox="0 0 22.923 13.753">
  <defs>
    <clipPath id="clip-path">
      <rect id="Retângulo_173" data-name="Retângulo 173" width="22.923" height="13.753" transform="translate(0 0)" fill="none"/>
    </clipPath>
  </defs>
  <g id="cie_tecla_abre_parent" transform="translate(0 0)">
    <g id="Grupo_12942" data-name="Grupo 12942">
      <g id="Grupo_12941" data-name="Grupo 12941" clip-path="url(#clip-path)">
        <path id="Caminho_13118" data-name="Caminho 13118" d="M22.548.519c0-.084-4.965-.145-11.086-.145S.378.435.375.519l0,.047L.712,13.241c0,.076,4.952.136,10.75.136s10.752-.06,10.752-.136L22.546.566Z" fill="#fff286"/>
        <path id="Caminho_13119" data-name="Caminho 13119" d="M22.548.519c0-.084-4.965-.145-11.086-.145S.378.435.375.519l0,.047L.712,13.241c0,.076,4.952.136,10.75.136s10.752-.06,10.752-.136L22.546.566Z" fill="none" stroke="#f58a2c" stroke-miterlimit="10" stroke-width="0.75"/>
        <path id="Caminho_13120" data-name="Caminho 13120" d="M21.291,1.487c0-.066-4.354-.12-9.723-.12s-9.724.054-9.726.12l0,.041L2.137,12.05c0,.065,4.343.115,9.431.115S21,12.115,21,12.05l.291-10.522Z" fill="#fff6ad"/>
        <path id="Caminho_13121" data-name="Caminho 13121" d="M21.291,1.487c0-.066-4.354-.12-9.723-.12s-9.724.054-9.726.12l0,.041L2.137,12.05c0,.065,4.343.115,9.431.115S21,12.115,21,12.05l.291-10.522Z" fill="none" stroke="#f58a2c" stroke-miterlimit="10" stroke-width="0.75"/>
      </g>
    </g>
    <path id="Caminho_13488" data-name="Caminho 13488" d="M2.421,1.782A7.586,7.586,0,0,1,1.233-2.43,7.446,7.446,0,0,1,2.421-6.579H1.836A7.079,7.079,0,0,0,.423-2.43,7.553,7.553,0,0,0,1.836,1.782Z" transform="translate(10.458 9.676)" fill="#161615"/>
  </g>
</svg>
