<svg xmlns="http://www.w3.org/2000/svg" xmlns:xlink="http://www.w3.org/1999/xlink" width="22.923" height="13.753" viewBox="0 0 22.923 13.753">
  <defs>
    <clipPath id="clip-path">
      <rect id="Retângulo_219" data-name="Retângulo 219" width="22.923" height="13.753" transform="translate(0 0)" fill="none"/>
    </clipPath>
  </defs>
  <g id="cie_tecla_ncr_2" transform="translate(0 0)">
    <g id="Grupo_13024" data-name="Grupo 13024">
      <g id="Grupo_13023" data-name="Grupo 13023" clip-path="url(#clip-path)">
        <path id="Caminho_13274" data-name="Caminho 13274" d="M22.548.519c0-.084-4.965-.145-11.086-.145S.378.435.375.519l0,.047L.712,13.241c0,.076,4.952.136,10.75.136s10.752-.06,10.752-.136L22.546.566Z" fill="#fff286"/>
        <path id="Caminho_13275" data-name="Caminho 13275" d="M22.548.519c0-.084-4.965-.145-11.086-.145S.378.435.375.519l0,.047L.712,13.241c0,.076,4.952.136,10.75.136s10.752-.06,10.752-.136L22.546.566Z" fill="none" stroke="#f58a2c" stroke-miterlimit="10" stroke-width="0.75"/>
        <path id="Caminho_13276" data-name="Caminho 13276" d="M21.291,1.487c0-.066-4.354-.12-9.723-.12s-9.724.054-9.726.12l0,.041L2.137,12.05c0,.065,4.343.115,9.431.115S21,12.115,21,12.05l.291-10.522Z" fill="#fff6ad"/>
        <path id="Caminho_13277" data-name="Caminho 13277" d="M21.291,1.487c0-.066-4.354-.12-9.723-.12s-9.724.054-9.726.12l0,.041L2.137,12.05c0,.065,4.343.115,9.431.115S21,12.115,21,12.05l.291-10.522Z" fill="none" stroke="#f58a2c" stroke-miterlimit="10" stroke-width="0.75"/>
      </g>
    </g>
    <path id="Caminho_13432" data-name="Caminho 13432" d="M.576,0h.765V-2.628A1.308,1.308,0,0,1,2.718-4.086a.877.877,0,0,1,.945.936V0h.765V-3.06c0-1-.378-1.7-1.6-1.7a1.62,1.62,0,0,0-1.512.846H1.3v-.738H.576Zm10.5-4.491A2.459,2.459,0,0,0,8.433-6.579c-1.98,0-3.042,1.521-3.042,3.384S6.363.153,8.361.153a2.616,2.616,0,0,0,2.781-2.574h-.855A1.818,1.818,0,0,1,8.433-.567c-1.539,0-2.187-1.224-2.187-2.691,0-1.341.648-2.6,2.178-2.6a1.693,1.693,0,0,1,1.8,1.368ZM12.051,0h.765V-2.07c0-1.179.45-1.881,1.683-1.881v-.81a1.692,1.692,0,0,0-1.71,1.089h-.018v-.981h-.72Z" transform="translate(4.212 9.77)" fill="#161615"/>
  </g>
</svg>
