<svg xmlns="http://www.w3.org/2000/svg" xmlns:xlink="http://www.w3.org/1999/xlink" width="22.924" height="18.645" viewBox="0 0 22.924 18.645">
  <defs>
    <clipPath id="clip-path">
      <rect id="Ret창ngulo_246" data-name="Ret창ngulo 246" width="22.924" height="18.645" transform="translate(0 0)" fill="none"/>
    </clipPath>
  </defs>
  <g id="cie_tecla_x_elevado_menos_1" transform="translate(0 0)">
    <g id="Grupo_13066" data-name="Grupo 13066" clip-path="url(#clip-path)">
      <path id="Caminho_13378" data-name="Caminho 13378" d="M22.549,5.441c0-.085-4.965-.159-11.087-.178S.378,5.29.375,5.375l0,.046L.673,18.1c0,.076,4.953.153,10.75.17s10.753-.028,10.753-.1l.371-12.674Z" fill="#fff286"/>
      <path id="Caminho_13379" data-name="Caminho 13379" d="M22.549,5.441c0-.085-4.965-.159-11.087-.178S.378,5.29.375,5.375l0,.046L.673,18.1c0,.076,4.953.153,10.75.17s10.753-.028,10.753-.1l.371-12.674Z" fill="none" stroke="#f58a2c" stroke-miterlimit="10" stroke-width="0.75"/>
      <path id="Caminho_13380" data-name="Caminho 13380" d="M21.289,6.405c0-.066-4.354-.133-9.723-.149s-9.725.024-9.728.09l0,.041L2.1,16.911c0,.063,4.342.126,9.43.141s9.43-.021,9.43-.084l.324-10.522Z" fill="#fff6ad"/>
      <path id="Caminho_13381" data-name="Caminho 13381" d="M21.289,6.405c0-.066-4.354-.133-9.723-.149s-9.725.024-9.728.09l0,.041L2.1,16.911c0,.063,4.342.126,9.43.141s9.43-.021,9.43-.084l.324-10.522Z" fill="none" stroke="#f58a2c" stroke-miterlimit="10" stroke-width="0.75"/>
      <path id="Caminho_13382" data-name="Caminho 13382" d="M9.667,2.844a6.484,6.484,0,0,1,.616-.56,5.387,5.387,0,0,0-.224-1.106c-.063,0-.238.252-.441.68-.055.119-.2.132-.245.013a.62.62,0,0,1,.042-.4A1.035,1.035,0,0,1,10.27.821c.279,0,.441.146.517.525a4.237,4.237,0,0,1,.084.469,6.223,6.223,0,0,0,.9-.91c.133-.176.274-.182.274.042a1.133,1.133,0,0,1-.393.721,6.664,6.664,0,0,1-.715.63c.071.512.084.63.106.729.057.253.105.342.175.342.2,0,.469-.5.644-.875.064-.132.175-.126.232-.021a.587.587,0,0,1-.049.47,1.262,1.262,0,0,1-.975.743c-.482,0-.664-.33-.714-.9a6.35,6.35,0,0,0-.84.84c-.1.111-.315.168-.288-.056a1.327,1.327,0,0,1,.435-.729" fill="#e23734"/>
      <path id="Caminho_13383" data-name="Caminho 13383" d="M12.7,2.947h.671v.625H12.7ZM12.727,0h.625V1.03l-.165,1.546h-.3L12.727,1.03Z" fill="#e23734"/>
      <path id="Caminho_13384" data-name="Caminho 13384" d="M8.052,10.808c-.132-.011-.572.4-.9,1.134-.044.1-.144.109-.176.021a.957.957,0,0,1,.065-.593,1.511,1.511,0,0,1,1.4-.991c.341.067.484.285.583.77.054.264.11.594.154.946a10.394,10.394,0,0,0,1.65-1.617c.11-.144.22-.153.22.022a1.8,1.8,0,0,1-.594,1.112,11.468,11.468,0,0,1-1.2,1.045c.077.462.132.912.187,1.2.088.439.22.594.352.6.407.023.88-.78,1.2-1.452.043-.1.131-.109.164-.021a.89.89,0,0,1-.1.693A1.885,1.885,0,0,1,9.6,14.834c-.584,0-.892-.34-1.024-1.254-.011-.066-.022-.187-.045-.318a10.851,10.851,0,0,0-1.517,1.506c-.088.1-.276.154-.253-.032a2.016,2.016,0,0,1,.66-1.145,10.24,10.24,0,0,1,1.034-.913,6.832,6.832,0,0,0-.407-1.87" fill="#161615"/>
      <rect id="Ret창ngulo_245" data-name="Ret창ngulo 245" width="1.447" height="0.4" transform="translate(11.865 10.067)" fill="#161615"/>
      <path id="Caminho_13385" data-name="Caminho 13385" d="M15.342,11.659h-.426V9.116H14v-.34c.485,0,.926-.13,1.021-.666h.325Z" fill="#161615"/>
    </g>
  </g>
</svg>
