<svg xmlns="http://www.w3.org/2000/svg" xmlns:xlink="http://www.w3.org/1999/xlink" width="42.305" height="32.006" viewBox="0 0 42.305 32.006">
  <defs>
    <clipPath id="clip-path">
      <rect id="Retângulo_234" data-name="Retângulo 234" width="42.305" height="32.006" transform="translate(0 0)" fill="none"/>
    </clipPath>
  </defs>
  <g id="cie_tecla_setas" transform="translate(0 0)">
    <g id="Grupo_13051" data-name="Grupo 13051" clip-path="url(#clip-path)">
      <path id="Caminho_13323" data-name="Caminho 13323" d="M41.927,31.164,41.615,16,41.927.842l0-.119c0-.182-8.232-.33-18.755-.347H19.13C8.607.393.378.541.375.723l0,.119L.691,16,.378,31.164l0,.118c0,.183,8.232.33,18.755.348h4.045c10.523-.018,18.752-.165,18.755-.348Z" fill="#6e549b"/>
      <path id="Caminho_13324" data-name="Caminho 13324" d="M41.927,31.164,41.615,16,41.927.842l0-.119c0-.182-8.232-.33-18.755-.347H19.13C8.607.393.378.541.375.723l0,.119L.691,16,.378,31.164l0,.118c0,.183,8.232.33,18.755.348h4.045c10.523-.018,18.752-.165,18.755-.348Z" fill="none" stroke="#3c287a" stroke-miterlimit="10" stroke-width="0.75"/>
      <path id="Caminho_13325" data-name="Caminho 13325" d="M40.069,29.808,39.785,16l.284-13.8,0-.108c0-.167-7.495-.3-17.076-.317H19.311c-9.582.016-17.075.15-17.077.317l0,.108L2.521,16,2.236,29.808l0,.107c0,.167,7.5.3,17.077.318H23c9.581-.017,17.074-.151,17.076-.318Z" fill="#795fa3"/>
      <path id="Caminho_13326" data-name="Caminho 13326" d="M40.069,29.808,39.785,16l.284-13.8,0-.108c0-.167-7.495-.3-17.076-.317H19.311c-9.582.016-17.075.15-17.077.317l0,.108L2.521,16,2.236,29.808l0,.107c0,.167,7.5.3,17.077.318H23c9.581-.017,17.074-.151,17.076-.318Z" fill="none" stroke="#3c287a" stroke-miterlimit="10" stroke-width="0.75"/>
      <path id="Caminho_13327" data-name="Caminho 13327" d="M18.984,8.5a.5.5,0,0,1-.432-.752L20.721,4.03a.5.5,0,0,1,.864,0l2.17,3.714a.5.5,0,0,1-.432.752Z" fill="#fff286"/>
      <path id="Caminho_13328" data-name="Caminho 13328" d="M21.153,4.282,23.323,8h-4.34Zm0-1h0a1,1,0,0,0-.865.5L18.119,7.492A1,1,0,0,0,18.983,9h4.34a1,1,0,0,0,.863-1.505L22.015,3.777a1,1,0,0,0-.862-.495" fill="#3c287a"/>
      <path id="Caminho_13329" data-name="Caminho 13329" d="M21.153,28.223A.5.5,0,0,1,20.736,28l-2.169-3.3a.5.5,0,0,1,.417-.775h4.339a.5.5,0,0,1,.418.776L21.57,28a.5.5,0,0,1-.417.225" fill="#fff286"/>
      <path id="Caminho_13330" data-name="Caminho 13330" d="M23.323,24.427l-2.171,3.3-2.169-3.3Zm0-1h-4.34a1,1,0,0,0-.835,1.55l2.169,3.3a1,1,0,0,0,1.67,0l2.171-3.3a1,1,0,0,0-.835-1.55m0,2h0Z" fill="#3c287a"/>
      <path id="Caminho_13331" data-name="Caminho 13331" d="M33.915,18.673a.5.5,0,0,1-.5-.5V13.834a.5.5,0,0,1,.5-.5.494.494,0,0,1,.274.082l3.3,2.169a.5.5,0,0,1,0,.835l-3.3,2.171a.494.494,0,0,1-.274.082" fill="#fff286"/>
      <path id="Caminho_13332" data-name="Caminho 13332" d="M33.915,13.833,37.214,16l-3.3,2.171Zm0-1a1,1,0,0,0-1,1v4.34a1,1,0,0,0,1.55.835l3.3-2.171a1,1,0,0,0,0-1.671L34.464,13a1,1,0,0,0-.549-.164" fill="#3c287a"/>
      <path id="Caminho_13333" data-name="Caminho 13333" d="M8.392,18.673a.5.5,0,0,1-.275-.082l-3.3-2.171a.5.5,0,0,1,0-.835l3.3-2.169a.5.5,0,0,1,.511-.022.5.5,0,0,1,.263.44v4.339a.5.5,0,0,1-.5.5" fill="#fff286"/>
      <path id="Caminho_13334" data-name="Caminho 13334" d="M8.392,13.833v4.34L5.091,16Zm0-1A1,1,0,0,0,7.843,13l-3.3,2.169a1,1,0,0,0,0,1.671l3.3,2.171a1,1,0,0,0,1.55-.835v-4.34a1,1,0,0,0-1-1" fill="#3c287a"/>
    </g>
  </g>
</svg>
