<svg xmlns="http://www.w3.org/2000/svg" xmlns:xlink="http://www.w3.org/1999/xlink" width="22.923" height="14.49" viewBox="0 0 22.923 14.49">
  <defs>
    <clipPath id="clip-path">
      <rect id="Retângulo_172" data-name="Retângulo 172" width="22.923" height="14.49" transform="translate(0 0)" fill="none"/>
    </clipPath>
  </defs>
  <g id="cie_tecla_a_elevado_b_c_2" transform="translate(0 0)">
    <g id="Grupo_12940" data-name="Grupo 12940">
      <g id="Grupo_12939" data-name="Grupo 12939" clip-path="url(#clip-path)">
        <path id="Caminho_13114" data-name="Caminho 13114" d="M22.548,1.256c0-.084-4.965-.145-11.086-.145S.378,1.172.375,1.256l0,.047L.712,13.978c0,.076,4.952.136,10.75.136s10.752-.06,10.752-.136L22.546,1.3Z" fill="#fff286"/>
        <path id="Caminho_13115" data-name="Caminho 13115" d="M22.548,1.256c0-.084-4.965-.145-11.086-.145S.378,1.172.375,1.256l0,.047L.712,13.978c0,.076,4.952.136,10.75.136s10.752-.06,10.752-.136L22.546,1.3Z" fill="none" stroke="#f58a2c" stroke-miterlimit="10" stroke-width="0.75"/>
        <path id="Caminho_13116" data-name="Caminho 13116" d="M21.291,2.224c0-.066-4.354-.12-9.723-.12s-9.724.054-9.726.12l0,.041.293,10.522c0,.065,4.343.115,9.431.115s9.43-.05,9.43-.115l.291-10.522Z" fill="#fff6ad"/>
        <path id="Caminho_13117" data-name="Caminho 13117" d="M21.291,2.224c0-.066-4.354-.12-9.723-.12s-9.724.054-9.726.12l0,.041.293,10.522c0,.065,4.343.115,9.431.115s9.43-.05,9.43-.115l.291-10.522Z" fill="none" stroke="#f58a2c" stroke-miterlimit="10" stroke-width="0.75"/>
      </g>
    </g>
    <path id="Caminho_13490" data-name="Caminho 13490" d="M3.456-1.62c0,.423-.414,1.053-1.422,1.053-.468,0-.9-.18-.9-.684,0-.567.432-.747.936-.837A3.94,3.94,0,0,0,3.456-2.4ZM4.7-.612a.657.657,0,0,1-.234.045c-.243,0-.243-.162-.243-.522V-3.483c0-1.089-.909-1.278-1.746-1.278C1.44-4.761.549-4.356.5-3.2h.765c.036-.684.513-.882,1.161-.882.486,0,1.035.108,1.035.774,0,.576-.72.522-1.566.684C1.107-2.475.324-2.25.324-1.2.324-.27,1.017.108,1.863.108A2.065,2.065,0,0,0,3.5-.612c0,.5.252.72.648.72A1.032,1.032,0,0,0,4.7-.018Z" transform="translate(5.388 10.471)" fill="#161615"/>
    <path id="Caminho_13489" data-name="Caminho 13489" d="M2.335-1.315c0,.505-.195,1-.775,1S.745-.785.745-1.3c0-.485.22-.975.79-.975C2.085-2.27,2.335-1.8,2.335-1.315ZM.335,0H.76V-.345H.77A.99.99,0,0,0,1.605.06a1.194,1.194,0,0,0,1.18-1.345A1.211,1.211,0,0,0,1.6-2.645a.87.87,0,0,0-.825.41H.76V-3.57H.335Zm2.54.085H3.24l1.48-3.74H4.355Zm4.27-1.84a.991.991,0,0,0-1.115-.89A1.218,1.218,0,0,0,4.81-1.26,1.176,1.176,0,0,0,6.02.06,1.074,1.074,0,0,0,7.16-.945H6.725a.668.668,0,0,1-.71.63c-.54,0-.755-.47-.755-.945,0-.525.19-1.01.8-1.01a.6.6,0,0,1,.64.515Z" transform="translate(10.221 7.47)" fill="#161615"/>
  </g>
</svg>
