<svg id="cie_tecla_hyp_2" xmlns="http://www.w3.org/2000/svg" xmlns:xlink="http://www.w3.org/1999/xlink" width="22.923" height="13.753" viewBox="0 0 22.923 13.753">
  <defs>
    <clipPath id="clip-path">
      <rect id="Retângulo_204" data-name="Retângulo 204" width="22.923" height="13.753" transform="translate(0 0)" fill="none"/>
    </clipPath>
  </defs>
  <g id="Grupo_12998" data-name="Grupo 12998">
    <g id="Grupo_12997" data-name="Grupo 12997" clip-path="url(#clip-path)">
      <path id="Caminho_13219" data-name="Caminho 13219" d="M22.548.52c0-.084-4.965-.145-11.086-.145S.378.436.375.52l0,.047L.712,13.242c0,.076,4.952.136,10.75.136s10.752-.06,10.752-.136L22.546.567Z" fill="#fff286"/>
      <path id="Caminho_13220" data-name="Caminho 13220" d="M22.548.52c0-.084-4.965-.145-11.086-.145S.378.436.375.52l0,.047L.712,13.242c0,.076,4.952.136,10.75.136s10.752-.06,10.752-.136L22.546.567Z" fill="none" stroke="#f58a2c" stroke-miterlimit="10" stroke-width="0.75"/>
      <path id="Caminho_13221" data-name="Caminho 13221" d="M21.291,1.487c0-.066-4.354-.12-9.723-.12s-9.724.054-9.726.12l0,.041.293,10.523c0,.064,4.343.114,9.431.114s9.43-.05,9.43-.114l.291-10.523Z" fill="#fff6ad"/>
      <path id="Caminho_13222" data-name="Caminho 13222" d="M21.291,1.487c0-.066-4.354-.12-9.723-.12s-9.724.054-9.726.12l0,.041.293,10.523c0,.064,4.343.114,9.431.114s9.43-.05,9.43-.114l.291-10.523Z" fill="none" stroke="#f58a2c" stroke-miterlimit="10" stroke-width="0.75"/>
    </g>
  </g>
  <path id="Caminho_13464" data-name="Caminho 13464" d="M.576,0h.765V-2.628A1.308,1.308,0,0,1,2.718-4.086a.877.877,0,0,1,.945.936V0h.765V-3.06c0-1-.378-1.7-1.6-1.7a1.575,1.575,0,0,0-1.467.792H1.341V-6.426H.576ZM9.432-4.653h-.81L7.317-.846H7.3L5.94-4.653H5.076L6.921-.027,6.606.765a.661.661,0,0,1-.63.423,1.565,1.565,0,0,1-.45-.108v.7a1.523,1.523,0,0,0,.531.081c.684,0,1-.333,1.35-1.242Zm4.275,2.286c0,.909-.351,1.8-1.395,1.8s-1.467-.846-1.467-1.764c0-.873.4-1.755,1.422-1.755C13.257-4.086,13.707-3.24,13.707-2.367Zm-3.6,4.149h.765v-2.4h.018a1.782,1.782,0,0,0,1.5.729,2.149,2.149,0,0,0,2.124-2.421,2.18,2.18,0,0,0-2.142-2.448,1.566,1.566,0,0,0-1.485.738h-.018v-.63h-.765Z" transform="translate(4.249 9.852)" fill="#161615"/>
</svg>
