<svg xmlns="http://www.w3.org/2000/svg" xmlns:xlink="http://www.w3.org/1999/xlink" width="22.923" height="13.753" viewBox="0 0 22.923 13.753">
  <defs>
    <clipPath id="clip-path">
      <rect id="Retângulo_210" data-name="Retângulo 210" width="22.923" height="13.753" transform="translate(0 0)" fill="none"/>
    </clipPath>
  </defs>
  <g id="cie_tecla_in_2" transform="translate(0 0)">
    <g id="Grupo_13009" data-name="Grupo 13009">
      <g id="Grupo_13008" data-name="Grupo 13008" clip-path="url(#clip-path)">
        <path id="Caminho_13235" data-name="Caminho 13235" d="M22.548.519c0-.084-4.965-.145-11.086-.145S.378.435.375.519l0,.047L.712,13.241c0,.076,4.952.136,10.75.136s10.752-.06,10.752-.136L22.546.566Z" fill="#fff286"/>
        <path id="Caminho_13236" data-name="Caminho 13236" d="M22.548.519c0-.084-4.965-.145-11.086-.145S.378.435.375.519l0,.047L.712,13.241c0,.076,4.952.136,10.75.136s10.752-.06,10.752-.136L22.546.566Z" fill="none" stroke="#f58a2c" stroke-miterlimit="10" stroke-width="0.75"/>
        <path id="Caminho_13237" data-name="Caminho 13237" d="M21.291,1.487c0-.066-4.354-.12-9.723-.12s-9.724.054-9.726.12l0,.041L2.137,12.05c0,.065,4.343.115,9.431.115S21,12.115,21,12.05l.291-10.522Z" fill="#fff6ad"/>
        <path id="Caminho_13238" data-name="Caminho 13238" d="M21.291,1.487c0-.066-4.354-.12-9.723-.12s-9.724.054-9.726.12l0,.041L2.137,12.05c0,.065,4.343.115,9.431.115S21,12.115,21,12.05l.291-10.522Z" fill="none" stroke="#f58a2c" stroke-miterlimit="10" stroke-width="0.75"/>
      </g>
    </g>
    <path id="Caminho_13448" data-name="Caminho 13448" d="M.738,0h.855V-6.426H.738ZM2.907,0h.765V-2.628A1.308,1.308,0,0,1,5.049-4.086a.877.877,0,0,1,.945.936V0h.765V-3.06c0-1-.378-1.7-1.6-1.7a1.62,1.62,0,0,0-1.512.846H3.627v-.738h-.72Z" transform="translate(7.69 9.733)" fill="#161615"/>
  </g>
</svg>
