<svg id="cie_tecla_grau_2" xmlns="http://www.w3.org/2000/svg" xmlns:xlink="http://www.w3.org/1999/xlink" width="22.922" height="13.753" viewBox="0 0 22.922 13.753">
  <defs>
    <clipPath id="clip-path">
      <rect id="Retângulo_201" data-name="Retângulo 201" width="22.922" height="13.753" transform="translate(0 0)" fill="none"/>
    </clipPath>
  </defs>
  <g id="Grupo_12992" data-name="Grupo 12992">
    <g id="Grupo_12991" data-name="Grupo 12991" clip-path="url(#clip-path)">
      <path id="Caminho_13211" data-name="Caminho 13211" d="M22.547.52c0-.084-4.965-.145-11.086-.145S.377.436.375.52l0,.047L.711,13.242c0,.076,4.953.136,10.75.136s10.752-.06,10.752-.136L22.545.567Z" fill="#fff286"/>
      <path id="Caminho_13212" data-name="Caminho 13212" d="M22.547.52c0-.084-4.965-.145-11.086-.145S.377.436.375.52l0,.047L.711,13.242c0,.076,4.953.136,10.75.136s10.752-.06,10.752-.136L22.545.567Z" fill="none" stroke="#f58a2c" stroke-miterlimit="10" stroke-width="0.75"/>
      <path id="Caminho_13213" data-name="Caminho 13213" d="M21.291,1.487c0-.066-4.354-.12-9.723-.12s-9.724.054-9.726.12l0,.041.293,10.523c0,.064,4.343.114,9.431.114s9.43-.05,9.43-.114l.291-10.523Z" fill="#fff6ad"/>
      <path id="Caminho_13214" data-name="Caminho 13214" d="M21.291,1.487c0-.066-4.354-.12-9.723-.12s-9.724.054-9.726.12l0,.041.293,10.523c0,.064,4.343.114,9.431.114s9.43-.05,9.43-.114l.291-10.523Z" fill="none" stroke="#f58a2c" stroke-miterlimit="10" stroke-width="0.75"/>
    </g>
  </g>
  <path id="Caminho_13460" data-name="Caminho 13460" d="M1.728-6.381a1.4,1.4,0,0,0-1.5,1.494A1.4,1.4,0,0,0,1.737-3.42,1.364,1.364,0,0,0,3.231-4.887,1.4,1.4,0,0,0,1.728-6.381Zm0,.45c.387,0,.891.18.891,1.053,0,.54-.243,1.008-.882,1.008s-.9-.477-.9-1.017C.837-5.607,1.242-5.931,1.728-5.931Z" transform="translate(4.003 10.671)" fill="#161615"/>
  <g id="Grupo_12994" data-name="Grupo 12994">
    <g id="Grupo_12993" data-name="Grupo 12993" clip-path="url(#clip-path)">
      <path id="Caminho_13461" data-name="Caminho 13461" d="M3.249-5.427H3.78c0,.414-.117.873-.522.873v.45c.693,0,.99-.612.99-1.323v-1h-1Zm6.5,0h.531c0,.414-.117.873-.522.873v.45c.693,0,.99-.612.99-1.323v-1h-1Zm-1.647,0h.531c0,.414-.117.873-.522.873v.45c.693,0,.99-.612.99-1.323v-1h-1Z" transform="translate(7.459 11.671)" fill="#161615"/>
    </g>
  </g>
</svg>
