<svg xmlns="http://www.w3.org/2000/svg" xmlns:xlink="http://www.w3.org/1999/xlink" width="22.923" height="13.753" viewBox="0 0 22.923 13.753">
  <defs>
    <clipPath id="clip-path">
      <rect id="Retângulo_242" data-name="Retângulo 242" width="22.923" height="13.753" transform="translate(0 0)" fill="none"/>
    </clipPath>
  </defs>
  <g id="cie_tecla_x_elevado_2" transform="translate(0 0)">
    <g id="Grupo_13063" data-name="Grupo 13063" clip-path="url(#clip-path)">
      <path id="Caminho_13359" data-name="Caminho 13359" d="M22.548.519c0-.084-4.965-.145-11.086-.145S.378.435.375.519l0,.047L.712,13.241c0,.076,4.952.136,10.75.136s10.752-.06,10.752-.136L22.546.566Z" fill="#fff286"/>
      <path id="Caminho_13360" data-name="Caminho 13360" d="M22.548.519c0-.084-4.965-.145-11.086-.145S.378.435.375.519l0,.047L.712,13.241c0,.076,4.952.136,10.75.136s10.752-.06,10.752-.136L22.546.566Z" fill="none" stroke="#f58a2c" stroke-miterlimit="10" stroke-width="0.75"/>
      <path id="Caminho_13361" data-name="Caminho 13361" d="M21.291,1.487c0-.066-4.354-.12-9.723-.12s-9.724.054-9.726.12l0,.041L2.137,12.05c0,.065,4.343.115,9.431.115S21,12.115,21,12.05l.291-10.522Z" fill="#fff6ad"/>
      <path id="Caminho_13362" data-name="Caminho 13362" d="M21.291,1.487c0-.066-4.354-.12-9.723-.12s-9.724.054-9.726.12l0,.041L2.137,12.05c0,.065,4.343.115,9.431.115S21,12.115,21,12.05l.291-10.522Z" fill="none" stroke="#f58a2c" stroke-miterlimit="10" stroke-width="0.75"/>
      <path id="Caminho_13363" data-name="Caminho 13363" d="M9.25,5.883c-.133-.012-.572.395-.9,1.133-.044.1-.143.109-.176.021a.951.951,0,0,1,.066-.593,1.513,1.513,0,0,1,1.4-.991c.342.067.484.286.584.771.054.263.109.594.153.946a10.4,10.4,0,0,0,1.651-1.617c.11-.144.219-.154.219.021a1.792,1.792,0,0,1-.594,1.112,11.248,11.248,0,0,1-1.2,1.045c.076.463.132.913.188,1.2.088.439.218.594.351.6.407.022.88-.781,1.2-1.453.043-.1.131-.109.165-.021a.9.9,0,0,1-.1.693A1.885,1.885,0,0,1,10.8,9.908c-.582,0-.891-.339-1.024-1.254-.009-.065-.021-.186-.043-.318A10.919,10.919,0,0,0,8.216,9.843c-.088.1-.275.154-.253-.032a2.016,2.016,0,0,1,.66-1.145,10.327,10.327,0,0,1,1.033-.914A6.836,6.836,0,0,0,9.25,5.883" fill="#161615"/>
      <path id="Caminho_13364" data-name="Caminho 13364" d="M13.034,4.442a1.1,1.1,0,0,1,1.142-1.257,1.008,1.008,0,0,1,1.111,1.021,1.422,1.422,0,0,1-.861,1.216c-.446.27-.912.5-1,.936h1.822v.375H12.934a1.693,1.693,0,0,1,1-1.451c.6-.37.907-.59.907-1.08a.646.646,0,0,0-.686-.641c-.5,0-.706.455-.691.881Z" fill="#161615"/>
    </g>
  </g>
</svg>
