<svg xmlns="http://www.w3.org/2000/svg" xmlns:xlink="http://www.w3.org/1999/xlink" width="22.924" height="13.753" viewBox="0 0 22.924 13.753">
  <defs>
    <clipPath id="clip-path">
      <rect id="Retângulo_198" data-name="Retângulo 198" width="22.924" height="13.753" transform="translate(0 0)" fill="none"/>
    </clipPath>
  </defs>
  <g id="cie_tecla_fecha_parent_2" transform="translate(0 0)">
    <g id="Grupo_12986" data-name="Grupo 12986">
      <g id="Grupo_12985" data-name="Grupo 12985" clip-path="url(#clip-path)">
        <path id="Caminho_13202" data-name="Caminho 13202" d="M22.548.519c0-.084-4.965-.145-11.086-.145S.378.435.375.519l0,.047L.712,13.241c0,.076,4.952.136,10.75.136s10.752-.06,10.752-.136L22.546.566Z" fill="#fff286"/>
        <path id="Caminho_13203" data-name="Caminho 13203" d="M22.548.519c0-.084-4.965-.145-11.086-.145S.378.435.375.519l0,.047L.712,13.241c0,.076,4.952.136,10.75.136s10.752-.06,10.752-.136L22.546.566Z" fill="none" stroke="#f58a2c" stroke-miterlimit="10" stroke-width="0.75"/>
        <path id="Caminho_13204" data-name="Caminho 13204" d="M21.291,1.487c0-.066-4.354-.12-9.723-.12s-9.724.054-9.726.12l0,.041L2.137,12.05c0,.065,4.343.115,9.431.115S21,12.115,21,12.05l.291-10.522Z" fill="#fff6ad"/>
        <path id="Caminho_13205" data-name="Caminho 13205" d="M21.291,1.487c0-.066-4.354-.12-9.723-.12s-9.724.054-9.726.12l0,.041L2.137,12.05c0,.065,4.343.115,9.431.115S21,12.115,21,12.05l.291-10.522Z" fill="none" stroke="#f58a2c" stroke-miterlimit="10" stroke-width="0.75"/>
      </g>
    </g>
    <path id="Caminho_13456" data-name="Caminho 13456" d="M.5,1.782A7.079,7.079,0,0,0,1.908-2.367,7.553,7.553,0,0,0,.5-6.579H-.09A7.586,7.586,0,0,1,1.1-2.367,7.446,7.446,0,0,1-.09,1.782Z" transform="translate(10.843 9.676)" fill="#161615"/>
  </g>
</svg>
