<svg xmlns="http://www.w3.org/2000/svg" xmlns:xlink="http://www.w3.org/1999/xlink" width="27.448" height="17.578" viewBox="0 0 27.448 17.578">
  <defs>
    <clipPath id="clip-path">
      <rect id="Retângulo_166" data-name="Retângulo 166" width="27.448" height="17.578" transform="translate(0 0)" fill="none"/>
    </clipPath>
  </defs>
  <g id="cie_tecla_5" transform="translate(0 0)">
    <g id="Grupo_12927" data-name="Grupo 12927">
      <g id="Grupo_12926" data-name="Grupo 12926" clip-path="url(#clip-path)">
        <path id="Caminho_13090" data-name="Caminho 13090" d="M27.073.562c0-.109-5.427-.187-13.349-.187S.378.453.375.562l0,.061.433,16.4c0,.1,5.41.176,12.913.176s12.915-.079,12.915-.176l.43-16.4Z" fill="#b9c73a"/>
        <path id="Caminho_13091" data-name="Caminho 13091" d="M27.073.562c0-.109-5.427-.187-13.349-.187S.378.453.375.562l0,.061.433,16.4c0,.1,5.41.176,12.913.176s12.915-.079,12.915-.176l.43-16.4Z" fill="none" stroke="#669d3e" stroke-miterlimit="10" stroke-width="0.75"/>
        <path id="Caminho_13092" data-name="Caminho 13092" d="M25.445,1.814c0-.086-4.635-.154-11.584-.154s-11.586.068-11.589.154l0,.053.38,13.619c0,.082,4.621.146,11.206.146s11.2-.064,11.2-.146l.377-13.619Z" fill="#b9c73a"/>
        <path id="Caminho_13093" data-name="Caminho 13093" d="M25.445,1.814c0-.086-4.635-.154-11.584-.154s-11.586.068-11.589.154l0,.053.38,13.619c0,.082,4.621.146,11.206.146s11.2-.064,11.2-.146l.377-13.619Z" fill="none" stroke="#669d3e" stroke-miterlimit="10" stroke-width="0.75"/>
      </g>
    </g>
    <path id="Caminho_13498" data-name="Caminho 13498" d="M5.64-8.364H1.44L.648-3.948l.876.048a2.042,2.042,0,0,1,1.584-.8,1.843,1.843,0,0,1,1.92,1.932,1.791,1.791,0,0,1-1.8,2.016A1.675,1.675,0,0,1,1.44-2.292H.42A2.5,2.5,0,0,0,3.132.144,2.777,2.777,0,0,0,6.108-2.688,2.648,2.648,0,0,0,3.36-5.6a2.152,2.152,0,0,0-1.584.612l-.024-.024.456-2.448H5.64Z" transform="translate(10.388 13.81)" fill="#161615"/>
  </g>
</svg>
