<svg xmlns="http://www.w3.org/2000/svg" xmlns:xlink="http://www.w3.org/1999/xlink" width="22.922" height="18.987" viewBox="0 0 22.922 18.987">
  <defs>
    <clipPath id="clip-path">
      <rect id="Retângulo_199" data-name="Retângulo 199" width="22.922" height="18.987" transform="translate(0 0)" fill="none"/>
    </clipPath>
  </defs>
  <g id="cie_tecla_grau" transform="translate(0 0)">
    <g id="Grupo_12988" data-name="Grupo 12988">
      <g id="Grupo_12987" data-name="Grupo 12987" clip-path="url(#clip-path)">
        <path id="Caminho_13206" data-name="Caminho 13206" d="M22.547,5.753c0-.084-4.965-.145-11.086-.145S.377,5.669.375,5.753l0,.047L.711,18.475c0,.076,4.953.136,10.75.136s10.752-.06,10.752-.136L22.545,5.8Z" fill="#fff286"/>
        <path id="Caminho_13207" data-name="Caminho 13207" d="M22.547,5.753c0-.084-4.965-.145-11.086-.145S.377,5.669.375,5.753l0,.047L.711,18.475c0,.076,4.953.136,10.75.136s10.752-.06,10.752-.136L22.545,5.8Z" fill="none" stroke="#f58a2c" stroke-miterlimit="10" stroke-width="0.75"/>
        <path id="Caminho_13208" data-name="Caminho 13208" d="M21.291,6.721c0-.066-4.354-.12-9.723-.12s-9.724.054-9.726.12l0,.041.293,10.523c0,.064,4.343.114,9.431.114s9.43-.05,9.43-.114l.291-10.523Z" fill="#fff6ad"/>
        <path id="Caminho_13209" data-name="Caminho 13209" d="M21.291,6.721c0-.066-4.354-.12-9.723-.12s-9.724.054-9.726.12l0,.041.293,10.523c0,.064,4.343.114,9.431.114s9.43-.05,9.43-.114l.291-10.523Z" fill="none" stroke="#f58a2c" stroke-miterlimit="10" stroke-width="0.75"/>
        <path id="Caminho_13459" data-name="Caminho 13459" d="M1-1.625H2.11a.525.525,0,0,1,.6.55.531.531,0,0,1-.6.565H1ZM.38,0H2.02c.925,0,1.315-.435,1.315-1a.851.851,0,0,0-.67-.92v-.01a.785.785,0,0,0,.51-.76c0-.6-.42-.885-1.06-.885H.38ZM1-3.06h1.02c.34,0,.525.13.525.49a.478.478,0,0,1-.525.495H1Z" transform="translate(18.286 4.149)" fill="#3e2176"/>
        <path id="Caminho_13210" data-name="Caminho 13210" d="M7.609,3.005v-1H3.438l.418-.719L.872,2.505,3.855,3.726l-.418-.721Z" fill="#e23734"/>
      </g>
    </g>
    <path id="Caminho_13457" data-name="Caminho 13457" d="M1.728-6.381a1.4,1.4,0,0,0-1.5,1.494A1.4,1.4,0,0,0,1.737-3.42,1.364,1.364,0,0,0,3.231-4.887,1.4,1.4,0,0,0,1.728-6.381Zm0,.45c.387,0,.891.18.891,1.053,0,.54-.243,1.008-.882,1.008s-.9-.477-.9-1.017C.837-5.607,1.242-5.931,1.728-5.931Z" transform="translate(4.003 15.904)" fill="#161615"/>
    <g id="Grupo_12990" data-name="Grupo 12990">
      <g id="Grupo_12989" data-name="Grupo 12989" clip-path="url(#clip-path)">
        <path id="Caminho_13458" data-name="Caminho 13458" d="M3.249-5.427H3.78c0,.414-.117.873-.522.873v.45c.693,0,.99-.612.99-1.323v-1h-1Zm6.5,0h.531c0,.414-.117.873-.522.873v.45c.693,0,.99-.612.99-1.323v-1h-1Zm-1.647,0h.531c0,.414-.117.873-.522.873v.45c.693,0,.99-.612.99-1.323v-1h-1Z" transform="translate(7.459 16.904)" fill="#161615"/>
      </g>
    </g>
  </g>
</svg>
