<svg xmlns="http://www.w3.org/2000/svg" xmlns:xlink="http://www.w3.org/1999/xlink" width="22.925" height="18.938" viewBox="0 0 22.925 18.938">
  <defs>
    <clipPath id="clip-path">
      <rect id="Retângulo_240" data-name="Retângulo 240" width="22.925" height="18.938" transform="translate(0 0)" fill="none"/>
    </clipPath>
  </defs>
  <g id="cie_tecla_virgula" transform="translate(0 0)">
    <g id="Grupo_13061" data-name="Grupo 13061" clip-path="url(#clip-path)">
      <path id="Caminho_13351" data-name="Caminho 13351" d="M22.549,5.7c0-.084-4.965-.145-11.086-.145S.379,5.62.375,5.7l0,.047L.713,18.426c0,.076,4.951.136,10.75.136s10.752-.06,10.752-.136l.332-12.675Z" fill="#fff286"/>
      <path id="Caminho_13352" data-name="Caminho 13352" d="M22.549,5.7c0-.084-4.965-.145-11.086-.145S.379,5.62.375,5.7l0,.047L.713,18.426c0,.076,4.951.136,10.75.136s10.752-.06,10.752-.136l.332-12.675Z" fill="none" stroke="#f58a2c" stroke-miterlimit="10" stroke-width="0.75"/>
      <path id="Caminho_13353" data-name="Caminho 13353" d="M21.292,6.672c0-.066-4.354-.12-9.723-.12s-9.724.054-9.726.12l0,.041.293,10.522c0,.065,4.343.115,9.431.115S21,17.3,21,17.235L21.29,6.713Z" fill="#fff6ad"/>
      <path id="Caminho_13354" data-name="Caminho 13354" d="M21.292,6.672c0-.066-4.354-.12-9.723-.12s-9.724.054-9.726.12l0,.041.293,10.522c0,.065,4.343.115,9.431.115S21,17.3,21,17.235L21.29,6.713Z" fill="none" stroke="#f58a2c" stroke-miterlimit="10" stroke-width="0.75"/>
      <path id="Caminho_13402" data-name="Caminho 13402" d="M1.31,0h.625V-1.4L3.27-3.57h-.7l-.93,1.6L.7-3.57H-.03L1.31-1.4Z" transform="translate(19.648 4.15)" fill="#3e2176"/>
      <path id="Caminho_13401" data-name="Caminho 13401" d="M.415,0h.3A.478.478,0,0,1,.42.485v.25A.738.738,0,0,0,.97-.05V-.555H.415ZM.97-2.585H.415v.555H.97Z" transform="translate(1.678 4.15)" fill="#e23734"/>
      <path id="Caminho_13400" data-name="Caminho 13400" d="M.747-5.427h.531c0,.414-.117.873-.522.873v.45c.693,0,.99-.612.99-1.323v-1h-1Z" transform="translate(11.008 16.83)" fill="#161615"/>
    </g>
  </g>
</svg>
