<svg xmlns="http://www.w3.org/2000/svg" xmlns:xlink="http://www.w3.org/1999/xlink" width="22.925" height="13.753" viewBox="0 0 22.925 13.753">
  <defs>
    <clipPath id="clip-path">
      <rect id="Retângulo_212" data-name="Retângulo 212" width="22.925" height="13.753" transform="translate(0 0)" fill="none"/>
    </clipPath>
  </defs>
  <g id="cie_tecla_log_2" transform="translate(0 0)">
    <g id="Grupo_13013" data-name="Grupo 13013">
      <g id="Grupo_13012" data-name="Grupo 13012" clip-path="url(#clip-path)">
        <path id="Caminho_13243" data-name="Caminho 13243" d="M22.549.519c0-.084-4.965-.145-11.086-.145S.379.435.375.519l0,.047L.713,13.241c0,.076,4.951.136,10.75.136s10.752-.06,10.752-.136L22.547.566Z" fill="#fff286"/>
        <path id="Caminho_13244" data-name="Caminho 13244" d="M22.549.519c0-.084-4.965-.145-11.086-.145S.379.435.375.519l0,.047L.713,13.241c0,.076,4.951.136,10.75.136s10.752-.06,10.752-.136L22.547.566Z" fill="none" stroke="#f58a2c" stroke-miterlimit="10" stroke-width="0.75"/>
        <path id="Caminho_13245" data-name="Caminho 13245" d="M21.292,1.487c0-.066-4.354-.12-9.723-.12s-9.724.054-9.726.12l0,.041L2.138,12.05c0,.065,4.343.115,9.431.115S21,12.115,21,12.05L21.29,1.528Z" fill="#fff6ad"/>
        <path id="Caminho_13246" data-name="Caminho 13246" d="M21.292,1.487c0-.066-4.354-.12-9.723-.12s-9.724.054-9.726.12l0,.041L2.138,12.05c0,.065,4.343.115,9.431.115S21,12.115,21,12.05L21.29,1.528Z" fill="none" stroke="#f58a2c" stroke-miterlimit="10" stroke-width="0.75"/>
      </g>
    </g>
    <path id="Caminho_13444" data-name="Caminho 13444" d="M.621,0h.765V-6.426H.621Zm1.7-2.322A2.205,2.205,0,0,0,4.581.108,2.205,2.205,0,0,0,6.84-2.322,2.208,2.208,0,0,0,4.581-4.761,2.208,2.208,0,0,0,2.322-2.322Zm.81,0c0-1.134.648-1.764,1.449-1.764s1.449.63,1.449,1.764S5.382-.567,4.581-.567,3.132-1.2,3.132-2.322Zm6.48,1.7C8.6-.621,8.3-1.557,8.3-2.394c0-.891.4-1.692,1.377-1.692.963,0,1.323.846,1.323,1.665C11-1.548,10.62-.621,9.612-.621Zm2.142-4.032h-.72v.666h-.009a1.519,1.519,0,0,0-1.386-.774A2.2,2.2,0,0,0,7.488-2.3,2.105,2.105,0,0,0,9.567.054a1.55,1.55,0,0,0,1.449-.846h.018v.306c0,1.044-.4,1.764-1.395,1.764-.5,0-1.17-.2-1.206-.756H7.668C7.713,1.539,8.721,1.89,9.594,1.89c1.467,0,2.16-.774,2.16-2.286Z" transform="translate(6.095 9.733)" fill="#161615"/>
  </g>
</svg>
