<svg id="cie_tecla_seno_2" xmlns="http://www.w3.org/2000/svg" xmlns:xlink="http://www.w3.org/1999/xlink" width="22.924" height="13.753" viewBox="0 0 22.924 13.753">
  <defs>
    <clipPath id="clip-path">
      <rect id="Retângulo_233" data-name="Retângulo 233" width="22.924" height="13.753" transform="translate(0 0)" fill="none"/>
    </clipPath>
  </defs>
  <g id="Grupo_13050" data-name="Grupo 13050">
    <g id="Grupo_13049" data-name="Grupo 13049" clip-path="url(#clip-path)">
      <path id="Caminho_13319" data-name="Caminho 13319" d="M22.548.52c0-.084-4.965-.145-11.086-.145S.378.436.375.52l0,.047L.712,13.242c0,.076,4.952.136,10.75.136s10.752-.06,10.752-.136L22.546.567Z" fill="#fff286"/>
      <path id="Caminho_13320" data-name="Caminho 13320" d="M22.548.52c0-.084-4.965-.145-11.086-.145S.378.436.375.52l0,.047L.712,13.242c0,.076,4.952.136,10.75.136s10.752-.06,10.752-.136L22.546.567Z" fill="none" stroke="#f58a2c" stroke-miterlimit="10" stroke-width="0.75"/>
      <path id="Caminho_13321" data-name="Caminho 13321" d="M21.291,1.487c0-.066-4.354-.12-9.723-.12s-9.724.054-9.726.12l0,.041.293,10.523c0,.064,4.343.114,9.431.114s9.43-.05,9.43-.114l.291-10.523Z" fill="#fff6ad"/>
      <path id="Caminho_13322" data-name="Caminho 13322" d="M21.291,1.487c0-.066-4.354-.12-9.723-.12s-9.724.054-9.726.12l0,.041.293,10.523c0,.064,4.343.114,9.431.114s9.43-.05,9.43-.114l.291-10.523Z" fill="none" stroke="#f58a2c" stroke-miterlimit="10" stroke-width="0.75"/>
    </g>
  </g>
  <path id="Caminho_13410" data-name="Caminho 13410" d="M.279-1.467C.324-.315,1.206.108,2.25.108c.945,0,1.98-.36,1.98-1.467,0-.9-.756-1.152-1.521-1.323C2-2.853,1.188-2.943,1.188-3.492c0-.468.531-.594.99-.594.5,0,1.026.189,1.08.783h.765C3.96-4.437,3.141-4.761,2.115-4.761c-.81,0-1.737.387-1.737,1.323,0,.891.765,1.143,1.521,1.314s1.521.27,1.521.864S2.772-.567,2.3-.567c-.63,0-1.224-.216-1.251-.9ZM5.121,0h.765V-4.653H5.121Zm.765-6.426H5.121v.936h.765ZM7.074,0h.765V-2.628A1.308,1.308,0,0,1,9.216-4.086a.877.877,0,0,1,.945.936V0h.765V-3.06c0-1-.378-1.7-1.6-1.7a1.62,1.62,0,0,0-1.512.846H7.794v-.738h-.72Z" transform="translate(6.213 9.852)" fill="#161615"/>
</svg>
