<svg xmlns="http://www.w3.org/2000/svg" xmlns:xlink="http://www.w3.org/1999/xlink" width="27.448" height="22.958" viewBox="0 0 27.448 22.958">
  <defs>
    <clipPath id="clip-path">
      <rect id="Retângulo_161" data-name="Retângulo 161" width="27.448" height="22.958" transform="translate(0 0)" fill="none"/>
    </clipPath>
  </defs>
  <g id="cie_tecla_2" transform="translate(0 0)">
    <g id="Grupo_12917" data-name="Grupo 12917">
      <g id="Grupo_12916" data-name="Grupo 12916" clip-path="url(#clip-path)">
        <path id="Caminho_13083" data-name="Caminho 13083" d="M.165-1.19C.18-.305.84.085,1.655.085c.71,0,1.42-.32,1.42-1.12a.945.945,0,0,0-.695-.91C2.2-2,1.405-2.205,1.35-2.22,1.1-2.29.925-2.43.925-2.68c0-.36.365-.465.655-.465.43,0,.74.17.77.63h.625c0-.745-.625-1.14-1.37-1.14C.96-3.655.3-3.32.3-2.605a.906.906,0,0,0,.79.9c.49.135.815.2,1.065.295a.424.424,0,0,1,.295.44c0,.27-.2.54-.755.54C1.2-.425.79-.64.79-1.19Zm3.32.1H4.94v-.54H3.485ZM6.35,0h.7l1.22-3.57H7.63L6.715-.745H6.7L5.81-3.57H5.16ZM9.345-2.955H9.36L9.895-1.42H8.8ZM7.655,0H8.3l.335-.945H10.06L10.395,0h.67L9.69-3.57H9.025ZM12.03-3.06h1.015c.325,0,.62.09.62.545,0,.375-.215.57-.61.57H12.03ZM11.4,0h.625V-1.47h.92c.575,0,.71.29.71.945A1,1,0,0,0,13.755,0h.67a1.624,1.624,0,0,1-.195-.94c0-.565-.315-.725-.53-.755v-.01a.867.867,0,0,0,.59-.9c0-.605-.4-.965-1.18-.965H11.4Z" transform="translate(6.295 4.149)" fill="#e23734"/>
      </g>
    </g>
    <path id="Caminho_13061" data-name="Caminho 13061" d="M21.227,2.3V2.013h1.215V5.507h-.283V2.3Z" fill="#0064b3"/>
    <path id="Caminho_13062" data-name="Caminho 13062" d="M5.289,2.077V5.408H5.006V1.784H6.221v.293Z" fill="#0064b3"/>
    <g id="Grupo_12919" data-name="Grupo 12919">
      <g id="Grupo_12918" data-name="Grupo 12918" clip-path="url(#clip-path)">
        <path id="Caminho_13063" data-name="Caminho 13063" d="M27.073,5.942c0-.109-5.427-.187-13.349-.187S.378,5.833.375,5.942L.378,6l.433,16.4c0,.1,5.41.176,12.913.176s12.915-.079,12.915-.176L27.069,6Z" fill="#b9c73a"/>
        <path id="Caminho_13064" data-name="Caminho 13064" d="M27.073,5.942c0-.109-5.427-.187-13.349-.187S.378,5.833.375,5.942L.378,6l.433,16.4c0,.1,5.41.176,12.913.176s12.915-.079,12.915-.176L27.069,6Z" fill="none" stroke="#669d3e" stroke-miterlimit="10" stroke-width="0.75"/>
        <path id="Caminho_13065" data-name="Caminho 13065" d="M25.445,7.194c0-.086-4.635-.154-11.584-.154s-11.586.068-11.589.154l0,.053.38,13.619c0,.082,4.621.146,11.206.146s11.2-.064,11.2-.146l.377-13.619Z" fill="#b9c73a"/>
        <path id="Caminho_13066" data-name="Caminho 13066" d="M25.445,7.194c0-.086-4.635-.154-11.584-.154s-11.586.068-11.589.154l0,.053.38,13.619c0,.082,4.621.146,11.206.146s11.2-.064,11.2-.146l.377-13.619Z" fill="none" stroke="#669d3e" stroke-miterlimit="10" stroke-width="0.75"/>
      </g>
    </g>
    <path id="Caminho_13082" data-name="Caminho 13082" d="M1.548-5.5c-.036-1.02.468-2.112,1.656-2.112A1.55,1.55,0,0,1,4.848-6.072c0,1.176-.732,1.7-2.172,2.592A4.053,4.053,0,0,0,.288,0H5.844V-.9H1.476c.2-1.056,1.32-1.6,2.388-2.244S5.928-4.56,5.928-6.06A2.415,2.415,0,0,0,3.264-8.508,2.638,2.638,0,0,0,.528-5.5Z" transform="translate(10.388 19.016)" fill="#161615"/>
  </g>
</svg>
