<svg xmlns="http://www.w3.org/2000/svg" xmlns:xlink="http://www.w3.org/1999/xlink" width="27.448" height="23.467" viewBox="0 0 27.448 23.467">
  <defs>
    <clipPath id="clip-path">
      <rect id="Retângulo_155" data-name="Retângulo 155" width="27.448" height="23.467" transform="translate(0 0)" fill="none"/>
    </clipPath>
  </defs>
  <g id="cie_tecla_0" transform="translate(0 0)">
    <g id="Grupo_12905" data-name="Grupo 12905">
      <g id="Grupo_12904" data-name="Grupo 12904" clip-path="url(#clip-path)">
        <path id="Caminho_13043" data-name="Caminho 13043" d="M27.073,6.452c0-.109-5.427-.187-13.349-.187S.378,6.343.375,6.452l0,.061.433,16.4c0,.1,5.41.176,12.913.176s12.915-.079,12.915-.176l.43-16.4Z" fill="#b9c73a"/>
        <path id="Caminho_13044" data-name="Caminho 13044" d="M27.073,6.452c0-.109-5.427-.187-13.349-.187S.378,6.343.375,6.452l0,.061.433,16.4c0,.1,5.41.176,12.913.176s12.915-.079,12.915-.176l.43-16.4Z" fill="none" stroke="#669d3e" stroke-miterlimit="10" stroke-width="0.75"/>
        <path id="Caminho_13045" data-name="Caminho 13045" d="M25.445,7.7c0-.086-4.635-.154-11.584-.154S2.275,7.618,2.272,7.7l0,.053.38,13.619c0,.082,4.621.146,11.206.146s11.2-.064,11.2-.146l.377-13.619Z" fill="#b9c73a"/>
        <path id="Caminho_13046" data-name="Caminho 13046" d="M25.445,7.7c0-.086-4.635-.154-11.584-.154S2.275,7.618,2.272,7.7l0,.053.38,13.619c0,.082,4.621.146,11.206.146s11.2-.064,11.2-.146l.377-13.619Z" fill="none" stroke="#669d3e" stroke-miterlimit="10" stroke-width="0.75"/>
      </g>
    </g>
    <path id="Caminho_13088" data-name="Caminho 13088" d="M.5-4.176C.5-2.3.672.144,3.336.144S6.168-2.3,6.168-4.176,6-8.508,3.336-8.508.5-6.06.5-4.176Zm1.08-.012c0-1.26.012-3.42,1.752-3.42s1.752,2.16,1.752,3.42S5.076-.756,3.336-.756,1.584-2.916,1.584-4.188Z" transform="translate(10.388 19.383)" fill="#161615"/>
    <g id="Grupo_12907" data-name="Grupo 12907">
      <g id="Grupo_12906" data-name="Grupo 12906" clip-path="url(#clip-path)">
        <path id="Caminho_13089" data-name="Caminho 13089" d="M1-3.06H2.02c.325,0,.62.09.62.545,0,.375-.215.57-.61.57H1ZM.38,0H1V-1.47h.92c.575,0,.71.29.71.945A1,1,0,0,0,2.73,0H3.4a1.624,1.624,0,0,1-.195-.94c0-.565-.315-.725-.53-.755v-.01a.867.867,0,0,0,.59-.9c0-.605-.4-.965-1.18-.965H.38ZM3.82,0h.57V-1.525a.63.63,0,0,1,.625-.68c.335,0,.495.175.5.58V0h.57V-1.775a.817.817,0,0,0-.915-.88.926.926,0,0,0-.805.46l-.01-.01v-.38H3.82ZM7.135-1.265c0-.465.19-.94.725-.94.44,0,.715.34.715.91,0,.45-.215.915-.725.915S7.135-.82,7.135-1.265ZM9.125-3.57h-.57v1.32h-.01a1,1,0,0,0-.86-.405c-.565,0-1.12.41-1.12,1.345,0,.775.395,1.38,1.21,1.38a.859.859,0,0,0,.8-.42h.01V0h.54Z" transform="translate(9.001 4.15)" fill="#e23734"/>
      </g>
    </g>
  </g>
</svg>
