<svg xmlns="http://www.w3.org/2000/svg" xmlns:xlink="http://www.w3.org/1999/xlink" width="22.925" height="21.172" viewBox="0 0 22.925 21.172">
  <defs>
    <clipPath id="clip-path">
      <rect id="Retângulo_211" data-name="Retângulo 211" width="22.925" height="21.172" transform="translate(0 0)" fill="none"/>
    </clipPath>
  </defs>
  <g id="cie_tecla_log" transform="translate(0 0)">
    <g id="Grupo_13011" data-name="Grupo 13011">
      <g id="Grupo_13010" data-name="Grupo 13010" clip-path="url(#clip-path)">
        <path id="Caminho_13239" data-name="Caminho 13239" d="M22.549,7.939c0-.084-4.965-.145-11.086-.145S.379,7.855.375,7.939l0,.047L.713,20.661c0,.076,4.951.136,10.75.136s10.752-.06,10.752-.136l.332-12.675Z" fill="#fff286"/>
        <path id="Caminho_13240" data-name="Caminho 13240" d="M22.549,7.939c0-.084-4.965-.145-11.086-.145S.379,7.855.375,7.939l0,.047L.713,20.661c0,.076,4.951.136,10.75.136s10.752-.06,10.752-.136l.332-12.675Z" fill="none" stroke="#f58a2c" stroke-miterlimit="10" stroke-width="0.75"/>
        <path id="Caminho_13241" data-name="Caminho 13241" d="M21.292,8.907c0-.066-4.354-.12-9.723-.12s-9.724.054-9.726.12l0,.041L2.138,19.47c0,.065,4.343.115,9.431.115S21,19.535,21,19.47L21.29,8.948Z" fill="#fff6ad"/>
        <path id="Caminho_13242" data-name="Caminho 13242" d="M21.292,8.907c0-.066-4.354-.12-9.723-.12s-9.724.054-9.726.12l0,.041L2.138,19.47c0,.065,4.343.115,9.431.115S21,19.535,21,19.47L21.29,8.948Z" fill="none" stroke="#f58a2c" stroke-miterlimit="10" stroke-width="0.75"/>
      </g>
    </g>
    <path id="Caminho_13447" data-name="Caminho 13447" d="M.265-2.47h.86V0H1.75V-3.5H1.285c-.085.42-.54.585-1.02.58ZM4.17-.405c-.5,0-.64-.615-.64-1.345S3.67-3.1,4.17-3.1s.64.615.64,1.345S4.67-.405,4.17-.405Zm0-3.165c-1.005,0-1.21,1.025-1.21,1.82S3.165.07,4.17.07,5.38-.955,5.38-1.75,5.175-3.57,4.17-3.57Z" transform="translate(8.406 6.151)" fill="#e23734"/>
    <path id="Caminho_13446" data-name="Caminho 13446" d="M.016,0H.552L1.06-.764,1.584,0h.548L1.34-1.112l.7-.956H1.516l-.452.636L.632-2.068H.08l.716.98Z" transform="translate(13.966 4.151)" fill="#e23734"/>
    <path id="Caminho_13445" data-name="Caminho 13445" d="M.621,0h.765V-6.426H.621Zm1.7-2.322A2.205,2.205,0,0,0,4.581.108,2.205,2.205,0,0,0,6.84-2.322,2.208,2.208,0,0,0,4.581-4.761,2.208,2.208,0,0,0,2.322-2.322Zm.81,0c0-1.134.648-1.764,1.449-1.764s1.449.63,1.449,1.764S5.382-.567,4.581-.567,3.132-1.2,3.132-2.322Zm6.48,1.7C8.6-.621,8.3-1.557,8.3-2.394c0-.891.4-1.692,1.377-1.692.963,0,1.323.846,1.323,1.665C11-1.548,10.62-.621,9.612-.621Zm2.142-4.032h-.72v.666h-.009a1.519,1.519,0,0,0-1.386-.774A2.2,2.2,0,0,0,7.488-2.3,2.105,2.105,0,0,0,9.567.054a1.55,1.55,0,0,0,1.449-.846h.018v.306c0,1.044-.4,1.764-1.395,1.764-.5,0-1.17-.2-1.206-.756H7.668C7.713,1.539,8.721,1.89,9.594,1.89c1.467,0,2.16-.774,2.16-2.286Z" transform="translate(6.095 17.153)" fill="#161615"/>
  </g>
</svg>
