<svg xmlns="http://www.w3.org/2000/svg" xmlns:xlink="http://www.w3.org/1999/xlink" width="27.448" height="17.578" viewBox="0 0 27.448 17.578">
  <defs>
    <clipPath id="clip-path">
      <rect id="Retângulo_164" data-name="Retângulo 164" width="27.448" height="17.578" transform="translate(0 0)" fill="none"/>
    </clipPath>
  </defs>
  <g id="cie_tecla_3" transform="translate(0 0)">
    <g id="Grupo_12923" data-name="Grupo 12923">
      <g id="Grupo_12922" data-name="Grupo 12922" clip-path="url(#clip-path)">
        <path id="Caminho_13071" data-name="Caminho 13071" d="M27.073.563c0-.109-5.426-.187-13.349-.187S.379.454.376.563l0,.061.432,16.4c0,.1,5.41.176,12.913.176s12.916-.079,12.916-.176l.43-16.4Z" fill="#b9c73a"/>
        <path id="Caminho_13072" data-name="Caminho 13072" d="M27.073.563c0-.109-5.426-.187-13.349-.187S.379.454.376.563l0,.061.432,16.4c0,.1,5.41.176,12.913.176s12.916-.079,12.916-.176l.43-16.4Z" fill="none" stroke="#669d3e" stroke-miterlimit="10" stroke-width="0.75"/>
        <path id="Caminho_13073" data-name="Caminho 13073" d="M25.446,1.815c0-.086-4.635-.154-11.584-.154s-11.586.068-11.589.154l0,.053.38,13.619c0,.082,4.621.146,11.206.146s11.2-.064,11.2-.146l.377-13.619Z" fill="#b9c73a"/>
        <path id="Caminho_13074" data-name="Caminho 13074" d="M25.446,1.815c0-.086-4.635-.154-11.584-.154s-11.586.068-11.589.154l0,.053.38,13.619c0,.082,4.621.146,11.206.146s11.2-.064,11.2-.146l.377-13.619Z" fill="none" stroke="#669d3e" stroke-miterlimit="10" stroke-width="0.75"/>
      </g>
    </g>
    <path id="Caminho_13080" data-name="Caminho 13080" d="M2.616-4a5.083,5.083,0,0,1,.612-.036A1.625,1.625,0,0,1,5.04-2.4,1.691,1.691,0,0,1,3.192-.756,1.729,1.729,0,0,1,1.38-2.628H.36A2.572,2.572,0,0,0,3.192.144c1.6,0,2.928-.888,2.928-2.592A1.94,1.94,0,0,0,4.584-4.512v-.024A1.949,1.949,0,0,0,5.76-6.228c0-1.572-1.116-2.28-2.592-2.28A2.521,2.521,0,0,0,.54-5.76H1.56c.012-1,.492-1.848,1.608-1.848A1.351,1.351,0,0,1,4.68-6.24,1.44,1.44,0,0,1,3.06-4.848c-.144,0-.288,0-.444-.012Z" transform="translate(10.388 13.637)" fill="#161615"/>
  </g>
</svg>
