<svg xmlns="http://www.w3.org/2000/svg" xmlns:xlink="http://www.w3.org/1999/xlink" width="22.923" height="19.172" viewBox="0 0 22.923 19.172">
  <defs>
    <clipPath id="clip-path">
      <rect id="Retângulo_171" data-name="Retângulo 171" width="22.923" height="19.172" transform="translate(0 0)" fill="none"/>
    </clipPath>
  </defs>
  <g id="cie_tecla_a_elevado_b_c" transform="translate(0 0)">
    <g id="Grupo_12938" data-name="Grupo 12938">
      <g id="Grupo_12937" data-name="Grupo 12937" clip-path="url(#clip-path)">
        <path id="Caminho_13110" data-name="Caminho 13110" d="M22.548,5.939c0-.084-4.965-.145-11.086-.145S.378,5.855.375,5.939l0,.047L.712,18.661c0,.076,4.952.136,10.75.136s10.752-.06,10.752-.136l.332-12.675Z" fill="#fff286"/>
        <path id="Caminho_13111" data-name="Caminho 13111" d="M22.548,5.939c0-.084-4.965-.145-11.086-.145S.378,5.855.375,5.939l0,.047L.712,18.661c0,.076,4.952.136,10.75.136s10.752-.06,10.752-.136l.332-12.675Z" fill="none" stroke="#f58a2c" stroke-miterlimit="10" stroke-width="0.75"/>
        <path id="Caminho_13112" data-name="Caminho 13112" d="M21.291,6.907c0-.066-4.354-.12-9.723-.12s-9.724.054-9.726.12l0,.041L2.137,17.47c0,.065,4.343.115,9.431.115S21,17.535,21,17.47l.291-10.522Z" fill="#fff6ad"/>
        <path id="Caminho_13113" data-name="Caminho 13113" d="M21.291,6.907c0-.066-4.354-.12-9.723-.12s-9.724.054-9.726.12l0,.041L2.137,17.47c0,.065,4.343.115,9.431.115S21,17.535,21,17.47l.291-10.522Z" fill="none" stroke="#f58a2c" stroke-miterlimit="10" stroke-width="0.75"/>
        <path id="Caminho_13493" data-name="Caminho 13493" d="M.745-1.265c0-.465.19-.94.725-.94.44,0,.715.34.715.91,0,.45-.215.915-.725.915S.745-.82.745-1.265ZM2.735-3.57h-.57v1.32h-.01a1,1,0,0,0-.86-.405c-.565,0-1.12.41-1.12,1.345,0,.775.4,1.38,1.21,1.38a.859.859,0,0,0,.8-.42H2.2V0h.54ZM2.945.085H3.49l1.435-3.74H4.38ZM7.43-1.72a1.046,1.046,0,0,0-1.165-.935A1.244,1.244,0,0,0,4.99-1.265,1.216,1.216,0,0,0,6.245.07,1.113,1.113,0,0,0,7.43-.97H6.86a.614.614,0,0,1-.615.59c-.5,0-.685-.455-.685-.885,0-.785.415-.94.71-.94a.547.547,0,0,1,.59.485Z" transform="translate(7.665 4.151)" fill="#e23734"/>
      </g>
    </g>
    <path id="Caminho_13492" data-name="Caminho 13492" d="M3.456-1.62c0,.423-.414,1.053-1.422,1.053-.468,0-.9-.18-.9-.684,0-.567.432-.747.936-.837A3.94,3.94,0,0,0,3.456-2.4ZM4.7-.612a.657.657,0,0,1-.234.045c-.243,0-.243-.162-.243-.522V-3.483c0-1.089-.909-1.278-1.746-1.278C1.44-4.761.549-4.356.5-3.2h.765c.036-.684.513-.882,1.161-.882.486,0,1.035.108,1.035.774,0,.576-.72.522-1.566.684C1.107-2.475.324-2.25.324-1.2.324-.27,1.017.108,1.863.108A2.065,2.065,0,0,0,3.5-.612c0,.5.252.72.648.72A1.032,1.032,0,0,0,4.7-.018Z" transform="translate(5.388 15.154)" fill="#161615"/>
    <path id="Caminho_13491" data-name="Caminho 13491" d="M2.335-1.315c0,.505-.195,1-.775,1S.745-.785.745-1.3c0-.485.22-.975.79-.975C2.085-2.27,2.335-1.8,2.335-1.315ZM.335,0H.76V-.345H.77A.99.99,0,0,0,1.605.06a1.194,1.194,0,0,0,1.18-1.345A1.211,1.211,0,0,0,1.6-2.645a.87.87,0,0,0-.825.41H.76V-3.57H.335Zm2.54.085H3.24l1.48-3.74H4.355Zm4.27-1.84a.991.991,0,0,0-1.115-.89A1.218,1.218,0,0,0,4.81-1.26,1.176,1.176,0,0,0,6.02.06,1.074,1.074,0,0,0,7.16-.945H6.725a.668.668,0,0,1-.71.63c-.54,0-.755-.47-.755-.945,0-.525.19-1.01.8-1.01a.6.6,0,0,1,.64.515Z" transform="translate(10.221 12.154)" fill="#161615"/>
  </g>
</svg>
