<svg xmlns="http://www.w3.org/2000/svg" xmlns:xlink="http://www.w3.org/1999/xlink" width="22.923" height="18.937" viewBox="0 0 22.923 18.937">
  <defs>
    <clipPath id="clip-path">
      <rect id="Retângulo_229" data-name="Retângulo 229" width="22.923" height="18.937" transform="translate(0 0)" fill="none"/>
    </clipPath>
  </defs>
  <g id="cie_tecla_rcl" transform="translate(0 0)">
    <g id="Grupo_13042" data-name="Grupo 13042">
      <g id="Grupo_13041" data-name="Grupo 13041" clip-path="url(#clip-path)">
        <path id="Caminho_13307" data-name="Caminho 13307" d="M22.548,5.7c0-.084-4.965-.145-11.086-.145S.378,5.62.375,5.7l0,.047L.712,18.426c0,.076,4.952.136,10.75.136s10.752-.06,10.752-.136l.332-12.675Z" fill="#fff286"/>
        <path id="Caminho_13308" data-name="Caminho 13308" d="M22.548,5.7c0-.084-4.965-.145-11.086-.145S.378,5.62.375,5.7l0,.047L.712,18.426c0,.076,4.952.136,10.75.136s10.752-.06,10.752-.136l.332-12.675Z" fill="none" stroke="#f58a2c" stroke-miterlimit="10" stroke-width="0.75"/>
        <path id="Caminho_13309" data-name="Caminho 13309" d="M21.291,6.672c0-.066-4.354-.12-9.723-.12s-9.724.054-9.726.12l0,.041.293,10.522c0,.065,4.343.115,9.431.115S21,17.3,21,17.235l.291-10.522Z" fill="#fff6ad"/>
        <path id="Caminho_13310" data-name="Caminho 13310" d="M21.291,6.672c0-.066-4.354-.12-9.723-.12s-9.724.054-9.726.12l0,.041.293,10.522c0,.065,4.343.115,9.431.115S21,17.3,21,17.235l.291-10.522Z" fill="none" stroke="#f58a2c" stroke-miterlimit="10" stroke-width="0.75"/>
        <path id="Caminho_13417" data-name="Caminho 13417" d="M.165-1.19C.18-.305.84.085,1.655.085c.71,0,1.42-.32,1.42-1.12a.945.945,0,0,0-.695-.91C2.2-2,1.405-2.205,1.35-2.22,1.1-2.29.925-2.43.925-2.68c0-.36.365-.465.655-.465.43,0,.74.17.77.63h.625c0-.745-.625-1.14-1.37-1.14C.96-3.655.3-3.32.3-2.605a.906.906,0,0,0,.79.9c.49.135.815.2,1.065.295a.424.424,0,0,1,.295.44c0,.27-.2.54-.755.54C1.2-.425.79-.64.79-1.19ZM3.28-3.03H4.41V0h.625V-3.03H6.17v-.54H3.28ZM8.1-3.655a1.725,1.725,0,0,0-1.71,1.87A1.725,1.725,0,0,0,8.1.085a1.725,1.725,0,0,0,1.71-1.87A1.725,1.725,0,0,0,8.1-3.655Zm0,.51c.765,0,1.085.675,1.085,1.36S8.87-.425,8.1-.425,7.02-1.1,7.02-1.785,7.34-3.145,8.1-3.145Z" transform="translate(6.459 4.15)" fill="#e23734"/>
      </g>
    </g>
    <path id="Caminho_13416" data-name="Caminho 13416" d="M1.557-3.465V-5.706H3.681a1.017,1.017,0,0,1,1.143,1.1c0,.936-.684,1.143-1.485,1.143ZM.7,0h.855V-2.745H3.645c.828,0,.981.531,1.071,1.161C4.842-.954,4.707-.261,4.95,0H5.9a3.29,3.29,0,0,1-.378-1.773C5.463-2.4,5.31-2.952,4.563-3.1v-.018A1.541,1.541,0,0,0,5.679-4.743c0-1.026-.747-1.683-1.953-1.683H.7ZM12.24-4.491A2.459,2.459,0,0,0,9.594-6.579c-1.98,0-3.042,1.521-3.042,3.384S7.524.153,9.522.153A2.616,2.616,0,0,0,12.3-2.421h-.855A1.818,1.818,0,0,1,9.594-.567c-1.539,0-2.187-1.224-2.187-2.691,0-1.341.648-2.6,2.178-2.6a1.693,1.693,0,0,1,1.8,1.368ZM13.365,0h4.257V-.72h-3.4V-6.426h-.855Z" transform="translate(2.628 15.12)" fill="#161615"/>
  </g>
</svg>
