<svg xmlns="http://www.w3.org/2000/svg" xmlns:xlink="http://www.w3.org/1999/xlink" width="27.448" height="17.578" viewBox="0 0 27.448 17.578">
  <defs>
    <clipPath id="clip-path">
      <rect id="Retângulo_217" data-name="Retângulo 217" width="27.448" height="17.578" transform="translate(0 0)" fill="none"/>
    </clipPath>
  </defs>
  <g id="cie_tecla_multiplicacao" transform="translate(0 0)">
    <g id="Grupo_13020" data-name="Grupo 13020" clip-path="url(#clip-path)">
      <path id="Caminho_13265" data-name="Caminho 13265" d="M27.073.562c0-.109-5.427-.187-13.349-.187S.378.453.375.562l0,.061.433,16.4c0,.1,5.41.176,12.913.176s12.915-.079,12.915-.176l.43-16.4Z" fill="#b9c73a"/>
      <path id="Caminho_13266" data-name="Caminho 13266" d="M27.073.562c0-.109-5.427-.187-13.349-.187S.378.453.375.562l0,.061.433,16.4c0,.1,5.41.176,12.913.176s12.915-.079,12.915-.176l.43-16.4Z" fill="none" stroke="#669d3e" stroke-miterlimit="10" stroke-width="0.75"/>
      <path id="Caminho_13267" data-name="Caminho 13267" d="M25.445,1.814c0-.086-4.635-.154-11.584-.154s-11.586.068-11.589.154l0,.053.38,13.619c0,.082,4.621.146,11.206.146s11.2-.064,11.2-.146l.377-13.619Z" fill="#b9c73a"/>
      <path id="Caminho_13268" data-name="Caminho 13268" d="M25.445,1.814c0-.086-4.635-.154-11.584-.154s-11.586.068-11.589.154l0,.053.38,13.619c0,.082,4.621.146,11.206.146s11.2-.064,11.2-.146l.377-13.619Z" fill="none" stroke="#669d3e" stroke-miterlimit="10" stroke-width="0.75"/>
      <path id="Caminho_13269" data-name="Caminho 13269" d="M14.484,9.866l2.207-2.212-.76-.758-2.209,2.21L11.511,6.9l-.757.762,2.21,2.206-2.209,2.21.762.758,2.207-2.209,2.213,2.208.758-.761Z" fill="#161615"/>
    </g>
  </g>
</svg>
