<svg xmlns="http://www.w3.org/2000/svg" xmlns:xlink="http://www.w3.org/1999/xlink" width="27.448" height="17.578" viewBox="0 0 27.448 17.578">
  <defs>
    <clipPath id="clip-path">
      <rect id="Retângulo_207" data-name="Retângulo 207" width="27.448" height="17.578" transform="translate(0 0)" fill="none"/>
    </clipPath>
  </defs>
  <g id="cie_tecla_igual_2" transform="translate(0 0)">
    <g id="Grupo_13003" data-name="Grupo 13003" clip-path="url(#clip-path)">
      <path id="Caminho_13227" data-name="Caminho 13227" d="M27.072.562c0-.109-5.426-.187-13.349-.187S.378.453.375.562l0,.061.432,16.4c0,.1,5.41.176,12.913.176s12.916-.079,12.916-.176l.43-16.4Z" fill="#b9c73a"/>
      <path id="Caminho_13228" data-name="Caminho 13228" d="M27.072.562c0-.109-5.426-.187-13.349-.187S.378.453.375.562l0,.061.432,16.4c0,.1,5.41.176,12.913.176s12.916-.079,12.916-.176l.43-16.4Z" fill="none" stroke="#669d3e" stroke-miterlimit="10" stroke-width="0.75"/>
      <path id="Caminho_13229" data-name="Caminho 13229" d="M25.445,1.814c0-.086-4.635-.154-11.584-.154s-11.586.068-11.589.154l0,.053.38,13.619c0,.082,4.621.146,11.206.146s11.2-.064,11.2-.146l.377-13.619Z" fill="#b9c73a"/>
      <path id="Caminho_13230" data-name="Caminho 13230" d="M25.445,1.814c0-.086-4.635-.154-11.584-.154s-11.586.068-11.589.154l0,.053.38,13.619c0,.082,4.621.146,11.206.146s11.2-.064,11.2-.146l.377-13.619Z" fill="none" stroke="#669d3e" stroke-miterlimit="10" stroke-width="0.75"/>
      <path id="Caminho_13453" data-name="Caminho 13453" d="M7.331-5.153H.638v.9H7.331ZM.638-1.567H7.331v-.9H.638Z" transform="translate(9.74 13.155)" fill="#161615"/>
    </g>
  </g>
</svg>
