<svg xmlns="http://www.w3.org/2000/svg" xmlns:xlink="http://www.w3.org/1999/xlink" width="22.924" height="13.761" viewBox="0 0 22.924 13.761">
  <defs>
    <clipPath id="clip-path">
      <rect id="Ret창ngulo_249" data-name="Ret창ngulo 249" width="22.924" height="13.761" transform="translate(0 0)" fill="none"/>
    </clipPath>
    <clipPath id="clip-path-2">
      <rect id="Ret창ngulo_250" data-name="Ret창ngulo 250" width="7.362" height="5.789" transform="translate(7.764 4.187)" fill="none"/>
    </clipPath>
  </defs>
  <g id="cie_tecla_x_elevado_y" transform="translate(0 0)">
    <g id="Grupo_13069" data-name="Grupo 13069">
      <g id="Grupo_13068" data-name="Grupo 13068" clip-path="url(#clip-path)">
        <path id="Caminho_13392" data-name="Caminho 13392" d="M22.549.557c0-.085-4.965-.159-11.087-.178S.378.406.375.491l0,.046.3,12.675c0,.076,4.953.153,10.75.17s10.753-.028,10.753-.1L22.547.6Z" fill="#fff286"/>
        <path id="Caminho_13393" data-name="Caminho 13393" d="M22.549.557c0-.085-4.965-.159-11.087-.178S.378.406.375.491l0,.046.3,12.675c0,.076,4.953.153,10.75.17s10.753-.028,10.753-.1L22.547.6Z" fill="none" stroke="#f58a2c" stroke-miterlimit="10" stroke-width="0.75"/>
        <path id="Caminho_13394" data-name="Caminho 13394" d="M21.289,1.521c0-.066-4.354-.133-9.723-.149s-9.725.024-9.728.09l0,.041L2.1,12.027c0,.063,4.342.126,9.43.141s9.43-.021,9.43-.084l.324-10.522Z" fill="#fff6ad"/>
        <path id="Caminho_13395" data-name="Caminho 13395" d="M21.289,1.521c0-.066-4.354-.133-9.723-.149s-9.725.024-9.728.09l0,.041L2.1,12.027c0,.063,4.342.126,9.43.141s9.43-.021,9.43-.084l.324-10.522Z" fill="none" stroke="#f58a2c" stroke-miterlimit="10" stroke-width="0.75"/>
      </g>
    </g>
    <g id="Grupo_13071" data-name="Grupo 13071">
      <g id="Grupo_13070" data-name="Grupo 13070" clip-path="url(#clip-path-2)">
        <path id="Caminho_13396" data-name="Caminho 13396" d="M9.053,5.925c-.133-.012-.572.4-.9,1.133-.044.1-.143.109-.176.021a.951.951,0,0,1,.066-.593,1.513,1.513,0,0,1,1.4-.991c.342.067.484.287.584.771.054.263.109.594.153.946a10.4,10.4,0,0,0,1.65-1.617c.111-.144.22-.154.22.021a1.8,1.8,0,0,1-.594,1.112,11.248,11.248,0,0,1-1.2,1.045c.076.463.132.913.188,1.2.088.439.218.594.351.6.407.022.88-.781,1.2-1.453.043-.1.131-.109.165-.021a.9.9,0,0,1-.1.693A1.885,1.885,0,0,1,10.6,9.95c-.582,0-.891-.339-1.024-1.254-.009-.065-.021-.186-.043-.318A10.92,10.92,0,0,0,8.019,9.885c-.088.1-.275.154-.253-.032a2.016,2.016,0,0,1,.66-1.145,10.327,10.327,0,0,1,1.033-.914,6.836,6.836,0,0,0-.406-1.869" fill="#161615"/>
        <path id="Caminho_13397" data-name="Caminho 13397" d="M14,7.12c-.195.505-.37.69-.75.69a.851.851,0,0,1-.3-.044V7.375a.867.867,0,0,0,.251.059.368.368,0,0,0,.35-.234l.175-.44L12.7,4.186h.481L13.941,6.3h.009l.726-2.118h.451Z" fill="#161615"/>
      </g>
    </g>
  </g>
</svg>
