<svg xmlns="http://www.w3.org/2000/svg" xmlns:xlink="http://www.w3.org/1999/xlink" width="27.448" height="17.578" viewBox="0 0 27.448 17.578">
  <defs>
    <clipPath id="clip-path">
      <rect id="Retângulo_167" data-name="Retângulo 167" width="27.448" height="17.578" transform="translate(0 0)" fill="none"/>
    </clipPath>
  </defs>
  <g id="cie_tecla_6" transform="translate(0 0)">
    <g id="Grupo_12929" data-name="Grupo 12929">
      <g id="Grupo_12928" data-name="Grupo 12928" clip-path="url(#clip-path)">
        <path id="Caminho_13094" data-name="Caminho 13094" d="M27.073.562c0-.109-5.426-.187-13.349-.187S.379.453.376.562l0,.061.432,16.4c0,.1,5.41.176,12.913.176s12.916-.079,12.916-.176l.43-16.4Z" fill="#b9c73a"/>
        <path id="Caminho_13095" data-name="Caminho 13095" d="M27.073.562c0-.109-5.426-.187-13.349-.187S.379.453.376.562l0,.061.432,16.4c0,.1,5.41.176,12.913.176s12.916-.079,12.916-.176l.43-16.4Z" fill="none" stroke="#669d3e" stroke-miterlimit="10" stroke-width="0.75"/>
        <path id="Caminho_13096" data-name="Caminho 13096" d="M25.446,1.814c0-.086-4.635-.154-11.584-.154s-11.586.068-11.589.154l0,.053.38,13.619c0,.082,4.621.146,11.206.146s11.2-.064,11.2-.146l.377-13.619Z" fill="#b9c73a"/>
        <path id="Caminho_13097" data-name="Caminho 13097" d="M25.446,1.814c0-.086-4.635-.154-11.584-.154s-11.586.068-11.589.154l0,.053.38,13.619c0,.082,4.621.146,11.206.146s11.2-.064,11.2-.146l.377-13.619Z" fill="none" stroke="#669d3e" stroke-miterlimit="10" stroke-width="0.75"/>
      </g>
    </g>
    <path id="Caminho_13497" data-name="Caminho 13497" d="M3.432-4.572A1.711,1.711,0,0,1,5.148-2.64,1.728,1.728,0,0,1,3.432-.756a1.743,1.743,0,0,1-1.764-1.9A1.744,1.744,0,0,1,3.432-4.572ZM5.988-6.336a2.206,2.206,0,0,0-2.4-2.172c-2.424,0-3.132,2.22-3.132,4.56C.456-2.16.864.144,3.384.144A2.689,2.689,0,0,0,6.228-2.712a2.543,2.543,0,0,0-2.6-2.76A2.307,2.307,0,0,0,1.5-4.356L1.476-4.38C1.524-5.688,1.8-7.608,3.54-7.608A1.363,1.363,0,0,1,4.968-6.336Z" transform="translate(10.388 13.636)" fill="#161615"/>
  </g>
</svg>
