<svg xmlns="http://www.w3.org/2000/svg" xmlns:xlink="http://www.w3.org/1999/xlink" width="22.924" height="18.937" viewBox="0 0 22.924 18.937">
  <defs>
    <clipPath id="clip-path">
      <rect id="Retângulo_197" data-name="Retângulo 197" width="22.924" height="18.937" transform="translate(0 0)" fill="none"/>
    </clipPath>
  </defs>
  <g id="cie_tecla_fecha_parent" transform="translate(0 0)">
    <g id="Grupo_12984" data-name="Grupo 12984">
      <g id="Grupo_12983" data-name="Grupo 12983" clip-path="url(#clip-path)">
        <path id="Caminho_13198" data-name="Caminho 13198" d="M22.548,5.7c0-.084-4.965-.145-11.086-.145S.378,5.62.375,5.7l0,.047L.712,18.426c0,.076,4.952.136,10.75.136s10.752-.06,10.752-.136l.332-12.675Z" fill="#fff286"/>
        <path id="Caminho_13199" data-name="Caminho 13199" d="M22.548,5.7c0-.084-4.965-.145-11.086-.145S.378,5.62.375,5.7l0,.047L.712,18.426c0,.076,4.952.136,10.75.136s10.752-.06,10.752-.136l.332-12.675Z" fill="none" stroke="#f58a2c" stroke-miterlimit="10" stroke-width="0.75"/>
        <path id="Caminho_13200" data-name="Caminho 13200" d="M21.291,6.672c0-.066-4.354-.12-9.723-.12s-9.724.054-9.726.12l0,.041.293,10.522c0,.065,4.343.115,9.431.115S21,17.3,21,17.235l.291-10.522Z" fill="#fff6ad"/>
        <path id="Caminho_13201" data-name="Caminho 13201" d="M21.291,6.672c0-.066-4.354-.12-9.723-.12s-9.724.054-9.726.12l0,.041.293,10.522c0,.065,4.343.115,9.431.115S21,17.3,21,17.235l.291-10.522Z" fill="none" stroke="#f58a2c" stroke-miterlimit="10" stroke-width="0.75"/>
        <path id="Caminho_13466" data-name="Caminho 13466" d="M1.25-1.85-.015,0H.7l.905-1.365L2.5,0h.76L1.99-1.85,3.17-3.57h-.7L1.625-2.31.815-3.57H.07Z" transform="translate(19.435 4.15)" fill="#3e2176"/>
      </g>
    </g>
    <path id="Caminho_13465" data-name="Caminho 13465" d="M.5,1.782A7.079,7.079,0,0,0,1.908-2.367,7.553,7.553,0,0,0,.5-6.579H-.09A7.586,7.586,0,0,1,1.1-2.367,7.446,7.446,0,0,1-.09,1.782Z" transform="translate(10.843 14.86)" fill="#161615"/>
  </g>
</svg>
