<svg xmlns="http://www.w3.org/2000/svg" xmlns:xlink="http://www.w3.org/1999/xlink" width="27.448" height="17.578" viewBox="0 0 27.448 17.578">
  <defs>
    <clipPath id="clip-path">
      <rect id="Retângulo_236" data-name="Retângulo 236" width="27.448" height="17.578" transform="translate(0 0)" fill="none"/>
    </clipPath>
  </defs>
  <g id="cie_tecla_subtracao" transform="translate(0 0)">
    <g id="Grupo_13054" data-name="Grupo 13054">
      <g id="Grupo_13053" data-name="Grupo 13053" clip-path="url(#clip-path)">
        <path id="Caminho_13339" data-name="Caminho 13339" d="M27.072.563c0-.109-5.426-.187-13.349-.187S.378.454.375.563l0,.061.432,16.4c0,.1,5.41.176,12.913.176s12.916-.079,12.916-.176l.43-16.4Z" fill="#b9c73a"/>
        <path id="Caminho_13340" data-name="Caminho 13340" d="M27.072.563c0-.109-5.426-.187-13.349-.187S.378.454.375.563l0,.061.432,16.4c0,.1,5.41.176,12.913.176s12.916-.079,12.916-.176l.43-16.4Z" fill="none" stroke="#669d3e" stroke-miterlimit="10" stroke-width="0.75"/>
        <path id="Caminho_13341" data-name="Caminho 13341" d="M25.445,1.815c0-.086-4.635-.154-11.584-.154s-11.586.068-11.589.154l0,.053.38,13.619c0,.082,4.621.146,11.206.146s11.2-.064,11.2-.146l.377-13.619Z" fill="#b9c73a"/>
        <path id="Caminho_13342" data-name="Caminho 13342" d="M25.445,1.815c0-.086-4.635-.154-11.584-.154s-11.586.068-11.589.154l0,.053.38,13.619c0,.082,4.621.146,11.206.146s11.2-.064,11.2-.146l.377-13.619Z" fill="none" stroke="#669d3e" stroke-miterlimit="10" stroke-width="0.75"/>
      </g>
    </g>
    <path id="Caminho_13408" data-name="Caminho 13408" d="M0-3.161H6.641V-4.224H0Z" transform="translate(10.358 13.32) rotate(0.646)" fill="#161615"/>
  </g>
</svg>
