<svg xmlns="http://www.w3.org/2000/svg" xmlns:xlink="http://www.w3.org/1999/xlink" width="22.924" height="20.987" viewBox="0 0 22.924 20.987">
  <defs>
    <clipPath id="clip-path">
      <rect id="Retângulo_231" data-name="Retângulo 231" width="22.924" height="20.987" transform="translate(0 0)" fill="none"/>
    </clipPath>
  </defs>
  <g id="cie_tecla_seno" transform="translate(0 0)">
    <g id="Grupo_13046" data-name="Grupo 13046">
      <g id="Grupo_13045" data-name="Grupo 13045" clip-path="url(#clip-path)">
        <path id="Caminho_13315" data-name="Caminho 13315" d="M22.548,7.753c0-.084-4.965-.145-11.086-.145S.378,7.669.375,7.753l0,.047L.712,20.475c0,.076,4.952.136,10.75.136s10.752-.06,10.752-.136L22.546,7.8Z" fill="#fff286"/>
        <path id="Caminho_13316" data-name="Caminho 13316" d="M22.548,7.753c0-.084-4.965-.145-11.086-.145S.378,7.669.375,7.753l0,.047L.712,20.475c0,.076,4.952.136,10.75.136s10.752-.06,10.752-.136L22.546,7.8Z" fill="none" stroke="#f58a2c" stroke-miterlimit="10" stroke-width="0.75"/>
        <path id="Caminho_13317" data-name="Caminho 13317" d="M21.291,8.721c0-.066-4.354-.12-9.723-.12s-9.724.054-9.726.12l0,.041.293,10.523c0,.064,4.343.114,9.431.114s9.43-.05,9.43-.114l.291-10.523Z" fill="#fff6ad"/>
        <path id="Caminho_13318" data-name="Caminho 13318" d="M21.291,8.721c0-.066-4.354-.12-9.723-.12s-9.724.054-9.726.12l0,.041.293,10.523c0,.064,4.343.114,9.431.114s9.43-.05,9.43-.114l.291-10.523Z" fill="none" stroke="#f58a2c" stroke-miterlimit="10" stroke-width="0.75"/>
        <path id="Caminho_13414" data-name="Caminho 13414" d="M1-3.06H1.62c.98,0,1.19.56,1.19,1.275S2.6-.51,1.62-.51H1ZM.38,0H1.86c1.1,0,1.575-.8,1.575-1.785S2.96-3.57,1.86-3.57H.38Z" transform="translate(19.044 6.15)" fill="#3e2176"/>
      </g>
    </g>
    <path id="Caminho_13412" data-name="Caminho 13412" d="M.16-.83c.01.61.5.9,1.145.9C1.84.07,2.46-.155,2.46-.77c0-.51-.42-.66-.835-.755S.785-1.66.785-1.94c0-.225.305-.265.47-.265.25,0,.475.075.525.345h.6c-.07-.575-.55-.8-1.08-.8-.47,0-1.08.175-1.08.74,0,.525.41.675.83.765s.83.13.845.43-.36.34-.575.34C1.01-.38.76-.5.73-.83ZM2.91,0h.57V-2.585H2.91Zm0-3.03h.57v-.54H2.91ZM4.1,0h.57V-1.525a.63.63,0,0,1,.625-.68c.335,0,.495.175.505.58V0h.57V-1.775a.817.817,0,0,0-.915-.88.926.926,0,0,0-.8.46l-.01-.01v-.38H4.1Z" transform="translate(1.741 6.15)" fill="#e23734"/>
    <g id="Grupo_13048" data-name="Grupo 13048">
      <g id="Grupo_13047" data-name="Grupo 13047" clip-path="url(#clip-path)">
        <path id="Caminho_13413" data-name="Caminho 13413" d="M.2-.872H1.36V-1.3H.2Zm1.572-1.1h.688V0h.5V-2.8H2.584c-.068.336-.432.468-.816.464Z" transform="translate(8.411 4.15)" fill="#e23734"/>
      </g>
    </g>
    <path id="Caminho_13411" data-name="Caminho 13411" d="M.279-1.467C.324-.315,1.206.108,2.25.108c.945,0,1.98-.36,1.98-1.467,0-.9-.756-1.152-1.521-1.323C2-2.853,1.188-2.943,1.188-3.492c0-.468.531-.594.99-.594.5,0,1.026.189,1.08.783h.765C3.96-4.437,3.141-4.761,2.115-4.761c-.81,0-1.737.387-1.737,1.323,0,.891.765,1.143,1.521,1.314s1.521.27,1.521.864S2.772-.567,2.3-.567c-.63,0-1.224-.216-1.251-.9ZM5.121,0h.765V-4.653H5.121Zm.765-6.426H5.121v.936h.765ZM7.074,0h.765V-2.628A1.308,1.308,0,0,1,9.216-4.086a.877.877,0,0,1,.945.936V0h.765V-3.06c0-1-.378-1.7-1.6-1.7a1.62,1.62,0,0,0-1.512.846H7.794v-.738h-.72Z" transform="translate(6.213 17.085)" fill="#161615"/>
  </g>
</svg>
