<svg xmlns="http://www.w3.org/2000/svg" xmlns:xlink="http://www.w3.org/1999/xlink" width="22.925" height="20.987" viewBox="0 0 22.925 20.987">
  <defs>
    <clipPath id="clip-path">
      <rect id="Retângulo_182" data-name="Retângulo 182" width="22.925" height="20.987" transform="translate(0 0)" fill="none"/>
    </clipPath>
  </defs>
  <g id="cie_tecla_cosseno" transform="translate(0 0)">
    <g id="Grupo_12959" data-name="Grupo 12959">
      <g id="Grupo_12958" data-name="Grupo 12958" clip-path="url(#clip-path)">
        <path id="Caminho_13147" data-name="Caminho 13147" d="M22.549,7.753c0-.084-4.965-.145-11.086-.145S.379,7.669.375,7.753l0,.047L.713,20.475c0,.076,4.951.136,10.75.136s10.752-.06,10.752-.136L22.547,7.8Z" fill="#fff286"/>
        <path id="Caminho_13148" data-name="Caminho 13148" d="M22.549,7.753c0-.084-4.965-.145-11.086-.145S.379,7.669.375,7.753l0,.047L.713,20.475c0,.076,4.951.136,10.75.136s10.752-.06,10.752-.136L22.547,7.8Z" fill="none" stroke="#f58a2c" stroke-miterlimit="10" stroke-width="0.75"/>
        <path id="Caminho_13149" data-name="Caminho 13149" d="M21.292,8.721c0-.066-4.354-.12-9.723-.12s-9.724.054-9.726.12l0,.041.293,10.523c0,.064,4.343.114,9.431.114s9.43-.05,9.43-.114L21.29,8.762Z" fill="#fff6ad"/>
        <path id="Caminho_13150" data-name="Caminho 13150" d="M21.292,8.721c0-.066-4.354-.12-9.723-.12s-9.724.054-9.726.12l0,.041.293,10.523c0,.064,4.343.114,9.431.114s9.43-.05,9.43-.114L21.29,8.762Z" fill="none" stroke="#f58a2c" stroke-miterlimit="10" stroke-width="0.75"/>
        <path id="Caminho_13479" data-name="Caminho 13479" d="M.38,0H2.985V-.54H1V-1.585h1.8V-2.1H1V-3.03H2.95v-.54H.38Z" transform="translate(19.761 6.15)" fill="#3e2176"/>
      </g>
    </g>
    <path id="Caminho_13477" data-name="Caminho 13477" d="M2.615-1.72A1.046,1.046,0,0,0,1.45-2.655,1.244,1.244,0,0,0,.175-1.265,1.216,1.216,0,0,0,1.43.07,1.113,1.113,0,0,0,2.615-.97h-.57a.614.614,0,0,1-.615.59c-.5,0-.685-.455-.685-.885,0-.785.415-.94.71-.94a.547.547,0,0,1,.59.485ZM4.265-.38c-.51,0-.735-.465-.735-.915s.225-.91.735-.91S5-1.74,5-1.3,4.775-.38,4.265-.38Zm0,.45A1.25,1.25,0,0,0,5.57-1.3a1.248,1.248,0,0,0-1.3-1.36A1.248,1.248,0,0,0,2.96-1.3,1.25,1.25,0,0,0,4.265.07ZM5.9-.83c.01.61.5.9,1.145.9C7.585.07,8.2-.155,8.2-.77c0-.51-.42-.66-.835-.755s-.84-.135-.84-.415c0-.225.305-.265.47-.265.25,0,.475.075.525.345h.6c-.07-.575-.55-.8-1.08-.8-.47,0-1.08.175-1.08.74,0,.525.41.675.83.765s.83.13.845.43-.36.34-.575.34c-.3,0-.555-.12-.585-.45Z" transform="translate(1.575 6.15)" fill="#e23734"/>
    <g id="Grupo_12961" data-name="Grupo 12961">
      <g id="Grupo_12960" data-name="Grupo 12960" clip-path="url(#clip-path)">
        <path id="Caminho_13478" data-name="Caminho 13478" d="M.2-.872H1.36V-1.3H.2Zm1.572-1.1h.688V0h.5V-2.8H2.584c-.068.336-.432.468-.816.464Z" transform="translate(9.915 4.15)" fill="#e23734"/>
      </g>
    </g>
    <path id="Caminho_13476" data-name="Caminho 13476" d="M4.527-3.159a1.784,1.784,0,0,0-2.007-1.6,2.193,2.193,0,0,0-2.2,2.493A2.117,2.117,0,0,0,2.5.108,1.934,1.934,0,0,0,4.554-1.7H3.771A1.2,1.2,0,0,1,2.493-.567c-.972,0-1.359-.846-1.359-1.7,0-.945.342-1.818,1.449-1.818a1.083,1.083,0,0,1,1.152.927Zm.63.837A2.205,2.205,0,0,0,7.416.108a2.205,2.205,0,0,0,2.259-2.43A2.208,2.208,0,0,0,7.416-4.761,2.208,2.208,0,0,0,5.157-2.322Zm.81,0c0-1.134.648-1.764,1.449-1.764s1.449.63,1.449,1.764S8.217-.567,7.416-.567,5.967-1.2,5.967-2.322Zm4.311.855C10.323-.315,11.2.108,12.249.108c.945,0,1.98-.36,1.98-1.467,0-.9-.756-1.152-1.521-1.323-.711-.171-1.521-.261-1.521-.81,0-.468.531-.594.99-.594.5,0,1.026.189,1.08.783h.765c-.063-1.134-.882-1.458-1.908-1.458-.81,0-1.737.387-1.737,1.323,0,.891.765,1.143,1.521,1.314s1.521.27,1.521.864-.648.693-1.125.693c-.63,0-1.224-.216-1.251-.9Z" transform="translate(5.009 17.085)" fill="#161615"/>
  </g>
</svg>
