<svg xmlns="http://www.w3.org/2000/svg" xmlns:xlink="http://www.w3.org/1999/xlink" width="27.448" height="23.467" viewBox="0 0 27.448 23.467">
  <defs>
    <clipPath id="clip-path">
      <rect id="Retângulo_225" data-name="Retângulo 225" width="27.448" height="23.467" transform="translate(0 0)" fill="none"/>
    </clipPath>
  </defs>
  <g id="cie_tecla_ponto" transform="translate(0 0)">
    <g id="Grupo_13036" data-name="Grupo 13036">
      <g id="Grupo_13035" data-name="Grupo 13035" clip-path="url(#clip-path)">
        <path id="Caminho_13294" data-name="Caminho 13294" d="M27.073,6.452c0-.109-5.427-.187-13.349-.187S.378,6.343.375,6.452l0,.061.433,16.4c0,.1,5.41.176,12.913.176s12.915-.079,12.915-.176l.43-16.4Z" fill="#b9c73a"/>
        <path id="Caminho_13295" data-name="Caminho 13295" d="M27.073,6.452c0-.109-5.427-.187-13.349-.187S.378,6.343.375,6.452l0,.061.433,16.4c0,.1,5.41.176,12.913.176s12.915-.079,12.915-.176l.43-16.4Z" fill="none" stroke="#669d3e" stroke-miterlimit="10" stroke-width="0.75"/>
        <path id="Caminho_13296" data-name="Caminho 13296" d="M25.445,7.7c0-.086-4.635-.154-11.584-.154S2.275,7.618,2.272,7.7l0,.053.38,13.619c0,.082,4.621.146,11.206.146s11.2-.064,11.2-.146l.377-13.619Z" fill="#b9c73a"/>
        <path id="Caminho_13297" data-name="Caminho 13297" d="M25.445,7.7c0-.086-4.635-.154-11.584-.154S2.275,7.618,2.272,7.7l0,.053.38,13.619c0,.082,4.621.146,11.206.146s11.2-.064,11.2-.146l.377-13.619Z" fill="none" stroke="#669d3e" stroke-miterlimit="10" stroke-width="0.75"/>
      </g>
    </g>
    <path id="Caminho_13419" data-name="Caminho 13419" d="M1,0H2.328V-1.332H1Z" transform="translate(12.056 15.57)" fill="#161615"/>
    <g id="Grupo_13038" data-name="Grupo 13038">
      <g id="Grupo_13037" data-name="Grupo 13037" clip-path="url(#clip-path)">
        <path id="Caminho_13420" data-name="Caminho 13420" d="M1-3.06H2.02c.325,0,.62.09.62.545,0,.375-.215.57-.61.57H1ZM.38,0H1V-1.47h.92c.575,0,.71.29.71.945A1,1,0,0,0,2.73,0H3.4a1.624,1.624,0,0,1-.195-.94c0-.565-.315-.725-.53-.755v-.01a.867.867,0,0,0,.59-.9c0-.605-.4-.965-1.18-.965H.38ZM5.415-.87c0,.36-.39.49-.64.49-.2,0-.525-.075-.525-.33,0-.3.22-.39.465-.43a2.035,2.035,0,0,0,.7-.155Zm.57-1.035c0-.545-.53-.75-1.035-.75-.57,0-1.135.2-1.175.86h.57c.025-.28.25-.41.57-.41.23,0,.535.055.535.35,0,.335-.365.29-.775.365-.48.055-1,.16-1,.8A.786.786,0,0,0,4.565.07,1.326,1.326,0,0,0,5.46-.245c.045.235.21.315.44.315A1.431,1.431,0,0,0,6.26.005v-.4a.788.788,0,0,1-.14.01c-.1,0-.135-.055-.135-.195ZM6.6,0h.57V-1.525a.63.63,0,0,1,.625-.68c.335,0,.495.175.505.58V0h.57V-1.775a.817.817,0,0,0-.915-.88.926.926,0,0,0-.805.46l-.01-.01v-.38H6.6Zm5.045-1.425H11.22l.09-.65h.48V-2.45h-.43l.15-1.05h-.4L10.96-2.45H10.4l.15-1.05H10.15l-.145,1.05h-.52v.375h.47l-.09.65H9.34v.375h.47L9.665,0h.4l.15-1.05h.55L10.62,0h.4l.15-1.05h.475Zm-.735-.65-.09.65h-.555l.09-.65Z" transform="translate(7.75 4.15)" fill="#e23734"/>
      </g>
    </g>
  </g>
</svg>
