<svg xmlns="http://www.w3.org/2000/svg" xmlns:xlink="http://www.w3.org/1999/xlink" width="22.923" height="19.29" viewBox="0 0 22.923 19.29">
  <defs>
    <clipPath id="clip-path">
      <rect id="Retângulo_218" data-name="Retângulo 218" width="22.923" height="19.29" transform="translate(0 0)" fill="none"/>
    </clipPath>
  </defs>
  <g id="cie_tecla_ncr" transform="translate(0 0)">
    <g id="Grupo_13022" data-name="Grupo 13022">
      <g id="Grupo_13021" data-name="Grupo 13021" clip-path="url(#clip-path)">
        <path id="Caminho_13270" data-name="Caminho 13270" d="M22.548,6.056c0-.084-4.965-.145-11.086-.145S.378,5.972.375,6.056l0,.047L.712,18.778c0,.076,4.952.136,10.75.136s10.752-.06,10.752-.136L22.546,6.1Z" fill="#fff286"/>
        <path id="Caminho_13271" data-name="Caminho 13271" d="M22.548,6.056c0-.084-4.965-.145-11.086-.145S.378,5.972.375,6.056l0,.047L.712,18.778c0,.076,4.952.136,10.75.136s10.752-.06,10.752-.136L22.546,6.1Z" fill="none" stroke="#f58a2c" stroke-miterlimit="10" stroke-width="0.75"/>
        <path id="Caminho_13272" data-name="Caminho 13272" d="M21.291,7.024c0-.066-4.354-.12-9.723-.12s-9.724.054-9.726.12l0,.041.293,10.522c0,.065,4.343.115,9.431.115s9.43-.05,9.43-.115l.291-10.522Z" fill="#fff6ad"/>
        <path id="Caminho_13273" data-name="Caminho 13273" d="M21.291,7.024c0-.066-4.354-.12-9.723-.12s-9.724.054-9.726.12l0,.041.293,10.522c0,.065,4.343.115,9.431.115s9.43-.05,9.43-.115l.291-10.522Z" fill="none" stroke="#f58a2c" stroke-miterlimit="10" stroke-width="0.75"/>
        <path id="Caminho_13434" data-name="Caminho 13434" d="M.3,0H.87V-1.525a.63.63,0,0,1,.625-.68c.335,0,.5.175.5.58V0h.57V-1.775a.817.817,0,0,0-.915-.88A.926.926,0,0,0,.85-2.2l-.01-.01v-.38H.3ZM3.875-3.06H4.8c.33,0,.615.12.615.59a.569.569,0,0,1-.625.59H3.875ZM3.25,0h.625V-1.37h.95c1.02.005,1.215-.655,1.215-1.1S5.845-3.57,4.825-3.57H3.25ZM6.505,0h.57V-1.23c0-.57.31-.885.7-.885a2.034,2.034,0,0,1,.245.025v-.55a1.357,1.357,0,0,0-.215-.015.834.834,0,0,0-.755.57H7.04v-.5H6.505Z" transform="translate(7.452 4.15)" fill="#e23734"/>
      </g>
    </g>
    <path id="Caminho_13433" data-name="Caminho 13433" d="M.576,0h.765V-2.628A1.308,1.308,0,0,1,2.718-4.086a.877.877,0,0,1,.945.936V0h.765V-3.06c0-1-.378-1.7-1.6-1.7a1.62,1.62,0,0,0-1.512.846H1.3v-.738H.576Zm10.5-4.491A2.459,2.459,0,0,0,8.433-6.579c-1.98,0-3.042,1.521-3.042,3.384S6.363.153,8.361.153a2.616,2.616,0,0,0,2.781-2.574h-.855A1.818,1.818,0,0,1,8.433-.567c-1.539,0-2.187-1.224-2.187-2.691,0-1.341.648-2.6,2.178-2.6a1.693,1.693,0,0,1,1.8,1.368ZM12.051,0h.765V-2.07c0-1.179.45-1.881,1.683-1.881v-.81a1.692,1.692,0,0,0-1.71,1.089h-.018v-.981h-.72Z" transform="translate(4.212 15.307)" fill="#161615"/>
  </g>
</svg>
