<svg xmlns="http://www.w3.org/2000/svg" xmlns:xlink="http://www.w3.org/1999/xlink" width="14.119" height="26.661" viewBox="0 0 14.119 26.661">
  <defs>
    <clipPath id="clip-path">
      <path id="Caminho_911" data-name="Caminho 911" d="M0,0H14.119V-26.661H0Z" fill="none"/>
    </clipPath>
  </defs>
  <g id="clips_roxo" transform="translate(0 26.661)">
    <g id="Grupo_983" data-name="Grupo 983" clip-path="url(#clip-path)">
      <g id="Grupo_981" data-name="Grupo 981" transform="translate(0 -18.767)">
        <path id="Caminho_909" data-name="Caminho 909" d="M0,0,0-3.681A.716.716,0,0,1,.718-4.4a.716.716,0,0,1,.715.716l0,3.68Z" fill="#53399e"/>
      </g>
      <g id="Grupo_982" data-name="Grupo 982" transform="translate(9.587 -26.661)">
        <path id="Caminho_910" data-name="Caminho 910" d="M0,0H-2.332A4.537,4.537,0,0,0-6.864,4.532v17.6a4.537,4.537,0,0,0,4.532,4.532h.212a4.537,4.537,0,0,0,4.531-4.532V10.221a.716.716,0,0,0-1.431,0V22.129a3.106,3.106,0,0,1-3.1,3.1h-.212a3.1,3.1,0,0,1-3.1-3.1V4.532a3.1,3.1,0,0,1,3.1-3.1H0a3.054,3.054,0,0,1,3.1,3V7.894H4.532V4.426A4.483,4.483,0,0,0,0,0" fill="#53399e"/>
      </g>
    </g>
  </g>
</svg>
