<svg xmlns="http://www.w3.org/2000/svg" xmlns:xlink="http://www.w3.org/1999/xlink" width="13.681" height="12.973" viewBox="0 0 13.681 12.973">
  <defs>
    <clipPath id="clip-path">
      <path id="Caminho_7023" data-name="Caminho 7023" d="M0,0H13.681V-12.973H0Z" fill="none"/>
    </clipPath>
  </defs>
  <g id="ico_lupa" transform="translate(0 12.973)">
    <g id="Grupo_7118" data-name="Grupo 7118" clip-path="url(#clip-path)">
      <g id="Grupo_7116" data-name="Grupo 7116" transform="translate(5.431 -5.037)">
        <path id="Caminho_7021" data-name="Caminho 7021" d="M0,0A3.41,3.41,0,0,1-4.118-2.5a3.407,3.407,0,0,1,2.5-4.118A3.406,3.406,0,0,1,2.5-4.12,3.409,3.409,0,0,1,0,0M-1.906-7.8A4.624,4.624,0,0,0-5.3-2.216,4.625,4.625,0,0,0,.288,1.18a4.623,4.623,0,0,0,3.4-5.588A4.625,4.625,0,0,0-1.906-7.8" fill="#ceced0"/>
      </g>
      <g id="Grupo_7117" data-name="Grupo 7117" transform="translate(6.84 -4.604)">
        <path id="Caminho_7022" data-name="Caminho 7022" d="M0,0A18.559,18.559,0,0,1,1.245-2.155l4.664,4.43S7.141,3.334,6.77,3.83c-.518.69-.984,1.242-2.095.175Z" fill="#ceced0"/>
      </g>
    </g>
  </g>
</svg>
