<svg xmlns="http://www.w3.org/2000/svg" xmlns:xlink="http://www.w3.org/1999/xlink" width="21.26" height="15.966" viewBox="0 0 21.26 15.966">
  <defs>
    <clipPath id="clip-path">
      <path id="Caminho_30" data-name="Caminho 30" d="M0,0H21.26V-15.966H0Z" fill="none"/>
    </clipPath>
  </defs>
  <g id="ico_desafio" transform="translate(0 15.966)">
    <g id="Grupo_37" data-name="Grupo 37" clip-path="url(#clip-path)">
      <g id="Grupo_9" data-name="Grupo 9" transform="translate(5.121 -5.158)">
        <path id="Caminho_2" data-name="Caminho 2" d="M0,0A.138.138,0,0,0-.128-.045C-.232-.015-.8.1-.8.1A.334.334,0,0,1-1.157,0c-.161-.217-1.527-1.877-1.527-1.877s-.149-.147.023-.454S.666-8.278.666-8.278a.362.362,0,0,1,.247-.207l6.906-2.181s.342-.142.512.1S9.7-8.573,9.7-8.573s.115.09.015.347-.43,1.083-.43,1.083-.089.154.035.183,1,.1,1.018.115a.641.641,0,0,1,.487.311c.246.33,2.836,4.2,2.836,4.2a.441.441,0,0,1,.01.539C13.471-1.5,8.339,4.1,8.339,4.1L7.6,4.923s-.2.235-.622.046S2.143,2.647,2.143,2.647s-.166-.016-.41-.376C1.563,2.019,0,0,0,0" fill="#2b2e34"/>
      </g>
      <g id="Grupo_10" data-name="Grupo 10" transform="translate(6.068 -13.049)">
        <path id="Caminho_3" data-name="Caminho 3" d="M0,0-.46.843s-.018.068.031.086A.716.716,0,0,0-.195.883L.718.615A.413.413,0,0,0,.986.4c.086-.179.436-.8.436-.8s.081-.151-.09-.1S.181-.2.181-.2.091-.188,0,0" fill="#f3e33f"/>
      </g>
      <g id="Grupo_11" data-name="Grupo 11" transform="translate(4.606 -10.256)">
        <path id="Caminho_4" data-name="Caminho 4" d="M0,0,.549-.9A.362.362,0,0,1,.7-1.023c.094-.04,1.218-.366,1.218-.366s.117-.027.044.107-.489.9-.489.9a.544.544,0,0,1-.228.157C1.1-.176.1.124.1.124S-.1.157,0,0" fill="#f3e33f"/>
      </g>
      <g id="Grupo_12" data-name="Grupo 12" transform="translate(4.125 -9.219)">
        <path id="Caminho_5" data-name="Caminho 5" d="M0,0-.634.977s-.061.088.012.116a.479.479,0,0,0,.235-.03L.627.791s.1.027.2-.165S1.37-.4,1.37-.4s.055-.127-.094-.078S.226-.151.226-.151A.358.358,0,0,0,0,0" fill="#f3e33f"/>
      </g>
      <g id="Grupo_13" data-name="Grupo 13" transform="translate(8.304 -13.788)">
        <path id="Caminho_6" data-name="Caminho 6" d="M0,0-.457.9S-.475.973-.426.99A.689.689,0,0,0-.192.945L.914.588A.41.41,0,0,0,1.182.373C1.269.194,1.6-.541,1.6-.541s.08-.151-.09-.1S.181-.2.181-.2.091-.188,0,0" fill="#f3e33f"/>
      </g>
      <g id="Grupo_14" data-name="Grupo 14" transform="translate(10.944 -14.71)">
        <path id="Caminho_7" data-name="Caminho 7" d="M0,0-.46.962s-.018.068.031.085A.694.694,0,0,0-.195,1L.935.631A.416.416,0,0,0,1.2.415c.086-.179.433-.93.433-.93s.081-.151-.089-.1L.181-.2S.091-.188,0,0" fill="#f3e33f"/>
      </g>
      <g id="Grupo_15" data-name="Grupo 15" transform="translate(6.931 -10.878)">
        <path id="Caminho_8" data-name="Caminho 8" d="M0,0,.551-.989A.362.362,0,0,1,.7-1.11c.094-.041,1.329-.432,1.329-.432s.117-.026.043.107-.4.951-.4.951A.377.377,0,0,1,1.4-.25C1.245-.217.1.117.1.117S-.1.157,0,0" fill="#f3e33f"/>
      </g>
      <g id="Grupo_16" data-name="Grupo 16" transform="translate(9.67 -11.736)">
        <path id="Caminho_9" data-name="Caminho 9" d="M0,0,.443-.977A.371.371,0,0,1,.591-1.1c.094-.041,1.374-.409,1.374-.409s.117-.027.043.107-.416.981-.416.981-.01.081-.157.133S.095.143.095.143-.062.138,0,0" fill="#f3e33f"/>
      </g>
      <g id="Grupo_17" data-name="Grupo 17" transform="translate(6.449 -9.832)">
        <path id="Caminho_10" data-name="Caminho 10" d="M0,0-.506,1.04s-.06.089.012.117a.494.494,0,0,0,.236-.03L.839.854A.479.479,0,0,0,1.074.642C1.155.441,1.5-.4,1.5-.4s.056-.127-.094-.078S.226-.151.226-.151A.358.358,0,0,0,0,0" fill="#f3e33f"/>
      </g>
      <g id="Grupo_18" data-name="Grupo 18" transform="translate(9.306 -10.652)">
        <path id="Caminho_11" data-name="Caminho 11" d="M0,0-.493,1s-.056.092.018.116a.489.489,0,0,0,.233-.043L1.094.67s.1.022.19-.176.488-1.057.488-1.057.049-.13-.1-.073S.217-.163.217-.163A.359.359,0,0,0,0,0" fill="#f3e33f"/>
      </g>
      <g id="Grupo_19" data-name="Grupo 19" transform="translate(3.437 -6.824)">
        <path id="Caminho_12" data-name="Caminho 12" d="M0,0S-.131-.2.059-.252,1.113-.514,1.113-.514s.115-.051.246.121l.756,1s.09.123-.058.16-.944.221-.944.221A.31.31,0,0,1,.742.915L0,0" fill="#f3e33f"/>
      </g>
      <g id="Grupo_20" data-name="Grupo 20" transform="translate(6.03 -7.409)">
        <path id="Caminho_13" data-name="Caminho 13" d="M0,0S-.146-.224.066-.28,1.239-.572,1.239-.572s.129-.057.275.135S2.355.677,2.355.677s.1.137-.064.178S1.239,1.1,1.239,1.1a.346.346,0,0,1-.413-.083L0,0" fill="#f3e33f"/>
      </g>
      <g id="Grupo_21" data-name="Grupo 21" transform="translate(8.844 -8.16)">
        <path id="Caminho_14" data-name="Caminho 14" d="M0,0S-.152-.233.069-.292,1.29-.6,1.29-.6s.134-.06.286.14S2.452.7,2.452.7s.105.143-.067.186-1.1.257-1.1.257a.36.36,0,0,1-.43-.086L0,0" fill="#f3e33f"/>
      </g>
      <g id="Grupo_22" data-name="Grupo 22" transform="translate(11.315 -9.661)">
        <path id="Caminho_15" data-name="Caminho 15" d="M0,0,.484-1a.1.1,0,0,1,.189-.014C.78-.881,1.458.142,1.458.142a.2.2,0,0,1,.013.217C1.414.5,1.033,1.4,1.033,1.4s-.041.172-.184.014S.045.26.046.245A.24.24,0,0,1,0,0" fill="#f3e33f"/>
      </g>
      <g id="Grupo_23" data-name="Grupo 23" transform="translate(12.243 -11.864)">
        <path id="Caminho_16" data-name="Caminho 16" d="M0,0,.436-.932a.093.093,0,0,1,.17-.013c.1.126.707,1.077.707,1.077a.19.19,0,0,1,.011.2C1.273.469.93,1.3.93,1.3s-.037.16-.166.014S.04.242.041.227A.228.228,0,0,1,0,0" fill="#f3e33f"/>
      </g>
      <g id="Grupo_24" data-name="Grupo 24" transform="translate(13.139 -13.883)">
        <path id="Caminho_17" data-name="Caminho 17" d="M0,0,.392-.915s.066-.137.153-.013S1.288.291,1.288.291a.2.2,0,0,1,.01.2c-.046.133-.375.865-.375.865s-.033.157-.149.013S.036.238.037.223A.24.24,0,0,1,0,0" fill="#f3e33f"/>
      </g>
      <g id="Grupo_25" data-name="Grupo 25" transform="translate(5.579 -5.316)">
        <path id="Caminho_18" data-name="Caminho 18" d="M0,0,.346-.06S.407-.092.456,0s.586.715.586.715.073.119.011.115S.424.609.424.609.377.6.312.5C.262.433-.037.035-.037.035S-.066,0,0,0" fill="#f3e33f"/>
      </g>
      <g id="Grupo_26" data-name="Grupo 26" transform="translate(6.621 -5.222)">
        <path id="Caminho_19" data-name="Caminho 19" d="M0,0,.563.784A.35.35,0,0,0,.7.9c.1.054.8.4.811.408s.1.02.059-.049S.792.188.792.188A.112.112,0,0,0,.719.124l-.677-.2S-.064-.087,0,0" fill="#f3e33f"/>
      </g>
      <g id="Grupo_27" data-name="Grupo 27" transform="translate(8.135 -4.659)">
        <path id="Caminho_20" data-name="Caminho 20" d="M0,0,.841,1.077a.168.168,0,0,0,.076.064c.055.024.97.459.97.459s.066.019.023-.044S1.026.374,1.026.374A.382.382,0,0,0,.891.27C.815.24.051-.088.051-.088S-.085-.109,0,0" fill="#f3e33f"/>
      </g>
      <g id="Grupo_28" data-name="Grupo 28" transform="translate(9.878 -2.375)">
        <path id="Caminho_21" data-name="Caminho 21" d="M0,0C.093.1.677.916.677.916a.442.442,0,0,0,.131.116l1.09.481s.067.019.023-.043-.807-1-.807-1A.448.448,0,0,0,.942.3C.869.263.04-.132.04-.132-.055-.2-.074-.084,0,0" fill="#f3e33f"/>
      </g>
      <g id="Grupo_29" data-name="Grupo 29" transform="translate(8.179 -3.186)">
        <path id="Caminho_22" data-name="Caminho 22" d="M0,0C.075.09.64.844.64.844a.476.476,0,0,0,.124.1c.066.028.669.331.669.331s.136.046.1-.053C1.5,1.159.893.393.893.393A.5.5,0,0,0,.725.251C.664.224.032-.114.032-.114-.037-.143-.06-.072,0,0" fill="#f3e33f"/>
      </g>
      <g id="Grupo_30" data-name="Grupo 30" transform="translate(6.501 -4.018)">
        <path id="Caminho_23" data-name="Caminho 23" d="M0,0C.075.09.64.844.64.844a.476.476,0,0,0,.124.1c.066.027.669.331.669.331s.136.046.1-.053C1.5,1.159.893.393.893.393A.5.5,0,0,0,.725.251C.664.224.032-.114.032-.114-.037-.143-.06-.072,0,0" fill="#f3e33f"/>
      </g>
      <g id="Grupo_31" data-name="Grupo 31" transform="translate(13.563 -8.615)">
        <path id="Caminho_24" data-name="Caminho 24" d="M0,0-.324.329A.187.187,0,0,0-.378.418c-.032.151-.18.916-.18.916s-.046.188-.137.2-.328.083-.252.228a.582.582,0,0,0,.059.087l.542.778s.081.112.169.093.228-.18.228-.18L.994,1.5a.572.572,0,0,0,.072-.218A.8.8,0,0,0,.984,1.09L.224,0S.145-.147,0,0" fill="#f3e33f"/>
      </g>
      <g id="Grupo_32" data-name="Grupo 32" transform="translate(10.01 -4.886)">
        <path id="Caminho_25" data-name="Caminho 25" d="M0,0,1.187-1.187s.159-.167.284,0,.813,1.139.813,1.139.135.139.026.261S1.2,1.441,1.176,1.449s-.187.2-.365.031A13.974,13.974,0,0,1-.037.285.22.22,0,0,1,0,0" fill="#f3e33f"/>
      </g>
      <g id="Grupo_33" data-name="Grupo 33" transform="translate(14.686 -9.532)">
        <path id="Caminho_26" data-name="Caminho 26" d="M0,0,.727,1.083a.129.129,0,0,0,.208.05c.144-.1,1.035-1.16,1.035-1.16a.186.186,0,0,0-.013-.229c-.094-.132-.716-1.039-.716-1.039s-.115-.2-.24-.068S0-.287,0-.287A.226.226,0,0,0,0,0" fill="#f3e33f"/>
      </g>
      <g id="Grupo_34" data-name="Grupo 34" transform="translate(16.147 -7.28)">
        <path id="Caminho_27" data-name="Caminho 27" d="M0,0,.808,1.233a.128.128,0,0,0,.207.05C1.16,1.183,2.14.006,2.14.006a.186.186,0,0,0-.013-.229c-.094-.132-.739-1.2-.739-1.2s-.115-.2-.24-.069S0-.287,0-.287A.226.226,0,0,0,0,0" fill="#f3e33f"/>
      </g>
      <g id="Grupo_35" data-name="Grupo 35" transform="translate(14.058 -4.834)">
        <path id="Caminho_28" data-name="Caminho 28" d="M0,0,.758,1.148A.12.12,0,0,0,.952,1.2C1.088,1.1,2.008,0,2.008,0A.171.171,0,0,0,2-.208C1.907-.33,1.3-1.325,1.3-1.325s-.108-.183-.225-.064S0-.267,0-.267A.209.209,0,0,0,0,0" fill="#f3e33f"/>
      </g>
      <g id="Grupo_36" data-name="Grupo 36" transform="translate(11.914 -2.443)">
        <path id="Caminho_29" data-name="Caminho 29" d="M0,0,.758,1.148A.12.12,0,0,0,.952,1.2C1.088,1.1,2.008,0,2.008,0A.171.171,0,0,0,2-.208C1.907-.33,1.3-1.325,1.3-1.325s-.108-.183-.225-.064S0-.267,0-.267A.209.209,0,0,0,0,0" fill="#f3e33f"/>
      </g>
    </g>
  </g>
</svg>
