<svg xmlns="http://www.w3.org/2000/svg" xmlns:xlink="http://www.w3.org/1999/xlink" width="21.26" height="16.765" viewBox="0 0 21.26 16.765">
  <defs>
    <clipPath id="clip-path">
      <path id="Caminho_47" data-name="Caminho 47" d="M0,0H21.26V-16.765H0Z" fill="none"/>
    </clipPath>
  </defs>
  <g id="ico_serconsciente" transform="translate(0 16.765)">
    <g id="Grupo_39" data-name="Grupo 39" transform="translate(0 -15.646)">
      <path id="Caminho_31" data-name="Caminho 31" d="M0,0V14.173H21.26V0Z" fill="#d5f2f3"/>
    </g>
    <g id="Grupo_55" data-name="Grupo 55" clip-path="url(#clip-path)">
      <g id="Grupo_40" data-name="Grupo 40" transform="translate(10.661 -6.56)">
        <path id="Caminho_32" data-name="Caminho 32" d="M0,0A4.967,4.967,0,0,1-4.961-4.961,4.967,4.967,0,0,1,0-9.922,4.966,4.966,0,0,1,4.96-4.961,4.966,4.966,0,0,1,0,0" fill="#2b2e34"/>
      </g>
      <g id="Grupo_41" data-name="Grupo 41" transform="translate(10.661 -16.765)">
        <path id="Caminho_33" data-name="Caminho 33" d="M0,0A5.244,5.244,0,0,0,0,10.488,5.249,5.249,0,0,0,5.244,5.244,5.249,5.249,0,0,0,0,0M0,.567A4.677,4.677,0,0,1,4.677,5.244,4.677,4.677,0,0,1,0,9.921,4.677,4.677,0,0,1-4.677,5.244,4.677,4.677,0,0,1,0,.567" fill="#2b2e34"/>
      </g>
      <g id="Grupo_42" data-name="Grupo 42" transform="translate(6.578 -13.696)">
        <path id="Caminho_34" data-name="Caminho 34" d="M0,0A.046.046,0,0,0,.007-.042L-.016-.18s0-.011.011-.038S.163-.469.2-.522.6-.989.656-1.034s.3-.271.331-.3.4-.3.446-.329.463-.267.508-.289.41-.18.526-.219.283-.1.294-.1a.309.309,0,0,1,.04-.007,1.052,1.052,0,0,1,.138,0,1.075,1.075,0,0,1,.121.122.313.313,0,0,1,.006.081c0,.021,0,.136,0,.136s0,.011-.016,0-.186-.037-.2-.041-.212-.018-.227,0-.024.139,0,.151.092.032.073.051-.289.075-.324.106-.481.255-.526.283a1.513,1.513,0,0,0-.256.186.856.856,0,0,1-.094.2c-.02.006-.167.024-.172.051s-.009.185-.02.223-.03.162-.049.164a1.716,1.716,0,0,1-.33-.12c0-.016.127-.163.111-.18s-.1-.029-.126,0S.591-.628.576-.61.386-.492.33-.378a.545.545,0,0,0-.056.326C.3,0,.344-.014.338-.031A.358.358,0,0,1,.4-.219C.438-.246.664-.373.668-.375A.02.02,0,0,1,.679-.34a1.277,1.277,0,0,0-.1.223c0,.022-.007.035.007.034S.77-.122.777-.117a.129.129,0,0,1,.028.059c0,.021.007.136-.031.15S.7.139.707.158A.146.146,0,0,0,.784.236c.033.007.045.011.056,0a.851.851,0,0,1,.1-.1A.057.057,0,0,1,1,.148a.506.506,0,0,0,.112.074c.033.007.178.028.2.034S1.614.2,1.66.2s.346.048.375.04.207-.059.239-.061.3.026.329.026a2.028,2.028,0,0,1,.22.063s.037-.005.04.017.016.1.017.108.007,0,.017-.012A.218.218,0,0,1,3.034.377c.056.019.3.13.3.13A.035.035,0,0,1,3.36.531a.808.808,0,0,1,0,.14s0,.025.016.031l.282.122A.015.015,0,0,1,3.675.84c0,.018-.013.042,0,.042h.166A.173.173,0,0,1,3.9.9c.022.01.161.082.18.085A.739.739,0,0,0,4.174,1,.814.814,0,0,0,4.316.96c.023-.008.039-.027.061-.006s.125.125.136.136a.054.054,0,0,0,.038.02l.223.053s.013,0,.013.026a1.108,1.108,0,0,1,0,.163c-.008.025-.068.132-.078.15s-.137.1-.165.131-.038.055-.058.068a.616.616,0,0,0-.132.091.573.573,0,0,0-.027.128,2.412,2.412,0,0,0-.012.257,2.56,2.56,0,0,1,0,.3.208.208,0,0,1-.028.077c-.013.017-.043.1-.071.1s-.154.01-.175.007a1.257,1.257,0,0,0-.2.041c-.019.007-.208.1-.208.1a.032.032,0,0,0-.031.02c-.011.022-.036.1-.046.12a2.43,2.43,0,0,0,.063.243c0,.024-.033.13-.039.156s-.032.1-.032.1.009.016-.018.023-.267.167-.267.167-.009,0-.013.019a1.482,1.482,0,0,0,.037.172s.011.026-.021.051a.878.878,0,0,0-.085.066c-.019.023-.106.132-.112.138s-.007.006-.033.013a1.188,1.188,0,0,1-.159,0s-.019-.008-.012.015a.7.7,0,0,1,.036.134c0,.026-.015.095-.015.095a.024.024,0,0,1-.017.02c-.015,0-.086.032-.1.031a.016.016,0,0,0-.013.028c.014.015.129.117.128.176s-.019.1-.013.106.109.063.12.084a.072.072,0,0,1,.01.048c0,.015-.025.071-.006.08a.711.711,0,0,1,.092.1.072.072,0,0,1,.024.049c0,.034.055.181.055.181s.008.023-.014.02l-.9-.168s-.01,0-.029-.025a1.46,1.46,0,0,0-.134-.146C2.07,4.9,2,4.9,1.992,4.834a.871.871,0,0,1,.022-.169.36.36,0,0,0-.041-.173c-.03-.028-.184-.114-.2-.154a.237.237,0,0,1-.019-.095c0-.02.023-.06.014-.083s-.083-.08-.087-.119a1.145,1.145,0,0,0,0-.125c-.008-.025.037-.417.017-.458s-.132-.141-.142-.171a2.238,2.238,0,0,1-.043-.26c0-.038-.021-.321-.029-.352a1.109,1.109,0,0,0-.248-.255.9.9,0,0,1-.3-.266,3.446,3.446,0,0,0-.161-.348C.771,1.787.636,1.7.641,1.6S.682,1.42.67,1.384.623,1.252.64,1.216a1.934,1.934,0,0,1,.155-.2.566.566,0,0,0,.14-.2A.463.463,0,0,0,.9.524C.84.449.808.424.789.427S.772.5.75.531C.708.578.6.6.579.574A1.961,1.961,0,0,1,.416.359C.4.331.413.3.373.3S.245.325.194.275.141.21.121.216s-.1.1-.138.066-.1-.1-.073-.154A.837.837,0,0,1,0,0" fill="#f3e33f"/>
      </g>
      <g id="Grupo_43" data-name="Grupo 43" transform="translate(7.603 -13.921)">
        <path id="Caminho_35" data-name="Caminho 35" d="M0,0A.756.756,0,0,0-.044.1c0,.013.008.013.022.013s.155.017.141,0L.023,0S.008-.017,0,0" fill="#f3e33f"/>
      </g>
      <g id="Grupo_44" data-name="Grupo 44" transform="translate(7.427 -14.243)">
        <path id="Caminho_36" data-name="Caminho 36" d="M0,0A.033.033,0,0,0,0,.047c.022.027.07.09.078.1A.1.1,0,0,0,.145.184c.026,0,.06-.025.087,0s.115.1.124.106A.059.059,0,0,0,.417.3C.444.292.625.258.64.232A.282.282,0,0,0,.668.1C.659.09.646.093.624.09A1.194,1.194,0,0,1,.33.1.452.452,0,0,0,.167.021C.133.021.037,0,.031,0S.009-.018,0,0" fill="#f3e33f"/>
      </g>
      <g id="Grupo_45" data-name="Grupo 45" transform="translate(11.286 -15.532)">
        <path id="Caminho_37" data-name="Caminho 37" d="M0,0S-.018.023.012.047.095.126.118.131.355.283.355.283l.18.074s0,.015.031,0S.843.149.843.149A.1.1,0,0,0,.876.1C.888.059.9.012.9.012S.88,0,.912,0l.169.027S1.09.036,1.12.018l.1-.06s-.016-.014.021,0L1.767.1S1.8.108,1.809.1a.06.06,0,0,1,.082.011c.035.034.478.416.478.416L2.42.57A.073.073,0,0,0,2.463.6l.122.022s.016,0,0-.019S2.424.414,2.4.39,1.909.059,1.712-.055s-.67-.377-.73-.392S.735-.481.735-.481a1.441,1.441,0,0,0-.169.034C.551-.438.516-.422.514-.4a.537.537,0,0,1-.028.2C.456-.16.227-.151.193-.14s-.119.073-.14.079S0,0,0,0" fill="#f3e33f"/>
      </g>
      <g id="Grupo_46" data-name="Grupo 46" transform="translate(12.147 -15.211)">
        <path id="Caminho_38" data-name="Caminho 38" d="M0,0S.035-.062.064-.02L.147.1S.139.111.17.125A.98.98,0,0,0,.434.164,3.024,3.024,0,0,1,1.041.146.106.106,0,0,1,1.1.24a.083.083,0,0,0,.027.048c.022.018.15.141.184.171a2.359,2.359,0,0,0,.156.188c.03.013.136-.03.159-.033A.081.081,0,0,1,1.7.638a.492.492,0,0,0,.093.1l.072.052c.016.011.027.028.051.026S2.053.789,2.1.841a4.49,4.49,0,0,1,.424.637,7.494,7.494,0,0,1,.346.822c.042.16.135.781.157.856a.486.486,0,0,1,.016.206c-.011.011-.1.146-.122.181a.563.563,0,0,0-.076.14c-.007.039-.051.343-.058.382a2.029,2.029,0,0,0,.033.242.533.533,0,0,1,0,.156.3.3,0,0,1-.111.14c-.042.018-.136.17-.157.179s-.055.031-.048.062.06.149.044.2a.2.2,0,0,1-.063.087c-.012.012-.163.1-.181.119a.151.151,0,0,0-.044.073A.443.443,0,0,1,2.2,5.5c-.036.035-.2.219-.227.219A.886.886,0,0,1,1.845,5.7.109.109,0,0,0,1.76,5.7a1.707,1.707,0,0,1-.281.114.745.745,0,0,1-.246,0,.4.4,0,0,0-.146-.039c-.032,0-.058-.01-.043-.027s.069-.065.082-.08.114-.17.1-.209-.114-.418-.122-.464-.007-.137.019-.137a.432.432,0,0,1,.128.016c.025.014.046-.262.025-.3a.8.8,0,0,1-.063-.28c.013-.039.007-.106.038-.122a1.927,1.927,0,0,0,.272-.253.555.555,0,0,0,.02-.157c0-.048-.007-.763-.007-.763s.012,0-.013-.032-.182-.15-.192-.183a.253.253,0,0,1,.02-.137.181.181,0,0,0,.019-.118c-.01-.035-.008-.084-.036-.1s-.276,0-.3-.067a.124.124,0,0,1,.011-.132.083.083,0,0,0,0-.086c-.018-.023-.268.081-.289.1s-.017.041-.063.024S.638,2.225.6,2.215.432,2.2.412,2.17.392,2.091.34,2.092s-.106.046-.157.032A.639.639,0,0,1-.039,2c-.046-.051-.189-.154-.2-.21a.962.962,0,0,0-.149-.3.359.359,0,0,1-.12-.208c0-.069.054-.146.054-.177s.032-.049,0-.1A.312.312,0,0,1-.538.8.62.62,0,0,1-.476.575c.03-.047.06-.109.087-.12S-.226.4-.234.353-.256.239-.224.209-.158.123-.112.084-.008.012,0,0" fill="#f3e33f"/>
      </g>
      <g id="Grupo_47" data-name="Grupo 47" transform="translate(10.099 -8.185)">
        <path id="Caminho_39" data-name="Caminho 39" d="M0,0S.033.009.025.028.009.3.011.309.019.317.033.323.172.375.19.384s.163.15.188.158S.6.6.616.611a.252.252,0,0,0,.171,0C.853.589,1.08.438,1.2.4A3.931,3.931,0,0,1,1.62.3a1.215,1.215,0,0,1,.229,0,1.6,1.6,0,0,1,.238.119.11.11,0,0,0,.069.037,1.715,1.715,0,0,0,.265.032c.03-.008.084-.036.077-.007A3.364,3.364,0,0,1,2.27.8a1.059,1.059,0,0,1-.225.18c-.035,0-.2.016-.217.019s-.033,0-.021.012.09.068.092.086a1.341,1.341,0,0,1-.438.137,4.976,4.976,0,0,1-.742.1,3.8,3.8,0,0,1-.66-.011.581.581,0,0,1-.073-.055A.16.16,0,0,0-.067,1.26s-.233,0-.26,0-.364-.141-.386-.153-.03-.1-.03-.121S-.68.895-.688.876-.776.825-.786.808-.8.779-.769.772A.715.715,0,0,1-.59.788.519.519,0,0,0-.428.8C-.388.8-.177.759-.168.748S-.189.721-.2.71-.417.563-.44.534A.3.3,0,0,1-.5.252.365.365,0,0,1-.271.027,2.511,2.511,0,0,1,0,0" fill="#f3e33f"/>
      </g>
      <g id="Grupo_48" data-name="Grupo 48" transform="translate(14.767 -9.753)">
        <path id="Caminho_40" data-name="Caminho 40" d="M0,0A.091.091,0,0,1,0-.049C.006-.088.049-.241.055-.266A.829.829,0,0,1,.1-.373L.247-.7s.025-.045.04,0A.868.868,0,0,1,.3-.482c0,.017-.068.21-.087.261S.045.061.045.061.027.09.016.061A.5.5,0,0,1,0,0" fill="#f3e33f"/>
      </g>
      <g id="Grupo_49" data-name="Grupo 49" transform="translate(11.886 -3.342)">
        <path id="Caminho_41" data-name="Caminho 41" d="M0,0A.337.337,0,0,1-.123-.025L-.5-.182A.345.345,0,0,1-.694-.418.352.352,0,0,1-.562-.725C-.516-.759.689-1.551.689-1.551a1.294,1.294,0,0,1,.2-.1.576.576,0,0,1,.154-.03.532.532,0,0,1,.38.179.517.517,0,0,1,.148.386A.447.447,0,0,1,1.4-.836L.211-.073A.553.553,0,0,1,0,0" fill="#f3e33f"/>
      </g>
      <g id="Grupo_50" data-name="Grupo 50" transform="translate(12.927 -5.303)">
        <path id="Caminho_42" data-name="Caminho 42" d="M0,0A.688.688,0,0,0-.258.049,1.7,1.7,0,0,0-.483.158c-1.23.807-1.275.84-1.29.852a.63.63,0,0,0-.242.58.593.593,0,0,0,.378.456l.36.15a.638.638,0,0,0,.236.048.659.659,0,0,0,.382-.129L.516,1.364a.645.645,0,0,0,.3-.538A.782.782,0,0,0,.589.27.81.81,0,0,0,0,0M0,.567a.279.279,0,0,1,.246.26A.074.074,0,0,1,.211.886l-1.193.763a.13.13,0,0,1-.059.029l-.01,0-.381-.159s-.052-.016,0-.052S-.2.647-.2.647A1.231,1.231,0,0,1-.051.576.152.152,0,0,1,0,.567" fill="#2b2e34"/>
      </g>
      <g id="Grupo_51" data-name="Grupo 51" transform="translate(12.699 -2.837)">
        <path id="Caminho_43" data-name="Caminho 43" d="M0,0A.346.346,0,0,1-.28-.172.644.644,0,0,0-.464-.341.366.366,0,0,1-.605-.6.361.361,0,0,1-.484-.845C-.456-.866,1.159-1.887,1.2-1.912a1.159,1.159,0,0,1,.126-.061A.707.707,0,0,1,1.494-2a.613.613,0,0,1,.525.339.449.449,0,0,1-.056.488,1.2,1.2,0,0,1-.125.112L.172-.049A.384.384,0,0,1,0,0" fill="#f3e33f"/>
      </g>
      <g id="Grupo_52" data-name="Grupo 52" transform="translate(14.193 -5.124)">
        <path id="Caminho_44" data-name="Caminho 44" d="M0,0A.728.728,0,0,0-.275.053a1.5,1.5,0,0,0-.16.078C-.47.152-1.03.5-2.1,1.182a.53.53,0,0,0-.054.039.645.645,0,0,0-.228.462.6.6,0,0,0,.2.45l.05.04a1.19,1.19,0,0,1,.112.089.627.627,0,0,0,.524.309.617.617,0,0,0,.319-.091L.482,1.471A.871.871,0,0,0,.689,1.29.738.738,0,0,0,.782.5.9.9,0,0,0,0,0M0,.567c.163,0,.379.207.25.365A.383.383,0,0,1,.187.987L-1.469,2A.048.048,0,0,1-1.493,2a.034.034,0,0,1-.028-.017c-.039-.111-.271-.269-.29-.285s.013-.041.013-.041S-.193.647-.151.622A.778.778,0,0,1-.06.578.149.149,0,0,1,0,.567" fill="#2b2e34"/>
      </g>
      <g id="Grupo_53" data-name="Grupo 53" transform="translate(6.188 -0.284)">
        <path id="Caminho_45" data-name="Caminho 45" d="M0,0A.283.283,0,0,1-.23-.119L-1.24-1.526a.281.281,0,0,1-.049-.212.287.287,0,0,1,.114-.184l3-2.146a1.613,1.613,0,0,1,.551-.27,1.291,1.291,0,0,1,.241-.024.763.763,0,0,1,.317.058L6.057-3.061a.729.729,0,0,1,.356.417.6.6,0,0,1,.166-.077c0-.008,1.92-1.174,2.021-1.238a1.373,1.373,0,0,1,.161-.095.553.553,0,0,1,.175-.037.747.747,0,0,1,.549.321.563.563,0,0,1,.115.5.588.588,0,0,1-.2.279L6.178-.812a.673.673,0,0,1-.314.147H5.807a.857.857,0,0,1-.229-.022L3.757-1.152c-.61-.161-1.319-.332-1.453-.339a2.082,2.082,0,0,0-.611.349c-.011.01-.03.025-1.529,1.089A.279.279,0,0,1,0,0" fill="#f3e33f"/>
      </g>
      <g id="Grupo_54" data-name="Grupo 54" transform="translate(8.811 -4.929)">
        <path id="Caminho_46" data-name="Caminho 46" d="M0,0A1.568,1.568,0,0,0-.295.029,1.874,1.874,0,0,0-.964.352l-3,2.141a.562.562,0,0,0-.23.368.567.567,0,0,0,.1.423l1.01,1.408a.566.566,0,0,0,.462.237.56.56,0,0,0,.327-.105C-.784,3.753-.77,3.74-.746,3.72A2.5,2.5,0,0,1-.3,3.442c.2.033.836.187,1.356.325l1.834.469a1.049,1.049,0,0,0,.263.033c.025,0,.1,0,.122-.008a.963.963,0,0,0,.457-.208L5.577,2.808,6.923,1.9a.9.9,0,0,0,.325-.44A.835.835,0,0,0,7.091.707,1.021,1.021,0,0,0,6.313.27a.728.728,0,0,0-.237.04.471.471,0,0,0-.065.028,1.832,1.832,0,0,0-.2.118c-.074.048-1.125.686-1.9,1.157a.991.991,0,0,0-.3-.262.609.609,0,0,0-.063-.03L1.438.483.4.071A.981.981,0,0,0,0,0M0,.567A.494.494,0,0,1,.193.6l1.035.412,2.1.839a.371.371,0,0,1,.19.4.277.277,0,0,1-.282.211.281.281,0,0,1-.05,0l-.362-.13L1.07,1.732a.458.458,0,0,0-.081-.007c-.081,0-.2.021-.215.141a.233.233,0,0,0,.153.25s1.265.525,1.83.714a1.408,1.408,0,0,0,.435.087.789.789,0,0,0,.474-.192.646.646,0,0,0,.261-.458c0-.038.112-.071.112-.071S6.075.962,6.134.921A1.212,1.212,0,0,1,6.263.845a.169.169,0,0,1,.05-.008c.183,0,.447.281.394.453a.337.337,0,0,1-.1.139l-1.347.909L3.4,3.6a.477.477,0,0,1-.191.1.4.4,0,0,1-.048,0,.5.5,0,0,1-.123-.016L1.2,3.219S-.059,2.885-.3,2.871H-.316a2.084,2.084,0,0,0-.8.417c-.02.017-1.51,1.075-1.51,1.075l-1.01-1.408,3-2.146A1.441,1.441,0,0,1-.19.586,1.029,1.029,0,0,1,0,.567" fill="#2b2e34"/>
      </g>
    </g>
  </g>
</svg>
