<svg xmlns="http://www.w3.org/2000/svg" width="15.584" height="14.315" viewBox="0 0 15.584 14.315">
  <g id="ico_btnenviarinst" transform="translate(-1350.047 -1466.725)">
    <g id="Grupo_11603" data-name="Grupo 11603" transform="translate(1365.009 1467.242)">
      <path id="Caminho_11727" data-name="Caminho 11727" d="M0,0-14.416,7.168a.081.081,0,0,0,.005.148l4.039,1.647a.079.079,0,0,1,.047.051l.864,2.721a.081.081,0,0,0,.141.025l1.079-1.366a.082.082,0,0,1,.108-.017l4.477,2.9a.081.081,0,0,0,.122-.046L.114.094A.081.081,0,0,0,0,0Z" fill="none" stroke="#fff" stroke-width="1"/>
    </g>
    <g id="Grupo_11604" data-name="Grupo 11604" transform="translate(1362.664 1469.94)">
      <path id="Caminho_11728" data-name="Caminho 11728" d="M0,0-7.175,4.316a.082.082,0,0,0-.038.084l.469,2.585A.081.081,0,0,0-6.589,7l.576-1.516a.09.09,0,0,1,.023-.032L.095.131A.081.081,0,0,0,0,0" fill="#fff"/>
    </g>
  </g>
</svg>
