<svg id="icone_ods_16" xmlns="http://www.w3.org/2000/svg" xmlns:xlink="http://www.w3.org/1999/xlink" width="38.268" height="38.269" viewBox="0 0 38.268 38.269">
  <defs>
    <clipPath id="clip-path">
      <rect id="Ret창ngulo_16" data-name="Ret창ngulo 16" width="38.268" height="38.269" transform="translate(0 0)" fill="none"/>
    </clipPath>
  </defs>
  <rect id="Ret창ngulo_15" data-name="Ret창ngulo 15" width="38.268" height="38.269" transform="translate(0 0)" fill="#00588c"/>
  <g id="Grupo_306" data-name="Grupo 306">
    <g id="Grupo_305" data-name="Grupo 305" clip-path="url(#clip-path)">
      <path id="Caminho_297" data-name="Caminho 297" d="M27.221,14.269a1.72,1.72,0,0,0-.33,1.221,1.719,1.719,0,0,0,.823.961,1.722,1.722,0,0,0,.33-1.221,1.719,1.719,0,0,0-.823-.961" fill="#fff"/>
      <path id="Caminho_298" data-name="Caminho 298" d="M26.463,17.8a1.722,1.722,0,0,0,.33-1.221,1.723,1.723,0,0,0-.823-.961,1.724,1.724,0,0,0-.331,1.221,1.728,1.728,0,0,0,.824.961" fill="#fff"/>
      <path id="Caminho_299" data-name="Caminho 299" d="M28.376,17.138a1.53,1.53,0,0,0,1.051.446,1.6,1.6,0,0,0,.975-.626,1.528,1.528,0,0,0-1.051-.446,1.6,1.6,0,0,0-.975.626" fill="#fff"/>
      <path id="Caminho_300" data-name="Caminho 300" d="M29.182,14.489a1.846,1.846,0,0,0-.391,1.28,1.766,1.766,0,0,0,1.259-.392,1.852,1.852,0,0,0,.391-1.28,1.771,1.771,0,0,0-1.259.392" fill="#fff"/>
      <path id="Caminho_301" data-name="Caminho 301" d="M28.177,18.976a1.6,1.6,0,0,0,1.082-.413,1.532,1.532,0,0,0-.937-.652,1.6,1.6,0,0,0-1.083.414,1.532,1.532,0,0,0,.938.651" fill="#fff"/>
      <path id="Caminho_302" data-name="Caminho 302" d="M28.675,28.669H24.5a.59.59,0,1,0,0,1.18h4.17a.59.59,0,1,0,0-1.18" fill="#fff"/>
      <path id="Caminho_303" data-name="Caminho 303" d="M28.675,35.171H24.5a.59.59,0,1,0,0,1.18h4.17a.59.59,0,0,0,0-1.18" fill="#fff"/>
      <path id="Caminho_304" data-name="Caminho 304" d="M9.92,27.236a2.558,2.558,0,0,0-.289-.074s.106.033.289.074" fill="#fff"/>
      <path id="Caminho_305" data-name="Caminho 305" d="M16.679,29.789c.275,0,.55,0,.827-.023v2.179l-.827-.019Zm11.842.471H24.657a.336.336,0,0,0-.336.336v1.17l-2.523.277-3.685-.084V29.708a10.185,10.185,0,0,0,1.466-.3,5.633,5.633,0,0,0,4.244-5.964c-.077-2.067.585-2.869,1.535-3.226a4.311,4.311,0,0,1,.787-.209,6.341,6.341,0,0,0,.341,1.8c.084,0,.168-.012.251-.021a5.979,5.979,0,0,1-.347-1.815,4.463,4.463,0,0,1,.841-.026,5.3,5.3,0,0,1-.8-.57,4,4,0,0,1,1.343-2.194,7.233,7.233,0,0,0,.94-1.1l-.21-.136a6.936,6.936,0,0,1-.909,1.065A4.323,4.323,0,0,0,26.218,19.2a8.008,8.008,0,0,1-.608-.612c-.875-.981-2-.26-3.607,1.235s-3.627,1.546-5.6-.473a7.19,7.19,0,0,0-6.431-2.5c1.065.454,1.438,1.449,1.977,3.979.565,2.655,1.99,3.857,3.939,4.022-1.084.383-1.137.995-2.59,2a4.531,4.531,0,0,1-3.378.388c1.188.37,2.6,1.617,3.854,2.05a9.349,9.349,0,0,0,2.3.471v2.155l-6.6-.151v1.5L21.8,32.983l2.523.277v1.17a.336.336,0,0,0,.336.336h3.864a.336.336,0,0,0,.336-.336V30.6a.336.336,0,0,0-.336-.336" fill="#fff"/>
      <path id="Caminho_306" data-name="Caminho 306" d="M9.108,33.016a.538.538,0,0,1-.494.574h-.3a.539.539,0,0,1-.494-.574V31.977a.538.538,0,0,1,.494-.574h.3a.538.538,0,0,1,.494.574Z" fill="#fff"/>
      <path id="Caminho_307" data-name="Caminho 307" d="M33.3,11.474q-.677,0-.677-1.144V8.878a.792.792,0,0,1,.266-.242.737.737,0,0,1,.387-.11.519.519,0,0,1,.436.171.908.908,0,0,1,.169.45,6.912,6.912,0,0,1,.037.82,4.113,4.113,0,0,1-.115,1.166.479.479,0,0,1-.5.341m-.024,1.353a2.412,2.412,0,0,0,2.069-.814,3.854,3.854,0,0,0,.6-2.332,3.161,3.161,0,0,0-.5-1.859,1.778,1.778,0,0,0-1.561-.7,2.121,2.121,0,0,0-.774.132,1.028,1.028,0,0,0-.5.363V6.821a9.176,9.176,0,0,1,.048-1.1.961.961,0,0,1,.188-.517.532.532,0,0,1,.417-.154c.258,0,.422.077.49.231a2.258,2.258,0,0,1,.1.825h1.9l-.012-.154a2.334,2.334,0,0,0-.569-1.727,2.687,2.687,0,0,0-1.924-.561,2.487,2.487,0,0,0-2.111.781,3.659,3.659,0,0,0-.587,2.233V9.9a3.214,3.214,0,0,0,.665,2.134,2.523,2.523,0,0,0,2.045.792m-6.437-.132h2.021V3.785H27.271a8.706,8.706,0,0,1-1.779.99V6.139A3.665,3.665,0,0,1,25.831,6c.137-.051.238-.088.3-.11q.568-.221.7-.286Zm-7.6.132a2.914,2.914,0,0,0,1.344-.3,2.24,2.24,0,0,0,.9-.808,2.1,2.1,0,0,0,.321-1.139A2.7,2.7,0,0,0,21.4,9.1,4.754,4.754,0,0,0,20.277,7.91l-.811-.649a3.959,3.959,0,0,1-.72-.7,1.256,1.256,0,0,1-.223-.759.811.811,0,0,1,.151-.479.5.5,0,0,1,.429-.214.48.48,0,0,1,.5.3,3.453,3.453,0,0,1,.139.995l1.863-.209A3.322,3.322,0,0,0,21.07,4.4a2.14,2.14,0,0,0-1.894-.737,3.074,3.074,0,0,0-2.015.605A2.113,2.113,0,0,0,16.429,6a2.367,2.367,0,0,0,.345,1.293,4.1,4.1,0,0,0,.974,1.028l.847.671a3.891,3.891,0,0,1,.817.8,1.523,1.523,0,0,1,.26.891q0,.649-.544.649a.688.688,0,0,1-.636-.369,2.648,2.648,0,0,1-.224-1.215L16.417,10a3.073,3.073,0,0,0,.732,2.151,2.86,2.86,0,0,0,2.087.676m-7.526-1.5V5.16h.327a1.666,1.666,0,0,1,.7.11.528.528,0,0,1,.29.336,2.455,2.455,0,0,1,.067.654v3.883a3.022,3.022,0,0,1-.061.7.567.567,0,0,1-.284.364,1.474,1.474,0,0,1-.7.126ZM9.544,12.695h2.505a5.224,5.224,0,0,0,1.966-.3,1.86,1.86,0,0,0,1.005-.913,3.857,3.857,0,0,0,.3-1.65V6.6a3.784,3.784,0,0,0-.3-1.633,1.822,1.822,0,0,0-1.011-.9,5.492,5.492,0,0,0-1.984-.286H9.544ZM5.261,11.43c-.307,0-.5-.093-.593-.281a1.8,1.8,0,0,1-.133-.764V6.095A1.681,1.681,0,0,1,4.68,5.33a.592.592,0,0,1,.581-.28.621.621,0,0,1,.605.275,1.669,1.669,0,0,1,.145.77v4.29a1.673,1.673,0,0,1-.145.764.615.615,0,0,1-.605.281m0,1.4a2.982,2.982,0,0,0,2.281-.743A3.138,3.138,0,0,0,8.226,9.89V6.579A3.1,3.1,0,0,0,7.542,4.4a3,3,0,0,0-2.281-.737A2.977,2.977,0,0,0,3,4.395a3.112,3.112,0,0,0-.677,2.184V9.89A3.152,3.152,0,0,0,3,12.084a2.943,2.943,0,0,0,2.263.743" fill="#fff"/>
    </g>
  </g>
</svg>
