<svg xmlns="http://www.w3.org/2000/svg" xmlns:xlink="http://www.w3.org/1999/xlink" width="23.452" height="19.843" viewBox="0 0 23.452 19.843">
  <defs>
    <clipPath id="clip-path">
      <path id="Caminho_12871" data-name="Caminho 12871" d="M0,0H23.452V-19.843H0Z" fill="none"/>
    </clipPath>
  </defs>
  <g id="icone_ods14" transform="translate(0 19.843)">
    <g id="Grupo_12776" data-name="Grupo 12776" clip-path="url(#clip-path)">
      <g id="Grupo_12773" data-name="Grupo 12773" transform="translate(23.403 -5.433)">
        <path id="Caminho_12868" data-name="Caminho 12868" d="M0,0C-.545-.737-4.066-5.226-9-5.226c-4.287,0-8.873,3.888-8.873,3.888S-19.6-4.864-23.123-5.2c-.02,0-.042,0-.066,0h-.022a.143.143,0,0,0-.134.139.391.391,0,0,0,.055.129A10.784,10.784,0,0,1-21.677.1a10.818,10.818,0,0,1-1.616,5.052l-.03.048a.143.143,0,0,0-.022.074.139.139,0,0,0,.13.139l.038,0a.158.158,0,0,0,.037,0c3.535-.33,5.264-3.866,5.264-3.866S-13.29,5.433-9,5.433c4.937,0,8.458-4.489,9-5.224C.015.189.027.171.038.158A.153.153,0,0,0,.05.1.153.153,0,0,0,.038.05C.027.035.015.018,0,0M-6.258.671A1.441,1.441,0,0,1-7.7-.77,1.44,1.44,0,0,1-6.258-2.21,1.44,1.44,0,0,1-4.816-.77,1.44,1.44,0,0,1-6.258.671" fill="#2b2e34"/>
      </g>
      <g id="Grupo_12774" data-name="Grupo 12774" transform="translate(0.169 -19.097)">
        <path id="Caminho_12869" data-name="Caminho 12869" d="M0,0A.168.168,0,0,0-.027-.006.143.143,0,0,0-.169.137V1.12a.139.139,0,0,0,.041.1c2.384,2.071,4.64.131,5.162-.382A.132.132,0,0,1,5.072.8a.138.138,0,0,1,.173.012.027.027,0,0,0,.008.007c2.691,2.569,5.514.488,6.1,0l.058-.053a.119.119,0,0,1,.054-.011.133.133,0,0,1,.056.011l.058.053c.587.488,3.409,2.569,6.1,0,0,0,0,0,.005-.007A.139.139,0,0,1,17.86.8a.149.149,0,0,1,.039.04c.522.513,2.776,2.453,5.161.382a.139.139,0,0,0,.041-.1V.137a.14.14,0,0,0-.139-.143A.17.17,0,0,0,22.931,0c-.022.013-.045.024-.071.037a4.339,4.339,0,0,1-5.07-.712c-.02-.018-.04-.036-.06-.057a.146.146,0,0,0-.06-.013.2.2,0,0,0-.043.007.152.152,0,0,0-.071.055c-.615.469-3.438,2.38-5.952.035l-.037-.036a.157.157,0,0,0-.1-.042.152.152,0,0,0-.1.042l-.039.036C8.816,1.7,5.99-.214,5.376-.683a.149.149,0,0,0-.07-.055.212.212,0,0,0-.045-.007A.153.153,0,0,0,5.2-.732a.643.643,0,0,1-.06.057A4.337,4.337,0,0,1,.073.037C.047.024.022.013,0,0" fill="#2b2e34"/>
      </g>
      <g id="Grupo_12775" data-name="Grupo 12775" transform="translate(5.203 -14.683)">
        <path id="Caminho_12870" data-name="Caminho 12870" d="M0,0A.141.141,0,0,1,.038-.039.141.141,0,0,1,.116-.066a.137.137,0,0,1,.1.04L.218-.02c2.691,2.565,5.515.486,6.1,0l.058-.055a.131.131,0,0,1,.053-.009.148.148,0,0,1,.057.009l.057.055c.587.486,3.41,2.565,6.1,0,0,0,0,0,.005-.006a.133.133,0,0,1,.095-.04.138.138,0,0,1,.078.027.148.148,0,0,1,.04.039c.521.513,2.776,2.454,5.161.381a.137.137,0,0,0,.042-.1V-.7a.141.141,0,0,0-.14-.142c-.011,0-.02.005-.031.006L17.826-.8a4.34,4.34,0,0,1-5.07-.711c-.019-.018-.04-.037-.06-.057a.121.121,0,0,0-.06-.014.1.1,0,0,0-.043.011.12.12,0,0,0-.071.053c-.615.468-3.438,2.38-5.952.035l-.037-.037a.146.146,0,0,0-.1-.04.138.138,0,0,0-.1.04l-.039.037C3.782.859.956-1.053.342-1.521a.121.121,0,0,0-.07-.053.1.1,0,0,0-.045-.011.125.125,0,0,0-.059.014.822.822,0,0,1-.061.057A4.338,4.338,0,0,1-4.962-.8l-.072-.036c-.011,0-.018-.006-.027-.006A.142.142,0,0,0-5.2-.7V.282a.136.136,0,0,0,.041.1C-2.779,2.454-.522.513,0,0" fill="#2b2e34"/>
      </g>
    </g>
  </g>
</svg>
