<svg xmlns="http://www.w3.org/2000/svg" xmlns:xlink="http://www.w3.org/1999/xlink" width="26.553" height="19.843" viewBox="0 0 26.553 19.843">
  <defs>
    <clipPath id="clip-path">
      <path id="Caminho_12863" data-name="Caminho 12863" d="M0,0H26.553V-19.843H0Z" fill="none"/>
    </clipPath>
  </defs>
  <g id="icone_ods11" transform="translate(0 19.843)">
    <g id="Grupo_12765" data-name="Grupo 12765" clip-path="url(#clip-path)">
      <g id="Grupo_12759" data-name="Grupo 12759" transform="translate(0.174 -5.495)">
        <path id="Caminho_12857" data-name="Caminho 12857" d="M0,0H5.883a.145.145,0,0,0,.144-.145A.14.14,0,0,0,5.989-.24L5.981-.249,3.054-4.036l-.028-.031a.146.146,0,0,0-.107-.047.143.143,0,0,0-.094.037l-.018.02-.028.031L-.076-.279-.12-.225a.136.136,0,0,0-.025.08A.145.145,0,0,0,0,0" fill="#2b2e34"/>
      </g>
      <g id="Grupo_12760" data-name="Grupo 12760" transform="translate(6.038 -4.961)">
        <path id="Caminho_12858" data-name="Caminho 12858" d="M0,0H-5.894a.145.145,0,0,0-.145.145V4.757a.145.145,0,0,0,.145.145H-4V2a.143.143,0,0,1,.144-.144h1.761A.144.144,0,0,1-1.947,2V4.9H0a.144.144,0,0,0,.144-.145V.145A.144.144,0,0,0,0,0" fill="#2b2e34"/>
      </g>
      <g id="Grupo_12761" data-name="Grupo 12761" transform="translate(26.41 -6.168)">
        <path id="Caminho_12859" data-name="Caminho 12859" d="M0,0H-5.834a.14.14,0,0,0-.143.139V6.03a.141.141,0,0,0,.143.138H0A.141.141,0,0,0,.143,6.03V.139A.14.14,0,0,0,0,0M-3.192,3.846a.141.141,0,0,1-.143.139H-5.077a.141.141,0,0,1-.144-.139V2.787a.141.141,0,0,1,.144-.139h1.742a.141.141,0,0,1,.143.139Zm0-1.958a.141.141,0,0,1-.143.139H-5.077a.141.141,0,0,1-.144-.139V.829A.141.141,0,0,1-5.077.69h1.742a.141.141,0,0,1,.143.139ZM-.528,3.846a.141.141,0,0,1-.143.139H-2.414a.141.141,0,0,1-.143-.139V2.787a.141.141,0,0,1,.143-.139H-.671a.141.141,0,0,1,.143.139Zm0-1.958a.141.141,0,0,1-.143.139H-2.414a.141.141,0,0,1-.143-.139V.829A.141.141,0,0,1-2.414.69H-.671A.141.141,0,0,1-.528.829Z" fill="#2b2e34"/>
      </g>
      <g id="Grupo_12762" data-name="Grupo 12762" transform="translate(12.849 -19.843)">
        <path id="Caminho_12860" data-name="Caminho 12860" d="M0,0H-5.709a.14.14,0,0,0-.14.14V19.652a.14.14,0,0,0,.14.139H0a.141.141,0,0,0,.141-.139V.14A.141.141,0,0,0,0,0M-3.4,17.569a.075.075,0,0,1-.075.074H-4.778a.074.074,0,0,1-.075-.074V16.112a.074.074,0,0,1,.075-.075h1.307a.075.075,0,0,1,.075.075Zm0-3.346a.075.075,0,0,1-.075.075H-4.778a.074.074,0,0,1-.075-.075V12.767a.075.075,0,0,1,.075-.076h1.307a.075.075,0,0,1,.075.076Zm0-3.345a.076.076,0,0,1-.075.075H-4.778a.075.075,0,0,1-.075-.075V9.42a.074.074,0,0,1,.075-.074h1.307A.075.075,0,0,1-3.4,9.42Zm0-3.346a.076.076,0,0,1-.075.075H-4.778a.075.075,0,0,1-.075-.075V6.075A.073.073,0,0,1-4.778,6h1.307a.074.074,0,0,1,.075.074Zm0-3.345a.075.075,0,0,1-.075.074H-4.778a.074.074,0,0,1-.075-.074V2.73a.074.074,0,0,1,.075-.075h1.307A.075.075,0,0,1-3.4,2.73ZM-.833,17.569a.074.074,0,0,1-.075.074H-2.215a.075.075,0,0,1-.075-.074V16.112a.075.075,0,0,1,.075-.075H-.908a.074.074,0,0,1,.075.075Zm0-3.346a.074.074,0,0,1-.075.075H-2.215a.075.075,0,0,1-.075-.075V12.767a.075.075,0,0,1,.075-.076H-.908a.075.075,0,0,1,.075.076Zm0-3.345a.075.075,0,0,1-.075.075H-2.215a.076.076,0,0,1-.075-.075V9.42a.075.075,0,0,1,.075-.074H-.908a.074.074,0,0,1,.075.074Zm0-3.346a.075.075,0,0,1-.075.075H-2.215a.076.076,0,0,1-.075-.075V6.075A.074.074,0,0,1-2.215,6H-.908a.073.073,0,0,1,.075.074Zm0-3.345a.074.074,0,0,1-.075.074H-2.215a.075.075,0,0,1-.075-.074V2.73a.075.075,0,0,1,.075-.075H-.908a.074.074,0,0,1,.075.075Z" fill="#2b2e34"/>
      </g>
      <g id="Grupo_12763" data-name="Grupo 12763" transform="translate(26.546 -6.761)">
        <path id="Caminho_12861" data-name="Caminho 12861" d="M0,0A.117.117,0,0,1-.117.118H-5.989A.118.118,0,0,1-6.107,0V-1.174a.117.117,0,0,1,.118-.117H-.117A.117.117,0,0,1,0-1.174Z" fill="#2b2e34"/>
      </g>
      <g id="Grupo_12764" data-name="Grupo 12764" transform="translate(19.745 -16.158)">
        <path id="Caminho_12862" data-name="Caminho 12862" d="M0,0A.15.15,0,0,0-.143-.109a.146.146,0,0,0-.082.027l-.011.007-.048.061L-5.895,7.1l-.026.034a.167.167,0,0,0-.049.111V16a.14.14,0,0,0,.14.139h5.7A.139.139,0,0,0,.013,16V.058A.137.137,0,0,0,0,0M-2.362,3.865l.04-.05c.384-.492,1.031-1.289,1.346-1.676l.041-.049a.164.164,0,0,1,.126-.06.161.161,0,0,1,.156.131v1.8a.161.161,0,0,1-.155.16l-.008,0-.007,0h-1.4l-.007,0-.007,0a.161.161,0,0,1-.155-.16.163.163,0,0,1,.032-.1m-.888,9.969a.139.139,0,0,1-.14.14h-1.7a.139.139,0,0,1-.14-.14V12.769a.139.139,0,0,1,.14-.139h1.7a.139.139,0,0,1,.14.139Zm0-1.968a.139.139,0,0,1-.14.14h-1.7a.139.139,0,0,1-.14-.14V10.8a.139.139,0,0,1,.14-.139h1.7a.139.139,0,0,1,.14.139Zm0-1.968a.139.139,0,0,1-.14.139h-1.7a.139.139,0,0,1-.14-.139V8.833a.139.139,0,0,1,.14-.14h1.7a.139.139,0,0,1,.14.14Zm0-4.312V7.932a.14.14,0,0,1-.139.14h-1.7a.141.141,0,0,1-.141-.14v-.3a.172.172,0,0,1,.011-.052c0-.006,0-.008.008-.017L-5.2,7.55a.244.244,0,0,1,.016-.023c.217-.311,1.2-1.52,1.611-2.026l.041-.05A.163.163,0,0,1-3.4,5.392a.16.16,0,0,1,.155.13Zm2.6,8.248a.14.14,0,0,1-.14.14h-1.7a.139.139,0,0,1-.14-.14V12.769a.139.139,0,0,1,.14-.139h1.7a.14.14,0,0,1,.14.139Zm0-1.968a.14.14,0,0,1-.14.14h-1.7a.139.139,0,0,1-.14-.14V10.8a.139.139,0,0,1,.14-.139h1.7a.14.14,0,0,1,.14.139Zm0-1.968a.14.14,0,0,1-.14.139h-1.7A.139.139,0,0,1-2.63,9.9V8.833a.139.139,0,0,1,.14-.14h1.7a.14.14,0,0,1,.14.14Zm0-1.968a.14.14,0,0,1-.14.139h-1.7a.139.139,0,0,1-.14-.139V6.865a.139.139,0,0,1,.14-.14h1.7a.14.14,0,0,1,.14.14Zm0-1.969a.14.14,0,0,1-.14.14h-1.7a.139.139,0,0,1-.14-.14V4.9a.14.14,0,0,1,.14-.14h1.7a.14.14,0,0,1,.14.14Z" fill="#2b2e34"/>
      </g>
    </g>
  </g>
</svg>
