<svg xmlns="http://www.w3.org/2000/svg" xmlns:xlink="http://www.w3.org/1999/xlink" width="38.376" height="17.008" viewBox="0 0 38.376 17.008">
  <defs>
    <clipPath id="clip-path">
      <path id="Caminho_12808" data-name="Caminho 12808" d="M0,0H38.376V-17.008H0Z" fill="none"/>
    </clipPath>
  </defs>
  <g id="icone_ods1" transform="translate(0 17.008)">
    <g id="Grupo_12702" data-name="Grupo 12702" clip-path="url(#clip-path)">
      <g id="Grupo_12690" data-name="Grupo 12690" transform="translate(34.328 -15.208)">
        <path id="Caminho_12796" data-name="Caminho 12796" d="M0,0A1.41,1.41,0,0,1,1.41-1.41,1.408,1.408,0,0,1,2.817,0,1.408,1.408,0,0,1,1.41,1.409,1.41,1.41,0,0,1,0,0" fill="#2b2e34"/>
      </g>
      <g id="Grupo_12691" data-name="Grupo 12691" transform="translate(36.67 -13.256)">
        <path id="Caminho_12797" data-name="Caminho 12797" d="M0,0A1.877,1.877,0,0,1,1.705,1.871V5.777a.546.546,0,1,1-1.092,0V2.423c0-.126-.037-.3-.267-.3-.159,0-.192.169-.2.276V12.456a.785.785,0,0,1-.785.785.787.787,0,0,1-.786-.785V6.662a.213.213,0,0,0-.223-.23h0a.216.216,0,0,0-.227.23v5.794a.785.785,0,0,1-.784.785.785.785,0,0,1-.785-.785V2.4c-.005-.107-.04-.276-.2-.276-.231,0-.266.171-.266.3V5.777a.547.547,0,0,1-.546.546A.547.547,0,0,1-5,5.777V1.871A1.878,1.878,0,0,1-3.289,0a.784.784,0,0,1,.1-.008H-.107A.85.85,0,0,1,0,0" fill="#2b2e34"/>
      </g>
      <g id="Grupo_12692" data-name="Grupo 12692" transform="translate(25.237 -14.469)">
        <path id="Caminho_12798" data-name="Caminho 12798" d="M0,0A1.335,1.335,0,0,0-1.333-1.336,1.336,1.336,0,0,0-2.668,0,1.335,1.335,0,0,0-1.333,1.334,1.333,1.333,0,0,0,0,0" fill="#2b2e34"/>
      </g>
      <g id="Grupo_12693" data-name="Grupo 12693" transform="translate(21.216 -11.446)">
        <path id="Caminho_12799" data-name="Caminho 12799" d="M0,0-1.109,3.61s-.2.662.364.828.728-.481.728-.481L.878.943S.926.712,1.1.762s.109.3.109.3L-.348,6.706H1.1v4.046a.7.7,0,0,0,1.39,0V6.706h.395v4.046a.7.7,0,0,0,1.391,0V6.706H5.723L4.167,1.06S4.1.812,4.276.762,4.5.943,4.5.943l.894,3.014s.17.646.728.481.364-.828.364-.828L5.376,0S4.98-1.044,4.1-1.044H1.275C.4-1.044,0,0,0,0" fill="#2b2e34"/>
      </g>
      <g id="Grupo_12694" data-name="Grupo 12694" transform="translate(17.247 -14.469)">
        <path id="Caminho_12800" data-name="Caminho 12800" d="M0,0A1.335,1.335,0,0,0-1.334-1.336,1.335,1.335,0,0,0-2.668,0,1.334,1.334,0,0,0-1.334,1.334,1.334,1.334,0,0,0,0,0" fill="#2b2e34"/>
      </g>
      <g id="Grupo_12695" data-name="Grupo 12695" transform="translate(13.224 -11.446)">
        <path id="Caminho_12801" data-name="Caminho 12801" d="M0,0-1.108,3.61s-.2.662.363.828.728-.481.728-.481L.878.943S.926.712,1.1.762s.109.3.109.3L-.347,6.706H1.1v4.046a.7.7,0,0,0,1.391,0V6.706h.394v4.046a.7.7,0,0,0,1.391,0V6.706H5.723L4.168,1.06S4.1.812,4.276.762,4.5.943,4.5.943l.893,3.014s.171.646.729.481.364-.828.364-.828L5.375,0S4.98-1.044,4.1-1.044H1.275C.4-1.044,0,0,0,0" fill="#2b2e34"/>
      </g>
      <g id="Grupo_12696" data-name="Grupo 12696" transform="translate(29.718 -7.001)">
        <path id="Caminho_12802" data-name="Caminho 12802" d="M0,0A1.11,1.11,0,0,0,1.11-1.112,1.108,1.108,0,0,0,0-2.221,1.109,1.109,0,0,0-1.111-1.112,1.111,1.111,0,0,0,0,0" fill="#2b2e34"/>
      </g>
      <g id="Grupo_12697" data-name="Grupo 12697" transform="translate(27.056 -3.551)">
        <path id="Caminho_12803" data-name="Caminho 12803" d="M0,0A.385.385,0,0,0,.162.525.37.37,0,0,0,.638.37l.6-1.925s.1-.129.1,0V2.982h0a.57.57,0,0,0,1.139,0V1.193S2.456.94,2.659.94s.173.253.173.253V2.982a.571.571,0,0,0,1.141,0V-1.551c0-.133.071-.038.071-.038L4.517-.271a3.121,3.121,0,0,0,.269.616.422.422,0,0,0,.55-.228.416.416,0,0,0-.045-.4l0,0c-.014-.043-.707-1.744-.789-1.983C4.256-3.006,3.8-3,3.361-3.012s-.7,0-.7,0-.281-.011-.86.006S1.037-2.691.4-1.049C.309-.812,0-.047,0,0Z" fill="#2b2e34"/>
      </g>
      <g id="Grupo_12698" data-name="Grupo 12698" transform="translate(5.136 -15.598)">
        <path id="Caminho_12804" data-name="Caminho 12804" d="M0,0A1.41,1.41,0,0,0-1.41-1.41,1.408,1.408,0,0,0-2.817,0,1.408,1.408,0,0,0-1.41,1.409,1.41,1.41,0,0,0,0,0" fill="#2b2e34"/>
      </g>
      <g id="Grupo_12699" data-name="Grupo 12699" transform="translate(2.276 -13.256)">
        <path id="Caminho_12805" data-name="Caminho 12805" d="M0,0A1.878,1.878,0,0,0-1.706,1.871V5.777a.548.548,0,0,0,.547.546.547.547,0,0,0,.546-.546V2.423c0-.126.037-.3.267-.3.159,0,.192.169.2.276V12.456a.785.785,0,1,0,1.569,0V6.662a.215.215,0,0,1,.224-.23h0a.216.216,0,0,1,.226.23v5.794a.785.785,0,1,0,1.569,0V2.4c.005-.107.04-.276.2-.276.231,0,.266.171.266.3V5.777A.546.546,0,0,0,5,5.777V1.871A1.877,1.877,0,0,0,3.29,0a.79.79,0,0,0-.1-.009H.107A.84.84,0,0,0,0,0" fill="#2b2e34"/>
      </g>
      <g id="Grupo_12700" data-name="Grupo 12700" transform="translate(7.942 -7.583)">
        <path id="Caminho_12806" data-name="Caminho 12806" d="M0,0A.406.406,0,0,0-.343-.19a.4.4,0,0,0-.4.4A.757.757,0,0,0-.708.392L.412,2.417a.725.725,0,0,1,.068.268v4.35h0a.547.547,0,1,0,1.094,0V5.318s-.031-.243.165-.243.165.243.165.243V7.035a.548.548,0,1,0,1.1,0V2.685a.725.725,0,0,1,.068-.268L4.105.547A1.84,1.84,0,0,0,4.231.214a.405.405,0,0,0-.4-.4A.4.4,0,0,0,3.484,0l0,0c-.032.028-.551.951-.722,1.122a.449.449,0,0,1-.342.162H1.069A.449.449,0,0,1,.726,1.12C.552.949.036.026,0,0Z" fill="#2b2e34"/>
      </g>
      <g id="Grupo_12701" data-name="Grupo 12701" transform="translate(9.683 -7.001)">
        <path id="Caminho_12807" data-name="Caminho 12807" d="M0,0A1.11,1.11,0,0,0,1.11-1.112,1.108,1.108,0,0,0,0-2.221,1.108,1.108,0,0,0-1.11-1.112,1.11,1.11,0,0,0,0,0" fill="#2b2e34"/>
      </g>
    </g>
    <g id="Grupo_12703" data-name="Grupo 12703" transform="translate(9.685 -5.443)">
      <path id="Caminho_12809" data-name="Caminho 12809" d="M0,0,1.255.915l.6,2.2H-1.853l.6-2.2Z" fill="#2b2e34"/>
    </g>
  </g>
</svg>
