<svg id="icone_ods_17" xmlns="http://www.w3.org/2000/svg" xmlns:xlink="http://www.w3.org/1999/xlink" width="38.268" height="38.27" viewBox="0 0 38.268 38.27">
  <defs>
    <clipPath id="clip-path">
      <rect id="Ret창ngulo_14" data-name="Ret창ngulo 14" width="38.268" height="38.27" transform="translate(0 0)" fill="none"/>
    </clipPath>
  </defs>
  <rect id="Ret창ngulo_13" data-name="Ret창ngulo 13" width="38.268" height="38.27" transform="translate(0 0)" fill="#043958"/>
  <g id="Grupo_303" data-name="Grupo 303">
    <g id="Grupo_302" data-name="Grupo 302" clip-path="url(#clip-path)">
      <path id="Caminho_295" data-name="Caminho 295" d="M22.709,24.8A5.245,5.245,0,0,0,24.4,20.942a5.316,5.316,0,0,0-.044-.672,4.194,4.194,0,0,1,2.371,7.281A5.276,5.276,0,0,0,22.709,24.8M26.28,30.02a4.2,4.2,0,0,1-6.274,3.65,5.243,5.243,0,0,0,1.445-3.615,5.3,5.3,0,0,0-.1-1.007,5.248,5.248,0,0,0,4.842.132,4.155,4.155,0,0,1,.085.84m-14.292.035a4.165,4.165,0,0,1,.092-.871,5.251,5.251,0,0,0,4.828-.132,5.236,5.236,0,0,0,1.4,4.627,4.193,4.193,0,0,1-6.316-3.624m-1.823-5.608a4.207,4.207,0,0,1,3.752-4.177,5.316,5.316,0,0,0-.044.672,5.247,5.247,0,0,0,1.718,3.886,5.273,5.273,0,0,0-4.033,2.734,4.185,4.185,0,0,1-1.393-3.115m8.969-7.707a4.2,4.2,0,0,1,3.851,2.527,5.275,5.275,0,0,0-3.851,2.956,5.275,5.275,0,0,0-3.852-2.956,4.206,4.206,0,0,1,3.852-2.527m1,9.558a4.189,4.189,0,0,1,5.711,1.87,4.186,4.186,0,0,1-5.711-1.87m-2.014.028a4.185,4.185,0,0,1-5.683,1.849,4.188,4.188,0,0,1,5.683-1.849M14.987,20.3a4.163,4.163,0,0,1,3.527,4.8,4.2,4.2,0,0,1-3.582-4.151,4.16,4.16,0,0,1,.055-.646m4.166,12.733a4.189,4.189,0,0,1-.038-5.985,4.191,4.191,0,0,1,.038,5.985m4.183-12.087a4.2,4.2,0,0,1-3.583,4.151,4.309,4.309,0,0,1-.054-.646A4.2,4.2,0,0,1,23.281,20.3a4.16,4.16,0,0,1,.055.646m5.826,3.505a5.267,5.267,0,0,0-5.068-5.257,5.261,5.261,0,0,0-9.921,0,5.257,5.257,0,0,0-3.037,9.4,5.258,5.258,0,0,0,8.023,5.8,5.259,5.259,0,0,0,7.981-5.806,5.255,5.255,0,0,0,2.022-4.141" fill="#fff"/>
      <path id="Caminho_296" data-name="Caminho 296" d="M31.282,12.341h1.972L35.384,4.7V3.431H30.738v1.4h2.674Zm-3.884,0h2.021V3.431H27.834a8.706,8.706,0,0,1-1.779.99V5.785a3.665,3.665,0,0,1,.339-.143c.137-.051.238-.088.3-.11q.569-.22.7-.286Zm-7.6.132a2.914,2.914,0,0,0,1.344-.3,2.24,2.24,0,0,0,.9-.808,2.1,2.1,0,0,0,.321-1.139,2.7,2.7,0,0,0-.4-1.485A4.754,4.754,0,0,0,20.84,7.556l-.811-.649a3.959,3.959,0,0,1-.72-.7,1.256,1.256,0,0,1-.223-.759.811.811,0,0,1,.151-.479.5.5,0,0,1,.429-.214.478.478,0,0,1,.5.3,3.41,3.41,0,0,1,.14.995l1.863-.209a3.322,3.322,0,0,0-.538-1.793,2.14,2.14,0,0,0-1.894-.737,3.074,3.074,0,0,0-2.015.605,2.113,2.113,0,0,0-.732,1.727,2.367,2.367,0,0,0,.345,1.293,4.1,4.1,0,0,0,.974,1.028l.847.671a3.891,3.891,0,0,1,.817.8,1.523,1.523,0,0,1,.26.891q0,.649-.544.649a.688.688,0,0,1-.636-.369,2.649,2.649,0,0,1-.224-1.215l-1.851.253a3.073,3.073,0,0,0,.732,2.151,2.86,2.86,0,0,0,2.087.676m-7.526-1.5V4.806H12.6a1.666,1.666,0,0,1,.7.11.528.528,0,0,1,.29.336,2.455,2.455,0,0,1,.067.654V9.789a3.022,3.022,0,0,1-.061.7.567.567,0,0,1-.284.364,1.474,1.474,0,0,1-.7.126Zm-2.166,1.364h2.505a5.224,5.224,0,0,0,1.966-.3,1.86,1.86,0,0,0,1.005-.913,3.857,3.857,0,0,0,.3-1.65V6.247a3.784,3.784,0,0,0-.3-1.633,1.822,1.822,0,0,0-1.011-.9,5.492,5.492,0,0,0-1.984-.286H10.107ZM5.824,11.076c-.307,0-.5-.093-.593-.281a1.8,1.8,0,0,1-.133-.764V5.741a1.681,1.681,0,0,1,.145-.765.592.592,0,0,1,.581-.28.621.621,0,0,1,.605.275,1.669,1.669,0,0,1,.145.77v4.29a1.673,1.673,0,0,1-.145.764.615.615,0,0,1-.605.281m0,1.4A2.982,2.982,0,0,0,8.1,11.73a3.138,3.138,0,0,0,.683-2.194V6.225A3.1,3.1,0,0,0,8.1,4.047,3,3,0,0,0,5.824,3.31a2.977,2.977,0,0,0-2.263.731,3.112,3.112,0,0,0-.677,2.184V9.536a3.152,3.152,0,0,0,.677,2.194,2.943,2.943,0,0,0,2.263.743" fill="#fff"/>
    </g>
  </g>
</svg>
