<svg id="icone_ods_15" xmlns="http://www.w3.org/2000/svg" xmlns:xlink="http://www.w3.org/1999/xlink" width="38.267" height="38.269" viewBox="0 0 38.267 38.269">
  <defs>
    <clipPath id="clip-path">
      <rect id="Retângulo_19" data-name="Retângulo 19" width="38.267" height="38.269" transform="translate(0 0)" fill="none"/>
    </clipPath>
  </defs>
  <rect id="Retângulo_17" data-name="Retângulo 17" width="38.267" height="38.269" transform="translate(0 0)" fill="#5ea535"/>
  <g id="Grupo_309" data-name="Grupo 309">
    <g id="Grupo_308" data-name="Grupo 308" clip-path="url(#clip-path)">
      <path id="Retângulo_18" data-name="Retângulo 18" d="M.089,0H1.28a.089.089,0,0,1,.089.089V3.03a.09.09,0,0,1-.09.09H.089A.089.089,0,0,1,0,3.031V.089A.089.089,0,0,1,.089,0Z" transform="translate(14.59 27.404)" fill="#fff"/>
      <path id="Caminho_308" data-name="Caminho 308" d="M28.941,31.787H9.326a.093.093,0,0,0-.09.092v1.2a.09.09,0,0,0,.09.088H28.941a.09.09,0,0,0,.09-.088v-1.2a.093.093,0,0,0-.09-.092" fill="#fff"/>
      <path id="Caminho_309" data-name="Caminho 309" d="M28.941,34.17H9.326a.09.09,0,0,0-.09.088v1.2a.091.091,0,0,0,.09.088H28.941a.091.091,0,0,0,.09-.088v-1.2a.091.091,0,0,0-.09-.088" fill="#fff"/>
      <path id="Caminho_310" data-name="Caminho 310" d="M25.209,24.148a2.9,2.9,0,0,0-1.7-.639,2.264,2.264,0,0,0-1.575.669.167.167,0,0,0-.052.123v.107a.168.168,0,0,0,.056.134.195.195,0,0,0,.174.023.264.264,0,0,0,.1-.062A1.588,1.588,0,0,1,23,24.339a2.965,2.965,0,0,1,2.021.847l.018.017a.24.24,0,0,0,.171.07.229.229,0,0,0,.166-.069l.016-.016a2.972,2.972,0,0,1,2.024-.849,1.592,1.592,0,0,1,.788.164.287.287,0,0,0,.108.066.238.238,0,0,0,.115,0,.169.169,0,0,0,.123-.162v-.095a.17.17,0,0,0-.052-.121,2.276,2.276,0,0,0-1.595-.687,2.876,2.876,0,0,0-1.693.64" fill="#fff"/>
      <path id="Caminho_311" data-name="Caminho 311" d="M23.992,16.331a.162.162,0,0,0-.086.1l-.019.066a.17.17,0,0,0,.025.147.162.162,0,0,0,.122.066.072.072,0,0,0,.025,0,.208.208,0,0,0,.094-.024.476.476,0,0,1,.119-.013,1.7,1.7,0,0,1,1.4.915l.007.012a.2.2,0,0,0,.126.1.244.244,0,0,0,.062.01.207.207,0,0,0,.1-.025l.013-.006a1.954,1.954,0,0,1,.875-.217,1.331,1.331,0,0,1,.894.287.241.241,0,0,0,.066.073.538.538,0,0,0,.064.031l.029,0h.017a.168.168,0,0,0,.078-.02.163.163,0,0,0,.083-.1l.017-.058a.151.151,0,0,0,.006-.048.16.16,0,0,0-.022-.084,1.475,1.475,0,0,0-1.331-.8,2.1,2.1,0,0,0-.706.132,1.714,1.714,0,0,0-1.322-.741,1.628,1.628,0,0,0-.736.186" fill="#fff"/>
      <path id="Caminho_312" data-name="Caminho 312" d="M19.847,19.348l.006.088a.164.164,0,0,0,.078.133.166.166,0,0,0,.132.019l.029-.008a.219.219,0,0,0,.084-.063,1.44,1.44,0,0,1,.748-.17,2.423,2.423,0,0,1,1.551.587l.014.014a.235.235,0,0,0,.152.057h.014a.228.228,0,0,0,.154-.074l.013-.015a2.357,2.357,0,0,1,1.72-.8,1.154,1.154,0,0,1,.511.094.266.266,0,0,0,.1.053.233.233,0,0,0,.072,0,.145.145,0,0,0,.041-.01.165.165,0,0,0,.111-.168l0-.077a.167.167,0,0,0-.059-.117,1.926,1.926,0,0,0-1.255-.494,2.335,2.335,0,0,0-1.468.608,2.452,2.452,0,0,0-1.309-.434,1.868,1.868,0,0,0-1.391.642.173.173,0,0,0-.046.126" fill="#fff"/>
      <path id="Caminho_313" data-name="Caminho 313" d="M9.921,20.923A2.126,2.126,0,0,1,12.048,18.8c.046,0,.09,0,.136.006a2.876,2.876,0,1,1,5.452,1.473,3.214,3.214,0,0,1-.7,6.352L12.648,26.6a2.274,2.274,0,0,1-1.656-3.836,2.123,2.123,0,0,1-1.071-1.844" fill="#fff"/>
      <path id="Caminho_314" data-name="Caminho 314" d="M33.146,12.472a2.952,2.952,0,0,0,1.681-.4,1.976,1.976,0,0,0,.787-1.1A6.371,6.371,0,0,0,35.819,9.2a3.626,3.626,0,0,0-.526-2.112,1.74,1.74,0,0,0-1.519-.748,3.065,3.065,0,0,0-.877.127,1.1,1.1,0,0,0-.563.3l.11-1.836H35.4V3.4H30.823l-.182,5.137h1.742q.157-.815.774-.814a.6.6,0,0,1,.606.39,3.187,3.187,0,0,1,.157,1.139c0,.477-.013.838-.037,1.083a1.121,1.121,0,0,1-.187.572.553.553,0,0,1-.478.2.544.544,0,0,1-.551-.314A3,3,0,0,1,32.528,9.7H30.58a4.645,4.645,0,0,0,.207,1.507,1.706,1.706,0,0,0,.762.929,3.112,3.112,0,0,0,1.6.336m-6.184-.165h2.021V3.4H27.4a8.736,8.736,0,0,1-1.779.99V5.751c.088-.043.2-.091.338-.143l.3-.11c.379-.147.614-.241.7-.286Zm-7.6.132a2.92,2.92,0,0,0,1.344-.3,2.237,2.237,0,0,0,.9-.808,2.1,2.1,0,0,0,.322-1.139,2.7,2.7,0,0,0-.4-1.485A4.742,4.742,0,0,0,20.4,7.522l-.81-.649a3.97,3.97,0,0,1-.721-.7,1.261,1.261,0,0,1-.223-.759.812.812,0,0,1,.152-.479.5.5,0,0,1,.428-.214.481.481,0,0,1,.5.3,3.474,3.474,0,0,1,.139,1l1.864-.209A3.324,3.324,0,0,0,21.2,4.014a2.141,2.141,0,0,0-1.9-.738,3.069,3.069,0,0,0-2.015.606,2.113,2.113,0,0,0-.732,1.726A2.367,2.367,0,0,0,16.9,6.9a4.113,4.113,0,0,0,.974,1.028l.847.671a3.867,3.867,0,0,1,.817.8,1.523,1.523,0,0,1,.26.891q0,.65-.544.649a.688.688,0,0,1-.636-.369A2.651,2.651,0,0,1,18.4,9.359l-1.851.253a3.068,3.068,0,0,0,.731,2.151,2.867,2.867,0,0,0,2.088.676m-7.527-1.5V4.772h.328a1.673,1.673,0,0,1,.7.11.533.533,0,0,1,.29.336,2.506,2.506,0,0,1,.066.654V9.755a3.022,3.022,0,0,1-.061.7.569.569,0,0,1-.283.364,1.48,1.48,0,0,1-.7.126ZM9.672,12.307h2.505a5.218,5.218,0,0,0,1.965-.3,1.858,1.858,0,0,0,1.006-.913,3.857,3.857,0,0,0,.3-1.65V6.213a3.784,3.784,0,0,0-.3-1.633,1.822,1.822,0,0,0-1.011-.9A5.514,5.514,0,0,0,12.153,3.4H9.672ZM5.389,11.042a.591.591,0,0,1-.594-.281A1.819,1.819,0,0,1,4.662,10V5.708a1.693,1.693,0,0,1,.145-.766.593.593,0,0,1,.582-.28.621.621,0,0,1,.605.276,1.677,1.677,0,0,1,.145.77V10a1.686,1.686,0,0,1-.145.764.617.617,0,0,1-.605.281m0,1.4a2.978,2.978,0,0,0,2.28-.743A3.133,3.133,0,0,0,8.352,9.5V6.191a3.091,3.091,0,0,0-.683-2.177,2.993,2.993,0,0,0-2.28-.738,2.981,2.981,0,0,0-2.263.731,3.112,3.112,0,0,0-.677,2.184V9.5A3.152,3.152,0,0,0,3.126,11.7a2.943,2.943,0,0,0,2.263.743" fill="#fff"/>
    </g>
  </g>
</svg>
