<svg id="icone_ods_5" xmlns="http://www.w3.org/2000/svg" xmlns:xlink="http://www.w3.org/1999/xlink" width="38.267" height="38.27" viewBox="0 0 38.267 38.27">
  <defs>
    <clipPath id="clip-path">
      <rect id="Ret창ngulo_42" data-name="Ret창ngulo 42" width="38.267" height="38.27" transform="translate(0 0)" fill="none"/>
    </clipPath>
  </defs>
  <rect id="Ret창ngulo_41" data-name="Ret창ngulo 41" width="38.267" height="38.27" transform="translate(0 0)" fill="#df2821"/>
  <g id="Grupo_339" data-name="Grupo 339">
    <g id="Grupo_338" data-name="Grupo 338" clip-path="url(#clip-path)">
      <path id="Caminho_357" data-name="Caminho 357" d="M17.742,29.368a4.84,4.84,0,1,1,4.84-4.84,4.845,4.845,0,0,1-4.84,4.84m9.3-14.028h-5.02a.064.064,0,0,0-.064.064v1.668a.064.064,0,0,0,.064.064h2l-2.22,2.22a6.573,6.573,0,1,0-4.9,11.691v1.922h-1.98a.064.064,0,0,0-.065.063v1.789a.064.064,0,0,0,.065.064h1.98v1.891a.064.064,0,0,0,.064.064h1.787a.065.065,0,0,0,.065-.064V34.885h1.98a.064.064,0,0,0,.064-.064V33.032a.064.064,0,0,0-.064-.063h-1.98V31.015a6.569,6.569,0,0,0,4.307-10.269L25.3,18.557v1.868a.064.064,0,0,0,.065.063h1.668a.064.064,0,0,0,.065-.063V15.4a.064.064,0,0,0-.065-.064" fill="#fff"/>
      <path id="Caminho_358" data-name="Caminho 358" d="M20.617,22.541h-5.87c.045,0,.017.026.017.057V24.02a.06.06,0,0,0,.063.058H20.7a.061.061,0,0,0,.065-.058V22.6a.062.062,0,0,0-.065-.057" fill="#fff"/>
      <path id="Caminho_359" data-name="Caminho 359" d="M20.7,25.079h-5.87a.062.062,0,0,0-.064.059v1.421a.061.061,0,0,0,.064.058H20.7a.061.061,0,0,0,.065-.058V25.138a.062.062,0,0,0-.065-.059" fill="#fff"/>
      <path id="Caminho_360" data-name="Caminho 360" d="M30.792,12.756a2.953,2.953,0,0,0,1.682-.4,1.981,1.981,0,0,0,.787-1.1,6.371,6.371,0,0,0,.2-1.765,3.634,3.634,0,0,0-.526-2.112,1.742,1.742,0,0,0-1.518-.748,3.107,3.107,0,0,0-.878.126,1.1,1.1,0,0,0-.562.3l.109-1.837h2.952V3.681H28.469l-.181,5.137H30.03Q30.188,8,30.8,8a.594.594,0,0,1,.6.39,3.184,3.184,0,0,1,.158,1.139q0,.716-.037,1.083a1.13,1.13,0,0,1-.187.572.556.556,0,0,1-.478.2.544.544,0,0,1-.551-.314,3,3,0,0,1-.139-1.094H28.227a4.675,4.675,0,0,0,.206,1.507,1.71,1.71,0,0,0,.762.929,3.115,3.115,0,0,0,1.6.336m-9.075-.033a2.914,2.914,0,0,0,1.344-.3,2.243,2.243,0,0,0,.9-.809,2.1,2.1,0,0,0,.321-1.138,2.7,2.7,0,0,0-.4-1.485,4.754,4.754,0,0,0-1.125-1.188l-.811-.649a3.959,3.959,0,0,1-.72-.7A1.256,1.256,0,0,1,21,5.694a.811.811,0,0,1,.151-.479A.494.494,0,0,1,21.584,5a.48.48,0,0,1,.5.3,3.468,3.468,0,0,1,.139,1l1.863-.209A3.322,3.322,0,0,0,23.551,4.3a2.14,2.14,0,0,0-1.894-.737,3.074,3.074,0,0,0-2.015.605,2.113,2.113,0,0,0-.732,1.727,2.361,2.361,0,0,0,.345,1.292,4.081,4.081,0,0,0,.974,1.029l.847.671a3.891,3.891,0,0,1,.817.8,1.523,1.523,0,0,1,.26.891q0,.649-.544.649a.688.688,0,0,1-.636-.369,2.649,2.649,0,0,1-.224-1.215L18.9,9.9a3.068,3.068,0,0,0,.732,2.15,2.86,2.86,0,0,0,2.087.677m-7.526-1.5V5.056h.327a1.666,1.666,0,0,1,.7.11.528.528,0,0,1,.29.335,2.469,2.469,0,0,1,.067.655v3.883a3.022,3.022,0,0,1-.061.7.563.563,0,0,1-.284.363,1.46,1.46,0,0,1-.7.127Zm-2.166,1.364H14.53a5.224,5.224,0,0,0,1.966-.3,1.86,1.86,0,0,0,1-.913,3.857,3.857,0,0,0,.3-1.65V6.5a3.792,3.792,0,0,0-.3-1.634,1.821,1.821,0,0,0-1.011-.9,5.492,5.492,0,0,0-1.984-.286H12.025ZM7.742,11.326a.588.588,0,0,1-.593-.281,1.8,1.8,0,0,1-.133-.764V5.991a1.678,1.678,0,0,1,.145-.765.592.592,0,0,1,.581-.28.621.621,0,0,1,.605.275,1.669,1.669,0,0,1,.145.77v4.29a1.673,1.673,0,0,1-.145.764.616.616,0,0,1-.605.281m0,1.4a2.986,2.986,0,0,0,2.281-.743,3.138,3.138,0,0,0,.684-2.194V6.475A3.1,3.1,0,0,0,10.023,4.3,3,3,0,0,0,7.742,3.56a2.977,2.977,0,0,0-2.263.731A3.112,3.112,0,0,0,4.8,6.475V9.786a3.152,3.152,0,0,0,.677,2.194,2.947,2.947,0,0,0,2.263.743" fill="#fff"/>
    </g>
  </g>
</svg>
