<svg xmlns="http://www.w3.org/2000/svg" xmlns:xlink="http://www.w3.org/1999/xlink" width="20.166" height="19.843" viewBox="0 0 20.166 19.843">
  <defs>
    <clipPath id="clip-path">
      <path id="Caminho_12890" data-name="Caminho 12890" d="M0,0H20.166V-19.843H0Z" fill="none"/>
    </clipPath>
  </defs>
  <g id="icone_ods16" transform="translate(0 19.843)">
    <g id="Grupo_12797" data-name="Grupo 12797" clip-path="url(#clip-path)">
      <g id="Grupo_12787" data-name="Grupo 12787" transform="translate(1.869 -8.126)">
        <path id="Caminho_12880" data-name="Caminho 12880" d="M0,0A2.174,2.174,0,0,0-.258-.066S-.163-.037,0,0" fill="#2b2e34"/>
      </g>
      <g id="Grupo_12788" data-name="Grupo 12788" transform="translate(17.293 -19.686)">
        <path id="Caminho_12881" data-name="Caminho 12881" d="M0,0A1.534,1.534,0,0,0-.294,1.088a1.531,1.531,0,0,0,.734.857A1.534,1.534,0,0,0,.734.857,1.531,1.531,0,0,0,0,0" fill="#2b2e34"/>
      </g>
      <g id="Grupo_12789" data-name="Grupo 12789" transform="translate(16.617 -16.538)">
        <path id="Caminho_12882" data-name="Caminho 12882" d="M0,0A1.538,1.538,0,0,0,.294-1.089a1.535,1.535,0,0,0-.733-.856,1.533,1.533,0,0,0-.3,1.088A1.539,1.539,0,0,0,0,0" fill="#2b2e34"/>
      </g>
      <g id="Grupo_12790" data-name="Grupo 12790" transform="translate(18.323 -17.129)">
        <path id="Caminho_12883" data-name="Caminho 12883" d="M0,0A1.365,1.365,0,0,0,.937.4a1.428,1.428,0,0,0,.87-.558,1.366,1.366,0,0,0-.938-.4A1.428,1.428,0,0,0,0,0" fill="#2b2e34"/>
      </g>
      <g id="Grupo_12791" data-name="Grupo 12791" transform="translate(19.041 -19.49)">
        <path id="Caminho_12884" data-name="Caminho 12884" d="M0,0A1.65,1.65,0,0,0-.349,1.141,1.579,1.579,0,0,0,.774.792,1.65,1.65,0,0,0,1.123-.349,1.578,1.578,0,0,0,0,0" fill="#2b2e34"/>
      </g>
      <g id="Grupo_12792" data-name="Grupo 12792" transform="translate(18.145 -15.49)">
        <path id="Caminho_12885" data-name="Caminho 12885" d="M0,0A1.426,1.426,0,0,0,.965-.368,1.364,1.364,0,0,0,.129-.949a1.426,1.426,0,0,0-.965.368A1.368,1.368,0,0,0,0,0" fill="#2b2e34"/>
      </g>
      <g id="Grupo_12793" data-name="Grupo 12793" transform="translate(18.589 -6.849)">
        <path id="Caminho_12886" data-name="Caminho 12886" d="M0,0H-3.718a.525.525,0,0,0-.526.525.526.526,0,0,0,.526.527H0A.527.527,0,0,0,.526.525.526.526,0,0,0,0,0" fill="#2b2e34"/>
      </g>
      <g id="Grupo_12794" data-name="Grupo 12794" transform="translate(18.589 -1.052)">
        <path id="Caminho_12887" data-name="Caminho 12887" d="M0,0H-3.718a.525.525,0,0,0-.526.526.526.526,0,0,0,.526.526H0A.527.527,0,0,0,.526.526.526.526,0,0,0,0,0" fill="#2b2e34"/>
      </g>
      <g id="Grupo_12795" data-name="Grupo 12795" transform="translate(18.452 -5.43)">
        <path id="Caminho_12888" data-name="Caminho 12888" d="M0,0H-3.445a.3.3,0,0,0-.3.3V1.343l-2.249.247-3.286-.075V-.492A9.106,9.106,0,0,0-7.971-.757,5.022,5.022,0,0,0-4.188-6.074c-.069-1.842.521-2.558,1.368-2.876a3.9,3.9,0,0,1,.7-.186,5.629,5.629,0,0,0,.3,1.6c.075,0,.15-.01.224-.018A5.324,5.324,0,0,1-1.9-9.167a3.94,3.94,0,0,1,.75-.023A4.786,4.786,0,0,1-1.864-9.7a3.561,3.561,0,0,1,1.2-1.956,6.5,6.5,0,0,0,.838-.984l-.187-.121a6.1,6.1,0,0,1-.811.949A3.869,3.869,0,0,0-2.054-9.863a7.354,7.354,0,0,1-.541-.545c-.78-.875-1.784-.232-3.215,1.1S-9.044-7.929-10.8-9.729a6.412,6.412,0,0,0-5.734-2.228c.95.4,1.282,1.292,1.763,3.548.5,2.366,1.774,3.438,3.512,3.585-.966.342-1.014.888-2.309,1.782a4.042,4.042,0,0,1-3.012.346c1.059.33,2.314,1.441,3.436,1.828a8.3,8.3,0,0,0,2.048.42V1.473l-5.886-.135V2.679l10.992-.252,2.249.248V3.717a.3.3,0,0,0,.3.3H0a.3.3,0,0,0,.3-.3V.3A.3.3,0,0,0,0,0M-10.557-.42c.245,0,.49,0,.737-.02V1.5l-.737-.017Z" fill="#2b2e34"/>
      </g>
      <g id="Grupo_12796" data-name="Grupo 12796" transform="translate(1.145 -2.973)">
        <path id="Caminho_12889" data-name="Caminho 12889" d="M0,0A.48.48,0,0,1-.44.512H-.7A.48.48,0,0,1-1.145,0V-.926A.48.48,0,0,1-.7-1.438H-.44A.48.48,0,0,1,0-.926Z" fill="#2b2e34"/>
      </g>
    </g>
  </g>
</svg>
