<svg id="icone_ods_14" xmlns="http://www.w3.org/2000/svg" xmlns:xlink="http://www.w3.org/1999/xlink" width="38.268" height="38.27" viewBox="0 0 38.268 38.27">
  <defs>
    <clipPath id="clip-path">
      <rect id="Ret창ngulo_21" data-name="Ret창ngulo 21" width="38.268" height="38.27" transform="translate(0 0)" fill="none"/>
    </clipPath>
  </defs>
  <rect id="Ret창ngulo_20" data-name="Ret창ngulo 20" width="38.268" height="38.27" transform="translate(0 0)" fill="#0086cc"/>
  <g id="Grupo_312" data-name="Grupo 312">
    <g id="Grupo_311" data-name="Grupo 311" clip-path="url(#clip-path)">
      <path id="Caminho_315" data-name="Caminho 315" d="M24.455,31.191a1.415,1.415,0,1,1,1.416-1.415,1.415,1.415,0,0,1-1.416,1.415m6.145-.659c-.535-.723-3.993-5.132-8.841-5.132-4.209,0-8.712,3.818-8.712,3.818s-1.692-3.462-5.152-3.8c-.021,0-.042,0-.065,0H7.808a.141.141,0,0,0-.132.137.392.392,0,0,0,.054.126,10.59,10.59,0,0,1,1.585,4.952A10.625,10.625,0,0,1,7.728,35.6l-.03.047a.135.135,0,0,0,.106.209l.037,0a.158.158,0,0,0,.037,0c3.471-.323,5.169-3.8,5.169-3.8s4.5,3.818,8.712,3.818c4.848,0,8.306-4.408,8.841-5.13l.037-.05a.123.123,0,0,0,0-.106c-.01-.014-.022-.031-.037-.049" fill="#fff"/>
      <path id="Caminho_316" data-name="Caminho 316" d="M7.786,17.114a.167.167,0,0,0-.027-.006.14.14,0,0,0-.139.14v.966a.136.136,0,0,0,.041.1c2.34,2.034,4.556.128,5.068-.375a.137.137,0,0,1,.114-.064.137.137,0,0,1,.094.037l.007.006c2.643,2.523,5.414.479,5.991,0l.057-.052a.117.117,0,0,1,.053-.01.125.125,0,0,1,.055.01l.057.052c.576.479,3.348,2.523,5.991,0l0-.006a.137.137,0,0,1,.094-.037.133.133,0,0,1,.076.025.145.145,0,0,1,.039.039c.513.5,2.726,2.409,5.068.375a.136.136,0,0,0,.04-.1v-.966a.137.137,0,0,0-.137-.14.177.177,0,0,0-.03.006c-.022.012-.044.024-.07.036a4.258,4.258,0,0,1-4.978-.7c-.019-.017-.039-.035-.059-.056a.138.138,0,0,0-.059-.013.194.194,0,0,0-.042.007.149.149,0,0,0-.07.055c-.6.46-3.376,2.336-5.844.034l-.036-.035a.154.154,0,0,0-.1-.042.147.147,0,0,0-.1.042l-.038.035c-2.467,2.3-5.242.426-5.845-.034A.147.147,0,0,0,13,16.389a.2.2,0,0,0-.044-.007.152.152,0,0,0-.058.013.516.516,0,0,1-.059.056,4.258,4.258,0,0,1-4.978.7l-.071-.036" fill="#fff"/>
      <path id="Caminho_317" data-name="Caminho 317" d="M12.729,21.449a.122.122,0,0,1,.037-.038.14.14,0,0,1,.076-.027.136.136,0,0,1,.1.039l.006.006c2.643,2.519,5.415.477,5.992,0l.056-.054a.155.155,0,0,1,.053-.009.169.169,0,0,1,.056.009l.056.054c.577.477,3.348,2.519,5.991,0l.005-.006a.134.134,0,0,1,.094-.039.164.164,0,0,1,.116.065c.512.5,2.725,2.409,5.068.374a.137.137,0,0,0,.041-.1v-.968a.138.138,0,0,0-.138-.138.16.16,0,0,0-.03.006l-.07.035a4.263,4.263,0,0,1-4.978-.7l-.059-.056a.11.11,0,0,0-.059-.014.087.087,0,0,0-.042.01.118.118,0,0,0-.07.053c-.6.459-3.376,2.336-5.845.033l-.036-.036a.141.141,0,0,0-.1-.039.139.139,0,0,0-.1.039l-.038.036c-2.467,2.3-5.241.426-5.844-.033A.122.122,0,0,0,13,19.9a.1.1,0,0,0-.044-.01.111.111,0,0,0-.058.014c-.019.019-.039.037-.06.056a4.261,4.261,0,0,1-4.977.7l-.071-.035a.168.168,0,0,0-.027-.006.138.138,0,0,0-.139.138v.968a.133.133,0,0,0,.04.1c2.341,2.035,4.557.13,5.069-.374" fill="#fff"/>
      <path id="Caminho_318" data-name="Caminho 318" d="M31.725,8.974,33.2,5.267V8.974ZM33.2,12.34h1.888v-2H36V8.974h-.907V3.43H32.741L30.188,8.985v1.353H33.2Zm-6.413,0h2.021V3.43H27.224a8.706,8.706,0,0,1-1.779.99V5.784a3.665,3.665,0,0,1,.339-.143c.137-.051.238-.088.3-.11q.568-.221.7-.286Zm-7.6.132a2.914,2.914,0,0,0,1.344-.3,2.24,2.24,0,0,0,.9-.808,2.1,2.1,0,0,0,.321-1.139,2.7,2.7,0,0,0-.4-1.485A4.754,4.754,0,0,0,20.23,7.555l-.811-.649a3.959,3.959,0,0,1-.72-.7,1.256,1.256,0,0,1-.223-.759.806.806,0,0,1,.151-.478.5.5,0,0,1,.429-.215.48.48,0,0,1,.5.3,3.453,3.453,0,0,1,.139.995l1.863-.209a3.322,3.322,0,0,0-.538-1.793,2.14,2.14,0,0,0-1.894-.737,3.074,3.074,0,0,0-2.015.605,2.113,2.113,0,0,0-.732,1.727,2.365,2.365,0,0,0,.345,1.293A4.078,4.078,0,0,0,17.7,7.962l.847.671a3.891,3.891,0,0,1,.817.8,1.523,1.523,0,0,1,.26.891q0,.65-.544.649a.688.688,0,0,1-.636-.369,2.649,2.649,0,0,1-.224-1.215l-1.851.253A3.073,3.073,0,0,0,17.1,11.8a2.86,2.86,0,0,0,2.087.676m-7.526-1.5V4.8h.327a1.666,1.666,0,0,1,.7.11.528.528,0,0,1,.29.336,2.455,2.455,0,0,1,.067.654V9.788a3.038,3.038,0,0,1-.061.7.568.568,0,0,1-.284.363,1.474,1.474,0,0,1-.7.126ZM9.5,12.34H12a5.224,5.224,0,0,0,1.966-.3,1.86,1.86,0,0,0,1-.913,3.857,3.857,0,0,0,.3-1.65V6.246a3.784,3.784,0,0,0-.3-1.633,1.822,1.822,0,0,0-1.011-.9,5.492,5.492,0,0,0-1.984-.286H9.5ZM5.214,11.075a.588.588,0,0,1-.593-.28,1.812,1.812,0,0,1-.133-.765V5.74a1.673,1.673,0,0,1,.145-.764A.59.59,0,0,1,5.214,4.7a.621.621,0,0,1,.6.275,1.669,1.669,0,0,1,.145.77v4.29a1.681,1.681,0,0,1-.145.765.616.616,0,0,1-.6.28m0,1.4a2.986,2.986,0,0,0,2.281-.742,3.141,3.141,0,0,0,.684-2.195V6.224a3.1,3.1,0,0,0-.684-2.178,3,3,0,0,0-2.281-.737,2.973,2.973,0,0,0-2.263.732,3.108,3.108,0,0,0-.677,2.183V9.535a3.154,3.154,0,0,0,.677,2.195,2.947,2.947,0,0,0,2.263.742" fill="#fff"/>
    </g>
  </g>
</svg>
