<svg id="icone_ods_6" xmlns="http://www.w3.org/2000/svg" xmlns:xlink="http://www.w3.org/1999/xlink" width="38.268" height="38.271" viewBox="0 0 38.268 38.271">
  <defs>
    <clipPath id="clip-path">
      <rect id="Ret창ngulo_40" data-name="Ret창ngulo 40" width="38.268" height="38.271" transform="translate(0 0)" fill="none"/>
    </clipPath>
  </defs>
  <rect id="Ret창ngulo_39" data-name="Ret창ngulo 39" width="38.268" height="38.271" transform="translate(0 0)" fill="#1ab0db"/>
  <g id="Grupo_336" data-name="Grupo 336">
    <g id="Grupo_335" data-name="Grupo 335" clip-path="url(#clip-path)">
      <path id="Caminho_355" data-name="Caminho 355" d="M25.916,18.835a1.914,1.914,0,0,0-1.456.088,6.776,6.776,0,0,1-5.23.425c-1.268-.4-2.454-1.228-3.857-.722a7.936,7.936,0,0,1-2.849.646l-.608-3.116H26.353Zm-4.893,9.251a2.477,2.477,0,0,1-1.841.642,2.477,2.477,0,0,1-1.843-.642A2.735,2.735,0,0,1,17,24.752c.249-.465,2.024-3.131,2.177-3.358v-.018l.007.009.006-.009v.018c.149.227,1.927,2.893,2.176,3.358a2.734,2.734,0,0,1-.341,3.334m5.962-12.549a.187.187,0,0,0-.14-.061H11.419a.186.186,0,0,0-.138.061.184.184,0,0,0-.039.146l2.592,15.675a.18.18,0,0,0,.178.151h3.18l.218,2.553H16.071l3.115,3.115,3.122-3.122-1.338,0,.217-2.549h3.237a.178.178,0,0,0,.177-.154l2.425-15.672a.186.186,0,0,0-.041-.146" fill="#fff"/>
      <path id="Caminho_356" data-name="Caminho 356" d="M30.944,10.935q-.678,0-.678-1.144V8.339a.792.792,0,0,1,.266-.242.737.737,0,0,1,.387-.11.522.522,0,0,1,.436.17.906.906,0,0,1,.169.451,6.7,6.7,0,0,1,.037.82,4.113,4.113,0,0,1-.115,1.166.478.478,0,0,1-.5.341m-.025,1.353a2.416,2.416,0,0,0,2.07-.814,3.861,3.861,0,0,0,.605-2.332,3.161,3.161,0,0,0-.5-1.859,1.777,1.777,0,0,0-1.561-.7,2.121,2.121,0,0,0-.774.132,1.028,1.028,0,0,0-.5.363V6.282a9.177,9.177,0,0,1,.048-1.1.969.969,0,0,1,.188-.517.533.533,0,0,1,.417-.154c.258,0,.422.077.49.231a2.258,2.258,0,0,1,.1.825h1.9L33.4,5.413a2.334,2.334,0,0,0-.569-1.727,2.686,2.686,0,0,0-1.924-.561,2.487,2.487,0,0,0-2.111.781,3.659,3.659,0,0,0-.587,2.233V9.362a3.209,3.209,0,0,0,.666,2.134,2.519,2.519,0,0,0,2.044.792m-9.329,0a2.914,2.914,0,0,0,1.344-.3,2.24,2.24,0,0,0,.9-.808,2.1,2.1,0,0,0,.321-1.139,2.7,2.7,0,0,0-.4-1.485,4.754,4.754,0,0,0-1.125-1.188l-.811-.649a3.959,3.959,0,0,1-.72-.7,1.256,1.256,0,0,1-.223-.759.811.811,0,0,1,.151-.479.5.5,0,0,1,.429-.214.478.478,0,0,1,.5.3,3.425,3.425,0,0,1,.14,1l1.863-.209a3.322,3.322,0,0,0-.538-1.793,2.14,2.14,0,0,0-1.894-.737,3.074,3.074,0,0,0-2.015.605,2.113,2.113,0,0,0-.732,1.727,2.367,2.367,0,0,0,.345,1.293A4.1,4.1,0,0,0,20.1,7.778l.847.671a3.891,3.891,0,0,1,.817.8,1.523,1.523,0,0,1,.26.891q0,.65-.544.649a.688.688,0,0,1-.636-.369,2.648,2.648,0,0,1-.224-1.215l-1.851.253a3.073,3.073,0,0,0,.732,2.151,2.864,2.864,0,0,0,2.087.676m-7.526-1.5V4.621h.327a1.666,1.666,0,0,1,.7.11.528.528,0,0,1,.29.336,2.455,2.455,0,0,1,.067.654V9.6a3.022,3.022,0,0,1-.061.7.567.567,0,0,1-.284.364,1.474,1.474,0,0,1-.7.126ZM11.9,12.156H14.4a5.224,5.224,0,0,0,1.966-.3,1.86,1.86,0,0,0,1.005-.913,3.857,3.857,0,0,0,.3-1.65V6.062a3.784,3.784,0,0,0-.3-1.633,1.819,1.819,0,0,0-1.011-.9,5.492,5.492,0,0,0-1.984-.286H11.9ZM7.615,10.891a.588.588,0,0,1-.593-.281,1.8,1.8,0,0,1-.133-.764V5.556a1.678,1.678,0,0,1,.145-.765.592.592,0,0,1,.581-.28.621.621,0,0,1,.605.275,1.669,1.669,0,0,1,.145.77v4.29a1.673,1.673,0,0,1-.145.764.617.617,0,0,1-.605.281m0,1.4A2.982,2.982,0,0,0,9.9,11.545a3.138,3.138,0,0,0,.683-2.194V6.04A3.1,3.1,0,0,0,9.9,3.862a3,3,0,0,0-2.281-.737,2.977,2.977,0,0,0-2.263.731A3.112,3.112,0,0,0,4.675,6.04V9.351a3.152,3.152,0,0,0,.677,2.194,2.943,2.943,0,0,0,2.263.743" fill="#fff"/>
    </g>
  </g>
</svg>
