<svg id="icone_ods_10" xmlns="http://www.w3.org/2000/svg" xmlns:xlink="http://www.w3.org/1999/xlink" width="38.267" height="38.269" viewBox="0 0 38.267 38.269">
  <defs>
    <clipPath id="clip-path">
      <rect id="Retângulo_32" data-name="Retângulo 32" width="38.267" height="38.269" transform="translate(0 0)" fill="none"/>
    </clipPath>
  </defs>
  <rect id="Retângulo_29" data-name="Retângulo 29" width="38.267" height="38.269" transform="translate(0 0)" fill="#d00057"/>
  <path id="Caminho_329" data-name="Caminho 329" d="M26.184,21.779l3.9,3.9-3.9,3.9Z" fill="#fff"/>
  <path id="Caminho_330" data-name="Caminho 330" d="M12.084,21.779l-3.9,3.9,3.9,3.9Z" fill="#fff"/>
  <path id="Caminho_331" data-name="Caminho 331" d="M15.311,18.821l3.9-3.9,3.9,3.9Z" fill="#fff"/>
  <path id="Caminho_332" data-name="Caminho 332" d="M15.646,32.773l3.9,3.9,3.9-3.9Z" fill="#fff"/>
  <rect id="Retângulo_30" data-name="Retângulo 30" width="8.467" height="2.294" transform="translate(14.984 22.106)" fill="#fff"/>
  <rect id="Retângulo_31" data-name="Retângulo 31" width="8.467" height="2.294" transform="translate(14.984 27.105)" fill="#fff"/>
  <g id="Grupo_324" data-name="Grupo 324">
    <g id="Grupo_323" data-name="Grupo 323" clip-path="url(#clip-path)">
      <path id="Caminho_333" data-name="Caminho 333" d="M33.273,10.649q-.6,0-.6-.957V5.743a2.2,2.2,0,0,1,.1-.737.581.581,0,0,1,1,.006,2.209,2.209,0,0,1,.1.731V9.692a1.785,1.785,0,0,1-.115.671.471.471,0,0,1-.49.286m0,1.639a2.655,2.655,0,0,0,1.966-.7,2.512,2.512,0,0,0,.7-1.854V5.7A2.669,2.669,0,0,0,35.27,3.78a2.635,2.635,0,0,0-2-.7,2.652,2.652,0,0,0-2,.7A2.651,2.651,0,0,0,30.6,5.7V9.736a2.519,2.519,0,0,0,.69,1.859,2.678,2.678,0,0,0,1.984.693m-6.425-.165h2.021V3.213H27.284A8.706,8.706,0,0,1,25.5,4.2V5.567a3.665,3.665,0,0,1,.339-.143c.137-.051.238-.088.3-.11q.568-.221.7-.286Zm-7.6.132a2.914,2.914,0,0,0,1.344-.3,2.24,2.24,0,0,0,.9-.808,2.1,2.1,0,0,0,.321-1.139,2.7,2.7,0,0,0-.4-1.485A4.754,4.754,0,0,0,20.29,7.338l-.811-.649a3.959,3.959,0,0,1-.72-.7,1.256,1.256,0,0,1-.223-.759.806.806,0,0,1,.151-.478.5.5,0,0,1,.429-.215.48.48,0,0,1,.5.3,3.453,3.453,0,0,1,.139.995l1.863-.209a3.322,3.322,0,0,0-.538-1.793,2.14,2.14,0,0,0-1.894-.737,3.074,3.074,0,0,0-2.015.605,2.113,2.113,0,0,0-.732,1.727,2.365,2.365,0,0,0,.345,1.293,4.078,4.078,0,0,0,.974,1.028l.847.671a3.891,3.891,0,0,1,.817.8,1.523,1.523,0,0,1,.26.891q0,.65-.544.649a.688.688,0,0,1-.636-.369,2.649,2.649,0,0,1-.224-1.215l-1.851.253a3.073,3.073,0,0,0,.732,2.151,2.86,2.86,0,0,0,2.087.676m-7.526-1.5V4.588h.327a1.666,1.666,0,0,1,.7.11.528.528,0,0,1,.29.336,2.455,2.455,0,0,1,.067.654V9.571a3.038,3.038,0,0,1-.061.7.568.568,0,0,1-.284.363,1.474,1.474,0,0,1-.7.126ZM9.557,12.123h2.505a5.224,5.224,0,0,0,1.966-.3,1.86,1.86,0,0,0,1.005-.913,3.857,3.857,0,0,0,.3-1.65V6.029a3.784,3.784,0,0,0-.3-1.633,1.822,1.822,0,0,0-1.011-.9,5.492,5.492,0,0,0-1.984-.286H9.557ZM5.274,10.858a.588.588,0,0,1-.593-.28,1.812,1.812,0,0,1-.133-.765V5.523a1.673,1.673,0,0,1,.145-.764.59.59,0,0,1,.581-.281.621.621,0,0,1,.605.275,1.669,1.669,0,0,1,.145.77v4.29a1.681,1.681,0,0,1-.145.765.616.616,0,0,1-.605.28m0,1.4a2.986,2.986,0,0,0,2.281-.742,3.141,3.141,0,0,0,.684-2.195V6.007a3.1,3.1,0,0,0-.684-2.178,3,3,0,0,0-2.281-.737,2.973,2.973,0,0,0-2.263.732,3.108,3.108,0,0,0-.677,2.183V9.318a3.154,3.154,0,0,0,.677,2.195,2.947,2.947,0,0,0,2.263.742" fill="#fff"/>
    </g>
  </g>
</svg>
