<svg id="icone_ods_11" xmlns="http://www.w3.org/2000/svg" xmlns:xlink="http://www.w3.org/1999/xlink" width="38.268" height="38.269" viewBox="0 0 38.268 38.269">
  <defs>
    <clipPath id="clip-path">
      <rect id="Retângulo_28" data-name="Retângulo 28" width="38.268" height="38.269" transform="translate(0 0)" fill="none"/>
    </clipPath>
  </defs>
  <rect id="Retângulo_26" data-name="Retângulo 26" width="38.268" height="38.269" transform="translate(0 0)" fill="#f58718"/>
  <g id="Grupo_321" data-name="Grupo 321">
    <g id="Grupo_320" data-name="Grupo 320" clip-path="url(#clip-path)">
      <path id="Caminho_323" data-name="Caminho 323" d="M5.6,30.3h6.076a.15.15,0,0,0,.149-.15.144.144,0,0,0-.039-.1l-.008-.009L8.754,26.134,8.725,26.1a.147.147,0,0,0-.11-.049.153.153,0,0,0-.1.039l-.018.021-.028.032-2.949,3.87-.046.055A.15.15,0,0,0,5.6,30.3" fill="#fff"/>
      <path id="Caminho_324" data-name="Caminho 324" d="M11.658,30.854H5.57A.149.149,0,0,0,5.421,31v4.764a.149.149,0,0,0,.149.15H7.529v-3a.149.149,0,0,1,.149-.149H9.5a.148.148,0,0,1,.149.149v3h2.012a.15.15,0,0,0,.149-.15V31a.149.149,0,0,0-.149-.149" fill="#fff"/>
      <path id="Caminho_325" data-name="Caminho 325" d="M32.153,31.557a.144.144,0,0,1-.146.144h-1.8a.146.146,0,0,1-.148-.144V30.463a.146.146,0,0,1,.148-.144h1.8a.144.144,0,0,1,.146.144Zm0,2.022a.145.145,0,0,1-.146.145h-1.8a.146.146,0,0,1-.148-.145V32.485a.145.145,0,0,1,.148-.143h1.8a.144.144,0,0,1,.146.143ZM29.4,31.557a.145.145,0,0,1-.147.144h-1.8a.145.145,0,0,1-.147-.144V30.463a.146.146,0,0,1,.147-.144h1.8a.146.146,0,0,1,.147.144Zm0,2.022a.146.146,0,0,1-.147.145h-1.8a.146.146,0,0,1-.147-.145V32.485a.145.145,0,0,1,.147-.143h1.8a.145.145,0,0,1,.147.143Zm3.3-3.972H26.674a.145.145,0,0,0-.147.143v6.085a.145.145,0,0,0,.147.143H32.7a.145.145,0,0,0,.147-.143V29.75a.145.145,0,0,0-.147-.143" fill="#fff"/>
      <path id="Caminho_326" data-name="Caminho 326" d="M17.832,19.807a.078.078,0,0,1-.078.078H16.4a.077.077,0,0,1-.077-.078V18.3a.077.077,0,0,1,.077-.078h1.35a.077.077,0,0,1,.078.078Zm0,3.456a.078.078,0,0,1-.078.077H16.4a.077.077,0,0,1-.077-.077V21.757a.076.076,0,0,1,.077-.076h1.35a.077.077,0,0,1,.078.076Zm0,3.455a.078.078,0,0,1-.078.078H16.4a.077.077,0,0,1-.077-.078V25.213a.076.076,0,0,1,.077-.077h1.35a.077.077,0,0,1,.078.077Zm0,3.455a.077.077,0,0,1-.078.078H16.4a.077.077,0,0,1-.077-.078v-1.5a.076.076,0,0,1,.077-.077h1.35a.077.077,0,0,1,.078.077Zm0,3.456a.078.078,0,0,1-.078.078H16.4a.077.077,0,0,1-.077-.078V32.124a.076.076,0,0,1,.077-.076h1.35a.077.077,0,0,1,.078.076ZM15.184,19.807a.078.078,0,0,1-.077.078H13.756a.078.078,0,0,1-.077-.078V18.3a.077.077,0,0,1,.077-.078h1.351a.077.077,0,0,1,.077.078Zm0,3.456a.078.078,0,0,1-.077.077H13.756a.078.078,0,0,1-.077-.077V21.757a.077.077,0,0,1,.077-.076h1.351a.077.077,0,0,1,.077.076Zm0,3.455a.078.078,0,0,1-.077.078H13.756a.078.078,0,0,1-.077-.078V25.213a.077.077,0,0,1,.077-.077h1.351a.077.077,0,0,1,.077.077Zm0,3.455a.077.077,0,0,1-.077.078H13.756a.077.077,0,0,1-.077-.078v-1.5a.077.077,0,0,1,.077-.077h1.351a.077.077,0,0,1,.077.077Zm0,3.456a.078.078,0,0,1-.077.078H13.756a.078.078,0,0,1-.077-.078V32.124a.077.077,0,0,1,.077-.076h1.351a.077.077,0,0,1,.077.076Zm3.508-18.146H12.8a.144.144,0,0,0-.144.145V35.781a.145.145,0,0,0,.144.144h5.9a.146.146,0,0,0,.145-.144V15.628a.145.145,0,0,0-.145-.145" fill="#fff"/>
      <path id="Retângulo_27" data-name="Retângulo 27" d="M.122,0H6.186a.121.121,0,0,1,.121.121V1.335a.121.121,0,0,1-.121.121H.121A.121.121,0,0,1,0,1.335V.122A.122.122,0,0,1,.122,0Z" transform="translate(26.533 27.66)" fill="#fff"/>
      <path id="Caminho_327" data-name="Caminho 327" d="M25.144,25.447a.145.145,0,0,1-.144.144H23.243a.145.145,0,0,1-.145-.144v-1.1a.144.144,0,0,1,.145-.144H25a.144.144,0,0,1,.144.144Zm0,2.033a.145.145,0,0,1-.144.144H23.243a.145.145,0,0,1-.145-.144v-1.1a.144.144,0,0,1,.145-.144H25a.144.144,0,0,1,.144.144Zm0,2.033a.144.144,0,0,1-.144.143H23.243a.144.144,0,0,1-.145-.143v-1.1a.144.144,0,0,1,.145-.144H25a.144.144,0,0,1,.144.144Zm0,2.033A.145.145,0,0,1,25,31.69H23.243a.145.145,0,0,1-.145-.144v-1.1a.144.144,0,0,1,.145-.144H25a.144.144,0,0,1,.144.144Zm0,2.032a.144.144,0,0,1-.144.144H23.243a.144.144,0,0,1-.145-.144v-1.1a.145.145,0,0,1,.145-.144H25a.145.145,0,0,1,.144.144Zm-2.681-8.52v2.424a.144.144,0,0,1-.144.144H20.562a.144.144,0,0,1-.146-.144v-.305a.185.185,0,0,1,.011-.054l.009-.017.013-.019.016-.024c.225-.321,1.239-1.57,1.665-2.092l.042-.052a.173.173,0,0,1,.13-.061.166.166,0,0,1,.161.135Zm0,4.455a.143.143,0,0,1-.144.143H20.556a.143.143,0,0,1-.144-.143v-1.1a.143.143,0,0,1,.144-.144h1.758a.143.143,0,0,1,.144.144Zm0,2.033a.144.144,0,0,1-.144.144H20.556a.144.144,0,0,1-.144-.144v-1.1a.143.143,0,0,1,.144-.144h1.758a.143.143,0,0,1,.144.144Zm0,2.032a.143.143,0,0,1-.144.144H20.556a.143.143,0,0,1-.144-.144v-1.1a.144.144,0,0,1,.144-.144h1.758a.144.144,0,0,1,.144.144Zm.917-10.3.041-.051c.4-.509,1.065-1.332,1.391-1.732l.043-.051a.168.168,0,0,1,.129-.061.166.166,0,0,1,.161.135v1.86a.166.166,0,0,1-.16.166H23.5a.167.167,0,0,1-.127-.266m2.44-3.992a.155.155,0,0,0-.148-.113.151.151,0,0,0-.084.028l-.011.007-.05.063-5.8,7.352-.027.036a.167.167,0,0,0-.05.115v9.034a.144.144,0,0,0,.145.144h5.891a.143.143,0,0,0,.144-.144V19.349a.147.147,0,0,0-.014-.06" fill="#fff"/>
      <path id="Caminho_328" data-name="Caminho 328" d="M32.734,12.338h2.021V3.428H33.17a8.706,8.706,0,0,1-1.779.99V5.782a3.443,3.443,0,0,1,.339-.143c.137-.051.237-.088.3-.11q.568-.22.7-.286Zm-4.707,0h2.021V3.428H28.463a8.706,8.706,0,0,1-1.779.99V5.782a3.665,3.665,0,0,1,.339-.143c.137-.051.238-.088.3-.11q.568-.22.7-.286Zm-7.6.132a2.914,2.914,0,0,0,1.344-.3,2.24,2.24,0,0,0,.9-.808,2.1,2.1,0,0,0,.321-1.139,2.7,2.7,0,0,0-.4-1.485,4.754,4.754,0,0,0-1.125-1.188L20.658,6.9a3.992,3.992,0,0,1-.72-.7,1.259,1.259,0,0,1-.223-.76.806.806,0,0,1,.151-.478.5.5,0,0,1,.429-.215.48.48,0,0,1,.5.3,3.453,3.453,0,0,1,.139.995L22.8,5.837a3.322,3.322,0,0,0-.538-1.793,2.14,2.14,0,0,0-1.894-.737,3.074,3.074,0,0,0-2.015.605,2.113,2.113,0,0,0-.732,1.727,2.362,2.362,0,0,0,.345,1.293A4.078,4.078,0,0,0,18.94,7.96l.847.671a3.891,3.891,0,0,1,.817.8,1.523,1.523,0,0,1,.26.891q0,.65-.544.649a.688.688,0,0,1-.636-.369A2.649,2.649,0,0,1,19.46,9.39l-1.851.253a3.073,3.073,0,0,0,.732,2.151,2.86,2.86,0,0,0,2.087.676m-7.526-1.5V4.8h.327a1.666,1.666,0,0,1,.7.11.527.527,0,0,1,.29.337,2.447,2.447,0,0,1,.067.653V9.786a3.038,3.038,0,0,1-.061.7.568.568,0,0,1-.284.363,1.474,1.474,0,0,1-.7.126Zm-2.166,1.364h2.505a5.224,5.224,0,0,0,1.966-.3,1.86,1.86,0,0,0,1.005-.913,3.857,3.857,0,0,0,.3-1.65V6.244a3.787,3.787,0,0,0-.3-1.633,1.817,1.817,0,0,0-1.011-.9,5.467,5.467,0,0,0-1.984-.287H10.736ZM6.453,11.073a.588.588,0,0,1-.593-.28,1.812,1.812,0,0,1-.133-.765V5.738a1.676,1.676,0,0,1,.145-.764.59.59,0,0,1,.581-.28.62.62,0,0,1,.605.274,1.675,1.675,0,0,1,.145.77v4.29a1.681,1.681,0,0,1-.145.765.616.616,0,0,1-.605.28m0,1.4a2.986,2.986,0,0,0,2.281-.742,3.141,3.141,0,0,0,.684-2.195V6.222a3.1,3.1,0,0,0-.684-2.178,3,3,0,0,0-2.281-.737,2.973,2.973,0,0,0-2.263.732,3.11,3.11,0,0,0-.677,2.183V9.533a3.154,3.154,0,0,0,.677,2.195,2.947,2.947,0,0,0,2.263.742" fill="#fff"/>
    </g>
  </g>
</svg>
