<svg id="icone_ods_3" xmlns="http://www.w3.org/2000/svg" xmlns:xlink="http://www.w3.org/1999/xlink" width="38.268" height="38.269" viewBox="0 0 38.268 38.269">
  <defs>
    <clipPath id="clip-path">
      <rect id="Ret창ngulo_10" data-name="Ret창ngulo 10" width="38.268" height="38.269" transform="translate(0 0)" fill="none"/>
    </clipPath>
  </defs>
  <rect id="Ret창ngulo_9" data-name="Ret창ngulo 9" width="38.268" height="38.269" transform="translate(0 0)" fill="#4a8e32"/>
  <g id="Grupo_297" data-name="Grupo 297">
    <g id="Grupo_296" data-name="Grupo 296" clip-path="url(#clip-path)">
      <path id="Caminho_287" data-name="Caminho 287" d="M34.1,25.318a2.1,2.1,0,0,0-2.027-2.275,3.142,3.142,0,0,0-1.747,1.08c-.4-.412-1.087-1.081-1.7-1.081a2.136,2.136,0,0,0-2.077,2.275,2.3,2.3,0,0,0,.648,1.609l3.13,3.135,3.125-3.131,0,0a2.3,2.3,0,0,0,.648-1.609" fill="#fff"/>
      <path id="Caminho_288" data-name="Caminho 288" d="M20.777,35.18h-.032a.515.515,0,0,1-.475-.426l-1.589-9.259-2.408,4.465a.514.514,0,0,1-.961-.171l-1.023-7.145-1.87,4.2a.516.516,0,0,1-.47.305H4.68a.514.514,0,0,1,0-1.028h6.935l2.461-5.526a.514.514,0,0,1,.978.136L16.108,28.1l2.375-4.4a.514.514,0,0,1,.959.157l1.472,8.575L26.28,14.6a.514.514,0,0,1,.955-.075l2.823,5.853a.514.514,0,0,1-.926.446l-2.249-4.662L21.269,34.814a.514.514,0,0,1-.492.366" fill="#fff"/>
      <path id="Caminho_289" data-name="Caminho 289" d="M30.822,12.756a2.565,2.565,0,0,0,2.045-.743,3.021,3.021,0,0,0,.641-2.04,2.515,2.515,0,0,0-.32-1.386,1.658,1.658,0,0,0-.878-.671,1.428,1.428,0,0,0,.859-.666,2.357,2.357,0,0,0,.339-1.292,2.239,2.239,0,0,0-.714-1.793A2.956,2.956,0,0,0,30.8,3.549a2.819,2.819,0,0,0-1.968.643,2.368,2.368,0,0,0-.707,1.843v.539h2.02V6.112a1.919,1.919,0,0,1,.139-.82.524.524,0,0,1,.516-.28.592.592,0,0,1,.555.264,1.606,1.606,0,0,1,.158.8,1.694,1.694,0,0,1-.23,1.006,1.008,1.008,0,0,1-.847.3h-.327V8.653h.375a.93.93,0,0,1,.811.335,1.893,1.893,0,0,1,.218,1.029,2.272,2.272,0,0,1-.133.913.523.523,0,0,1-.521.275.58.58,0,0,1-.562-.281,2.18,2.18,0,0,1-.152-.962V9.643h-2.02v.319a3.1,3.1,0,0,0,.617,2.068,2.6,2.6,0,0,0,2.081.726m-9.148-.033a2.911,2.911,0,0,0,1.344-.3,2.236,2.236,0,0,0,.9-.809,2.1,2.1,0,0,0,.321-1.138,2.691,2.691,0,0,0-.4-1.485,4.754,4.754,0,0,0-1.125-1.188L21.9,7.157a3.959,3.959,0,0,1-.72-.7,1.256,1.256,0,0,1-.222-.759.81.81,0,0,1,.15-.479A.494.494,0,0,1,21.542,5a.478.478,0,0,1,.5.3,3.417,3.417,0,0,1,.141,1l1.862-.209A3.322,3.322,0,0,0,23.508,4.3a2.137,2.137,0,0,0-1.893-.737,3.077,3.077,0,0,0-2.016.605,2.113,2.113,0,0,0-.731,1.727,2.369,2.369,0,0,0,.344,1.292,4.068,4.068,0,0,0,.975,1.029l.846.671a3.9,3.9,0,0,1,.818.8,1.523,1.523,0,0,1,.26.891q0,.649-.545.649a.685.685,0,0,1-.635-.369,2.646,2.646,0,0,1-.225-1.215L18.855,9.9a3.073,3.073,0,0,0,.732,2.15,2.862,2.862,0,0,0,2.087.677m-7.526-1.5V5.056h.328a1.673,1.673,0,0,1,.7.11.534.534,0,0,1,.29.335,2.52,2.52,0,0,1,.066.655v3.883a3.022,3.022,0,0,1-.061.7.565.565,0,0,1-.283.363,1.465,1.465,0,0,1-.7.127Zm-2.165,1.364h2.505a5.222,5.222,0,0,0,1.965-.3,1.86,1.86,0,0,0,1.005-.913,3.842,3.842,0,0,0,.3-1.65V6.5a3.777,3.777,0,0,0-.3-1.634,1.819,1.819,0,0,0-1.01-.9,5.492,5.492,0,0,0-1.984-.286H11.983ZM7.7,11.326a.589.589,0,0,1-.594-.281,1.8,1.8,0,0,1-.133-.764V5.991a1.691,1.691,0,0,1,.145-.765.592.592,0,0,1,.582-.28.62.62,0,0,1,.6.275,1.668,1.668,0,0,1,.146.77v4.29a1.672,1.672,0,0,1-.146.764.616.616,0,0,1-.6.281m0,1.4a2.985,2.985,0,0,0,2.28-.743,3.134,3.134,0,0,0,.684-2.194V6.475A3.1,3.1,0,0,0,9.98,4.3,3,3,0,0,0,7.7,3.56a2.974,2.974,0,0,0-2.263.731A3.108,3.108,0,0,0,4.76,6.475V9.786a3.147,3.147,0,0,0,.677,2.194,2.944,2.944,0,0,0,2.263.743" fill="#fff"/>
    </g>
  </g>
</svg>
