<svg xmlns="http://www.w3.org/2000/svg" xmlns:xlink="http://www.w3.org/1999/xlink" width="20.241" height="19.843" viewBox="0 0 20.241 19.843">
  <defs>
    <clipPath id="clip-path">
      <path id="Caminho_12879" data-name="Caminho 12879" d="M0,0H20.241V-19.843H0Z" fill="none"/>
    </clipPath>
  </defs>
  <g id="icone_ods15" transform="translate(0 19.843)">
    <g id="Grupo_12785" data-name="Grupo 12785" clip-path="url(#clip-path)">
      <g id="Grupo_12778" data-name="Grupo 12778" transform="translate(6.783 -8.329)">
        <path id="Caminho_12872" data-name="Caminho 12872" d="M0,0A.091.091,0,0,1,.091.091V3.1A.091.091,0,0,1,0,3.19H-1.217A.091.091,0,0,1-1.309,3.1V.091A.092.092,0,0,1-1.217,0Z" fill="#2b2e34"/>
      </g>
      <g id="Grupo_12779" data-name="Grupo 12779" transform="translate(20.149 -3.847)">
        <path id="Caminho_12873" data-name="Caminho 12873" d="M0,0H-20.057a.094.094,0,0,0-.092.094V1.32a.091.091,0,0,0,.092.09H0a.092.092,0,0,0,.092-.09V.094A.1.1,0,0,0,0,0" fill="#2b2e34"/>
      </g>
      <g id="Grupo_12780" data-name="Grupo 12780" transform="translate(20.149 -1.411)">
        <path id="Caminho_12874" data-name="Caminho 12874" d="M0,0H-20.057a.091.091,0,0,0-.092.09V1.32a.093.093,0,0,0,.092.091H0A.094.094,0,0,0,.092,1.32V.09A.092.092,0,0,0,0,0" fill="#2b2e34"/>
      </g>
      <g id="Grupo_12781" data-name="Grupo 12781" transform="translate(16.332 -11.658)">
        <path id="Caminho_12875" data-name="Caminho 12875" d="M0,0A2.968,2.968,0,0,0-1.735-.654,2.318,2.318,0,0,0-3.346.031.171.171,0,0,0-3.4.157V.266A.171.171,0,0,0-3.342.4.161.161,0,0,0-3.2.436a.178.178,0,0,0,.038-.01.27.27,0,0,0,.1-.063,1.617,1.617,0,0,1,.8-.168,3.032,3.032,0,0,1,2.067.867l.018.016A.244.244,0,0,0,0,1.151.24.24,0,0,0,.17,1.08l.016-.017A3.044,3.044,0,0,1,2.256.195a1.617,1.617,0,0,1,.805.168.3.3,0,0,0,.111.068.251.251,0,0,0,.117,0A.172.172,0,0,0,3.416.269v-.1A.173.173,0,0,0,3.362.048a2.323,2.323,0,0,0-1.63-.7A2.948,2.948,0,0,0,0,0" fill="#2b2e34"/>
      </g>
      <g id="Grupo_12782" data-name="Grupo 12782" transform="translate(15.087 -19.652)">
        <path id="Caminho_12876" data-name="Caminho 12876" d="M0,0A.166.166,0,0,0-.087.106L-.108.172A.172.172,0,0,0-.081.323.162.162,0,0,0,.043.39a.055.055,0,0,0,.025,0,.236.236,0,0,0,.1-.025A.472.472,0,0,1,.286.353a1.739,1.739,0,0,1,1.433.936l.007.013a.2.2,0,0,0,.129.1.252.252,0,0,0,.063.01.212.212,0,0,0,.1-.025l.014-.006a1.985,1.985,0,0,1,.894-.222,1.363,1.363,0,0,1,.915.293.24.24,0,0,0,.067.075.429.429,0,0,0,.065.031.154.154,0,0,0,.03,0,.052.052,0,0,0,.018,0,.175.175,0,0,0,.165-.123L4.2,1.385a.132.132,0,0,0,.007-.049.165.165,0,0,0-.023-.086A1.506,1.506,0,0,0,2.827.432a2.146,2.146,0,0,0-.722.135A1.753,1.753,0,0,0,.752-.19,1.663,1.663,0,0,0,0,0" fill="#2b2e34"/>
      </g>
      <g id="Grupo_12783" data-name="Grupo 12783" transform="translate(10.849 -16.566)">
        <path id="Caminho_12877" data-name="Caminho 12877" d="M0,0,.006.091a.165.165,0,0,0,.08.135.173.173,0,0,0,.135.02L.25.237A.222.222,0,0,0,.337.173,1.463,1.463,0,0,1,1.1,0,2.479,2.479,0,0,1,2.688.6L2.7.613a.232.232,0,0,0,.154.058h.015A.23.23,0,0,0,3.029.6L3.042.581A2.413,2.413,0,0,1,4.8-.232a1.191,1.191,0,0,1,.523.1.285.285,0,0,0,.1.054A.242.242,0,0,0,5.5-.077a.32.32,0,0,0,.042-.01A.171.171,0,0,0,5.657-.26l0-.078a.176.176,0,0,0-.061-.12,1.969,1.969,0,0,0-1.283-.5,2.392,2.392,0,0,0-1.5.622A2.494,2.494,0,0,0,1.469-.786,1.911,1.911,0,0,0,.047-.128.173.173,0,0,0,0,0" fill="#2b2e34"/>
      </g>
      <g id="Grupo_12784" data-name="Grupo 12784" transform="translate(0.7 -14.956)">
        <path id="Caminho_12878" data-name="Caminho 12878" d="M0,0A2.174,2.174,0,0,1,2.175-2.174c.046,0,.092,0,.139.007A2.94,2.94,0,0,1,5.245-4.886,2.942,2.942,0,0,1,8.187-1.944a2.918,2.918,0,0,1-.3,1.282,3.286,3.286,0,0,1-.713,6.5L2.788,5.808A2.325,2.325,0,0,1,1.1,1.886,2.171,2.171,0,0,1,0,0" fill="#2b2e34"/>
      </g>
    </g>
  </g>
</svg>
