<svg id="icone_ods_4" xmlns="http://www.w3.org/2000/svg" xmlns:xlink="http://www.w3.org/1999/xlink" width="38.268" height="38.27" viewBox="0 0 38.268 38.27">
  <defs>
    <clipPath id="clip-path">
      <rect id="Ret창ngulo_8" data-name="Ret창ngulo 8" width="38.268" height="38.27" transform="translate(0 0)" fill="none"/>
    </clipPath>
  </defs>
  <rect id="Ret창ngulo_7" data-name="Ret창ngulo 7" width="38.268" height="38.27" transform="translate(0 0)" fill="#b60b23"/>
  <path id="Caminho_281" data-name="Caminho 281" d="M16.51,21.033l-7.626-4.4V30.874l7.626,2.3Z" fill="#fff"/>
  <path id="Caminho_282" data-name="Caminho 282" d="M17.349,21.062V33.18l7.675-2.308V16.63Z" fill="#fff"/>
  <g id="Grupo_294" data-name="Grupo 294">
    <g id="Grupo_293" data-name="Grupo 293" clip-path="url(#clip-path)">
      <path id="Caminho_283" data-name="Caminho 283" d="M31.011,16.269a.9.9,0,1,0-1.8,0v.973h1.8Z" fill="#fff"/>
      <path id="Caminho_284" data-name="Caminho 284" d="M29.431,30.621h-.224l.9,3.153.9-3.153h0V17.947h-1.8V30.621Z" fill="#fff"/>
      <path id="Caminho_285" data-name="Caminho 285" d="M26.662,17.241l-.817-.646V31.26L17.371,34H16.51L8.074,31.642V16.6l-.818.646V32.215l9.215,2.551h.939l8.5-2.7.751-.221Z" fill="#fff"/>
      <path id="Caminho_286" data-name="Caminho 286" d="M29.37,9.258l1.476-3.707V9.258Zm1.476,3.366h1.888v-2h.907V9.258h-.907V3.714H30.386L27.833,9.269v1.353h3.013Zm-9.305.132a2.914,2.914,0,0,0,1.344-.3,2.247,2.247,0,0,0,.9-.808,2.1,2.1,0,0,0,.321-1.139,2.7,2.7,0,0,0-.4-1.485,4.754,4.754,0,0,0-1.125-1.188l-.811-.649a3.959,3.959,0,0,1-.72-.7,1.256,1.256,0,0,1-.223-.759.811.811,0,0,1,.151-.479.494.494,0,0,1,.429-.214.478.478,0,0,1,.5.3,3.424,3.424,0,0,1,.14,1l1.863-.209a3.322,3.322,0,0,0-.538-1.793,2.14,2.14,0,0,0-1.894-.737,3.074,3.074,0,0,0-2.015.605,2.113,2.113,0,0,0-.732,1.727,2.361,2.361,0,0,0,.345,1.292,4.081,4.081,0,0,0,.974,1.029l.847.671a3.891,3.891,0,0,1,.817.8,1.523,1.523,0,0,1,.26.891q0,.649-.544.649a.688.688,0,0,1-.636-.369,2.648,2.648,0,0,1-.224-1.215l-1.851.253a3.068,3.068,0,0,0,.732,2.15,2.86,2.86,0,0,0,2.087.677m-7.526-1.5V5.089h.327a1.666,1.666,0,0,1,.7.11.528.528,0,0,1,.29.335,2.469,2.469,0,0,1,.067.655v3.883a3.022,3.022,0,0,1-.061.7.563.563,0,0,1-.284.363,1.46,1.46,0,0,1-.7.127Zm-2.166,1.364h2.505a5.224,5.224,0,0,0,1.966-.3,1.86,1.86,0,0,0,1.005-.913,3.857,3.857,0,0,0,.3-1.65V6.53a3.792,3.792,0,0,0-.3-1.634A1.821,1.821,0,0,0,16.314,4a5.492,5.492,0,0,0-1.984-.286H11.849ZM7.566,11.359a.588.588,0,0,1-.593-.281,1.8,1.8,0,0,1-.133-.764V6.024a1.678,1.678,0,0,1,.145-.765.592.592,0,0,1,.581-.28.621.621,0,0,1,.6.275,1.669,1.669,0,0,1,.145.77v4.29a1.673,1.673,0,0,1-.145.764.616.616,0,0,1-.6.281m0,1.4a2.986,2.986,0,0,0,2.281-.743,3.138,3.138,0,0,0,.683-2.194V6.508A3.1,3.1,0,0,0,9.847,4.33a3,3,0,0,0-2.281-.737A2.977,2.977,0,0,0,5.3,4.324a3.112,3.112,0,0,0-.677,2.184V9.819A3.152,3.152,0,0,0,5.3,12.013a2.947,2.947,0,0,0,2.263.743" fill="#fff"/>
    </g>
  </g>
</svg>
