<svg id="icone_ods_1" xmlns="http://www.w3.org/2000/svg" xmlns:xlink="http://www.w3.org/1999/xlink" width="38.268" height="38.268" viewBox="0 0 38.268 38.268">
  <defs>
    <clipPath id="clip-path">
      <rect id="Ret창ngulo_6" data-name="Ret창ngulo 6" width="38.268" height="38.268" transform="translate(0 0)" fill="none"/>
    </clipPath>
  </defs>
  <rect id="Ret창ngulo_5" data-name="Ret창ngulo 5" width="38.268" height="38.268" transform="translate(0 0)" fill="#db0a2e"/>
  <g id="Grupo_291" data-name="Grupo 291">
    <g id="Grupo_290" data-name="Grupo 290" clip-path="url(#clip-path)">
      <path id="Caminho_267" data-name="Caminho 267" d="M31.811,20.613a1.177,1.177,0,1,1,1.178,1.177,1.178,1.178,0,0,1-1.178-1.177" fill="#fff"/>
      <path id="Caminho_268" data-name="Caminho 268" d="M33.768,22.244a1.568,1.568,0,0,1,1.425,1.563v3.264a.457.457,0,0,1-.913,0v-2.8c0-.1-.031-.248-.223-.248-.132,0-.16.141-.165.231v8.4a.656.656,0,0,1-1.312,0V27.81a.178.178,0,0,0-.186-.192h0a.18.18,0,0,0-.189.192v4.841a.655.655,0,0,1-1.311,0v-8.4c0-.09-.033-.231-.165-.231-.193,0-.223.143-.223.248v2.8a.456.456,0,0,1-.912,0V23.807a1.569,1.569,0,0,1,1.427-1.563.73.73,0,0,1,.086-.007h2.572a.785.785,0,0,1,.09.007" fill="#fff"/>
      <path id="Caminho_269" data-name="Caminho 269" d="M24.216,21.231A1.115,1.115,0,1,0,23.1,22.346a1.115,1.115,0,0,0,1.114-1.115" fill="#fff"/>
      <path id="Caminho_270" data-name="Caminho 270" d="M20.856,23.756l-.927,3.016s-.165.553.3.691.609-.4.609-.4l.747-2.518s.041-.194.186-.151.091.248.091.248l-1.3,4.718h1.209v3.38a.581.581,0,0,0,1.161,0v-3.38h.33v3.38a.582.582,0,0,0,1.163,0v-3.38h1.208l-1.3-4.718s-.055-.207.091-.248.186.151.186.151l.747,2.518s.142.54.608.4.3-.691.3-.691l-.927-3.016s-.331-.872-1.064-.872H21.921c-.733,0-1.065.872-1.065.872" fill="#fff"/>
      <path id="Caminho_271" data-name="Caminho 271" d="M17.54,21.231a1.115,1.115,0,1,0-1.114,1.115,1.115,1.115,0,0,0,1.114-1.115" fill="#fff"/>
      <path id="Caminho_272" data-name="Caminho 272" d="M14.179,23.756l-.926,3.016s-.166.553.3.691.608-.4.608-.4l.747-2.518s.041-.194.186-.151.091.248.091.248l-1.3,4.718H15.1v3.38a.581.581,0,0,0,1.162,0v-3.38h.33v3.38a.581.581,0,0,0,1.161,0v-3.38h1.21l-1.3-4.718s-.055-.207.09-.248.187.151.187.151l.746,2.518s.142.54.609.4.3-.691.3-.691l-.927-3.016s-.33-.872-1.064-.872H15.244c-.733,0-1.065.872-1.065.872" fill="#fff"/>
      <path id="Caminho_273" data-name="Caminho 273" d="M27.959,27.47a.928.928,0,1,0-.928-.929.927.927,0,0,0,.928.929" fill="#fff"/>
      <path id="Caminho_274" data-name="Caminho 274" d="M25.735,30.352a.323.323,0,0,0,.135.439.31.31,0,0,0,.4-.13l.5-1.608s.088-.108.088,0v3.787h0a.476.476,0,1,0,.952,0V31.349s-.027-.212.142-.212.145.212.145.212v1.494a.477.477,0,0,0,.954,0V29.056c0-.111.058-.031.058-.031l.4,1.1a2.694,2.694,0,0,0,.224.514.351.351,0,0,0,.46-.19.344.344,0,0,0-.038-.339l0,0c-.011-.036-.59-1.457-.658-1.656-.21-.611-.59-.606-.957-.616s-.587,0-.587,0-.234-.01-.718,0-.636.262-1.169,1.635c-.076.2-.334.837-.337.875Z" fill="#fff"/>
      <path id="Caminho_275" data-name="Caminho 275" d="M7.422,20.287a1.177,1.177,0,1,0-1.178,1.177,1.178,1.178,0,0,0,1.178-1.177" fill="#fff"/>
      <path id="Caminho_276" data-name="Caminho 276" d="M5.032,22.244a1.569,1.569,0,0,0-1.425,1.563v3.264a.457.457,0,0,0,.913,0v-2.8c0-.1.031-.248.223-.248.132,0,.16.141.166.231v8.4a.655.655,0,0,0,1.31,0V27.81a.179.179,0,0,1,.187-.192h0a.18.18,0,0,1,.189.192v4.841a.656.656,0,0,0,1.311,0v-8.4c0-.09.034-.231.165-.231.193,0,.222.143.222.248v2.8a.457.457,0,0,0,.913,0V23.807a1.569,1.569,0,0,0-1.426-1.563.748.748,0,0,0-.087-.007H5.122a.785.785,0,0,0-.09.007" fill="#fff"/>
      <line id="Linha_1" data-name="Linha 1" x1="0.666" y2="5.161" transform="translate(3.32 27.734)" fill="none" stroke="#fff" stroke-linecap="round" stroke-miterlimit="10" stroke-width="0.49"/>
      <path id="Caminho_277" data-name="Caminho 277" d="M9.766,26.984a.338.338,0,0,0-.624.179.61.61,0,0,0,.033.148L10.11,29a.6.6,0,0,1,.057.223v3.635h0a.457.457,0,1,0,.913,0V31.427s-.025-.2.139-.2.137.2.137.2v1.435a.458.458,0,0,0,.916,0V29.227A.6.6,0,0,1,12.331,29l.864-1.563a1.513,1.513,0,0,0,.106-.278.338.338,0,0,0-.338-.338.334.334,0,0,0-.286.159l0,0c-.027.023-.46.8-.6.937a.376.376,0,0,1-.287.136H10.659a.374.374,0,0,1-.287-.136c-.144-.142-.576-.914-.6-.937Z" fill="#fff"/>
      <path id="Caminho_278" data-name="Caminho 278" d="M11.221,27.47a.928.928,0,1,0-.927-.929.927.927,0,0,0,.927.929" fill="#fff"/>
      <path id="Caminho_279" data-name="Caminho 279" d="M11.222,28.772l1.049.765.5,1.835h-3.1l.5-1.835Z" fill="#fff"/>
      <path id="Caminho_280" data-name="Caminho 280" d="M30.381,12.624H32.4V3.714H30.817a8.706,8.706,0,0,1-1.779.99V6.068a3.665,3.665,0,0,1,.339-.143c.137-.051.238-.088.3-.11q.568-.22.7-.286Zm-7.6.132a2.914,2.914,0,0,0,1.344-.3,2.247,2.247,0,0,0,.9-.808,2.1,2.1,0,0,0,.321-1.139,2.7,2.7,0,0,0-.4-1.485,4.754,4.754,0,0,0-1.125-1.188l-.811-.649a3.959,3.959,0,0,1-.72-.7,1.256,1.256,0,0,1-.223-.759.811.811,0,0,1,.151-.479.494.494,0,0,1,.429-.214.478.478,0,0,1,.5.3,3.424,3.424,0,0,1,.14,1l1.863-.209a3.322,3.322,0,0,0-.538-1.793,2.14,2.14,0,0,0-1.894-.737,3.074,3.074,0,0,0-2.015.605,2.113,2.113,0,0,0-.732,1.727,2.361,2.361,0,0,0,.345,1.292,4.081,4.081,0,0,0,.974,1.029l.847.671a3.891,3.891,0,0,1,.817.8,1.523,1.523,0,0,1,.26.891q0,.649-.544.649a.688.688,0,0,1-.636-.369,2.649,2.649,0,0,1-.224-1.215l-1.851.253a3.068,3.068,0,0,0,.732,2.15,2.86,2.86,0,0,0,2.087.677m-7.526-1.5V5.089h.327a1.666,1.666,0,0,1,.7.11.528.528,0,0,1,.29.335,2.469,2.469,0,0,1,.067.655v3.883a3.022,3.022,0,0,1-.061.7.563.563,0,0,1-.284.363,1.46,1.46,0,0,1-.7.127ZM13.09,12.624H15.6a5.224,5.224,0,0,0,1.966-.3,1.86,1.86,0,0,0,1-.913,3.857,3.857,0,0,0,.3-1.65V6.53a3.792,3.792,0,0,0-.3-1.634A1.821,1.821,0,0,0,17.555,4a5.492,5.492,0,0,0-1.984-.286H13.09ZM8.807,11.359a.588.588,0,0,1-.593-.281,1.8,1.8,0,0,1-.133-.764V6.024a1.678,1.678,0,0,1,.145-.765.592.592,0,0,1,.581-.28.621.621,0,0,1,.6.275,1.669,1.669,0,0,1,.145.77v4.29a1.673,1.673,0,0,1-.145.764.616.616,0,0,1-.6.281m0,1.4a2.986,2.986,0,0,0,2.281-.743,3.138,3.138,0,0,0,.683-2.194V6.508a3.1,3.1,0,0,0-.683-2.178,3,3,0,0,0-2.281-.737,2.977,2.977,0,0,0-2.263.731,3.112,3.112,0,0,0-.677,2.184V9.819a3.152,3.152,0,0,0,.677,2.194,2.947,2.947,0,0,0,2.263.743" fill="#fff"/>
    </g>
  </g>
</svg>
