<svg xmlns="http://www.w3.org/2000/svg" xmlns:xlink="http://www.w3.org/1999/xlink" width="14.436" height="19.843" viewBox="0 0 14.436 19.843">
  <defs>
    <clipPath id="clip-path">
      <path id="Caminho_12829" data-name="Caminho 12829" d="M0,0H14.436V-19.843H0Z" fill="none"/>
    </clipPath>
  </defs>
  <g id="icone_ods6" transform="translate(0 19.843)">
    <g id="Grupo_12728" data-name="Grupo 12728" clip-path="url(#clip-path)">
      <g id="Grupo_12727" data-name="Grupo 12727" transform="translate(14.396 -19.787)">
        <path id="Caminho_12828" data-name="Caminho 12828" d="M0,0A.169.169,0,0,0-.128-.056h-14.1A.17.17,0,0,0-14.359,0a.168.168,0,0,0-.035.133l2.37,14.332a.164.164,0,0,0,.162.138h2.908l.2,2.335H-9.979l2.848,2.848,2.855-2.854H-5.5l.2-2.331h2.959a.162.162,0,0,0,.162-.14L.037.133A.167.167,0,0,0,0,0M-5.451,11.474a2.266,2.266,0,0,1-1.683.587,2.266,2.266,0,0,1-1.685-.587,2.5,2.5,0,0,1-.312-3.048C-8.9,8-7.28,5.563-7.141,5.355V5.339l.007.008,0-.008v.016C-6.993,5.563-5.367,8-5.14,8.426a2.5,2.5,0,0,1-.311,3.048M-.977,3.015A1.755,1.755,0,0,0-2.309,3.1a6.193,6.193,0,0,1-4.782.388c-1.159-.363-2.244-1.123-3.526-.66a7.273,7.273,0,0,1-2.605.591L-13.778.566h13.2Z" fill="#2b2e34"/>
      </g>
    </g>
  </g>
</svg>
