<svg xmlns="http://www.w3.org/2000/svg" xmlns:xlink="http://www.w3.org/1999/xlink" width="23.283" height="19.843" viewBox="0 0 23.283 19.843">
  <defs>
    <clipPath id="clip-path">
      <path id="Caminho_12814" data-name="Caminho 12814" d="M0,0H23.283V-19.843H0Z" fill="none"/>
    </clipPath>
  </defs>
  <g id="icone_ods2" transform="translate(0 19.843)">
    <g id="Grupo_12709" data-name="Grupo 12709" clip-path="url(#clip-path)">
      <g id="Grupo_12705" data-name="Grupo 12705" transform="translate(7.889 -0.91)">
        <path id="Caminho_12810" data-name="Caminho 12810" d="M0,0V.608A.044.044,0,0,0,0,.621.059.059,0,0,0,0,.635.285.285,0,0,0,.28.908l.006,0,.007,0H7.417l.006,0,.007,0A.286.286,0,0,0,7.71.623s0,0,0,0V-.068A11.1,11.1,0,0,0,15.386-8.6c0-.009,0-.016,0-.023a.187.187,0,0,0,0-.04.287.287,0,0,0-.288-.288H-7.6a.288.288,0,0,0-.289.288l.015.129A11.127,11.127,0,0,0,0,0" fill="#2b2e34"/>
      </g>
      <g id="Grupo_12706" data-name="Grupo 12706" transform="translate(15.593 -19.547)">
        <path id="Caminho_12811" data-name="Caminho 12811" d="M0,0C-.094.133-2.287,3.291.049,5.845A2.558,2.558,0,0,1,.721,8.75h1.5A3.685,3.685,0,0,0,1.182,5.1C-.54,3.214,1.2.67,1.23.631A.562.562,0,0,0,.987-.208.8.8,0,0,0,0,0" fill="#2b2e34"/>
      </g>
      <g id="Grupo_12707" data-name="Grupo 12707" transform="translate(11.797 -10.797)">
        <path id="Caminho_12812" data-name="Caminho 12812" d="M0,0H1.5A3.687,3.687,0,0,0,.46-3.654C-1.262-5.536.48-8.079.508-8.12a.562.562,0,0,0-.244-.838.8.8,0,0,0-.986.208c-.094.133-2.29,3.291.049,5.845A2.56,2.56,0,0,1,0,0" fill="#2b2e34"/>
      </g>
      <g id="Grupo_12708" data-name="Grupo 12708" transform="translate(6.558 -19.547)">
        <path id="Caminho_12813" data-name="Caminho 12813" d="M0,0C-.095.133-2.289,3.291.048,5.845A2.559,2.559,0,0,1,.722,8.75h1.5A3.685,3.685,0,0,0,1.181,5.1C-.541,3.214,1.2.67,1.23.63A.562.562,0,0,0,.985-.208.793.793,0,0,0,0,0" fill="#2b2e34"/>
      </g>
    </g>
  </g>
</svg>
