<svg xmlns="http://www.w3.org/2000/svg" xmlns:xlink="http://www.w3.org/1999/xlink" width="19.646" height="19.843" viewBox="0 0 19.646 19.843">
  <defs>
    <clipPath id="clip-path">
      <path id="Caminho_12850" data-name="Caminho 12850" d="M0,0H19.646V-19.843H0Z" fill="none"/>
    </clipPath>
  </defs>
  <g id="icone_ods9" transform="translate(0 19.843)">
    <g id="Grupo_12752" data-name="Grupo 12752" clip-path="url(#clip-path)">
      <g id="Grupo_12751" data-name="Grupo 12751" transform="translate(19.489 -8.821)">
        <path id="Caminho_12849" data-name="Caminho 12849" d="M0,0-4.6-2.654V-7.963a.314.314,0,0,0-.156-.272L-9.509-10.98a.319.319,0,0,0-.314,0l-4.755,2.745a.315.315,0,0,0-.157.272v5.309L-19.332,0a.312.312,0,0,0-.157.272V5.763a.311.311,0,0,0,.157.271l4.754,2.745a.316.316,0,0,0,.157.042.316.316,0,0,0,.157-.042l4.6-2.654,4.6,2.654a.313.313,0,0,0,.157.042.316.316,0,0,0,.157-.042L0,6.034a.313.313,0,0,0,.157-.271V.272A.315.315,0,0,0,0,0M-9.98,5.219l-3.814-2.2L-9.98.815Zm4.44-7.692-3.813,2.2v-4.4Zm-4.44,2.2-3.813-2.2,3.813-2.2Zm.941.544,4.127-2.383L-.784.272-4.912,2.655Zm3.813-3.288-3.813-2.2,3.813-2.2Zm-5.068-2.2-3.813,2.2v-4.4ZM-14.735,7.964l-4.127-2.383V.815L-14.735,3.2Zm.628,0v-4.4l3.813,2.2ZM-.47,5.581-4.6,7.964V3.2L-.47.815Z" fill="#2b2e34"/>
      </g>
    </g>
  </g>
</svg>
