<svg id="icone_ods_7" xmlns="http://www.w3.org/2000/svg" xmlns:xlink="http://www.w3.org/1999/xlink" width="38.268" height="38.269" viewBox="0 0 38.268 38.269">
  <defs>
    <clipPath id="clip-path">
      <rect id="Ret창ngulo_38" data-name="Ret창ngulo 38" width="38.268" height="38.269" transform="translate(0 0)" fill="none"/>
    </clipPath>
  </defs>
  <rect id="Ret창ngulo_37" data-name="Ret창ngulo 37" width="38.268" height="38.269" transform="translate(0 0)" fill="#ffb400"/>
  <g id="Grupo_333" data-name="Grupo 333">
    <g id="Grupo_332" data-name="Grupo 332" clip-path="url(#clip-path)">
      <path id="Caminho_341" data-name="Caminho 341" d="M19.134,29.152a3.242,3.242,0,0,1-.963-6.337v1.207a2.122,2.122,0,1,0,1.921,0v-1.2a3.241,3.241,0,0,1-.958,6.338m-.462-6.963a.463.463,0,0,1,.925,0v2.139a.464.464,0,0,1-.925,0Zm.461-2.462a6.232,6.232,0,1,0,6.231,6.232,6.232,6.232,0,0,0-6.231-6.232" fill="#fff"/>
      <path id="Caminho_342" data-name="Caminho 342" d="M11.979,25.9a.52.52,0,0,0-.479-.511H8.771a.513.513,0,0,0,0,1.025H11.5a.523.523,0,0,0,.479-.514" fill="#fff"/>
      <path id="Caminho_343" data-name="Caminho 343" d="M29.98,25.9a.52.52,0,0,0-.479-.511H26.772a.513.513,0,0,0,0,1.025H29.5a.523.523,0,0,0,.479-.514" fill="#fff"/>
      <path id="Caminho_344" data-name="Caminho 344" d="M19.135,18.75a.521.521,0,0,0,.511-.478v-2.73a.513.513,0,0,0-1.025,0v2.73a.523.523,0,0,0,.514.478" fill="#fff"/>
      <path id="Caminho_345" data-name="Caminho 345" d="M19.135,36.75a.521.521,0,0,0,.511-.479V33.542a.513.513,0,0,0-1.025,0v2.729a.523.523,0,0,0,.514.479" fill="#fff"/>
      <path id="Caminho_346" data-name="Caminho 346" d="M12.925,22.35a.521.521,0,0,0-.161-.682L10.4,20.313a.513.513,0,0,0-.509.889l2.369,1.356a.522.522,0,0,0,.67-.208" fill="#fff"/>
      <path id="Caminho_347" data-name="Caminho 347" d="M28.548,31.291a.521.521,0,0,0-.162-.682l-2.368-1.355a.513.513,0,0,0-.509.889L27.877,31.5a.523.523,0,0,0,.671-.208" fill="#fff"/>
      <path id="Caminho_348" data-name="Caminho 348" d="M22.689,19.7a.52.52,0,0,0,.681-.162l1.356-2.368a.514.514,0,0,0-.89-.509l-1.355,2.368a.522.522,0,0,0,.208.671" fill="#fff"/>
      <path id="Caminho_349" data-name="Caminho 349" d="M13.748,35.318a.52.52,0,0,0,.681-.162l1.356-2.368a.514.514,0,0,0-.89-.509L13.54,34.647a.524.524,0,0,0,.208.671" fill="#fff"/>
      <path id="Caminho_350" data-name="Caminho 350" d="M15.568,19.7a.521.521,0,0,0,.2-.67l-1.361-2.366a.513.513,0,0,0-.888.511l1.36,2.366a.523.523,0,0,0,.684.159" fill="#fff"/>
      <path id="Caminho_351" data-name="Caminho 351" d="M24.542,35.306a.523.523,0,0,0,.2-.67L23.385,32.27a.513.513,0,0,0-.888.511l1.361,2.366a.522.522,0,0,0,.684.159" fill="#fff"/>
      <path id="Caminho_352" data-name="Caminho 352" d="M25.337,22.339a.522.522,0,0,0,.67.2l2.365-1.361a.513.513,0,0,0-.51-.888L25.5,21.655a.523.523,0,0,0-.159.684" fill="#fff"/>
      <path id="Caminho_353" data-name="Caminho 353" d="M9.733,31.312a.521.521,0,0,0,.67.2l2.365-1.36a.513.513,0,0,0-.51-.888l-2.366,1.36a.523.523,0,0,0-.159.684" fill="#fff"/>
      <path id="Caminho_354" data-name="Caminho 354" d="M28.929,12.156H30.9l2.129-7.645V3.246H28.385v1.4h2.674Zm-6.776.132a2.914,2.914,0,0,0,1.344-.3,2.24,2.24,0,0,0,.9-.808,2.1,2.1,0,0,0,.321-1.139,2.7,2.7,0,0,0-.4-1.485,4.754,4.754,0,0,0-1.125-1.188l-.811-.649a3.959,3.959,0,0,1-.72-.7,1.256,1.256,0,0,1-.223-.759.811.811,0,0,1,.151-.479.5.5,0,0,1,.429-.214.48.48,0,0,1,.5.3,3.468,3.468,0,0,1,.139,1l1.863-.209a3.322,3.322,0,0,0-.538-1.793,2.14,2.14,0,0,0-1.894-.737,3.074,3.074,0,0,0-2.015.605,2.113,2.113,0,0,0-.732,1.727,2.367,2.367,0,0,0,.345,1.293,4.1,4.1,0,0,0,.974,1.028l.847.671a3.891,3.891,0,0,1,.817.8,1.523,1.523,0,0,1,.26.891q0,.65-.544.649a.688.688,0,0,1-.636-.369,2.649,2.649,0,0,1-.224-1.215l-1.851.253a3.073,3.073,0,0,0,.732,2.151,2.864,2.864,0,0,0,2.087.676m-7.526-1.5V4.621h.327a1.666,1.666,0,0,1,.7.11.528.528,0,0,1,.29.336,2.455,2.455,0,0,1,.067.654V9.6a3.022,3.022,0,0,1-.061.7.567.567,0,0,1-.284.364,1.474,1.474,0,0,1-.7.126Zm-2.166,1.364h2.5a5.224,5.224,0,0,0,1.966-.3,1.86,1.86,0,0,0,1.005-.913,3.857,3.857,0,0,0,.3-1.65V6.062a3.784,3.784,0,0,0-.3-1.633,1.819,1.819,0,0,0-1.011-.9,5.492,5.492,0,0,0-1.984-.286H12.461ZM8.178,10.891a.588.588,0,0,1-.593-.281,1.8,1.8,0,0,1-.133-.764V5.556A1.678,1.678,0,0,1,7.6,4.791a.592.592,0,0,1,.581-.28.621.621,0,0,1,.6.275,1.669,1.669,0,0,1,.145.77v4.29a1.673,1.673,0,0,1-.145.764.616.616,0,0,1-.6.281m0,1.4a2.982,2.982,0,0,0,2.281-.743,3.138,3.138,0,0,0,.684-2.194V6.04a3.1,3.1,0,0,0-.684-2.178,3,3,0,0,0-2.281-.737,2.977,2.977,0,0,0-2.263.731A3.112,3.112,0,0,0,5.238,6.04V9.351a3.152,3.152,0,0,0,.677,2.194,2.943,2.943,0,0,0,2.263.743" fill="#fff"/>
    </g>
  </g>
</svg>
