<svg id="icone_ods_9" xmlns="http://www.w3.org/2000/svg" xmlns:xlink="http://www.w3.org/1999/xlink" width="38.268" height="38.269" viewBox="0 0 38.268 38.269">
  <defs>
    <clipPath id="clip-path">
      <rect id="Ret창ngulo_34" data-name="Ret창ngulo 34" width="38.268" height="38.269" transform="translate(0 0)" fill="none"/>
    </clipPath>
  </defs>
  <rect id="Ret창ngulo_33" data-name="Ret창ngulo 33" width="38.268" height="38.269" transform="translate(0 0)" fill="#e8541f"/>
  <g id="Grupo_327" data-name="Grupo 327">
    <g id="Grupo_326" data-name="Grupo 326" clip-path="url(#clip-path)">
      <path id="Caminho_334" data-name="Caminho 334" d="M28.759,32.97l-4.321,2.494V30.476l4.321-2.494ZM14.487,35.464V30.855l3.991,2.305Zm-.656,0L9.511,32.97V27.982l4.32,2.494Zm4.647-13.8-3.991,2.305V19.364Zm5.3,2.305-3.99-2.305,3.99-2.3Zm-3.99,3.44L24.11,24.92l4.32,2.493-4.32,2.5Zm-.986-.568-3.99-2.3,3.99-2.305Zm4.648-2.3-3.991,2.3V22.236Zm-4.648,8.05-3.991-2.3,3.991-2.305Zm10.445-5.462-4.813-2.777V18.8a.328.328,0,0,0-.164-.284L19.3,15.638a.331.331,0,0,0-.328,0l-4.976,2.873a.328.328,0,0,0-.164.284v5.557L9.019,27.129a.328.328,0,0,0-.164.284V33.16a.328.328,0,0,0,.164.284l4.976,2.872a.328.328,0,0,0,.328,0l4.812-2.777,4.811,2.777a.333.333,0,0,0,.164.044.318.318,0,0,0,.164-.044l4.977-2.872a.328.328,0,0,0,.164-.284V27.413a.33.33,0,0,0-.164-.284" fill="#fff"/>
      <path id="Caminho_335" data-name="Caminho 335" d="M30.841,7.426a.516.516,0,0,1-.435-.171.9.9,0,0,1-.17-.451,6.938,6.938,0,0,1-.036-.819,4.092,4.092,0,0,1,.115-1.161.477.477,0,0,1,.5-.346.5.5,0,0,1,.508.308,2.144,2.144,0,0,1,.133.836V7.074a.743.743,0,0,1-.617.352m-.024,4.862a2.482,2.482,0,0,0,2.105-.786,3.644,3.644,0,0,0,.593-2.228V5.952a3.056,3.056,0,0,0-.653-2.085,2.592,2.592,0,0,0-2.045-.742,2.484,2.484,0,0,0-2.051.786,3.5,3.5,0,0,0-.635,2.25,3.386,3.386,0,0,0,.5,1.925,1.752,1.752,0,0,0,1.567.748,2.086,2.086,0,0,0,.762-.132,1.028,1.028,0,0,0,.5-.363v.792a9.177,9.177,0,0,1-.048,1.1,1.05,1.05,0,0,1-.176.517.494.494,0,0,1-.4.154.5.5,0,0,1-.5-.231,2.042,2.042,0,0,1-.115-.825H28.324v.143a2.371,2.371,0,0,0,.563,1.733,2.668,2.668,0,0,0,1.93.566m-9.148,0a2.914,2.914,0,0,0,1.344-.3,2.24,2.24,0,0,0,.9-.808,2.1,2.1,0,0,0,.321-1.139,2.7,2.7,0,0,0-.4-1.485A4.754,4.754,0,0,0,22.71,7.371L21.9,6.722a3.959,3.959,0,0,1-.72-.7,1.256,1.256,0,0,1-.223-.759.811.811,0,0,1,.151-.479.5.5,0,0,1,.429-.214.48.48,0,0,1,.5.3,3.468,3.468,0,0,1,.139,1l1.863-.209A3.322,3.322,0,0,0,23.5,3.862a2.14,2.14,0,0,0-1.894-.737,3.074,3.074,0,0,0-2.015.605,2.113,2.113,0,0,0-.732,1.727,2.367,2.367,0,0,0,.345,1.293,4.1,4.1,0,0,0,.974,1.028l.847.671a3.891,3.891,0,0,1,.817.8,1.523,1.523,0,0,1,.26.891q0,.65-.544.649a.688.688,0,0,1-.636-.369A2.649,2.649,0,0,1,20.7,9.208l-1.851.253a3.073,3.073,0,0,0,.732,2.151,2.864,2.864,0,0,0,2.087.676m-7.526-1.5V4.621h.327a1.666,1.666,0,0,1,.7.11.528.528,0,0,1,.29.336,2.455,2.455,0,0,1,.067.654V9.6a3.022,3.022,0,0,1-.061.7.567.567,0,0,1-.284.364,1.474,1.474,0,0,1-.7.126Zm-2.166,1.364h2.505a5.224,5.224,0,0,0,1.966-.3,1.86,1.86,0,0,0,1-.913,3.857,3.857,0,0,0,.3-1.65V6.062a3.784,3.784,0,0,0-.3-1.633,1.819,1.819,0,0,0-1.011-.9,5.492,5.492,0,0,0-1.984-.286H11.977ZM7.694,10.891A.588.588,0,0,1,7.1,10.61a1.8,1.8,0,0,1-.133-.764V5.556a1.678,1.678,0,0,1,.145-.765.592.592,0,0,1,.581-.28.621.621,0,0,1,.605.275,1.669,1.669,0,0,1,.145.77v4.29a1.673,1.673,0,0,1-.145.764.616.616,0,0,1-.605.281m0,1.4a2.982,2.982,0,0,0,2.281-.743,3.138,3.138,0,0,0,.684-2.194V6.04a3.1,3.1,0,0,0-.684-2.178,3,3,0,0,0-2.281-.737,2.977,2.977,0,0,0-2.263.731A3.112,3.112,0,0,0,4.754,6.04V9.351a3.152,3.152,0,0,0,.677,2.194,2.943,2.943,0,0,0,2.263.743" fill="#fff"/>
    </g>
  </g>
</svg>
