<svg id="icone_ods_8" xmlns="http://www.w3.org/2000/svg" xmlns:xlink="http://www.w3.org/1999/xlink" width="38.268" height="38.269" viewBox="0 0 38.268 38.269">
  <defs>
    <clipPath id="clip-path">
      <rect id="Ret창ngulo_36" data-name="Ret창ngulo 36" width="38.268" height="38.269" transform="translate(0 0)" fill="none"/>
    </clipPath>
  </defs>
  <rect id="Ret창ngulo_35" data-name="Ret창ngulo 35" width="38.268" height="38.269" transform="translate(0 0)" fill="#8e0f36"/>
  <g id="Grupo_330" data-name="Grupo 330">
    <g id="Grupo_329" data-name="Grupo 329" clip-path="url(#clip-path)">
      <path id="Caminho_336" data-name="Caminho 336" d="M26.952,19.256,22.86,23.149a.677.677,0,0,0-.234.585V34.645a.233.233,0,0,0,.234.233h4.227a.233.233,0,0,0,.233-.233V19.354c0-.129-.1-.364-.368-.1" fill="#fff"/>
      <path id="Caminho_337" data-name="Caminho 337" d="M15.162,24.328l-4.093,3.893a.677.677,0,0,0-.233.584v5.84a.232.232,0,0,0,.233.232H15.3a.232.232,0,0,0,.233-.232V24.426c0-.129-.1-.365-.368-.1" fill="#fff"/>
      <path id="Caminho_338" data-name="Caminho 338" d="M28.812,14.535a.117.117,0,0,0-.035-.089.119.119,0,0,0-.075-.033l-.023,0h-.033l-3.134.708-.057.005a.129.129,0,0,0-.061.032.119.119,0,0,0,0,.169l.035.035.716.716-7.1,7.1L15.765,19.9a.093.093,0,0,0-.134,0l-.89.89h0L9.483,26.049a.1.1,0,0,0,0,.134l.891.89a.094.094,0,0,0,.133,0l5.192-5.19,2.38,2.38a.026.026,0,0,0,.007.011l.89.889a.093.093,0,0,0,.134,0L27.169,17.1l.751.75a.118.118,0,0,0,.168,0,.113.113,0,0,0,.033-.077v-.01l.688-3.2Z" fill="#fff"/>
      <path id="Caminho_339" data-name="Caminho 339" d="M21.08,25.011l-1.98,2a.1.1,0,0,1-.128,0l-1.794-1.829c-.328-.327-.4-.062-.4.067v9.4a.232.232,0,0,0,.232.233H21.24a.234.234,0,0,0,.232-.233V25.085c0-.129-.1-.365-.392-.074" fill="#fff"/>
      <path id="Caminho_340" data-name="Caminho 340" d="M30.817,10.935a.535.535,0,0,1-.557-.374,2.77,2.77,0,0,1-.133-.924,3.1,3.1,0,0,1,.133-1.018.614.614,0,0,1,1.107-.038,2.371,2.371,0,0,1,.14.9,6.737,6.737,0,0,1-.031.7,1.179,1.179,0,0,1-.181.517.527.527,0,0,1-.478.236m0-4.136q-.63,0-.629-1.342a1.317,1.317,0,0,1,.163-.709.519.519,0,0,1,.466-.259.5.5,0,0,1,.448.264,1.4,1.4,0,0,1,.157.715q0,1.331-.605,1.331m0,5.489a2.63,2.63,0,0,0,2.045-.71A2.821,2.821,0,0,0,33.5,9.615a2.968,2.968,0,0,0-.284-1.325,1.7,1.7,0,0,0-.853-.831,1.856,1.856,0,0,0,.695-.786,2.852,2.852,0,0,0,.26-1.282,2.175,2.175,0,0,0-.647-1.672,2.621,2.621,0,0,0-1.857-.605,2.648,2.648,0,0,0-1.87.611,2.2,2.2,0,0,0-.659,1.7,2.565,2.565,0,0,0,.278,1.238,2.226,2.226,0,0,0,.7.8,1.713,1.713,0,0,0-.853.809,2.74,2.74,0,0,0-.284,1.27,2.976,2.976,0,0,0,.635,2.019,2.584,2.584,0,0,0,2.051.731m-9.136-.011a2.914,2.914,0,0,0,1.344-.3,2.24,2.24,0,0,0,.9-.808,2.1,2.1,0,0,0,.321-1.139,2.7,2.7,0,0,0-.4-1.485A4.754,4.754,0,0,0,22.722,7.36l-.811-.649a3.959,3.959,0,0,1-.72-.7,1.256,1.256,0,0,1-.223-.759.806.806,0,0,1,.151-.478.5.5,0,0,1,.429-.215.478.478,0,0,1,.5.3,3.41,3.41,0,0,1,.14,1l1.863-.209a3.322,3.322,0,0,0-.538-1.793,2.14,2.14,0,0,0-1.894-.737,3.074,3.074,0,0,0-2.015.605,2.113,2.113,0,0,0-.732,1.727,2.365,2.365,0,0,0,.345,1.293,4.078,4.078,0,0,0,.974,1.028l.847.671a3.891,3.891,0,0,1,.817.8,1.523,1.523,0,0,1,.26.891q0,.649-.544.649a.688.688,0,0,1-.636-.369A2.649,2.649,0,0,1,20.713,9.2l-1.851.253a3.073,3.073,0,0,0,.732,2.151,2.86,2.86,0,0,0,2.087.676m-7.526-1.5V4.61h.327a1.666,1.666,0,0,1,.7.11.528.528,0,0,1,.29.336,2.455,2.455,0,0,1,.067.654V9.593a3.038,3.038,0,0,1-.061.7.568.568,0,0,1-.284.363,1.474,1.474,0,0,1-.7.126Zm-2.166,1.364h2.505a5.224,5.224,0,0,0,1.966-.3,1.86,1.86,0,0,0,1.005-.913,3.857,3.857,0,0,0,.3-1.65V6.051a3.784,3.784,0,0,0-.3-1.633,1.822,1.822,0,0,0-1.011-.9,5.492,5.492,0,0,0-1.984-.286H11.989ZM7.706,10.88a.588.588,0,0,1-.593-.28,1.812,1.812,0,0,1-.133-.765V5.545a1.673,1.673,0,0,1,.145-.764A.59.59,0,0,1,7.706,4.5a.621.621,0,0,1,.605.275,1.669,1.669,0,0,1,.145.77v4.29a1.681,1.681,0,0,1-.145.765.616.616,0,0,1-.605.28m0,1.4a2.986,2.986,0,0,0,2.281-.742,3.141,3.141,0,0,0,.684-2.195V6.029a3.1,3.1,0,0,0-.684-2.178,3,3,0,0,0-2.281-.737,2.973,2.973,0,0,0-2.263.732,3.108,3.108,0,0,0-.677,2.183V9.34a3.154,3.154,0,0,0,.677,2.195,2.947,2.947,0,0,0,2.263.742" fill="#fff"/>
    </g>
  </g>
</svg>
