<svg xmlns="http://www.w3.org/2000/svg" xmlns:xlink="http://www.w3.org/1999/xlink" width="22.678" height="22.677" viewBox="0 0 22.678 22.677">
  <defs>
    <clipPath id="clip-path">
      <path id="Caminho_12843" data-name="Caminho 12843" d="M0,0H22.678V-22.677H0Z" fill="none"/>
    </clipPath>
  </defs>
  <g id="icone_ods7" transform="translate(0 22.677)">
    <g id="Grupo_12743" data-name="Grupo 12743" clip-path="url(#clip-path)">
      <g id="Grupo_12730" data-name="Grupo 12730" transform="translate(11.337 -17.798)">
        <path id="Caminho_12830" data-name="Caminho 12830" d="M0,0A6.515,6.515,0,0,0-6.515,6.515,6.515,6.515,0,0,0,0,13.031,6.515,6.515,0,0,0,6.515,6.515,6.515,6.515,0,0,0,0,0M-.482,2.574A.5.5,0,0,1,0,2.118a.493.493,0,0,1,.482.456V4.811A.491.491,0,0,1,0,5.263a.493.493,0,0,1-.485-.452ZM0,9.854A3.389,3.389,0,0,1-3.388,6.465,3.39,3.39,0,0,1-1.006,3.229V4.49A2.217,2.217,0,0,0-2.217,6.465,2.218,2.218,0,0,0,0,8.684,2.218,2.218,0,0,0,2.219,6.465,2.215,2.215,0,0,0,1,4.487V3.227A3.39,3.39,0,0,1,3.39,6.465,3.389,3.389,0,0,1,0,9.854" fill="#2b2e34"/>
      </g>
      <g id="Grupo_12731" data-name="Grupo 12731" transform="translate(3.859 -11.34)">
        <path id="Caminho_12831" data-name="Caminho 12831" d="M0,0A.546.546,0,0,0-.5-.535H-3.354a.548.548,0,0,0-.5.535.549.549,0,0,0,.5.537H-.5A.547.547,0,0,0,0,0" fill="#2b2e34"/>
      </g>
      <g id="Grupo_12732" data-name="Grupo 12732" transform="translate(22.678 -11.34)">
        <path id="Caminho_12832" data-name="Caminho 12832" d="M0,0A.546.546,0,0,0-.5-.535H-3.354a.547.547,0,0,0-.5.535.549.549,0,0,0,.5.537H-.5A.547.547,0,0,0,0,0" fill="#2b2e34"/>
      </g>
      <g id="Grupo_12733" data-name="Grupo 12733" transform="translate(11.34 -18.819)">
        <path id="Caminho_12833" data-name="Caminho 12833" d="M0,0A.545.545,0,0,0,.534-.5V-3.354A.546.546,0,0,0,0-3.858a.548.548,0,0,0-.537.5V-.5A.547.547,0,0,0,0,0" fill="#2b2e34"/>
      </g>
      <g id="Grupo_12734" data-name="Grupo 12734" transform="translate(11.34)">
        <path id="Caminho_12834" data-name="Caminho 12834" d="M0,0A.545.545,0,0,0,.534-.5V-3.354A.546.546,0,0,0,0-3.858a.549.549,0,0,0-.537.5V-.5A.547.547,0,0,0,0,0" fill="#2b2e34"/>
      </g>
      <g id="Grupo_12735" data-name="Grupo 12735" transform="translate(4.847 -15.055)">
        <path id="Caminho_12835" data-name="Caminho 12835" d="M0,0A.544.544,0,0,0-.169-.713L-2.645-2.13a.547.547,0,0,0-.7.213.549.549,0,0,0,.172.717L-.7.217A.546.546,0,0,0,0,0" fill="#2b2e34"/>
      </g>
      <g id="Grupo_12736" data-name="Grupo 12736" transform="translate(21.181 -5.707)">
        <path id="Caminho_12836" data-name="Caminho 12836" d="M0,0A.546.546,0,0,0-.169-.713L-2.645-2.13a.548.548,0,0,0-.7.214.548.548,0,0,0,.172.716L-.7.217A.546.546,0,0,0,0,0" fill="#2b2e34"/>
      </g>
      <g id="Grupo_12737" data-name="Grupo 12737" transform="translate(15.056 -17.83)">
        <path id="Caminho_12837" data-name="Caminho 12837" d="M0,0A.546.546,0,0,0,.713-.169L2.13-2.645a.548.548,0,0,0-.213-.7.549.549,0,0,0-.717.172L-.217-.7A.546.546,0,0,0,0,0" fill="#2b2e34"/>
      </g>
      <g id="Grupo_12738" data-name="Grupo 12738" transform="translate(5.708 -1.497)">
        <path id="Caminho_12838" data-name="Caminho 12838" d="M0,0A.545.545,0,0,0,.712-.169L2.13-2.645a.549.549,0,0,0-.214-.7.549.549,0,0,0-.716.171L-.217-.7A.546.546,0,0,0,0,0" fill="#2b2e34"/>
      </g>
      <g id="Grupo_12739" data-name="Grupo 12739" transform="translate(7.611 -17.824)">
        <path id="Caminho_12839" data-name="Caminho 12839" d="M0,0A.545.545,0,0,0,.214-.7L-1.208-3.174a.546.546,0,0,0-.715-.17.546.546,0,0,0-.214.7L-.715-.167A.546.546,0,0,0,0,0" fill="#2b2e34"/>
      </g>
      <g id="Grupo_12740" data-name="Grupo 12740" transform="translate(16.992 -1.51)">
        <path id="Caminho_12840" data-name="Caminho 12840" d="M0,0A.544.544,0,0,0,.214-.7L-1.208-3.174a.548.548,0,0,0-.715-.171.549.549,0,0,0-.214.706L-.715-.166A.546.546,0,0,0,0,0" fill="#2b2e34"/>
      </g>
      <g id="Grupo_12741" data-name="Grupo 12741" transform="translate(17.824 -15.067)">
        <path id="Caminho_12841" data-name="Caminho 12841" d="M0,0A.544.544,0,0,0,.7.214L3.173-1.208a.547.547,0,0,0,.172-.715.548.548,0,0,0-.7-.214L.167-.715A.545.545,0,0,0,0,0" fill="#2b2e34"/>
      </g>
      <g id="Grupo_12742" data-name="Grupo 12742" transform="translate(1.51 -5.685)">
        <path id="Caminho_12842" data-name="Caminho 12842" d="M0,0A.544.544,0,0,0,.7.214L3.173-1.209a.544.544,0,0,0,.171-.714.547.547,0,0,0-.7-.214L.166-.715A.546.546,0,0,0,0,0" fill="#2b2e34"/>
      </g>
    </g>
  </g>
</svg>
