<svg xmlns="http://www.w3.org/2000/svg" xmlns:xlink="http://www.w3.org/1999/xlink" width="27.795" height="14.173" viewBox="0 0 27.795 14.173">
  <defs>
    <clipPath id="clip-path">
      <path id="Caminho_12865" data-name="Caminho 12865" d="M0,0H27.8V-14.173H0Z" fill="none"/>
    </clipPath>
  </defs>
  <g id="icone_ods12" transform="translate(0 14.173)">
    <g id="Grupo_12768" data-name="Grupo 12768" clip-path="url(#clip-path)">
      <g id="Grupo_12767" data-name="Grupo 12767" transform="translate(25.379 -12.703)">
        <path id="Caminho_12864" data-name="Caminho 12864" d="M0,0A7.446,7.446,0,0,0-4.485-1.471a4.94,4.94,0,0,0-1.083.1l-.11.026A8.065,8.065,0,0,0-10.6,1.906l-.061.075a.273.273,0,0,0-.052.156.286.286,0,0,0,.036.137l.047.077q.514.858.853,1.492a.275.275,0,0,0,.444.062c.014-.019.029-.039.039-.054C-7.5,1.373-6.1,1.043-5.168.824L-5.053.8A2.7,2.7,0,0,1-4.484.749a5.268,5.268,0,0,1,3.105,1A4.694,4.694,0,0,1,.192,5.651c0,2.964-1.434,4.12-2.638,4.568a4.171,4.171,0,0,1-1.47.259,5.223,5.223,0,0,1-2.206-.5l-.086-.041c-1.035-.45-2.58-1.387-4.041-4.321-3-6.015-5.511-6.585-7.177-6.963l-.088-.019a5.013,5.013,0,0,0-1.073-.1A7.15,7.15,0,0,0-23-.006a6.811,6.811,0,0,0-2.381,5.645,6.635,6.635,0,0,0,1.385,4.443,6.632,6.632,0,0,0,5.255,2.5,8.1,8.1,0,0,0,1.522-.149,6.506,6.506,0,0,0,2.6-1.187l.876.79a.26.26,0,0,0,.355-.016.232.232,0,0,0,.064-.166l.677-4.175V7.627a.247.247,0,0,0-.082-.182.241.241,0,0,0-.175-.064h0L-16.971,8.5l-.078.013a.235.235,0,0,0-.129.075.252.252,0,0,0-.066.184.252.252,0,0,0,.083.173l.843.762a4,4,0,0,1-1.316.534,5.779,5.779,0,0,1-1.078.106,4.4,4.4,0,0,1-3.483-1.576l-.023-.031a4.471,4.471,0,0,1-.937-3.105,4.724,4.724,0,0,1,1.544-3.908,5.109,5.109,0,0,1,3.029-.98A2.905,2.905,0,0,1-18.006.8l.089.021c1.33.3,3.151.713,5.676,5.784a10.607,10.607,0,0,0,5.107,5.352,7.521,7.521,0,0,0,3.22.747,6.4,6.4,0,0,0,2.246-.4c1.228-.458,4.084-2.024,4.084-6.653A6.793,6.793,0,0,0,0,0" fill="#2b2e34"/>
      </g>
    </g>
  </g>
</svg>
