<svg id="icone_ods_2" xmlns="http://www.w3.org/2000/svg" xmlns:xlink="http://www.w3.org/1999/xlink" width="38.268" height="38.268" viewBox="0 0 38.268 38.268">
  <defs>
    <clipPath id="clip-path">
      <rect id="Ret창ngulo_12" data-name="Ret창ngulo 12" width="38.268" height="38.268" transform="translate(0 0)" fill="none"/>
    </clipPath>
  </defs>
  <rect id="Ret창ngulo_11" data-name="Ret창ngulo 11" width="38.268" height="38.268" transform="translate(0 0)" fill="#d99327"/>
  <g id="Grupo_300" data-name="Grupo 300">
    <g id="Grupo_299" data-name="Grupo 299" clip-path="url(#clip-path)">
      <path id="Caminho_290" data-name="Caminho 290" d="M15.625,34.229V34.8l0,.013,0,.013a.266.266,0,0,0,.262.255l.005,0,.007,0h6.663l.006,0,.006,0a.267.267,0,0,0,.262-.267h0v-.645a10.376,10.376,0,0,0,7.179-7.974l0-.022a.253.253,0,0,0,0-.038.268.268,0,0,0-.269-.269H8.517a.27.27,0,0,0-.271.269l.015.121a10.408,10.408,0,0,0,7.364,7.977" fill="#fff"/>
      <path id="Caminho_291" data-name="Caminho 291" d="M22.83,16.8c-.088.124-2.139,3.078.046,5.467a2.392,2.392,0,0,1,.629,2.717h1.4a3.446,3.446,0,0,0-.971-3.418c-1.61-1.76.021-4.139.045-4.176a.525.525,0,0,0-.227-.784.745.745,0,0,0-.923.194" fill="#fff"/>
      <path id="Caminho_292" data-name="Caminho 292" d="M19.28,24.981h1.4a3.447,3.447,0,0,0-.972-3.418c-1.611-1.76.019-4.138.045-4.177a.525.525,0,0,0-.228-.783.744.744,0,0,0-.922.194c-.088.124-2.142,3.079.046,5.467a2.394,2.394,0,0,1,.629,2.717" fill="#fff"/>
      <path id="Caminho_293" data-name="Caminho 293" d="M14.38,16.8c-.089.124-2.14,3.078.045,5.467a2.391,2.391,0,0,1,.63,2.717h1.4a3.449,3.449,0,0,0-.973-3.418c-1.61-1.76.021-4.139.046-4.177A.525.525,0,0,0,15.3,16.6a.741.741,0,0,0-.921.194" fill="#fff"/>
      <path id="Caminho_294" data-name="Caminho 294" d="M28.143,12.624h5.118V11.183H30.394l1.79-2.431q.509-.67.751-1.034a4.23,4.23,0,0,0,.417-.814,2.618,2.618,0,0,0,.175-.957,2.222,2.222,0,0,0-.683-1.738,2.861,2.861,0,0,0-1.979-.616,2.652,2.652,0,0,0-2.075.748,2.888,2.888,0,0,0-.671,2v.473h1.96v-.44a1.854,1.854,0,0,1,.181-.9.672.672,0,0,1,.642-.324.579.579,0,0,1,.466.192.863.863,0,0,1,.163.567,1.911,1.911,0,0,1-.218.885,8.261,8.261,0,0,1-.677,1.051l-.146.2-2.347,3.278Zm-6.486.132a2.914,2.914,0,0,0,1.344-.3,2.247,2.247,0,0,0,.9-.808,2.1,2.1,0,0,0,.321-1.139,2.7,2.7,0,0,0-.4-1.485A4.754,4.754,0,0,0,22.7,7.839l-.811-.649a3.959,3.959,0,0,1-.72-.7,1.256,1.256,0,0,1-.223-.759.811.811,0,0,1,.151-.479.494.494,0,0,1,.429-.214.478.478,0,0,1,.5.3,3.424,3.424,0,0,1,.14,1l1.863-.209a3.322,3.322,0,0,0-.538-1.793A2.14,2.14,0,0,0,21.6,3.593a3.074,3.074,0,0,0-2.015.605,2.113,2.113,0,0,0-.732,1.727,2.361,2.361,0,0,0,.345,1.292,4.081,4.081,0,0,0,.974,1.029l.847.671a3.891,3.891,0,0,1,.817.8,1.523,1.523,0,0,1,.26.891q0,.649-.544.649a.688.688,0,0,1-.636-.369,2.649,2.649,0,0,1-.224-1.215l-1.851.253a3.068,3.068,0,0,0,.732,2.15,2.86,2.86,0,0,0,2.087.677m-7.526-1.5V5.089h.327a1.666,1.666,0,0,1,.7.11.528.528,0,0,1,.29.335,2.469,2.469,0,0,1,.067.655v3.883a3.022,3.022,0,0,1-.061.7.563.563,0,0,1-.284.363,1.46,1.46,0,0,1-.7.127Zm-2.166,1.364H14.47a5.224,5.224,0,0,0,1.966-.3,1.86,1.86,0,0,0,1-.913,3.857,3.857,0,0,0,.3-1.65V6.53a3.792,3.792,0,0,0-.3-1.634A1.821,1.821,0,0,0,16.43,4a5.492,5.492,0,0,0-1.984-.286H11.965ZM7.682,11.359a.588.588,0,0,1-.593-.281,1.8,1.8,0,0,1-.133-.764V6.024A1.678,1.678,0,0,1,7.1,5.259a.592.592,0,0,1,.581-.28.621.621,0,0,1,.6.275,1.669,1.669,0,0,1,.145.77v4.29a1.673,1.673,0,0,1-.145.764.616.616,0,0,1-.6.281m0,1.4a2.986,2.986,0,0,0,2.281-.743,3.138,3.138,0,0,0,.683-2.194V6.508A3.1,3.1,0,0,0,9.963,4.33a3,3,0,0,0-2.281-.737,2.977,2.977,0,0,0-2.263.731,3.112,3.112,0,0,0-.677,2.184V9.819a3.152,3.152,0,0,0,.677,2.194,2.947,2.947,0,0,0,2.263.743" fill="#fff"/>
    </g>
  </g>
</svg>
