<svg id="icone_ods_12" xmlns="http://www.w3.org/2000/svg" xmlns:xlink="http://www.w3.org/1999/xlink" width="38.268" height="38.27" viewBox="0 0 38.268 38.27">
  <defs>
    <clipPath id="clip-path">
      <rect id="Ret창ngulo_25" data-name="Ret창ngulo 25" width="38.268" height="38.27" transform="translate(0 0)" fill="none"/>
    </clipPath>
  </defs>
  <rect id="Ret창ngulo_24" data-name="Ret창ngulo 24" width="38.268" height="38.27" transform="translate(0 0)" fill="#b2761d"/>
  <g id="Grupo_318" data-name="Grupo 318">
    <g id="Grupo_317" data-name="Grupo 317" clip-path="url(#clip-path)">
      <path id="Caminho_321" data-name="Caminho 321" d="M30.978,20.912A7.685,7.685,0,0,0,26.351,19.4a5.1,5.1,0,0,0-1.117.107l-.114.027a8.317,8.317,0,0,0-5.076,3.349l-.063.078a.279.279,0,0,0-.053.161.291.291,0,0,0,.037.141l.049.079q.53.886.88,1.54a.283.283,0,0,0,.458.064c.014-.02.03-.041.04-.057,1.848-2.556,3.3-2.9,4.255-3.122l.119-.028a2.769,2.769,0,0,1,.587-.05,5.436,5.436,0,0,1,3.2,1.029,4.837,4.837,0,0,1,1.62,4.028c0,3.058-1.479,4.251-2.721,4.713a4.315,4.315,0,0,1-1.517.267,5.385,5.385,0,0,1-2.275-.519l-.089-.043c-1.068-.464-2.662-1.43-4.169-4.456C17.315,20.5,14.72,19.909,13,19.52l-.09-.02a5.134,5.134,0,0,0-1.107-.1,7.372,7.372,0,0,0-4.55,1.506A7.025,7.025,0,0,0,4.8,26.729a6.743,6.743,0,0,0,6.85,7.159,8.363,8.363,0,0,0,1.569-.154A6.678,6.678,0,0,0,15.9,32.51l.9.815a.269.269,0,0,0,.367-.017.238.238,0,0,0,.065-.171l.7-4.307v-.05a.256.256,0,0,0-.265-.254h0l-4.192,1.159-.08.013a.24.24,0,0,0-.133.077.26.26,0,0,0,.018.369l.868.785a4.1,4.1,0,0,1-1.357.552,5.965,5.965,0,0,1-1.112.109,4.538,4.538,0,0,1-3.593-1.625l-.023-.033a4.608,4.608,0,0,1-.967-3.2A4.873,4.873,0,0,1,8.684,22.7a5.27,5.27,0,0,1,3.125-1.011,2.912,2.912,0,0,1,.594.05l.093.021c1.372.31,3.25.735,5.855,5.967a10.936,10.936,0,0,0,5.268,5.521,7.773,7.773,0,0,0,3.321.77,6.635,6.635,0,0,0,2.317-.411c1.267-.473,4.213-2.088,4.213-6.864a7.008,7.008,0,0,0-2.492-5.829" fill="#fff"/>
      <path id="Caminho_322" data-name="Caminho 322" d="M30.5,12.339h5.118V10.9H32.746l1.791-2.431q.509-.67.75-1.034a4.177,4.177,0,0,0,.418-.814,2.618,2.618,0,0,0,.175-.957A2.222,2.222,0,0,0,35.2,3.924a2.861,2.861,0,0,0-1.979-.616,2.651,2.651,0,0,0-2.075.748,2.883,2.883,0,0,0-.671,2v.473h1.96v-.44a1.847,1.847,0,0,1,.181-.9.671.671,0,0,1,.642-.325.575.575,0,0,1,.465.193.853.853,0,0,1,.164.566,1.918,1.918,0,0,1-.218.886,8.245,8.245,0,0,1-.678,1.05l-.145.2L30.5,11.041Zm-3.594,0h2.021V3.429H27.338a8.706,8.706,0,0,1-1.779.99V5.783A3.665,3.665,0,0,1,25.9,5.64c.137-.051.238-.088.3-.11q.568-.221.7-.286Zm-7.6.132a2.914,2.914,0,0,0,1.344-.3,2.24,2.24,0,0,0,.9-.808,2.1,2.1,0,0,0,.321-1.139,2.7,2.7,0,0,0-.4-1.485,4.754,4.754,0,0,0-1.125-1.188l-.811-.649a3.959,3.959,0,0,1-.72-.7,1.256,1.256,0,0,1-.223-.759.806.806,0,0,1,.151-.478.5.5,0,0,1,.429-.215.48.48,0,0,1,.5.3,3.453,3.453,0,0,1,.139.995l1.863-.209a3.322,3.322,0,0,0-.538-1.793,2.14,2.14,0,0,0-1.894-.737,3.074,3.074,0,0,0-2.015.605A2.113,2.113,0,0,0,16.5,5.64a2.365,2.365,0,0,0,.345,1.293,4.078,4.078,0,0,0,.974,1.028l.847.671a3.891,3.891,0,0,1,.817.8,1.523,1.523,0,0,1,.26.891q0,.649-.544.649a.688.688,0,0,1-.636-.369,2.649,2.649,0,0,1-.224-1.215l-1.851.253a3.073,3.073,0,0,0,.732,2.151,2.86,2.86,0,0,0,2.087.676m-7.526-1.5V4.8H12.1a1.666,1.666,0,0,1,.7.11.528.528,0,0,1,.29.336,2.455,2.455,0,0,1,.067.654V9.787a3.038,3.038,0,0,1-.061.7.568.568,0,0,1-.284.363,1.474,1.474,0,0,1-.7.126ZM9.611,12.339h2.505a5.224,5.224,0,0,0,1.966-.3,1.86,1.86,0,0,0,1.005-.913,3.857,3.857,0,0,0,.3-1.65V6.245a3.784,3.784,0,0,0-.3-1.633,1.822,1.822,0,0,0-1.011-.9,5.492,5.492,0,0,0-1.984-.286H9.611ZM5.328,11.074a.588.588,0,0,1-.593-.28,1.812,1.812,0,0,1-.133-.765V5.739a1.673,1.673,0,0,1,.145-.764.59.59,0,0,1,.581-.281.621.621,0,0,1,.605.275,1.669,1.669,0,0,1,.145.77v4.29a1.681,1.681,0,0,1-.145.765.616.616,0,0,1-.605.28m0,1.4a2.986,2.986,0,0,0,2.281-.742,3.141,3.141,0,0,0,.684-2.195V6.223a3.1,3.1,0,0,0-.684-2.178,3,3,0,0,0-2.281-.737,2.973,2.973,0,0,0-2.263.732,3.108,3.108,0,0,0-.677,2.183V9.534a3.154,3.154,0,0,0,.677,2.195,2.947,2.947,0,0,0,2.263.742" fill="#fff"/>
    </g>
  </g>
</svg>
