<svg xmlns="http://www.w3.org/2000/svg" xmlns:xlink="http://www.w3.org/1999/xlink" width="16.808" height="22.677" viewBox="0 0 16.808 22.677">
  <defs>
    <clipPath id="clip-path">
      <path id="Caminho_12827" data-name="Caminho 12827" d="M0,0H16.808V-22.677H0Z" fill="none"/>
    </clipPath>
  </defs>
  <g id="icone_ods5" transform="translate(0 22.677)">
    <g id="Grupo_12725" data-name="Grupo 12725" clip-path="url(#clip-path)">
      <g id="Grupo_12722" data-name="Grupo 12722" transform="translate(16.739 -22.677)">
        <path id="Caminho_12824" data-name="Caminho 12824" d="M0,0H-5.3a.068.068,0,0,0-.067.067v1.76a.068.068,0,0,0,.067.068h2.108L-5.528,4.236A6.9,6.9,0,0,0-9.8,2.755a6.943,6.943,0,0,0-6.935,6.936,6.944,6.944,0,0,0,6.04,6.875v2.028h-2.089a.067.067,0,0,0-.068.067v1.886a.067.067,0,0,0,.068.067H-10.7v2a.067.067,0,0,0,.067.067h1.885a.068.068,0,0,0,.069-.067v-2H-6.59a.067.067,0,0,0,.067-.067V18.661a.067.067,0,0,0-.067-.067H-8.678V16.533A6.944,6.944,0,0,0-2.869,9.691,6.892,6.892,0,0,0-4.135,5.7l2.307-2.308V5.363a.069.069,0,0,0,.069.067H0a.068.068,0,0,0,.069-.067V.067A.068.068,0,0,0,0,0M-9.8,14.8a5.11,5.11,0,0,1-5.1-5.1A5.11,5.11,0,0,1-9.8,4.586,5.111,5.111,0,0,1-4.7,9.691,5.111,5.111,0,0,1-9.8,14.8" fill="#2b2e34"/>
      </g>
      <g id="Grupo_12723" data-name="Grupo 12723" transform="translate(9.968 -15.082)">
        <path id="Caminho_12825" data-name="Caminho 12825" d="M0,0H-6.192c.048,0,.018.028.018.06v1.5a.064.064,0,0,0,.067.061H.085A.065.065,0,0,0,.154,1.56V.06A.065.065,0,0,0,.085,0" fill="#2b2e34"/>
      </g>
      <g id="Grupo_12724" data-name="Grupo 12724" transform="translate(10.054 -12.406)">
        <path id="Caminho_12826" data-name="Caminho 12826" d="M0,0H-6.192a.066.066,0,0,0-.067.063v1.5a.064.064,0,0,0,.067.061H0a.065.065,0,0,0,.069-.061V.063A.066.066,0,0,0,0,0" fill="#2b2e34"/>
      </g>
    </g>
  </g>
</svg>
