<svg xmlns="http://www.w3.org/2000/svg" xmlns:xlink="http://www.w3.org/1999/xlink" width="27.798" height="14.173" viewBox="0 0 27.798 14.173">
  <defs>
    <clipPath id="clip-path">
      <path id="Caminho_12867" data-name="Caminho 12867" d="M0,0H27.8V-14.173H0Z" fill="none"/>
    </clipPath>
  </defs>
  <g id="icone_ods13" transform="translate(0 14.173)">
    <g id="Grupo_12771" data-name="Grupo 12771" clip-path="url(#clip-path)">
      <g id="Grupo_12770" data-name="Grupo 12770" transform="translate(27.69 -7.242)">
        <path id="Caminho_12866" data-name="Caminho 12866" d="M0,0A17.054,17.054,0,0,0-13.79-6.932,17.057,17.057,0,0,0-27.582,0c-.042.059-.079.111-.108.154.029.045.066.1.108.156A17.06,17.06,0,0,0-13.79,7.242,17.057,17.057,0,0,0,0,.31C.043.25.079.2.107.154.079.111.043.059,0,0M-18.433-3.426c.075-.11.324-.425.354-.465a.449.449,0,0,1,.281-.115c.088-.017.206.033.22.1a.773.773,0,0,1-.078.369.963.963,0,0,1-.614.277c-.136-.021-.189-.126-.163-.165m-.3.591c.014-.016.026-.029.03-.035a.771.771,0,0,1,.458-.167c.144-.025.336.047.36.143s-.362.271-.433.336c-.2.185-.513.561-.7.6a.217.217,0,0,1-.15-.016,5.833,5.833,0,0,1,.432-.862m3.115,6.39a1.649,1.649,0,0,1-.356.743,1.206,1.206,0,0,1-.791.3c-.263-.02-.3-.724-.3-1.086,0-.125-.177.246-.269-.508-.059-.482-.369.051-.391-.271s-.176-.257-.339-.458-.363.02-.59.122-.132.152-.452.051a.167.167,0,0,1-.02-.008A5.765,5.765,0,0,1-19.58.187c0-.2.011-.389.029-.579a.338.338,0,0,1,.036-.054c.307-.363.3-.448.3-.448l.339-.117a5.625,5.625,0,0,1,.95.237c.336.126.865.411,1.173.286.222-.092.4-.214.376-.4-.025-.232-.208-.288-.43-.131-.082.057-.256-.351-.393-.33s.169.48.054.5-.35-.478-.39-.559-.22-.28-.381-.128c-.343.325-.9.305-1.009.389-.34.254-.43-.084-.422-.289.014-.047.028-.1.043-.141a.694.694,0,0,1,.645-.072c.15.1.258-.026.316-.087a.205.205,0,0,0,0-.235c-.038-.081.075-.14.153-.16a4.055,4.055,0,0,0,.439-.263,1.456,1.456,0,0,1,.881,0,.467.467,0,0,0,.579-.117,1.554,1.554,0,0,1,.42-.351c.084-.039-.207-.31-.446-.014s-.362.321-.474.321-.782-.166-.865-.378.209-.37.456-.489a6.109,6.109,0,0,1,1.1-.156c.351-.077.8-.253,1.027-.1s-.945.418-.56.625c.136.076.755-.356.967-.466.5-.257-.484-.342-.356-.865.144-.591-1.205-.362-1.877-.312a5.767,5.767,0,0,1,3.122-.914A5.8,5.8,0,0,1-8.143-1.169.913.913,0,0,1-8.171-.9a.379.379,0,0,1-.679.052c-.059-.085-.307-.32-.3.082s.391.443.02.684a1.434,1.434,0,0,1-.609.244.786.786,0,0,0-.3.7c.041.221.57.826.177.8a2.271,2.271,0,0,1-.9-.784C-10.876.553-11.008.24-11.1,0a.347.347,0,0,0-.547-.161c-.206.142.058.283-.091.585s-.253.571-.471.322C-12.776.095-13.6.415-13.728-.307c-.069-.391-.406-.354-.688-.575s-.441-.34-.488-.181c-.042.14.886.876.952,1.065.1.28-.278.527-.553.593s-.4-.154-.666-.436-.388-.482-.407-.261a1.27,1.27,0,0,0,.532.963c.235.148.5.216.421.457s0,.105-.264.365a.708.708,0,0,0-.294.706c.019.362-.075.383-.132.684s-.187.041-.3.482M-9.4,1.243c.194-.016.487.255.372.358a.518.518,0,0,1-.552-.049c-.146-.114.092-.3.18-.309m-.247-.178C-9.7,1.042-9.76.982-9.807.84A.13.13,0,0,1-9.618.674a.562.562,0,0,1,.274.332c0,.095-.234.084-.3.059m-2.559-.01A.522.522,0,0,1-12.755,1c-.146-.113.092-.3.179-.308.2-.018.489.255.375.358m-2.368,1.151c-.08.131-.3,1.106-.444.992s.059-1.131.1-1.208c.228-.42.724-.4.342.216m.788,3.78a5.8,5.8,0,0,1-1.629-.234.239.239,0,0,1-.071-.283,1.294,1.294,0,0,1,1.136-.692c.94-.092,2.176.61,2.372.5s.595-.63,1.178-.608a.918.918,0,0,1,.529.132,5.775,5.775,0,0,1-3.515,1.188M-9.691,4.3a1.053,1.053,0,0,1-.182-.068c-.317-.161-.279.1-.434.04s.175-.419-.292-.114-.34-.047-.543-.563a1.052,1.052,0,0,1,.6-1.239,7.314,7.314,0,0,1,1.053-.278c.7-.174.843-.587.969-.335.024.047.047.091.068.134a.9.9,0,0,1,.09.377A5.822,5.822,0,0,1-9.691,4.3M-8.1,1.37C-8.258,1.328-8.91.428-8.4-.165c.086-.1-.173-.383-.1-.389a.471.471,0,0,1,.5.405c.006.11.011.223.011.336A5.839,5.839,0,0,1-8.1,1.37" fill="#2b2e34"/>
      </g>
    </g>
  </g>
</svg>
