<svg xmlns="http://www.w3.org/2000/svg" xmlns:xlink="http://www.w3.org/1999/xlink" width="28.366" height="19.843" viewBox="0 0 28.366 19.843">
  <defs>
    <clipPath id="clip-path">
      <path id="Caminho_12817" data-name="Caminho 12817" d="M0,0H28.366V-19.843H0Z" fill="none"/>
    </clipPath>
  </defs>
  <g id="icone_ods3" transform="translate(0 19.843)">
    <g id="Grupo_12713" data-name="Grupo 12713" clip-path="url(#clip-path)">
      <g id="Grupo_12711" data-name="Grupo 12711" transform="translate(28.366 -9.345)">
        <path id="Caminho_12815" data-name="Caminho 12815" d="M0,0A1.988,1.988,0,0,0-1.921-2.156,2.975,2.975,0,0,0-3.576-1.132c-.379-.39-1.03-1.025-1.609-1.025A2.024,2.024,0,0,0-7.153,0a2.182,2.182,0,0,0,.614,1.525l2.966,2.971L-.612,1.527l0,0A2.185,2.185,0,0,0,0,0" fill="#2b2e34"/>
      </g>
      <g id="Grupo_12712" data-name="Grupo 12712" transform="translate(15.74)">
        <path id="Caminho_12816" data-name="Caminho 12816" d="M0,0H-.03a.486.486,0,0,1-.45-.4L-1.986-9.178-4.268-4.947a.487.487,0,0,1-.514.248.487.487,0,0,1-.4-.41l-.969-6.771L-7.92-7.9a.486.486,0,0,1-.445.289h-6.888A.487.487,0,0,1-15.74-8.1a.487.487,0,0,1,.487-.487h6.572L-6.35-13.82a.487.487,0,0,1,.512-.284.487.487,0,0,1,.415.413l1,6.981,2.25-4.172a.486.486,0,0,1,.508-.249.485.485,0,0,1,.4.4L.13-2.608,5.214-19.5a.488.488,0,0,1,.428-.345.487.487,0,0,1,.477.274l2.675,5.546a.487.487,0,0,1-.227.65.487.487,0,0,1-.65-.227L5.786-18.016.466-.346A.488.488,0,0,1,0,0" fill="#2b2e34"/>
      </g>
    </g>
  </g>
</svg>
