<svg id="icone_ods_13" xmlns="http://www.w3.org/2000/svg" xmlns:xlink="http://www.w3.org/1999/xlink" width="38.268" height="38.27" viewBox="0 0 38.268 38.27">
  <defs>
    <clipPath id="clip-path">
      <rect id="Ret창ngulo_23" data-name="Ret창ngulo 23" width="38.268" height="38.27" transform="translate(0 0)" fill="none"/>
    </clipPath>
  </defs>
  <rect id="Ret창ngulo_22" data-name="Ret창ngulo 22" width="38.268" height="38.27" transform="translate(0 0)" fill="#3b6e34"/>
  <g id="Grupo_315" data-name="Grupo 315">
    <g id="Grupo_314" data-name="Grupo 314" clip-path="url(#clip-path)">
      <path id="Caminho_319" data-name="Caminho 319" d="M25.572,27.112c-.176-.048-.912-1.067-.331-1.737.1-.111-.195-.435-.115-.441a.533.533,0,0,1,.572.458c.007.125.011.252.011.38a6.649,6.649,0,0,1-.137,1.34m-1.8,3.313a1.18,1.18,0,0,1-.2-.076c-.358-.183-.316.109-.492.045s.2-.475-.33-.129-.385-.054-.615-.638a1.19,1.19,0,0,1,.68-1.4A8.546,8.546,0,0,1,24,27.91c.788-.2.955-.664,1.1-.379.027.053.052.1.076.152a1.024,1.024,0,0,1,.1.427,6.584,6.584,0,0,1-1.5,2.315m-4.628,1.91a6.559,6.559,0,0,1-1.844-.264.272.272,0,0,1-.08-.321,1.465,1.465,0,0,1,1.285-.783c1.065-.1,2.463.691,2.685.563s.673-.713,1.333-.688a1.03,1.03,0,0,1,.6.149,6.53,6.53,0,0,1-3.977,1.344m-.892-4.277c-.091.147-.337,1.251-.5,1.123s.067-1.28.115-1.368c.258-.475.82-.452.387.245m2.68-1.3a.594.594,0,0,1-.628-.057c-.164-.128.1-.341.2-.349.22-.019.553.289.424.406m2.9.011c-.07-.026-.133-.093-.187-.254a.148.148,0,0,1,.215-.189.636.636,0,0,1,.309.377c0,.107-.264.094-.337.066m.279.2c.221-.018.552.288.422.4a.586.586,0,0,1-.625-.056c-.166-.129.1-.341.2-.349m-7.04,2.617a1.852,1.852,0,0,1-.4.84,1.364,1.364,0,0,1-.9.343c-.3-.023-.34-.819-.34-1.229,0-.141-.2.278-.3-.574-.068-.546-.418.057-.443-.308s-.2-.29-.383-.517-.412.022-.667.137-.151.172-.512.058l-.023-.009a6.541,6.541,0,0,1-.516-2.554c0-.221.013-.439.032-.655a.649.649,0,0,1,.041-.061c.347-.41.34-.507.34-.507l.383-.132a6.393,6.393,0,0,1,1.076.268c.379.142.979.465,1.328.323.252-.1.449-.241.425-.451-.028-.263-.236-.326-.486-.148-.094.065-.291-.4-.445-.373s.192.542.06.564-.4-.541-.441-.633-.248-.317-.431-.144c-.388.368-1.017.345-1.142.44-.385.287-.486-.1-.477-.328.015-.053.031-.106.047-.159a.789.789,0,0,1,.731-.081c.17.113.292-.029.358-.1a.236.236,0,0,0,0-.267c-.042-.091.086-.158.173-.181a4.66,4.66,0,0,0,.5-.3,1.633,1.633,0,0,1,1,0,.529.529,0,0,0,.656-.132,1.728,1.728,0,0,1,.476-.4c.094-.045-.234-.352-.505-.017s-.409.364-.537.364-.885-.189-.979-.428.237-.418.517-.554a6.933,6.933,0,0,1,1.24-.176c.4-.087.907-.286,1.163-.112s-1.07.473-.635.708c.155.085.854-.4,1.094-.528.566-.291-.546-.387-.4-.979.163-.669-1.362-.41-2.123-.353a6.561,6.561,0,0,1,9.915,4,1.117,1.117,0,0,1-.032.3.43.43,0,0,1-.77.059c-.066-.1-.348-.361-.337.093s.441.5.021.775a1.6,1.6,0,0,1-.688.275.889.889,0,0,0-.336.788c.048.251.645.934.2.906a2.556,2.556,0,0,1-1.017-.887c-.136-.363-.285-.718-.392-.991a.391.391,0,0,0-.618-.182c-.234.16.065.319-.1.661s-.288.646-.534.365c-.642-.734-1.572-.372-1.718-1.189-.078-.443-.459-.4-.779-.651s-.5-.385-.552-.2c-.048.159,1,.992,1.077,1.2.112.317-.313.6-.626.672s-.448-.175-.753-.494-.439-.545-.46-.3a1.432,1.432,0,0,0,.6,1.089c.264.168.563.244.476.518s0,.118-.3.412a.8.8,0,0,0-.333.8c.021.41-.084.433-.149.774s-.212.046-.341.546m-3.524-7.233c.014-.018.028-.032.034-.039a.88.88,0,0,1,.517-.19c.164-.028.38.055.407.163s-.409.306-.489.38c-.227.209-.581.635-.789.68a.246.246,0,0,1-.169-.018,6.223,6.223,0,0,1,.489-.976m.336-.669c.084-.124.366-.48.4-.525a.5.5,0,0,1,.319-.131c.1-.019.233.037.249.112a.845.845,0,0,1-.089.417,1.08,1.08,0,0,1-.7.314c-.153-.023-.214-.142-.184-.187m20.862,3.878a19.449,19.449,0,0,0-31.216,0c-.048.067-.089.125-.122.175.033.051.074.108.122.176a19.449,19.449,0,0,0,31.216,0c.049-.068.088-.125.121-.176-.033-.05-.072-.108-.121-.175" fill="#fff"/>
      <path id="Caminho_320" data-name="Caminho 320" d="M33.176,12.471a2.566,2.566,0,0,0,2.045-.743,3.019,3.019,0,0,0,.641-2.04A2.506,2.506,0,0,0,35.541,8.3a1.656,1.656,0,0,0-.877-.671,1.428,1.428,0,0,0,.859-.666,2.357,2.357,0,0,0,.339-1.292,2.239,2.239,0,0,0-.714-1.793,2.96,2.96,0,0,0-2-.616,2.815,2.815,0,0,0-1.966.643,2.365,2.365,0,0,0-.708,1.843v.539H32.5V5.827a1.9,1.9,0,0,1,.139-.819.52.52,0,0,1,.514-.281.594.594,0,0,1,.557.264,1.608,1.608,0,0,1,.157.8,1.693,1.693,0,0,1-.23,1.007,1.008,1.008,0,0,1-.847.3h-.326V8.368h.375a.929.929,0,0,1,.811.336,1.888,1.888,0,0,1,.217,1.028,2.254,2.254,0,0,1-.133.913.522.522,0,0,1-.52.275.58.58,0,0,1-.563-.281,2.183,2.183,0,0,1-.151-.962V9.358H30.477v.319a3.106,3.106,0,0,0,.617,2.068,2.605,2.605,0,0,0,2.082.726m-6.256-.165h2.021V3.4H27.356a8.706,8.706,0,0,1-1.779.99V5.75a3.665,3.665,0,0,1,.339-.143c.137-.051.238-.088.3-.11q.568-.221.7-.286Zm-7.6.132a2.914,2.914,0,0,0,1.344-.3,2.24,2.24,0,0,0,.9-.808,2.1,2.1,0,0,0,.321-1.139,2.7,2.7,0,0,0-.4-1.485,4.754,4.754,0,0,0-1.125-1.188l-.811-.649a3.959,3.959,0,0,1-.72-.7,1.256,1.256,0,0,1-.223-.759.811.811,0,0,1,.151-.479.5.5,0,0,1,.429-.214.478.478,0,0,1,.5.3,3.425,3.425,0,0,1,.14,1L21.693,5.8a3.322,3.322,0,0,0-.538-1.793,2.14,2.14,0,0,0-1.894-.737,3.074,3.074,0,0,0-2.015.605,2.113,2.113,0,0,0-.732,1.727A2.367,2.367,0,0,0,16.859,6.9a4.1,4.1,0,0,0,.974,1.028l.847.671a3.891,3.891,0,0,1,.817.8,1.523,1.523,0,0,1,.26.891q0,.649-.544.649a.688.688,0,0,1-.636-.369,2.649,2.649,0,0,1-.224-1.215L16.5,9.611a3.073,3.073,0,0,0,.732,2.151,2.864,2.864,0,0,0,2.087.676m-7.526-1.5V4.771h.327a1.666,1.666,0,0,1,.7.11.528.528,0,0,1,.29.336,2.455,2.455,0,0,1,.067.654V9.754a3.022,3.022,0,0,1-.061.7.567.567,0,0,1-.284.364,1.474,1.474,0,0,1-.7.126ZM9.629,12.306h2.505a5.224,5.224,0,0,0,1.966-.3,1.86,1.86,0,0,0,1-.913,3.857,3.857,0,0,0,.3-1.65V6.212a3.784,3.784,0,0,0-.3-1.633,1.819,1.819,0,0,0-1.011-.9A5.492,5.492,0,0,0,12.11,3.4H9.629ZM5.346,11.041a.588.588,0,0,1-.593-.281A1.8,1.8,0,0,1,4.62,10V5.706a1.678,1.678,0,0,1,.145-.765.592.592,0,0,1,.581-.28.621.621,0,0,1,.605.275,1.669,1.669,0,0,1,.145.77V10a1.673,1.673,0,0,1-.145.764.617.617,0,0,1-.605.281m0,1.4a2.982,2.982,0,0,0,2.281-.743A3.138,3.138,0,0,0,8.31,9.5V6.19a3.1,3.1,0,0,0-.683-2.178,3,3,0,0,0-2.281-.737,2.977,2.977,0,0,0-2.263.731A3.112,3.112,0,0,0,2.406,6.19V9.5a3.152,3.152,0,0,0,.677,2.194,2.943,2.943,0,0,0,2.263.743" fill="#fff"/>
    </g>
  </g>
</svg>
