<svg xmlns="http://www.w3.org/2000/svg" xmlns:xlink="http://www.w3.org/1999/xlink" width="20.268" height="19.843" viewBox="0 0 20.268 19.843">
  <defs>
    <clipPath id="clip-path">
      <path id="Caminho_12892" data-name="Caminho 12892" d="M0,0H20.268V-19.843H0Z" fill="none"/>
    </clipPath>
  </defs>
  <g id="icone_ods17" transform="translate(0 19.843)">
    <g id="Grupo_12800" data-name="Grupo 12800" clip-path="url(#clip-path)">
      <g id="Grupo_12799" data-name="Grupo 12799" transform="translate(20.268 -10.983)">
        <path id="Caminho_12891" data-name="Caminho 12891" d="M0,0A5.324,5.324,0,0,0-5.122-5.313a5.324,5.324,0,0,0-5.013-3.546,5.327,5.327,0,0,0-5.013,3.546A5.322,5.322,0,0,0-20.268,0a5.307,5.307,0,0,0,2.051,4.191,5.328,5.328,0,0,0-.21,1.476,5.323,5.323,0,0,0,5.318,5.316,5.283,5.283,0,0,0,3-.931,5.29,5.29,0,0,0,2.95.9A5.323,5.323,0,0,0-1.842,5.632a5.274,5.274,0,0,0-.2-1.447A5.308,5.308,0,0,0,0,0M-5.888-3.542a4.25,4.25,0,0,1-3.62,4.2A4.272,4.272,0,0,1-9.563,0,4.249,4.249,0,0,1-5.944-4.2a4.129,4.129,0,0,1,.056.653M-10.115,8.673A4.227,4.227,0,0,1-11.4,5.632a4.233,4.233,0,0,1,1.251-3.007,4.23,4.23,0,0,1,1.29,3.042,4.229,4.229,0,0,1-1.251,3.006M-14.325-4.2A4.25,4.25,0,0,1-10.7,0a4.149,4.149,0,0,1-.056.653,4.25,4.25,0,0,1-3.62-4.2,4.129,4.129,0,0,1,.056-.653M-11.159,1.9a4.246,4.246,0,0,1-3.793,2.347,4.213,4.213,0,0,1-1.95-.479,4.246,4.246,0,0,1,3.793-2.346,4.215,4.215,0,0,1,1.95.478m2.036-.028a4.208,4.208,0,0,1,1.964-.486A4.248,4.248,0,0,1-3.352,3.761a4.229,4.229,0,0,1-1.965.485A4.247,4.247,0,0,1-9.123,1.871m-1.012-9.66A4.253,4.253,0,0,1-6.242-5.235a5.337,5.337,0,0,0-3.893,2.987,5.328,5.328,0,0,0-3.892-2.987,4.253,4.253,0,0,1,3.892-2.554M-19.2,0a4.252,4.252,0,0,1,3.791-4.222,5.456,5.456,0,0,0-.045.68A5.305,5.305,0,0,0-13.715.385a5.33,5.33,0,0,0-4.076,2.763A4.232,4.232,0,0,1-19.2,0m1.842,5.667a4.184,4.184,0,0,1,.093-.88,5.285,5.285,0,0,0,2.311.53,5.284,5.284,0,0,0,2.568-.663,5.256,5.256,0,0,0-.092.978,5.3,5.3,0,0,0,1.5,3.7,4.218,4.218,0,0,1-2.136.583,4.251,4.251,0,0,1-4.247-4.246m14.443-.035A4.25,4.25,0,0,1-7.159,9.878a4.222,4.222,0,0,1-2.094-.557,5.3,5.3,0,0,0,1.46-3.654,5.322,5.322,0,0,0-.1-1.017,5.289,5.289,0,0,0,2.575.667A5.275,5.275,0,0,0-3,4.783a4.244,4.244,0,0,1,.085.849M-6.522.354a5.3,5.3,0,0,0,1.7-3.9,5.456,5.456,0,0,0-.045-.68A4.253,4.253,0,0,1-1.07,0a4.231,4.231,0,0,1-1.4,3.137A5.327,5.327,0,0,0-6.522.354" fill="#2b2e34"/>
      </g>
    </g>
  </g>
</svg>
