<svg xmlns="http://www.w3.org/2000/svg" width="22.568" height="23.081" viewBox="0 0 22.568 23.081">
  <g id="pv_bnccnocapitulo" transform="translate(-10 -10)">
    <path id="Caminho_7135" data-name="Caminho 7135" d="M21.284,33.081a11.414,11.414,0,0,0,11.284-11.54A11.415,11.415,0,0,0,21.284,10,11.415,11.415,0,0,0,10,21.541a11.414,11.414,0,0,0,11.284,11.54" fill="#d0a7cf"/>
    <path id="Caminho_7136" data-name="Caminho 7136" d="M21.284,30.327a8.787,8.787,0,1,0-8.711-8.786A8.759,8.759,0,0,0,21.284,30.327Z" fill="none" stroke="#340c42" stroke-width="0.515"/>
    <path id="Caminho_7137" data-name="Caminho 7137" d="M21.284,28.67a7.13,7.13,0,1,0-7.068-7.129A7.107,7.107,0,0,0,21.284,28.67Z" fill="none" stroke="#340c42" stroke-width="0.515"/>
    <path id="Caminho_7138" data-name="Caminho 7138" d="M21.284,27.039a5.5,5.5,0,1,0-5.451-5.5A5.481,5.481,0,0,0,21.284,27.039Z" fill="none" stroke="#340c42" stroke-width="0.515"/>
    <ellipse id="Elipse_1" data-name="Elipse 1" cx="3.834" cy="3.868" rx="3.834" ry="3.868" transform="translate(17.45 17.673)" fill="none" stroke="#340c42" stroke-width="0.515"/>
    <ellipse id="Elipse_2" data-name="Elipse 2" cx="2.155" cy="2.175" rx="2.155" ry="2.175" transform="translate(19.129 19.365)" fill="none" stroke="#340c42" stroke-width="0.515"/>
    <path id="Caminho_7139" data-name="Caminho 7139" d="M21.284,22.085a.545.545,0,1,0-.538-.544A.542.542,0,0,0,21.284,22.085Z" fill="none" stroke="#340c42" stroke-width="0.515"/>
  </g>
</svg>
