<svg xmlns="http://www.w3.org/2000/svg" xmlns:xlink="http://www.w3.org/1999/xlink" width="490.395" height="48.755" viewBox="0 0 490.395 48.755">
  <defs>
    <clipPath id="clip-path">
      <path id="Caminho_7098" data-name="Caminho 7098" d="M0,0H490.395V-48.755H0Z" fill="none"/>
    </clipPath>
  </defs>
  <g id="pv_desenvolvimentosustentavel" transform="translate(0 48.755)">
    <path id="Caminho_7068" data-name="Caminho 7068" d="M0,0H490.394V-48.754H0Z" fill="#a5170d"/>
    <g id="Grupo_7161" data-name="Grupo 7161" transform="translate(0 -48.755)">
      <path id="Caminho_7069" data-name="Caminho 7069" d="M0,0V48.755H18.626l17.7-24.376L18.622,0Z" fill="#ff2d16"/>
    </g>
    <g id="Grupo_7162" data-name="Grupo 7162" transform="translate(18.728 -48.755)">
      <path id="Caminho_7070" data-name="Caminho 7070" d="M0,0,17.708,24.379,0,48.755H18.882L36.59,24.379,18.879,0Z" fill="#ff2d16"/>
    </g>
    <g id="Grupo_7163" data-name="Grupo 7163" transform="translate(38.351 -48.755)">
      <path id="Caminho_7071" data-name="Caminho 7071" d="M0,0,17.714,24.379,0,48.755H18.225L35.931,24.379,18.222,0Z" fill="#ff2d16"/>
    </g>
    <g id="Grupo_7164" data-name="Grupo 7164" transform="translate(57.973 -48.755)">
      <path id="Caminho_7072" data-name="Caminho 7072" d="M0,0,17.708,24.379,0,48.755H17.6L35.309,24.379,17.6,0Z" fill="#ff2d16"/>
    </g>
    <g id="Grupo_7165" data-name="Grupo 7165" transform="translate(77.602 -48.755)">
      <path id="Caminho_7073" data-name="Caminho 7073" d="M0,0,17.71,24.379,0,48.755H16.948L34.656,24.379,16.945,0Z" fill="#ff2d16"/>
    </g>
    <g id="Grupo_7166" data-name="Grupo 7166" transform="translate(97.22 -48.755)">
      <path id="Caminho_7074" data-name="Caminho 7074" d="M0,0,17.709,24.379,0,48.755h16.3l17.71-24.376L16.3,0Z" fill="#ff2d16"/>
    </g>
    <g id="Grupo_7167" data-name="Grupo 7167" transform="translate(116.847 -48.755)">
      <path id="Caminho_7075" data-name="Caminho 7075" d="M0,0,17.711,24.379,0,48.755H15.676L33.385,24.379,15.673,0Z" fill="#ff2d16"/>
    </g>
    <g id="Grupo_7168" data-name="Grupo 7168" transform="translate(136.476 -48.755)">
      <path id="Caminho_7076" data-name="Caminho 7076" d="M0,0,17.712,24.379,0,48.755h15.01L32.722,24.379,15.008,0Z" fill="#ff2d16"/>
    </g>
    <g id="Grupo_7169" data-name="Grupo 7169" transform="translate(156.093 -48.755)">
      <path id="Caminho_7077" data-name="Caminho 7077" d="M0,0,17.711,24.379,0,48.755H14.371l17.71-24.376L14.369,0Z" fill="#ff2d16"/>
    </g>
    <g id="Grupo_7170" data-name="Grupo 7170" transform="translate(175.712 -48.755)">
      <path id="Caminho_7078" data-name="Caminho 7078" d="M0,0,17.709,24.379,0,48.755H13.729L31.436,24.379,13.725,0Z" fill="#ff2d16"/>
    </g>
    <g id="Grupo_7171" data-name="Grupo 7171" transform="translate(195.341 -48.755)">
      <path id="Caminho_7079" data-name="Caminho 7079" d="M0,0,17.709,24.379,0,48.755H13.089L30.8,24.379,13.085,0Z" fill="#ff2d16"/>
    </g>
    <g id="Grupo_7172" data-name="Grupo 7172" transform="translate(214.96 -48.755)">
      <path id="Caminho_7080" data-name="Caminho 7080" d="M0,0,17.709,24.379,0,48.755H12.444l17.71-24.376L12.442,0Z" fill="#ff2d16"/>
    </g>
    <g id="Grupo_7173" data-name="Grupo 7173" transform="translate(234.598 -48.755)">
      <path id="Caminho_7081" data-name="Caminho 7081" d="M0,0,17.711,24.379,0,48.755H11.8L29.5,24.379,11.79,0Z" fill="#ff2d16"/>
    </g>
    <g id="Grupo_7174" data-name="Grupo 7174" transform="translate(254.227 -48.755)">
      <path id="Caminho_7082" data-name="Caminho 7082" d="M0,0,17.711,24.379,0,48.755H11.141L28.85,24.379,11.139,0Z" fill="#ff2d16"/>
    </g>
    <g id="Grupo_7175" data-name="Grupo 7175" transform="translate(273.845 -48.755)">
      <path id="Caminho_7083" data-name="Caminho 7083" d="M0,0,17.711,24.379,0,48.755H10.5L28.208,24.379,10.5,0Z" fill="#ff2d16"/>
    </g>
    <g id="Grupo_7176" data-name="Grupo 7176" transform="translate(293.473 -48.755)">
      <path id="Caminho_7084" data-name="Caminho 7084" d="M0,0,17.712,24.379,0,48.755H9.859l17.71-24.376L9.858,0Z" fill="#ff2d16"/>
    </g>
    <g id="Grupo_7177" data-name="Grupo 7177" transform="translate(313.093 -48.755)">
      <path id="Caminho_7085" data-name="Caminho 7085" d="M0,0,17.71,24.379,0,48.755H9.215L26.924,24.379,9.212,0Z" fill="#ff2d16"/>
    </g>
    <g id="Grupo_7178" data-name="Grupo 7178" transform="translate(332.721 -48.755)">
      <path id="Caminho_7086" data-name="Caminho 7086" d="M0,0,17.71,24.379,0,48.755H8.577L26.284,24.379,8.573,0Z" fill="#ff2d16"/>
    </g>
    <g id="Grupo_7179" data-name="Grupo 7179" transform="translate(352.35 -48.755)">
      <path id="Caminho_7087" data-name="Caminho 7087" d="M0,0,17.711,24.379,0,48.755h7.92L25.631,24.379,7.92,0Z" fill="#ff2d16"/>
    </g>
    <g id="Grupo_7180" data-name="Grupo 7180" transform="translate(371.968 -48.755)">
      <path id="Caminho_7088" data-name="Caminho 7088" d="M0,0,17.711,24.379,0,48.755H7.28L24.988,24.379,7.277,0Z" fill="#ff2d16"/>
    </g>
    <g id="Grupo_7181" data-name="Grupo 7181" transform="translate(391.596 -48.755)">
      <path id="Caminho_7089" data-name="Caminho 7089" d="M0,0,17.711,24.379,0,48.755H6.618L24.324,24.379l-1.131-1.574L6.626,0Z" fill="#ff2d16"/>
    </g>
    <g id="Grupo_7182" data-name="Grupo 7182" transform="translate(411.215 -48.755)">
      <path id="Caminho_7090" data-name="Caminho 7090" d="M0,0,17.712,24.379,0,48.755H5.987L23.694,24.379,5.983,0Z" fill="#ff2d16"/>
    </g>
    <g id="Grupo_7183" data-name="Grupo 7183" transform="translate(430.843 -48.755)">
      <path id="Caminho_7091" data-name="Caminho 7091" d="M0,0,17.711,24.379,0,48.755h5.33L23.043,24.379,5.332,0Z" fill="#ff2d16"/>
    </g>
    <g id="Grupo_7184" data-name="Grupo 7184" transform="translate(450.462 -48.755)">
      <path id="Caminho_7092" data-name="Caminho 7092" d="M0,0,17.71,24.379,0,48.755H4.7l17.71-24.376L4.7,0Z" fill="#ff2d16"/>
    </g>
    <g id="Grupo_7185" data-name="Grupo 7185" transform="translate(470.101 -48.755)">
      <path id="Caminho_7093" data-name="Caminho 7093" d="M0,0,17.712,24.379,0,48.755H4.052L20.294,26.4V22.373L4.041,0Z" fill="#ff2d16"/>
    </g>
    <g id="Grupo_7186" data-name="Grupo 7186" transform="translate(489.719 -48.754)">
      <path id="Caminho_7094" data-name="Caminho 7094" d="M0,0,.676.93V0ZM0,48.754H.676v-.925Z" fill="#ff2d16"/>
    </g>
    <g id="Grupo_7190" data-name="Grupo 7190" clip-path="url(#clip-path)">
      <g id="Grupo_7187" data-name="Grupo 7187" transform="translate(101.447 565.269)">
        <path id="Caminho_7095" data-name="Caminho 7095" d="M0,0-.491.665-693.611-224.6l-.77-.256V-954.446L-1.26-1179.71l.769-.245L427.887-590.309l.49.664ZM-1.331-1177.329l-690.811,224.5v726.349L-1.331-1.96,425.6-589.645Z" fill="#ff2d16"/>
      </g>
      <g id="Grupo_7188" data-name="Grupo 7188" transform="translate(106.811 583.989)">
        <path id="Caminho_7096" data-name="Caminho 7096" d="M0,0-.362.512l-715.7-232.61V-984.643l715.7-232.61L441.6-608.866l.373.5ZM-1.015-1215.224-714.359-983.4v750.049L-1.015-1.5,439.854-608.364Z" fill="#ff2d16"/>
      </g>
      <g id="Grupo_7189" data-name="Grupo 7189" transform="translate(567.519 -24.725)">
        <path id="Caminho_7097" data-name="Caminho 7097" d="M0,0,.257.35l-455.576,627.1-.257.35L-1192.7,388.222l-.419-.129V-387.4l737.138-239.562.408-.128ZM-1191.932-386.531v773.75L-456.043,626.4-1.225.35-456.043-625.7Z" fill="#ff2d16"/>
      </g>
    </g>
  </g>
</svg>
