<svg xmlns="http://www.w3.org/2000/svg" xmlns:xlink="http://www.w3.org/1999/xlink" width="490.394" height="34.016" viewBox="0 0 490.394 34.016">
  <defs>
    <clipPath id="clip-path">
      <path id="Caminho_7144" data-name="Caminho 7144" d="M48.268,30.811v13.2H500.394c0-6.688-4.848-13.209-11.367-13.209Z" fill="none"/>
    </clipPath>
  </defs>
  <g id="pv_exercioseproblemas" transform="translate(-10 -10)">
    <g id="Grupo_7228" data-name="Grupo 7228">
      <path id="Caminho_7140" data-name="Caminho 7140" d="M27.008,10A17.008,17.008,0,0,0,10,27.008V44.016H49.685V10Z" fill="#f6e200"/>
      <path id="Caminho_7141" data-name="Caminho 7141" d="M489.027,30.807l-440.759.005v13.2H500.394c0-6.688-4.847-13.209-11.367-13.209" fill="#89137d"/>
    </g>
    <g id="Grupo_7230" data-name="Grupo 7230">
      <g id="Grupo_7229" data-name="Grupo 7229" clip-path="url(#clip-path)">
        <path id="Caminho_7142" data-name="Caminho 7142" d="M222.008,77.463a70.623,70.623,0,0,0,15.683,6.245,51.785,51.785,0,0,0,20.426.987,36.37,36.37,0,0,0,18.325-8.034c5.571-4.851,8.82-11.35,11.963-17.635,3.946-7.89,7.672-15.342,15.587-19.829,11.295-6.4,25.722-2.983,33.316-.375,3.151,1.082,6.295,2.342,9.336,3.561,7.17,2.873,14.585,5.845,22.679,6.721a33.713,33.713,0,0,0,10.055-.353,19.958,19.958,0,0,0,8.954-4.008,11.256,11.256,0,0,0,4.168-9.154,7.28,7.28,0,0,0-3.808-6.141l-.384.491a6.772,6.772,0,0,1,3.528,5.722,10.667,10.667,0,0,1-3.945,8.681c-4.208,3.477-10.929,5.005-18.439,4.192-8-.865-15.367-3.819-22.494-6.676-3.049-1.222-6.2-2.485-9.368-3.572a57.851,57.851,0,0,0-17.105-3.322,31.906,31.906,0,0,0-16.829,3.76c-8.1,4.591-12.044,12.479-15.858,20.107-3.116,6.231-6.338,12.675-11.811,17.44-8.956,7.8-23.9,10.5-38.067,6.885-12.889-3.288-23.812-10.885-33.45-17.588l-.438.457a178.2,178.2,0,0,0,17.976,11.438" fill="#f6e200"/>
        <path id="Caminho_7143" data-name="Caminho 7143" d="M281.883,61.04a30.423,30.423,0,0,0,17.407,3.293c10.74-1.177,20.854-8.233,24.594-17.158a49.9,49.9,0,0,0,1.855-5.669c1.245-4.388,2.42-8.533,6.052-11.515,3.477-2.855,8.943-4.072,14.623-3.254,4.517.649,8.7,2.385,12.743,4.064q.751.312,1.5.622c4.336,1.781,9.416,3.683,14.854,3.721a20.666,20.666,0,0,0,7.952-1.533,13.3,13.3,0,0,0,6.05-4.7,7.869,7.869,0,0,0,.644-7.523,6.8,6.8,0,0,0-4.881-3.947l-.2.559a6.226,6.226,0,0,1,4.461,3.628,7.345,7.345,0,0,1-.591,7.024c-2.421,3.635-7.673,5.958-13.38,5.918-5.306-.037-10.312-1.914-14.587-3.669l-1.5-.621c-4.083-1.7-8.3-3.448-12.91-4.111-5.889-.847-11.577.431-15.216,3.419-3.788,3.11-5.044,7.538-6.258,11.82a49.4,49.4,0,0,1-1.834,5.606c-3.65,8.712-13.522,15.6-24.007,16.75s-21.106-3.491-25.832-11.285l-.593.294a23.207,23.207,0,0,0,9.055,8.267" fill="#f6e200"/>
      </g>
    </g>
    <g id="Grupo_7231" data-name="Grupo 7231">
      <path id="Caminho_7145" data-name="Caminho 7145" d="M34.1,44.016A17.008,17.008,0,1,1,34.1,10Z" fill="#1a1818"/>
      <path id="Caminho_7146" data-name="Caminho 7146" d="M48.268,44.016a17.008,17.008,0,1,1,0-34.016Z" fill="#1a1818"/>
      <path id="Caminho_7147" data-name="Caminho 7147" d="M48.268,44.016a17.008,17.008,0,1,0,0-34.016Z" fill="#89137d"/>
    </g>
    <g id="Grupo_7232" data-name="Grupo 7232">
      <path id="Caminho_7148" data-name="Caminho 7148" d="M48.15,13.335A13.673,13.673,0,1,0,61.823,27.008,13.689,13.689,0,0,0,48.15,13.335Z" fill="none" stroke="#f6e200" stroke-width="1"/>
      <circle id="Elipse_3" data-name="Elipse 3" cx="11.076" cy="11.076" r="11.076" transform="translate(37.074 15.932)" fill="none" stroke="#f6e200" stroke-width="1"/>
      <circle id="Elipse_4" data-name="Elipse 4" cx="8.521" cy="8.521" r="8.521" transform="translate(39.629 18.487)" fill="none" stroke="#f6e200" stroke-width="1"/>
      <path id="Caminho_7149" data-name="Caminho 7149" d="M48.15,21.043a5.965,5.965,0,1,0,5.965,5.965A5.972,5.972,0,0,0,48.15,21.043Z" fill="none" stroke="#f6e200" stroke-width="1"/>
      <circle id="Elipse_5" data-name="Elipse 5" cx="3.312" cy="3.312" r="3.312" transform="translate(44.838 23.696)" fill="none" stroke="#f6e200" stroke-width="1"/>
      <path id="Caminho_7150" data-name="Caminho 7150" d="M48.15,26.252a.756.756,0,1,0,.757.756A.758.758,0,0,0,48.15,26.252Z" fill="none" stroke="#f6e200" stroke-width="1"/>
    </g>
  </g>
</svg>
