<svg xmlns="http://www.w3.org/2000/svg" width="55.276" height="34.016" viewBox="0 0 55.276 34.016">
  <g id="pv_exercicioseproblemasmob" transform="translate(-10 -10)">
    <path id="Caminho_7151" data-name="Caminho 7151" d="M27.008,10A17.008,17.008,0,0,0,10,27.008V44.016H49.685V10Z" fill="#f6e200"/>
    <path id="Caminho_7152" data-name="Caminho 7152" d="M34.1,44.016A17.008,17.008,0,1,1,34.1,10Z" fill="#1a1818"/>
    <path id="Caminho_7153" data-name="Caminho 7153" d="M48.268,44.016a17.008,17.008,0,1,1,0-34.016Z" fill="#1a1818"/>
    <path id="Caminho_7154" data-name="Caminho 7154" d="M48.268,44.016a17.008,17.008,0,1,0,0-34.016Z" fill="#89137d"/>
    <path id="Caminho_7155" data-name="Caminho 7155" d="M48.15,13.335A13.673,13.673,0,1,0,61.823,27.008,13.689,13.689,0,0,0,48.15,13.335Z" fill="none" stroke="#f6e200" stroke-width="1"/>
    <circle id="Elipse_6" data-name="Elipse 6" cx="11.076" cy="11.076" r="11.076" transform="translate(37.074 15.932)" fill="none" stroke="#f6e200" stroke-width="1"/>
    <circle id="Elipse_7" data-name="Elipse 7" cx="8.521" cy="8.521" r="8.521" transform="translate(39.629 18.487)" fill="none" stroke="#f6e200" stroke-width="1"/>
    <path id="Caminho_7156" data-name="Caminho 7156" d="M48.15,21.043a5.965,5.965,0,1,0,5.965,5.965A5.972,5.972,0,0,0,48.15,21.043Z" fill="none" stroke="#f6e200" stroke-width="1"/>
    <circle id="Elipse_8" data-name="Elipse 8" cx="3.312" cy="3.312" r="3.312" transform="translate(44.838 23.696)" fill="none" stroke="#f6e200" stroke-width="1"/>
    <path id="Caminho_7157" data-name="Caminho 7157" d="M48.15,26.252a.756.756,0,1,0,.757.756A.758.758,0,0,0,48.15,26.252Z" fill="none" stroke="#f6e200" stroke-width="1"/>
  </g>
</svg>
