<svg xmlns="http://www.w3.org/2000/svg" xmlns:xlink="http://www.w3.org/1999/xlink" width="490.395" height="48.754" viewBox="0 0 490.395 48.754">
  <defs>
    <clipPath id="clip-path">
      <path id="Caminho_7065" data-name="Caminho 7065" d="M0,0H490.395V-48.754H0Z" fill="none"/>
    </clipPath>
  </defs>
  <g id="pv_educaomidiatica" transform="translate(0 48.754)">
    <path id="Caminho_7050" data-name="Caminho 7050" d="M0,0H490.395V-48.754H0Z" fill="#005db2"/>
    <g id="Grupo_7158" data-name="Grupo 7158" clip-path="url(#clip-path)">
      <g id="Grupo_7144" data-name="Grupo 7144" transform="translate(12.633 189.083)">
        <path id="Caminho_7051" data-name="Caminho 7051" d="M0,0C0-103.873,98.433-188.4,224.067-192.436c62.229-1.99,121.683,16.173,167.378,51.112S463.66-58.8,466.083-7.388C471.1,99.852,370.9,188.506,242.2,192.657,113.741,196.779,5.187,113.773.18,7.618.06,5.066,0,2.513,0,0M458.569.221c0-2.423-.055-4.885-.171-7.348-2.346-49.745-27.968-95.75-72.18-129.543-44.187-33.793-101.681-51.333-161.849-49.4C102.866-182.154,7.7-100.455,7.7,0c0,2.412.061,4.885.171,7.358C12.7,110.024,117.682,190.275,241.9,186.294c121.5-3.919,216.67-85.628,216.67-186.073" fill="#00b6e1"/>
      </g>
      <g id="Grupo_7145" data-name="Grupo 7145" transform="translate(-1.38 189.083)">
        <path id="Caminho_7052" data-name="Caminho 7052" d="M0,0C0-53.132,24.606-103.45,69.305-141.747c44.8-38.366,104.989-60.479,169.5-62.3,65.979-1.84,128.87,17.66,177.1,54.911,48.233,37.271,76.02,87.82,78.246,142.359.1,2.333.147,4.674.147,7,0,53.132-24.607,103.45-69.3,141.747-44.8,38.356-104.988,60.489-169.5,62.288C119.292,208.066,4.746,119.573.141,7,.051,4.664,0,2.332,0,0M487.136.221c0-2.252-.049-4.513-.145-6.8-2.167-52.972-29.149-102.033-75.984-138.218s-107.894-55.123-171.962-53.324C109.019-194.5,7.157-107.481,7.157,0c0,2.261.051,4.523.141,6.815,4.473,109.29,115.7,195.22,247.951,191.541C385.275,194.718,487.136,107.7,487.136.221" fill="#00b6e1"/>
      </g>
      <g id="Grupo_7146" data-name="Grupo 7146" transform="translate(-15.401 189.083)">
        <path id="Caminho_7053" data-name="Caminho 7053" d="M0,0C0-56.328,26.164-109.662,73.667-150.15c47.6-40.587,111.482-63.846,179.863-65.515,69.736-1.678,136.086,19.188,186.836,58.741,50.745,39.572,79.819,93.1,81.865,150.733,2.09,58.78-24.254,114.526-73.563,156.581-47.6,40.568-111.48,63.838-179.861,65.5C124.85,219.374,4.322,125.4.111,6.423.03,4.282,0,2.141,0,0M515.707.221q0-3.107-.11-6.272c-1.991-56.157-30.321-108.335-79.784-146.883S321.688-211.825,253.73-210.187C112.648-206.749,2.563-111.029,6.745,6.272c4.1,115.944,121.573,207.534,261.861,204.136,138.56-3.347,247.1-95.68,247.1-210.187" fill="#00b6e1"/>
      </g>
      <g id="Grupo_7147" data-name="Grupo 7147" transform="translate(-29.443 189.093)">
        <path id="Caminho_7054" data-name="Caminho 7054" d="M0,0C0-59.565,27.721-115.873,78.039-158.582c50.418-42.8,117.985-67.195,190.235-68.7C419.971-230.441,546.5-131,550.32-5.639,552.2,56.1,524.331,114.678,472.375,158.783c-50.413,42.81-117.98,67.2-190.229,68.7C130.448,230.642,3.919,131.2.1,5.83.04,3.88,0,1.93,0,0M544.308.211c0-1.89-.034-3.819-.09-5.709-3.739-122.608-127.463-219.837-275.784-216.751C119.05-219.123,2.483-118.347,6.2,5.7,9.93,128.307,133.654,225.546,281.984,222.46,429.078,219.4,544.308,121.774,544.308.211" fill="#00b6e1"/>
      </g>
      <g id="Grupo_7148" data-name="Grupo 7148" transform="translate(-43.475 189.103)">
        <path id="Caminho_7055" data-name="Caminho 7055" d="M0,0C0-62.782,29.269-122.086,82.4-167.016c53.233-45.01,124.468-70.541,200.608-71.9,77.236-1.368,150.511,22.2,206.3,66.38,55.787,44.146,87.429,103.641,89.1,167.478,1.684,64.883-27.728,126.076-82.337,172.252C442.85,212.207,371.6,237.737,295.474,239.1,136.016,241.92,3.518,137.042.08,5.246.03,3.487,0,1.728,0,0M572.905.2c0-1.709-.024-3.438-.07-5.167-1.628-62.6-32.663-120.94-87.378-164.261s-126.578-66.421-202.326-65.084C128.035-231.546,2.141-123.654,5.649,5.146,9.017,134.378,138.971,237.275,295.353,234.5,448.4,231.757,572.905,126.649,572.905.2" fill="#00b6e1"/>
      </g>
      <g id="Grupo_7149" data-name="Grupo 7149" transform="translate(-57.507 189.113)">
        <path id="Caminho_7056" data-name="Caminho 7056" d="M0,0C0-65.988,30.817-128.3,86.775-175.458c56.037-47.2,130.961-73.879,210.97-75.086,81-1.215,157.719,23.7,216.032,70.17S605.019-71.436,606.492-4.483c.035,1.559.051,3.107.051,4.654,0,65.978-30.818,128.3-86.77,175.439C463.736,222.822,388.812,249.5,308.8,250.7,141.6,253.218,3.1,142.862.061,4.654.021,3.106,0,1.539,0,0M601.5.171q0-2.292-.051-4.584c-1.457-65.837-33.833-127.251-91.177-172.956s-132.791-70.2-212.44-69C136.4-243.949,5.045-133.423,5.045,0c0,1.528.021,3.046.051,4.594C8.1,140.47,144.3,249.016,308.712,246.533,470.148,244.111,601.5,133.594,601.5.171" fill="#00b6e1"/>
      </g>
      <g id="Grupo_7150" data-name="Grupo 7150" transform="translate(-71.539 189.113)">
        <path id="Caminho_7057" data-name="Caminho 7057" d="M0,0C0-69.224,32.365-134.5,91.137-183.892c58.831-49.4,137.444-77.2,221.334-78.271,84.744-1.065,164.934,25.219,225.767,73.979,60.836,48.79,95.056,114.236,96.338,184.275,1.3,70.883-31.179,137.625-91.1,187.963-58.831,49.392-137.435,77.205-221.334,78.271C147.194,264.525,2.693,148.672.04,4.081,0,2.724,0,1.347,0,0M630.1.171c0-1.346-.01-2.7-.029-4.021-1.278-69.054-35-133.554-94.972-181.64-59.983-48.076-139.008-73.989-222.555-72.923C142.691-256.292,4.513-140.359,4.513,0c0,1.337.011,2.7.03,4.021C7.177,146.561,149.616,260.747,322.07,258.585,491.92,256.444,630.1,140.51,630.1.171" fill="#00b6e1"/>
      </g>
      <g id="Grupo_7151" data-name="Grupo 7151" transform="translate(-85.591 189.123)">
        <path id="Caminho_7058" data-name="Caminho 7058" d="M0,0C0-72.41,33.924-140.711,95.52-192.314c61.645-51.645,143.927-80.553,231.7-81.479,88.513-.9,172.142,26.727,235.507,77.809S661.584-76.5,662.691-3.358c1.084,73.819-32.909,143.4-95.5,195.815-61.644,51.644-143.927,80.562-231.7,81.487-88.513.895-172.142-26.737-235.507-77.808C36.628,145.043,1.126,76.643.019,3.5.011,2.312,0,1.166,0,0M658.725.141c0-1.146-.011-2.292-.024-3.457-1.092-72.261-36.166-139.848-98.763-190.306-62.6-50.478-145.233-77.768-232.66-76.853C149.013-268.636,3.99-147.3,3.99,0c0,1.146.011,2.292.031,3.458C5.106,75.728,40.186,143.3,102.776,193.773s145.235,77.769,232.662,76.844C513.7,268.777,658.725,147.445,658.725.141" fill="#00b6e1"/>
      </g>
      <g id="Grupo_7152" data-name="Grupo 7152" transform="translate(-99.634 189.143)">
        <path id="Caminho_7059" data-name="Caminho 7059" d="M0,0C0-75.668,35.472-146.973,99.882-200.759c64.45-53.836,150.421-83.91,242.071-84.663,92.262-.754,179.349,28.224,245.237,81.6S689.87-79.045,690.79-2.8L690.8.1c0,75.668-35.47,146.973-99.881,200.759-64.456,53.825-150.425,83.91-242.075,84.664-92.263.763-179.349-28.236-245.237-81.6S.935,79.145.011,2.894ZM687.347.1l-.015-2.865c-.914-75.5-37.336-146.178-102.565-199-65.214-52.85-151.436-81.548-242.774-80.794C155.326-281.021,3.448-154.281,3.448,0l.03,2.875c.9,75.487,37.322,146.168,102.556,198.979,65.213,52.851,151.436,81.548,242.774,80.814C535.479,281.12,687.347,154.391,687.347.1" fill="#00b6e1"/>
      </g>
      <g id="Grupo_7153" data-name="Grupo 7153" transform="translate(-113.685 189.154)">
        <path id="Caminho_7060" data-name="Caminho 7060" d="M0,0C0-78.885,37.02-153.175,104.264-209.182c67.255-56.047,156.9-87.248,252.434-87.86C554.892-298.3,717.366-166.061,718.888-2.231L718.9.09c0,78.874-37.025,153.144-104.259,209.182C547.384,265.308,457.736,296.5,362.2,297.121c-96.011.624-186.556-29.712-254.966-85.407C38.83,156.049.753,81.688.011,2.321ZM715.973.09l-.01-2.292C714.456-164.694,553.3-295.857,356.718-294.62,161.638-293.384,2.926-161.237,2.926,0l.008,2.281C3.668,81,41.432,154.763,109.291,210.015c67.847,55.213,157.656,85.288,252.9,84.684C557.26,293.463,715.973,161.326,715.973.09" fill="#00b6e1"/>
      </g>
      <g id="Grupo_7154" data-name="Grupo 7154" transform="translate(-127.728 189.163)">
        <path id="Caminho_7061" data-name="Caminho 7061" d="M0,0C0-82.11,38.578-159.407,108.618-217.634c70.079-58.249,163.406-90.575,262.815-91.047,205.945-.934,374.414,136.8,375.551,306.993l.005,1.749c0,82.12-38.579,159.417-108.618,217.624-70.074,58.259-163.407,90.6-262.817,91.057-99.76.442-193.771-31.22-264.7-89.217S.553,84.192,0,1.749ZM744.595.061l-.009-1.73C743.46-170.775,576.067-307.616,371.443-306.69,167.951-305.756,2.394-168.171,2.394,0L2.4,1.729c.553,81.94,39.655,158.793,110.135,216.379,70.481,57.615,163.88,89.1,263.008,88.654,203.493-.945,369.05-138.52,369.05-306.7" fill="#00b6e1"/>
      </g>
      <g id="Grupo_7155" data-name="Grupo 7155" transform="translate(-141.779 189.173)">
        <path id="Caminho_7062" data-name="Caminho 7062" d="M0,0C0-85.317,40.125-165.618,112.988-226.068c72.884-60.45,169.9-93.922,273.181-94.223,213.7-.633,388.164,142.541,388.922,319.175V.051c0,85.337-40.126,165.618-112.993,226.047-72.879,60.46-169.9,93.942-273.176,94.244C175.217,320.954.753,177.8,0,1.156ZM773.226.051,773.221-1.1c-.753-175.782-174.373-318.281-387.043-317.668C174.272-318.13,1.86-175.137,1.86,0V1.146c.763,175.771,174.382,318.271,387.053,317.648C600.823,318.18,773.226,175.168,773.226.051" fill="#00b6e1"/>
      </g>
      <g id="Grupo_7156" data-name="Grupo 7156" transform="translate(-155.841 189.184)">
        <path id="Caminho_7063" data-name="Caminho 7063" d="M0,0C0-88.534,41.684-171.821,117.371-234.491S293.765-331.77,400.924-331.93C508.194-332.061,609.116-297.7,685.1-235.1S803.029-89.207,803.215-.553V.019c0,88.534-41.688,171.821-117.376,234.5s-176.389,97.268-283.548,97.43c-107.269.14-208.187-34.236-284.176-96.836C42.135,172.544.182,89.227,0,.582ZM801.868.019V-.553c-.376-182.425-180.238-330.574-400.944-330.262C180.6-330.5,1.346-182.1,1.346,0V.582C1.729,183.008,181.58,331.156,402.291,330.835c220.329-.3,399.577-148.7,399.577-330.816" fill="#00b6e1"/>
      </g>
      <g id="Grupo_7157" data-name="Grupo 7157" transform="translate(-169.892 189.194)">
        <path id="Caminho_7064" data-name="Caminho 7064" d="M0,0C0-46.378,11-91.358,32.667-133.736c20.938-40.889,50.9-77.637,89.066-109.178,38.176-31.562,82.623-56.33,132.137-73.628a498.269,498.269,0,0,1,323.578,0c49.509,17.3,93.956,42.066,132.132,73.628,38.171,31.541,68.139,68.289,89.071,109.178C820.323-91.358,831.313-46.378,831.313,0s-10.99,91.357-32.662,133.735c-20.932,40.9-50.9,77.638-89.071,109.179s-82.623,56.329-132.132,73.617a488.5,488.5,0,0,1-161.79,27.019A488.5,488.5,0,0,1,253.87,316.531c-49.514-17.288-93.961-42.065-132.137-73.617S53.6,174.635,32.667,133.735C11,91.357,0,46.387,0,0M830.51,0c0-189.069-186.1-342.9-414.852-342.9S.8-189.069.8,0s186.1,342.886,414.855,342.886S830.51,189.058,830.51,0" fill="#00b6e1"/>
      </g>
    </g>
  </g>
</svg>
