<svg xmlns="http://www.w3.org/2000/svg" xmlns:xlink="http://www.w3.org/1999/xlink" width="338.854" height="8.167" viewBox="0 0 338.854 8.167">
  <defs>
    <clipPath id="clip-path">
      <path id="Caminho_7016" data-name="Caminho 7016" d="M0,0H338.854V-8.167H0Z" fill="none"/>
    </clipPath>
  </defs>
  <g id="pv_moldura" transform="translate(0 8.167)">
    <g id="Grupo_7113" data-name="Grupo 7113" clip-path="url(#clip-path)">
      <g id="Grupo_7030" data-name="Grupo 7030" transform="translate(8.166 0)">
        <path id="Caminho_6933" data-name="Caminho 6933" d="M0,0C-3.057,0-4.083-1.186-4.083-4.083H0Z" fill="#41a8a6"/>
      </g>
      <g id="Grupo_7031" data-name="Grupo 7031" transform="translate(179.661 0)">
        <path id="Caminho_6934" data-name="Caminho 6934" d="M0,0C-3.057,0-4.083-1.186-4.083-4.083H0Z" fill="#41a8a6"/>
      </g>
      <g id="Grupo_7032" data-name="Grupo 7032" transform="translate(8.166 -4.083)">
        <path id="Caminho_6935" data-name="Caminho 6935" d="M0,0C3.057,0,4.083-1.186,4.083-4.083H0Z" fill="#41a8a6"/>
      </g>
      <g id="Grupo_7033" data-name="Grupo 7033" transform="translate(179.661 -4.083)">
        <path id="Caminho_6936" data-name="Caminho 6936" d="M0,0C3.057,0,4.083-1.186,4.083-4.083H0Z" fill="#41a8a6"/>
      </g>
      <g id="Grupo_7034" data-name="Grupo 7034" transform="translate(4.083 -4.083)">
        <path id="Caminho_6937" data-name="Caminho 6937" d="M0,0C0-3.057-1.186-4.083-4.083-4.083V0Z" fill="#41a8a6"/>
      </g>
      <g id="Grupo_7035" data-name="Grupo 7035" transform="translate(175.577 -4.083)">
        <path id="Caminho_6938" data-name="Caminho 6938" d="M0,0C0-3.057-1.186-4.083-4.083-4.083V0Z" fill="#41a8a6"/>
      </g>
      <g id="Grupo_7036" data-name="Grupo 7036" transform="translate(20.416 -8.166)">
        <path id="Caminho_6939" data-name="Caminho 6939" d="M0,0C-3.057,0-4.083,1.186-4.083,4.083H0Z" fill="#41a8a6"/>
      </g>
      <g id="Grupo_7037" data-name="Grupo 7037" transform="translate(191.91 -8.166)">
        <path id="Caminho_6940" data-name="Caminho 6940" d="M0,0C-3.057,0-4.083,1.186-4.083,4.083H0Z" fill="#41a8a6"/>
      </g>
      <g id="Grupo_7038" data-name="Grupo 7038" transform="translate(20.416 -4.083)">
        <path id="Caminho_6941" data-name="Caminho 6941" d="M0,0C3.057,0,4.083,1.186,4.083,4.083H0Z" fill="#41a8a6"/>
      </g>
      <g id="Grupo_7039" data-name="Grupo 7039" transform="translate(191.91 -4.083)">
        <path id="Caminho_6942" data-name="Caminho 6942" d="M0,0C3.057,0,4.083,1.186,4.083,4.083H0Z" fill="#41a8a6"/>
      </g>
      <g id="Grupo_7040" data-name="Grupo 7040" transform="translate(16.333 -4.083)">
        <path id="Caminho_6943" data-name="Caminho 6943" d="M0,0C0,3.057-1.186,4.083-4.083,4.083V0Z" fill="#41a8a6"/>
      </g>
      <g id="Grupo_7041" data-name="Grupo 7041" transform="translate(187.827 -4.083)">
        <path id="Caminho_6944" data-name="Caminho 6944" d="M0,0C0,3.057-1.186,4.083-4.083,4.083V0Z" fill="#41a8a6"/>
      </g>
      <g id="Grupo_7042" data-name="Grupo 7042" transform="translate(32.666 0)">
        <path id="Caminho_6945" data-name="Caminho 6945" d="M0,0C-3.057,0-4.083-1.186-4.083-4.083H0Z" fill="#41a8a6"/>
      </g>
      <g id="Grupo_7043" data-name="Grupo 7043" transform="translate(204.16 0)">
        <path id="Caminho_6946" data-name="Caminho 6946" d="M0,0C-3.057,0-4.083-1.186-4.083-4.083H0Z" fill="#41a8a6"/>
      </g>
      <g id="Grupo_7044" data-name="Grupo 7044" transform="translate(32.666 -4.083)">
        <path id="Caminho_6947" data-name="Caminho 6947" d="M0,0C3.057,0,4.083-1.186,4.083-4.083H0Z" fill="#41a8a6"/>
      </g>
      <g id="Grupo_7045" data-name="Grupo 7045" transform="translate(204.16 -4.083)">
        <path id="Caminho_6948" data-name="Caminho 6948" d="M0,0C3.057,0,4.083-1.186,4.083-4.083H0Z" fill="#41a8a6"/>
      </g>
      <g id="Grupo_7046" data-name="Grupo 7046" transform="translate(28.582 -4.083)">
        <path id="Caminho_6949" data-name="Caminho 6949" d="M0,0C0-3.057-1.186-4.083-4.083-4.083V0Z" fill="#41a8a6"/>
      </g>
      <g id="Grupo_7047" data-name="Grupo 7047" transform="translate(200.077 -4.083)">
        <path id="Caminho_6950" data-name="Caminho 6950" d="M0,0C0-3.057-1.186-4.083-4.083-4.083V0Z" fill="#41a8a6"/>
      </g>
      <g id="Grupo_7048" data-name="Grupo 7048" transform="translate(44.915 -8.166)">
        <path id="Caminho_6951" data-name="Caminho 6951" d="M0,0C-3.057,0-4.083,1.186-4.083,4.083H0Z" fill="#41a8a6"/>
      </g>
      <g id="Grupo_7049" data-name="Grupo 7049" transform="translate(216.41 -8.166)">
        <path id="Caminho_6952" data-name="Caminho 6952" d="M0,0C-3.057,0-4.083,1.186-4.083,4.083H0Z" fill="#41a8a6"/>
      </g>
      <g id="Grupo_7050" data-name="Grupo 7050" transform="translate(44.915 -4.083)">
        <path id="Caminho_6953" data-name="Caminho 6953" d="M0,0C3.057,0,4.083,1.186,4.083,4.083H0Z" fill="#41a8a6"/>
      </g>
      <g id="Grupo_7051" data-name="Grupo 7051" transform="translate(216.41 -4.083)">
        <path id="Caminho_6954" data-name="Caminho 6954" d="M0,0C3.057,0,4.083,1.186,4.083,4.083H0Z" fill="#41a8a6"/>
      </g>
      <g id="Grupo_7052" data-name="Grupo 7052" transform="translate(40.832 -4.083)">
        <path id="Caminho_6955" data-name="Caminho 6955" d="M0,0C0,3.057-1.186,4.083-4.083,4.083V0Z" fill="#41a8a6"/>
      </g>
      <g id="Grupo_7053" data-name="Grupo 7053" transform="translate(212.326 -4.083)">
        <path id="Caminho_6956" data-name="Caminho 6956" d="M0,0C0,3.057-1.186,4.083-4.083,4.083V0Z" fill="#41a8a6"/>
      </g>
      <g id="Grupo_7054" data-name="Grupo 7054" transform="translate(57.165 0)">
        <path id="Caminho_6957" data-name="Caminho 6957" d="M0,0C-3.057,0-4.083-1.186-4.083-4.083H0Z" fill="#41a8a6"/>
      </g>
      <g id="Grupo_7055" data-name="Grupo 7055" transform="translate(228.659 0)">
        <path id="Caminho_6958" data-name="Caminho 6958" d="M0,0C-3.057,0-4.083-1.186-4.083-4.083H0Z" fill="#41a8a6"/>
      </g>
      <g id="Grupo_7056" data-name="Grupo 7056" transform="translate(57.165 -4.083)">
        <path id="Caminho_6959" data-name="Caminho 6959" d="M0,0C3.057,0,4.083-1.186,4.083-4.083H0Z" fill="#41a8a6"/>
      </g>
      <g id="Grupo_7057" data-name="Grupo 7057" transform="translate(228.659 -4.083)">
        <path id="Caminho_6960" data-name="Caminho 6960" d="M0,0C3.057,0,4.083-1.186,4.083-4.083H0Z" fill="#41a8a6"/>
      </g>
      <g id="Grupo_7058" data-name="Grupo 7058" transform="translate(53.082 -4.083)">
        <path id="Caminho_6961" data-name="Caminho 6961" d="M0,0C0-3.057-1.186-4.083-4.083-4.083V0Z" fill="#41a8a6"/>
      </g>
      <g id="Grupo_7059" data-name="Grupo 7059" transform="translate(224.576 -4.083)">
        <path id="Caminho_6962" data-name="Caminho 6962" d="M0,0C0-3.057-1.186-4.083-4.083-4.083V0Z" fill="#41a8a6"/>
      </g>
      <g id="Grupo_7060" data-name="Grupo 7060" transform="translate(69.414 -8.166)">
        <path id="Caminho_6963" data-name="Caminho 6963" d="M0,0C-3.057,0-4.083,1.186-4.083,4.083H0Z" fill="#41a8a6"/>
      </g>
      <g id="Grupo_7061" data-name="Grupo 7061" transform="translate(240.909 -8.166)">
        <path id="Caminho_6964" data-name="Caminho 6964" d="M0,0C-3.057,0-4.083,1.186-4.083,4.083H0Z" fill="#41a8a6"/>
      </g>
      <g id="Grupo_7062" data-name="Grupo 7062" transform="translate(69.414 -4.083)">
        <path id="Caminho_6965" data-name="Caminho 6965" d="M0,0C3.057,0,4.083,1.186,4.083,4.083H0Z" fill="#41a8a6"/>
      </g>
      <g id="Grupo_7063" data-name="Grupo 7063" transform="translate(240.909 -4.083)">
        <path id="Caminho_6966" data-name="Caminho 6966" d="M0,0C3.057,0,4.083,1.186,4.083,4.083H0Z" fill="#41a8a6"/>
      </g>
      <g id="Grupo_7064" data-name="Grupo 7064" transform="translate(65.331 -4.083)">
        <path id="Caminho_6967" data-name="Caminho 6967" d="M0,0C0,3.057-1.186,4.083-4.083,4.083V0Z" fill="#41a8a6"/>
      </g>
      <g id="Grupo_7065" data-name="Grupo 7065" transform="translate(236.826 -4.083)">
        <path id="Caminho_6968" data-name="Caminho 6968" d="M0,0C0,3.057-1.186,4.083-4.083,4.083V0Z" fill="#41a8a6"/>
      </g>
      <g id="Grupo_7066" data-name="Grupo 7066" transform="translate(81.664 0)">
        <path id="Caminho_6969" data-name="Caminho 6969" d="M0,0C-3.057,0-4.083-1.186-4.083-4.083H0Z" fill="#41a8a6"/>
      </g>
      <g id="Grupo_7067" data-name="Grupo 7067" transform="translate(253.158 0)">
        <path id="Caminho_6970" data-name="Caminho 6970" d="M0,0C-3.057,0-4.083-1.186-4.083-4.083H0Z" fill="#41a8a6"/>
      </g>
      <g id="Grupo_7068" data-name="Grupo 7068" transform="translate(81.664 -4.083)">
        <path id="Caminho_6971" data-name="Caminho 6971" d="M0,0C3.057,0,4.083-1.186,4.083-4.083H0Z" fill="#41a8a6"/>
      </g>
      <g id="Grupo_7069" data-name="Grupo 7069" transform="translate(253.158 -4.083)">
        <path id="Caminho_6972" data-name="Caminho 6972" d="M0,0C3.057,0,4.083-1.186,4.083-4.083H0Z" fill="#41a8a6"/>
      </g>
      <g id="Grupo_7070" data-name="Grupo 7070" transform="translate(77.581 -4.083)">
        <path id="Caminho_6973" data-name="Caminho 6973" d="M0,0C0-3.057-1.186-4.083-4.083-4.083V0Z" fill="#41a8a6"/>
      </g>
      <g id="Grupo_7071" data-name="Grupo 7071" transform="translate(249.075 -4.083)">
        <path id="Caminho_6974" data-name="Caminho 6974" d="M0,0C0-3.057-1.186-4.083-4.083-4.083V0Z" fill="#41a8a6"/>
      </g>
      <g id="Grupo_7072" data-name="Grupo 7072" transform="translate(93.914 -8.166)">
        <path id="Caminho_6975" data-name="Caminho 6975" d="M0,0C-3.057,0-4.083,1.186-4.083,4.083H0Z" fill="#41a8a6"/>
      </g>
      <g id="Grupo_7073" data-name="Grupo 7073" transform="translate(265.408 -8.166)">
        <path id="Caminho_6976" data-name="Caminho 6976" d="M0,0C-3.057,0-4.083,1.186-4.083,4.083H0Z" fill="#41a8a6"/>
      </g>
      <g id="Grupo_7074" data-name="Grupo 7074" transform="translate(93.913 -4.083)">
        <path id="Caminho_6977" data-name="Caminho 6977" d="M0,0C3.057,0,4.083,1.186,4.083,4.083H0Z" fill="#41a8a6"/>
      </g>
      <g id="Grupo_7075" data-name="Grupo 7075" transform="translate(265.408 -4.083)">
        <path id="Caminho_6978" data-name="Caminho 6978" d="M0,0C3.057,0,4.083,1.186,4.083,4.083H0Z" fill="#41a8a6"/>
      </g>
      <g id="Grupo_7076" data-name="Grupo 7076" transform="translate(89.83 -4.083)">
        <path id="Caminho_6979" data-name="Caminho 6979" d="M0,0C0,3.057-1.186,4.083-4.083,4.083V0Z" fill="#41a8a6"/>
      </g>
      <g id="Grupo_7077" data-name="Grupo 7077" transform="translate(261.325 -4.083)">
        <path id="Caminho_6980" data-name="Caminho 6980" d="M0,0C0,3.057-1.186,4.083-4.083,4.083V0Z" fill="#41a8a6"/>
      </g>
      <g id="Grupo_7078" data-name="Grupo 7078" transform="translate(106.163 0)">
        <path id="Caminho_6981" data-name="Caminho 6981" d="M0,0C-3.057,0-4.083-1.186-4.083-4.083H0Z" fill="#41a8a6"/>
      </g>
      <g id="Grupo_7079" data-name="Grupo 7079" transform="translate(277.658 0)">
        <path id="Caminho_6982" data-name="Caminho 6982" d="M0,0C-3.057,0-4.083-1.186-4.083-4.083H0Z" fill="#41a8a6"/>
      </g>
      <g id="Grupo_7080" data-name="Grupo 7080" transform="translate(106.163 -4.083)">
        <path id="Caminho_6983" data-name="Caminho 6983" d="M0,0C3.057,0,4.083-1.186,4.083-4.083H0Z" fill="#41a8a6"/>
      </g>
      <g id="Grupo_7081" data-name="Grupo 7081" transform="translate(277.658 -4.083)">
        <path id="Caminho_6984" data-name="Caminho 6984" d="M0,0C3.057,0,4.083-1.186,4.083-4.083H0Z" fill="#41a8a6"/>
      </g>
      <g id="Grupo_7082" data-name="Grupo 7082" transform="translate(102.08 -4.083)">
        <path id="Caminho_6985" data-name="Caminho 6985" d="M0,0C0-3.057-1.186-4.083-4.083-4.083V0Z" fill="#41a8a6"/>
      </g>
      <g id="Grupo_7083" data-name="Grupo 7083" transform="translate(273.574 -4.083)">
        <path id="Caminho_6986" data-name="Caminho 6986" d="M0,0C0-3.057-1.186-4.083-4.083-4.083V0Z" fill="#41a8a6"/>
      </g>
      <g id="Grupo_7084" data-name="Grupo 7084" transform="translate(118.413 -8.166)">
        <path id="Caminho_6987" data-name="Caminho 6987" d="M0,0C-3.057,0-4.083,1.186-4.083,4.083H0Z" fill="#41a8a6"/>
      </g>
      <g id="Grupo_7085" data-name="Grupo 7085" transform="translate(289.907 -8.166)">
        <path id="Caminho_6988" data-name="Caminho 6988" d="M0,0C-3.057,0-4.083,1.186-4.083,4.083H0Z" fill="#41a8a6"/>
      </g>
      <g id="Grupo_7086" data-name="Grupo 7086" transform="translate(118.413 -4.083)">
        <path id="Caminho_6989" data-name="Caminho 6989" d="M0,0C3.057,0,4.083,1.186,4.083,4.083H0Z" fill="#41a8a6"/>
      </g>
      <g id="Grupo_7087" data-name="Grupo 7087" transform="translate(289.907 -4.083)">
        <path id="Caminho_6990" data-name="Caminho 6990" d="M0,0C3.057,0,4.083,1.186,4.083,4.083H0Z" fill="#41a8a6"/>
      </g>
      <g id="Grupo_7088" data-name="Grupo 7088" transform="translate(114.33 -4.083)">
        <path id="Caminho_6991" data-name="Caminho 6991" d="M0,0C0,3.057-1.186,4.083-4.083,4.083V0Z" fill="#41a8a6"/>
      </g>
      <g id="Grupo_7089" data-name="Grupo 7089" transform="translate(285.824 -4.083)">
        <path id="Caminho_6992" data-name="Caminho 6992" d="M0,0C0,3.057-1.186,4.083-4.083,4.083V0Z" fill="#41a8a6"/>
      </g>
      <g id="Grupo_7090" data-name="Grupo 7090" transform="translate(130.662 0)">
        <path id="Caminho_6993" data-name="Caminho 6993" d="M0,0C-3.057,0-4.083-1.186-4.083-4.083H0Z" fill="#41a8a6"/>
      </g>
      <g id="Grupo_7091" data-name="Grupo 7091" transform="translate(302.157 0)">
        <path id="Caminho_6994" data-name="Caminho 6994" d="M0,0C-3.057,0-4.083-1.186-4.083-4.083H0Z" fill="#41a8a6"/>
      </g>
      <g id="Grupo_7092" data-name="Grupo 7092" transform="translate(130.662 -4.083)">
        <path id="Caminho_6995" data-name="Caminho 6995" d="M0,0C3.057,0,4.083-1.186,4.083-4.083H0Z" fill="#41a8a6"/>
      </g>
      <g id="Grupo_7093" data-name="Grupo 7093" transform="translate(302.157 -4.083)">
        <path id="Caminho_6996" data-name="Caminho 6996" d="M0,0C3.057,0,4.083-1.186,4.083-4.083H0Z" fill="#41a8a6"/>
      </g>
      <g id="Grupo_7094" data-name="Grupo 7094" transform="translate(126.579 -4.083)">
        <path id="Caminho_6997" data-name="Caminho 6997" d="M0,0C0-3.057-1.186-4.083-4.083-4.083V0Z" fill="#41a8a6"/>
      </g>
      <g id="Grupo_7095" data-name="Grupo 7095" transform="translate(298.073 -4.083)">
        <path id="Caminho_6998" data-name="Caminho 6998" d="M0,0C0-3.057-1.186-4.083-4.083-4.083V0Z" fill="#41a8a6"/>
      </g>
      <g id="Grupo_7096" data-name="Grupo 7096" transform="translate(142.912 -8.166)">
        <path id="Caminho_6999" data-name="Caminho 6999" d="M0,0C-3.057,0-4.083,1.186-4.083,4.083H0Z" fill="#41a8a6"/>
      </g>
      <g id="Grupo_7097" data-name="Grupo 7097" transform="translate(314.406 -8.166)">
        <path id="Caminho_7000" data-name="Caminho 7000" d="M0,0C-3.057,0-4.083,1.186-4.083,4.083H0Z" fill="#41a8a6"/>
      </g>
      <g id="Grupo_7098" data-name="Grupo 7098" transform="translate(142.912 -4.083)">
        <path id="Caminho_7001" data-name="Caminho 7001" d="M0,0C3.057,0,4.083,1.186,4.083,4.083H0Z" fill="#41a8a6"/>
      </g>
      <g id="Grupo_7099" data-name="Grupo 7099" transform="translate(314.406 -4.083)">
        <path id="Caminho_7002" data-name="Caminho 7002" d="M0,0C3.057,0,4.083,1.186,4.083,4.083H0Z" fill="#41a8a6"/>
      </g>
      <g id="Grupo_7100" data-name="Grupo 7100" transform="translate(138.829 -4.083)">
        <path id="Caminho_7003" data-name="Caminho 7003" d="M0,0C0,3.057-1.186,4.083-4.083,4.083V0Z" fill="#41a8a6"/>
      </g>
      <g id="Grupo_7101" data-name="Grupo 7101" transform="translate(310.323 -4.083)">
        <path id="Caminho_7004" data-name="Caminho 7004" d="M0,0C0,3.057-1.186,4.083-4.083,4.083V0Z" fill="#41a8a6"/>
      </g>
      <g id="Grupo_7102" data-name="Grupo 7102" transform="translate(155.162 0)">
        <path id="Caminho_7005" data-name="Caminho 7005" d="M0,0C-3.057,0-4.083-1.186-4.083-4.083H0Z" fill="#41a8a6"/>
      </g>
      <g id="Grupo_7103" data-name="Grupo 7103" transform="translate(326.656 0)">
        <path id="Caminho_7006" data-name="Caminho 7006" d="M0,0C-3.057,0-4.083-1.186-4.083-4.083H0Z" fill="#41a8a6"/>
      </g>
      <g id="Grupo_7104" data-name="Grupo 7104" transform="translate(155.161 -4.083)">
        <path id="Caminho_7007" data-name="Caminho 7007" d="M0,0C3.057,0,4.083-1.186,4.083-4.083H0Z" fill="#41a8a6"/>
      </g>
      <g id="Grupo_7105" data-name="Grupo 7105" transform="translate(326.656 -4.083)">
        <path id="Caminho_7008" data-name="Caminho 7008" d="M0,0C3.057,0,4.083-1.186,4.083-4.083H0Z" fill="#41a8a6"/>
      </g>
      <g id="Grupo_7106" data-name="Grupo 7106" transform="translate(151.078 -4.083)">
        <path id="Caminho_7009" data-name="Caminho 7009" d="M0,0C0-3.057-1.186-4.083-4.083-4.083V0Z" fill="#41a8a6"/>
      </g>
      <g id="Grupo_7107" data-name="Grupo 7107" transform="translate(322.573 -4.083)">
        <path id="Caminho_7010" data-name="Caminho 7010" d="M0,0C0-3.057-1.186-4.083-4.083-4.083V0Z" fill="#41a8a6"/>
      </g>
      <g id="Grupo_7108" data-name="Grupo 7108" transform="translate(167.411 -8.166)">
        <path id="Caminho_7011" data-name="Caminho 7011" d="M0,0C-3.057,0-4.083,1.186-4.083,4.083H0Z" fill="#41a8a6"/>
      </g>
      <g id="Grupo_7109" data-name="Grupo 7109" transform="translate(338.905 -8.166)">
        <path id="Caminho_7012" data-name="Caminho 7012" d="M0,0C-3.057,0-4.083,1.186-4.083,4.083H0Z" fill="#41a8a6"/>
      </g>
      <g id="Grupo_7110" data-name="Grupo 7110" transform="translate(167.411 -4.083)">
        <path id="Caminho_7013" data-name="Caminho 7013" d="M0,0C3.057,0,4.083,1.186,4.083,4.083H0Z" fill="#41a8a6"/>
      </g>
      <g id="Grupo_7111" data-name="Grupo 7111" transform="translate(163.328 -4.083)">
        <path id="Caminho_7014" data-name="Caminho 7014" d="M0,0C0,3.057-1.186,4.083-4.083,4.083V0Z" fill="#41a8a6"/>
      </g>
      <g id="Grupo_7112" data-name="Grupo 7112" transform="translate(334.822 -4.083)">
        <path id="Caminho_7015" data-name="Caminho 7015" d="M0,0C0,3.057-1.186,4.083-4.083,4.083V0Z" fill="#41a8a6"/>
      </g>
    </g>
  </g>
</svg>
