<svg xmlns="http://www.w3.org/2000/svg" width="19.878" height="22.007" viewBox="0 0 19.878 22.007">
  <g id="pv_o4balaopensamentobranco_esq" transform="translate(-20)">
    <g id="Grupo_13100" data-name="Grupo 13100" transform="translate(29.098 0)">
      <path id="Caminho_13524" data-name="Caminho 13524" d="M0,0A5.389,5.389,0,0,1-5.39-5.391,5.389,5.389,0,0,1,0-10.779,5.389,5.389,0,0,1,5.39-5.391,5.389,5.389,0,0,1,0,0" transform="translate(5.39 10.779)" fill="#fff"/>
    </g>
    <g id="Grupo_13101" data-name="Grupo 13101" transform="translate(20.136 6.519)">
      <path id="Caminho_13525" data-name="Caminho 13525" d="M0,0A3.773,3.773,0,0,1-3.773-3.773,3.773,3.773,0,0,1,0-7.546,3.773,3.773,0,0,1,3.773-3.773,3.773,3.773,0,0,1,0,0" transform="translate(3.773 7.546)" fill="#fff"/>
    </g>
    <g id="Grupo_13102" data-name="Grupo 13102" transform="translate(20 16.725)">
      <path id="Caminho_13526" data-name="Caminho 13526" d="M0,0A2.641,2.641,0,0,1-2.641-2.642,2.64,2.64,0,0,1,0-5.282a2.64,2.64,0,0,1,2.641,2.64A2.641,2.641,0,0,1,0,0" transform="translate(2.641 5.282)" fill="#fff"/>
    </g>
  </g>
</svg>
