<svg xmlns="http://www.w3.org/2000/svg" xmlns:xlink="http://www.w3.org/1999/xlink" width="490.394" height="48.754" viewBox="0 0 490.394 48.754">
  <defs>
    <clipPath id="clip-path">
      <rect id="Ret창ngulo_254" data-name="Ret창ngulo 254" width="490.394" height="48.754" fill="none"/>
    </clipPath>
  </defs>
  <g id="pv_ods" transform="translate(-54.001 -894)">
    <g id="Grupo_13109" data-name="Grupo 13109" transform="translate(54.001 894)">
      <rect id="Ret창ngulo_253" data-name="Ret창ngulo 253" width="490.394" height="48.754" fill="#360044"/>
      <path id="Caminho_13530" data-name="Caminho 13530" d="M0,0V48.754H18.625L36.33,24.379,18.622,0Z" fill="#7b2b86"/>
      <path id="Caminho_13531" data-name="Caminho 13531" d="M18.727,0,36.435,24.379,18.728,48.754H37.609L55.318,24.379,37.607,0Z" fill="#7b2b86"/>
      <path id="Caminho_13532" data-name="Caminho 13532" d="M38.351,0,56.065,24.379,38.354,48.754H56.576L74.282,24.379,56.573,0Z" fill="#7b2b86"/>
      <path id="Caminho_13533" data-name="Caminho 13533" d="M57.973,0,75.681,24.379,57.975,48.754h17.6L93.282,24.379,75.572,0Z" fill="#7b2b86"/>
      <path id="Caminho_13534" data-name="Caminho 13534" d="M77.6,0l17.71,24.379L77.6,48.754H94.549l17.708-24.375L94.546,0Z" fill="#7b2b86"/>
      <path id="Caminho_13535" data-name="Caminho 13535" d="M97.22,0l17.709,24.379L97.222,48.754h16.3l17.709-24.375L113.523,0Z" fill="#7b2b86"/>
      <path id="Caminho_13536" data-name="Caminho 13536" d="M116.846,0l17.711,24.379L116.848,48.754h15.674l17.71-24.375L132.52,0Z" fill="#7b2b86"/>
      <path id="Caminho_13537" data-name="Caminho 13537" d="M136.475,0l17.712,24.379L136.478,48.754h15.01L169.2,24.379,151.484,0Z" fill="#7b2b86"/>
      <path id="Caminho_13538" data-name="Caminho 13538" d="M156.093,0,173.8,24.379,156.1,48.754h14.369l17.71-24.375L170.462,0Z" fill="#7b2b86"/>
      <path id="Caminho_13539" data-name="Caminho 13539" d="M175.712,0l17.709,24.379L175.714,48.754H189.44l17.708-24.375L189.437,0Z" fill="#7b2b86"/>
      <path id="Caminho_13540" data-name="Caminho 13540" d="M195.342,0l17.709,24.379L195.344,48.754H208.43l17.708-24.375L208.426,0Z" fill="#7b2b86"/>
      <path id="Caminho_13541" data-name="Caminho 13541" d="M214.959,0l17.71,24.379L214.962,48.754H227.4l17.709-24.375L227.4,0Z" fill="#7b2b86"/>
      <path id="Caminho_13542" data-name="Caminho 13542" d="M234.6,0,252.31,24.379,234.6,48.754h11.791L264.1,24.379,246.389,0Z" fill="#7b2b86"/>
      <path id="Caminho_13543" data-name="Caminho 13543" d="M254.227,0l17.711,24.379L254.23,48.754h11.138l17.709-24.375L265.366,0Z" fill="#7b2b86"/>
      <path id="Caminho_13544" data-name="Caminho 13544" d="M273.845,0l17.711,24.379L273.848,48.754h10.5l17.709-24.375L284.341,0Z" fill="#7b2b86"/>
      <path id="Caminho_13545" data-name="Caminho 13545" d="M293.473,0l17.712,24.379L293.476,48.754h9.856l17.709-24.375L303.33,0Z" fill="#7b2b86"/>
      <path id="Caminho_13546" data-name="Caminho 13546" d="M313.093,0,330.8,24.379,313.1,48.754h9.212l17.709-24.375L322.3,0Z" fill="#7b2b86"/>
      <path id="Caminho_13547" data-name="Caminho 13547" d="M332.72,0l17.711,24.379L332.723,48.754H341.3L359,24.379,341.293,0Z" fill="#7b2b86"/>
      <path id="Caminho_13548" data-name="Caminho 13548" d="M352.35,0l17.711,24.379L352.353,48.754h7.92l17.708-24.375L360.27,0Z" fill="#7b2b86"/>
      <path id="Caminho_13549" data-name="Caminho 13549" d="M371.968,0l17.711,24.379L371.971,48.754h7.277l17.708-24.375L379.245,0Z" fill="#7b2b86"/>
      <path id="Caminho_13550" data-name="Caminho 13550" d="M391.6,0l17.711,24.379L391.6,48.754h6.614L415.92,24.379l-1.131-1.574L398.222,0Z" fill="#7b2b86"/>
      <path id="Caminho_13551" data-name="Caminho 13551" d="M411.214,0l17.712,24.379L411.217,48.754H417.2l17.708-24.375L417.2,0Z" fill="#7b2b86"/>
      <path id="Caminho_13552" data-name="Caminho 13552" d="M430.843,0l17.711,24.379L430.846,48.754h5.331l17.708-24.375L436.174,0Z" fill="#7b2b86"/>
      <path id="Caminho_13553" data-name="Caminho 13553" d="M450.461,0l17.711,24.379L450.464,48.754h4.7l17.709-24.375L455.161,0Z" fill="#7b2b86"/>
      <path id="Caminho_13554" data-name="Caminho 13554" d="M470.1,0l17.712,24.379L470.1,48.754h4.049L490.394,26.4V22.373L474.141,0Z" fill="#7b2b86"/>
      <path id="Caminho_13555" data-name="Caminho 13555" d="M489.721,48.754h.673v-.925Zm0-48.754.676.93V0Z" fill="#7b2b86"/>
      <g id="Grupo_13108" data-name="Grupo 13108">
        <g id="Grupo_13107" data-name="Grupo 13107" clip-path="url(#clip-path)">
          <path id="Caminho_13556" data-name="Caminho 13556" d="M100.115-563.3-590.7-338.8V387.548L100.115,612.064,527.047,24.379Zm1.331,1177.329-.491.665-693.12-225.264-.77-.256V-340.422L100.186-565.686l.769-.245L529.333,23.715l.49.664Z" fill="#7b2b86"/>
          <path id="Caminho_13557" data-name="Caminho 13557" d="M105.8-582.48-607.548-350.651V399.4L105.8,631.239,546.665,24.38Zm1.015,1215.224-.362.512-715.7-232.61V-351.9l715.7-232.61L548.415,23.878l.373.5Z" fill="#7b2b86"/>
          <path id="Caminho_13558" data-name="Caminho 13558" d="M-624.413-362.5v773.75L111.476,650.425,566.294,24.38,111.476-601.665ZM567.519,24.03l.257.35L112.2,651.475l-.257.349L-625.184,412.251l-.419-.128v-775.5L111.535-602.937l.408-.128Z" fill="#7b2b86"/>
        </g>
      </g>
    </g>
  </g>
</svg>
