<svg xmlns="http://www.w3.org/2000/svg" xmlns:xlink="http://www.w3.org/1999/xlink" width="490.46" height="31.265" viewBox="0 0 490.46 31.265">
  <defs>
    <clipPath id="clip-path">
      <rect id="Ret창ngulo_111" data-name="Ret창ngulo 111" width="490.46" height="31.265" transform="translate(0 0.033)" fill="none"/>
    </clipPath>
  </defs>
  <g id="pv_oemestrategia2" transform="translate(0 -0.033)">
    <rect id="Ret창ngulo_110" data-name="Ret창ngulo 110" width="490.46" height="31.265" transform="translate(0 0.033)" fill="#9e1405"/>
    <g id="Grupo_12824" data-name="Grupo 12824">
      <g id="Grupo_12823" data-name="Grupo 12823" clip-path="url(#clip-path)">
        <path id="Caminho_12913" data-name="Caminho 12913" d="M341.078,0q8.635,23.74,15.934,48.752h9.816Q360.111,23.823,352.164,0Z" fill="#e95a00"/>
        <path id="Caminho_12914" data-name="Caminho 12914" d="M326.778,0q9,23.7,16.611,48.752h10.062Q346.493,23.8,338.265,0Z" fill="#e95a00"/>
        <path id="Caminho_12915" data-name="Caminho 12915" d="M365.955,0H355.234q8.3,23.778,15.326,48.752h9.557q-.974-3.735-1.975-7.458Q372.478,20.264,365.955,0" fill="#e95a00"/>
        <path id="Caminho_12916" data-name="Caminho 12916" d="M297.672,0q9.849,23.6,18.142,48.752H326.5Q318.977,23.728,310.061,0Z" fill="#e95a00"/>
        <path id="Caminho_12917" data-name="Caminho 12917" d="M236.289,0a535.72,535.72,0,0,1,22.5,48.752h12.517Q262.277,23.516,251.514,0Z" fill="#e95a00"/>
        <path id="Caminho_12918" data-name="Caminho 12918" d="M114.331,0H101.815c.447.365.9.719,1.342,1.088a294.344,294.344,0,0,1,37.215,47.664h16.24A265.183,265.183,0,0,0,114.331,0" fill="#e95a00"/>
        <path id="Caminho_12919" data-name="Caminho 12919" d="M312.319,0q9.4,23.661,17.349,48.752h10.346Q332.786,23.768,324.233,0Z" fill="#e95a00"/>
        <path id="Caminho_12920" data-name="Caminho 12920" d="M101.609,10.975Q95.965,5.215,90.094,0H71.089A178.209,178.209,0,0,1,97.375,18.2a269.448,269.448,0,0,1,25.111,30.55h15.493a234.528,234.528,0,0,0-36.37-37.777" fill="#e95a00"/>
        <path id="Caminho_12921" data-name="Caminho 12921" d="M95.695,27.889A205.343,205.343,0,0,0,62.579,0H46.862l.06.033L46.823,0H0V2.646A135.236,135.236,0,0,1,43.2,18.519,126.012,126.012,0,0,0,2.574,11.737c-.86,0-1.717.023-2.574.044V22.147A127.047,127.047,0,0,1,39.476,37a117.83,117.83,0,0,0-36.9-5.979c-.86,0-1.717.024-2.574.046V41.655a114.6,114.6,0,0,1,22.463,7.1H41.01q-5.247-3.093-10.621-5.67A116.169,116.169,0,0,1,46.7,48.752H70.239a160.41,160.41,0,0,0-37.5-24.7C49.669,28.571,65.994,36.9,81.31,48.752H94.462c-1.629-1.418-3.268-2.805-4.921-4.145C72.767,27.161,54.476,13.881,35.2,5.083,54.8,10.408,73.407,20.434,90.523,34.421q6.522,6.787,12.688,14.331h14.443A208.453,208.453,0,0,0,95.695,27.889" fill="#e95a00"/>
        <path id="Caminho_12922" data-name="Caminho 12922" d="M195.8,0q2.188,3.879,4.328,7.826c-1.015-1.643-2.022-3.293-3.055-4.915-.625-.98-1.258-1.941-1.888-2.911H179.025q5.849,9.581,11.336,19.7c-.651-1.045-1.291-2.1-1.95-3.139Q182.959,8,177.231,0H161.559q10.024,15.015,19.047,31.592c-.289-.46-.571-.93-.862-1.388A338.071,338.071,0,0,0,158.155,0h-14.9q7.329,9.9,14.229,20.723,7.25,11.386,13.833,23.517c-.082-.128-.16-.261-.243-.389A305.24,305.24,0,0,0,137.5,0H123.567a336.128,336.128,0,0,1,33.787,48.752h56.025q-2.04-4.551-4.148-9.041,2.314,4.473,4.536,9.041h14.479q-4.508-10.695-9.4-21.04,5.3,10.269,10.205,21.04h13.786q-7.665-19.261-16.513-37.476,9.59,18.1,17.882,37.476h13.005Q247.7,23.546,236.277,0Z" fill="#e95a00"/>
        <path id="Caminho_12923" data-name="Caminho 12923" d="M282.775,0q10.347,23.547,19.063,48.752h11.041Q305.037,23.683,295.725,0Z" fill="#e95a00"/>
        <path id="Caminho_12924" data-name="Caminho 12924" d="M252.079,0q11.489,23.315,21.21,48.752h12Q276.7,23.582,266.482,0Z" fill="#e95a00"/>
        <path id="Caminho_12925" data-name="Caminho 12925" d="M267.643,0q10.9,23.475,20.068,48.752h11.44Q290.956,23.641,281.227,0Z" fill="#e95a00"/>
        <path id="Caminho_12926" data-name="Caminho 12926" d="M433.618,0h-9.3q2.957,10.116,5.729,20.4,3.793,14.085,7.189,28.354h8.48q-5.082-22.718-11.081-45.026C434.3,2.48,433.958,1.243,433.618,0" fill="#e95a00"/>
        <path id="Caminho_12927" data-name="Caminho 12927" d="M464.78,0q6.445,24.135,11.832,48.752h7.956Q479.5,24.163,473.432,0Z" fill="#e95a00"/>
        <path id="Caminho_12928" data-name="Caminho 12928" d="M478.151,0q6.268,24.144,11.5,48.752h.808V16.31Q488.581,8.132,486.594,0Z" fill="#e95a00"/>
        <path id="Caminho_12929" data-name="Caminho 12929" d="M451.355,0c.488,1.775.979,3.546,1.459,5.327q5.795,21.514,10.721,43.425h8.117Q466.442,24.154,460.21,0Z" fill="#e95a00"/>
        <path id="Caminho_12930" data-name="Caminho 12930" d="M420.237,0h-9.553q4.169,13.807,7.987,27.933,2.789,10.358,5.354,20.819h8.667q-4.35-18.9-9.352-37.513Q421.819,5.593,420.237,0" fill="#e95a00"/>
        <path id="Caminho_12931" data-name="Caminho 12931" d="M437.868,0q1.813,6.4,3.565,12.862,4.794,17.8,8.974,35.89h8.3Q453.355,24.143,446.941,0Z" fill="#e95a00"/>
        <path id="Caminho_12932" data-name="Caminho 12932" d="M406.79,0h-9.822q5.459,17.463,10.32,35.468,1.783,6.62,3.469,13.284h8.866q-3.579-15.1-7.584-30Q409.495,9.305,406.79,0" fill="#e95a00"/>
        <path id="Caminho_12933" data-name="Caminho 12933" d="M379.658,0h-10.4q8,23.811,14.775,48.752h9.312q-1.895-7.512-3.9-14.972Q384.826,16.644,379.658,0" fill="#e95a00"/>
        <path id="Caminho_12934" data-name="Caminho 12934" d="M393.255,0H383.162q6.827,21.086,12.745,43,.772,2.87,1.523,5.749h9.079q-2.76-11.3-5.768-22.485Q397.163,12.986,393.255,0" fill="#e95a00"/>
      </g>
    </g>
  </g>
</svg>
