<svg xmlns="http://www.w3.org/2000/svg" xmlns:xlink="http://www.w3.org/1999/xlink" width="413.858" height="25.775" viewBox="0 0 413.858 25.775">
  <defs>
    <clipPath id="clip-path">
      <path id="Caminho_840" data-name="Caminho 840" d="M0-320.213H413.858v-25.775H0Z" fill="none"/>
    </clipPath>
    <clipPath id="clip-path-2">
      <path id="Caminho_849" data-name="Caminho 849" d="M7.381-322.449H238.326l3.752-16.959L9.725-345.987Z" fill="none"/>
    </clipPath>
    <clipPath id="clip-path-3">
      <rect id="Retângulo_22" data-name="Retângulo 22" width="128.424" height="99.205" transform="translate(130.238 -368.4)" fill="none"/>
    </clipPath>
    <clipPath id="clip-path-4">
      <path id="Caminho_848" data-name="Caminho 848" d="M130.238-269.2H258.662v-99.2H130.238Z" fill="none"/>
    </clipPath>
    <clipPath id="clip-path-5">
      <path id="Caminho_854" data-name="Caminho 854" d="M226.772-335.654v13.2H413.858v-.155a13.2,13.2,0,0,0-11.427-12.916h0v-.134Z" fill="none"/>
    </clipPath>
  </defs>
  <g id="pv_p1sec1tit1" transform="translate(-97 -268.6)">
    <g id="Grupo_901" data-name="Grupo 901" transform="translate(97 614.588)" clip-path="url(#clip-path)">
      <g id="Grupo_899" data-name="Grupo 899" transform="translate(402.432 -335.521)">
        <path id="Caminho_838" data-name="Caminho 838" d="M0,0V-.134H-175.66V13.071H11.426A13.2,13.2,0,0,0,0,0" fill="#f3e33f"/>
      </g>
      <g id="Grupo_900" data-name="Grupo 900" transform="translate(7.381 -322.449)">
        <path id="Caminho_839" data-name="Caminho 839" d="M0,0H230.945L234.7-16.96,2.344-23.538Z" fill="#665eb0"/>
      </g>
    </g>
    <g id="Grupo_913" data-name="Grupo 913" transform="translate(97 614.588)" clip-path="url(#clip-path-2)">
      <g id="Grupo_912" data-name="Grupo 912" opacity="0.29" style="mix-blend-mode: lighten;isolation: isolate">
        <g id="Grupo_911" data-name="Grupo 911">
          <g id="Grupo_910" data-name="Grupo 910" clip-path="url(#clip-path-3)">
            <g id="Grupo_909" data-name="Grupo 909" clip-path="url(#clip-path-4)">
              <g id="Grupo_902" data-name="Grupo 902" transform="translate(149.421 -318.592)">
                <path id="Caminho_841" data-name="Caminho 841" d="M0,0C.229-8.827.845-17.309,5.794-24.074c5.066-6.926,13.7-7.874,22.837-8.878,2.154-.237,4.383-.482,6.568-.809,5.979-.894,12.161-1.82,18.192-.921a38.064,38.064,0,0,1,12.57,4.432C79.749-22.783,88.97-9.636,90.024,4.06s-6.068,27.72-18.593,36.6c-5.67,4.021-11.222,6.029-16.5,5.969-4.264-.046-8.353-1.438-12.307-2.785C25.773,38.11,7.336,30.812,1.857,16.736-.291,11.211-.131,4.995,0,0M92.241,6.739q0-1.4-.107-2.793C91.038-10.3,81.449-23.967,67.112-31.732A40.444,40.444,0,0,0,53.763-36.42c-6.4-.954-13.062.043-18.935.922-2.138.319-4.341.562-6.472.8-9.23,1.014-18.773,2.063-24.366,9.708C-1.229-17.86-1.887-8.754-2.113-.038c-.136,5.129-.3,11.512,1.961,17.318,5.758,14.8,24.688,22.317,41.979,28.2C45.771,46.823,50.24,48.344,54.9,48.4c5.8.066,11.824-2.083,17.894-6.389C84.973,33.374,92.241,20.07,92.241,6.739" fill="#fff"/>
              </g>
              <g id="Grupo_903" data-name="Grupo 903" transform="translate(154.563 -317.93)">
                <path id="Caminho_842" data-name="Caminho 842" d="M0,0C.2-7.819.748-15.332,5.133-21.325,9.62-27.46,17.267-28.3,25.361-29.189c1.908-.21,3.883-.427,5.819-.716,5.3-.793,10.772-1.613,16.114-.817A33.71,33.71,0,0,1,58.428-26.8C70.643-20.181,78.81-8.535,79.744,3.6s-5.376,24.555-16.47,32.423c-5.023,3.562-9.941,5.341-14.615,5.287-3.777-.041-7.4-1.273-10.9-2.466C22.83,33.758,6.5,27.294,1.645,14.825-.258,9.931-.116,4.425,0,0M81.708,5.969q0-1.236-.1-2.473c-.971-12.616-9.465-24.726-22.165-31.6a35.827,35.827,0,0,0-11.825-4.153c-5.671-.845-11.57.038-16.773.816-1.893.283-3.845.5-5.732.706-8.176.9-16.63,1.827-21.584,8.6C-1.089-15.821-1.672-7.754-1.872-.033c-.12,4.542-.265,10.2,1.737,15.34,5.1,13.108,21.869,19.768,37.186,24.98,3.493,1.189,7.452,2.536,11.583,2.582,5.14.058,10.473-1.846,15.85-5.659C75.27,29.563,81.708,17.778,81.708,5.969" fill="#fff"/>
              </g>
              <g id="Grupo_904" data-name="Grupo 904" transform="translate(159.705 -317.268)">
                <path id="Caminho_843" data-name="Caminho 843" d="M0,0C.176-6.811.652-13.356,4.471-18.575c3.909-5.345,10.57-6.076,17.621-6.852,1.662-.182,3.382-.372,5.068-.623,4.614-.69,9.384-1.405,14.037-.711a29.346,29.346,0,0,1,9.7,3.42C61.536-17.579,68.65-7.435,69.464,3.133S64.781,24.522,55.117,31.375c-4.375,3.1-8.659,4.653-12.731,4.606-3.29-.036-6.445-1.109-9.5-2.149-13-4.426-27.23-10.057-31.457-20.918C-.225,8.651-.1,3.854,0,0M71.175,5.2q0-1.078-.083-2.155c-.845-10.99-8.245-21.538-19.308-27.53a31.188,31.188,0,0,0-10.3-3.617c-4.94-.736-10.079.033-14.611.711-1.649.246-3.349.434-4.993.615-7.122.782-14.486,1.591-18.8,7.49C-.948-13.781-1.456-6.755-1.631-.029c-.1,3.957-.231,8.882,1.513,13.363,4.444,11.417,19.05,17.22,32.393,21.76,3.042,1.035,6.491,2.209,10.089,2.248,4.478.051,9.123-1.607,13.807-4.929,9.4-6.661,15-16.927,15-27.213" fill="#fff"/>
              </g>
              <g id="Grupo_905" data-name="Grupo 905" transform="translate(164.847 -316.607)">
                <path id="Caminho_844" data-name="Caminho 844" d="M0,0C.15-5.8.556-11.379,3.809-15.826,7.14-20.38,12.815-21,18.822-21.664c1.417-.155,2.882-.316,4.319-.531,3.93-.588,7.994-1.2,11.96-.606a25.026,25.026,0,0,1,8.263,2.914c9.065,4.909,15.127,13.552,15.82,22.556S55.194,20.893,46.96,26.732c-3.727,2.644-7.377,3.964-10.847,3.924a26.262,26.262,0,0,1-8.09-1.83C16.944,25.055,4.823,20.257,1.221,11-.192,7.37-.086,3.284,0,0M60.641,4.43q0-.918-.07-1.836c-.72-9.363-7.025-18.35-16.45-23.455a26.58,26.58,0,0,0-8.776-3.082c-4.21-.627-8.588.028-12.449.606-1.405.21-2.853.37-4.254.523-6.068.667-12.342,1.357-16.019,6.382C-.808-11.741-1.241-5.755-1.389-.025c-.09,3.372-.2,7.568,1.289,11.386C3.686,21.088,16.131,26.032,27.5,29.9a27.919,27.919,0,0,0,8.6,1.916c3.816.043,7.774-1.37,11.764-4.2,8-5.675,12.783-14.422,12.783-23.186" fill="#fff"/>
              </g>
              <g id="Grupo_906" data-name="Grupo 906" transform="translate(169.989 -315.945)">
                <path id="Caminho_845" data-name="Caminho 845" d="M0,0C.124-4.8.459-9.4,3.148-13.077,5.9-16.84,10.589-17.355,15.553-17.9c1.17-.128,2.381-.262,3.568-.439A33.655,33.655,0,0,1,29-18.84a20.684,20.684,0,0,1,6.828,2.407c7.49,4.057,12.5,11.2,13.072,18.638s-3.3,15.059-10.1,19.884a15.345,15.345,0,0,1-8.963,3.242,21.721,21.721,0,0,1-6.685-1.512C14,20.7,3.985,16.738,1.009,9.091-.158,6.09-.071,2.714,0,0M50.108,3.661q0-.759-.058-1.517c-.595-7.737-5.8-15.163-13.593-19.382a22.012,22.012,0,0,0-7.251-2.547,35.263,35.263,0,0,0-10.287.5c-1.161.174-2.358.306-3.515.433-5.014.551-10.2,1.121-13.236,5.273C-.667-9.7-1.025-4.755-1.148-.02-1.222,2.765-1.31,6.233-.083,9.387,3.046,17.425,13.329,21.51,22.722,24.706a23.051,23.051,0,0,0,7.1,1.584,16.578,16.578,0,0,0,9.721-3.471C46.16,18.13,50.108,10.9,50.108,3.661" fill="#fff"/>
              </g>
              <g id="Grupo_907" data-name="Grupo 907" transform="translate(175.131 -315.284)">
                <path id="Caminho_846" data-name="Caminho 846" d="M0,0C.1-3.787.362-7.426,2.486-10.328c2.174-2.972,5.877-3.379,9.8-3.81.924-.1,1.88-.206,2.818-.346a26.578,26.578,0,0,1,7.8-.4,16.334,16.334,0,0,1,5.393,1.9c5.915,3.2,9.871,8.844,10.324,14.72s-2.6,11.893-7.977,15.7a12.12,12.12,0,0,1-7.079,2.56,17.137,17.137,0,0,1-5.28-1.194C11.058,16.351,3.147,13.22.8,7.18A18.526,18.526,0,0,1,0,0M39.575,2.891q0-.6-.046-1.2c-.47-6.11-4.584-11.976-10.736-15.307a17.316,17.316,0,0,0-5.727-2.011,27.806,27.806,0,0,0-8.124.4c-.917.137-1.862.241-2.776.342-3.96.435-8.055.885-10.454,4.165C-.527-7.663-.81-3.756-.907-.016a19.006,19.006,0,0,0,.842,7.43c2.47,6.348,10.592,9.574,18.01,12.1a18.223,18.223,0,0,0,5.61,1.25,13.1,13.1,0,0,0,7.678-2.741A18.958,18.958,0,0,0,39.575,2.891" fill="#fff"/>
              </g>
              <g id="Grupo_908" data-name="Grupo 908" transform="translate(180.273 -314.622)">
                <path id="Caminho_847" data-name="Caminho 847" d="M0,0C.072-2.779.266-5.449,1.824-7.579c1.595-2.181,4.313-2.479,7.19-2.8.678-.074,1.38-.152,2.068-.254a19.475,19.475,0,0,1,5.728-.29,11.958,11.958,0,0,1,3.957,1.395c4.341,2.351,7.245,6.49,7.576,10.8A13.2,13.2,0,0,1,22.49,12.8a8.906,8.906,0,0,1-5.195,1.88,12.59,12.59,0,0,1-3.875-.877C8.114,12,2.31,9.7.585,5.269A13.588,13.588,0,0,1,0,0M29.041,2.122q0-.439-.033-.88c-.345-4.484-3.364-8.788-7.878-11.233a12.769,12.769,0,0,0-4.2-1.476,20.424,20.424,0,0,0-5.962.291c-.673.1-1.367.177-2.037.25-2.907.32-5.911.65-7.672,3.057C-.387-5.623-.594-2.756-.665-.012A13.938,13.938,0,0,0-.048,5.441c1.813,4.658,7.773,7.026,13.217,8.878a13.348,13.348,0,0,0,4.117.918,9.61,9.61,0,0,0,5.634-2.012,13.912,13.912,0,0,0,6.121-11.1" fill="#fff"/>
              </g>
            </g>
          </g>
        </g>
      </g>
    </g>
    <g id="Grupo_918" data-name="Grupo 918" transform="translate(97 614.588)" clip-path="url(#clip-path-5)">
      <g id="Grupo_916" data-name="Grupo 916" transform="translate(240.095 -289.018)">
        <path id="Caminho_852" data-name="Caminho 852" d="M0,0A70.623,70.623,0,0,0,15.683,6.245a51.785,51.785,0,0,0,20.426.987A36.37,36.37,0,0,0,54.434-.8c5.571-4.851,8.82-11.35,11.963-17.635,3.946-7.89,7.672-15.342,15.587-19.829,11.295-6.4,25.722-2.983,33.316-.375,3.151,1.082,6.295,2.342,9.336,3.561,7.17,2.873,14.585,5.845,22.679,6.721a33.713,33.713,0,0,0,10.055-.353,19.958,19.958,0,0,0,8.954-4.008,11.256,11.256,0,0,0,4.168-9.154,7.28,7.28,0,0,0-3.808-6.141l-.384.491a6.772,6.772,0,0,1,3.528,5.722,10.667,10.667,0,0,1-3.945,8.681c-4.208,3.477-10.929,5-18.439,4.192-8-.865-15.367-3.819-22.494-6.676-3.049-1.222-6.2-2.485-9.368-3.572A57.851,57.851,0,0,0,98.477-42.5a31.906,31.906,0,0,0-16.829,3.76C73.549-34.148,69.6-26.26,65.79-18.632,62.674-12.4,59.452-5.957,53.979-1.192c-8.956,7.8-23.9,10.5-38.067,6.885C3.023,2.4-7.9-5.192-17.538-11.9l-.438.457A178.2,178.2,0,0,0,0,0" fill="#665eb0"/>
      </g>
      <g id="Grupo_917" data-name="Grupo 917" transform="translate(299.971 -305.441)">
        <path id="Caminho_853" data-name="Caminho 853" d="M0,0A30.423,30.423,0,0,0,17.407,3.293C28.147,2.116,38.261-4.94,42-13.865a49.9,49.9,0,0,0,1.855-5.669c1.245-4.388,2.42-8.533,6.052-11.515,3.477-2.855,8.943-4.072,14.623-3.254,4.517.649,8.7,2.385,12.743,4.064q.751.312,1.5.622c4.336,1.781,9.416,3.683,14.854,3.721a20.666,20.666,0,0,0,7.952-1.533,13.3,13.3,0,0,0,6.05-4.7,7.868,7.868,0,0,0,.644-7.523A6.8,6.8,0,0,0,103.4-43.6l-.2.559a6.226,6.226,0,0,1,4.461,3.628,7.345,7.345,0,0,1-.591,7.024c-2.421,3.635-7.673,5.958-13.38,5.918-5.306-.037-10.312-1.914-14.587-3.669l-1.5-.621c-4.083-1.7-8.305-3.448-12.91-4.111-5.889-.847-11.577.431-15.216,3.419-3.788,3.11-5.044,7.538-6.258,11.82a49.4,49.4,0,0,1-1.834,5.606c-3.65,8.712-13.522,15.6-24.007,16.75S-3.736-.767-8.462-8.561l-.593.294A23.207,23.207,0,0,0,0,0" fill="#665eb0"/>
      </g>
    </g>
  </g>
</svg>
