<svg xmlns="http://www.w3.org/2000/svg" width="69.452" height="62.672" viewBox="0 0 69.452 62.672">
  <g id="pv_p0tit2mptextura" transform="translate(-458.791 43.517)">
    <g id="Grupo_11619" data-name="Grupo 11619" transform="translate(526.638 -16.442)">
      <path id="Caminho_11744" data-name="Caminho 11744" d="M0,0C-.168-6.492-.622-12.731-4.262-17.707c-3.726-5.095-10.076-5.792-16.8-6.531-1.584-.174-3.224-.354-4.831-.594-4.4-.658-8.946-1.34-13.381-.678a27.981,27.981,0,0,0-9.246,3.26c-10.142,5.492-16.924,15.162-17.7,25.236s4.464,20.389,13.676,26.923c4.171,2.957,8.255,4.435,12.136,4.39a29.383,29.383,0,0,0,9.053-2.048C-18.957,28.032-5.4,22.664-1.366,12.31.214,8.246.1,3.674,0,0M-67.847,4.957q0-1.027.079-2.054c.805-10.476,7.859-20.532,18.4-26.243a29.759,29.759,0,0,1,9.819-3.449c4.709-.7,9.608.032,13.928.678,1.572.235,3.193.414,4.76.586,6.789.746,13.809,1.518,17.922,7.141C.9-13.137,1.388-6.439,1.554-.028c.1,3.772.221,8.467-1.442,12.738C-4.124,23.594-18.047,29.125-30.766,33.453A31.247,31.247,0,0,1-40.384,35.6c-4.268.048-8.7-1.533-13.161-4.7-8.957-6.35-14.3-16.136-14.3-25.941" fill="#b07abc"/>
    </g>
    <g id="Grupo_11620" data-name="Grupo 11620" transform="translate(522.856 -15.956)">
      <path id="Caminho_11745" data-name="Caminho 11745" d="M0,0C-.149-5.751-.55-11.278-3.775-15.685c-3.3-4.513-8.926-5.131-14.879-5.785-1.4-.154-2.856-.314-4.28-.527-3.9-.582-7.924-1.186-11.853-.6a24.8,24.8,0,0,0-8.19,2.888C-51.961-14.844-57.968-6.278-58.655,2.645S-54.7,20.706-46.541,26.493c3.695,2.62,7.312,3.929,10.75,3.89a26.049,26.049,0,0,0,8.019-1.815C-16.792,24.831-4.78,20.076-1.21,10.9.19,7.3.085,3.255,0,0M-60.1,4.391q0-.91.07-1.82c.714-9.279,6.962-18.186,16.3-23.246a26.376,26.376,0,0,1,8.7-3.055c4.171-.621,8.511.029,12.337.6,1.393.208,2.828.367,4.217.519,6.014.661,12.232,1.344,15.875,6.325C.8-11.637,1.23-5.7,1.377-.024c.089,3.341.2,7.5-1.278,11.283C-3.653,20.9-15.987,25.8-27.253,29.633a27.673,27.673,0,0,1-8.519,1.9c-3.781.043-7.7-1.358-11.659-4.163C-55.364,21.745-60.1,13.076-60.1,4.391" fill="#b07abc"/>
    </g>
    <g id="Grupo_11621" data-name="Grupo 11621" transform="translate(519.073 -15.469)">
      <path id="Caminho_11746" data-name="Caminho 11746" d="M0,0C-.13-5.01-.48-9.824-3.288-13.663c-2.876-3.931-7.775-4.469-12.962-5.039-1.222-.135-2.487-.274-3.727-.459-3.394-.508-6.9-1.033-10.325-.523a21.581,21.581,0,0,0-7.134,2.516C-45.262-12.93-50.495-5.469-51.094,2.3s3.445,15.733,10.553,20.774a16.035,16.035,0,0,0,9.364,3.388,22.678,22.678,0,0,0,6.985-1.581C-14.628,21.63-4.163,17.488-1.054,9.5.165,6.363.074,2.835,0,0M-52.352,3.825q0-.794.061-1.585c.622-8.084,6.064-15.843,14.2-20.249a22.98,22.98,0,0,1,7.577-2.662c3.633-.541,7.413.025,10.747.524,1.213.181,2.463.319,3.672.452,5.239.575,10.655,1.171,13.83,5.509C.7-10.137,1.071-4.968,1.2-.021c.077,2.91.169,6.533-1.113,9.829-3.269,8.4-14.013,12.665-23.826,16.005a24.1,24.1,0,0,1-7.422,1.654,17.313,17.313,0,0,1-10.155-3.626c-6.911-4.9-11.036-12.45-11.036-20.016" fill="#b07abc"/>
    </g>
    <g id="Grupo_11622" data-name="Grupo 11622" transform="translate(515.291 -14.982)">
      <path id="Caminho_11747" data-name="Caminho 11747" d="M0,0C-.111-4.268-.409-8.37-2.8-11.641c-2.45-3.349-6.624-3.808-11.043-4.293-1.041-.115-2.119-.234-3.176-.391a29.953,29.953,0,0,0-8.8-.446A18.415,18.415,0,0,0-31.9-14.628c-6.668,3.611-11.126,9.969-11.636,16.591s2.934,13.4,8.991,17.7a13.662,13.662,0,0,0,7.978,2.886A19.285,19.285,0,0,0-20.612,21.2C-12.463,18.429-3.547,14.9-.9,8.093.141,5.421.063,2.416,0,0M-44.6,3.259q0-.675.052-1.351c.529-6.887,5.166-13.5,12.1-17.252A19.532,19.532,0,0,1-26-17.611a31.408,31.408,0,0,1,9.156.445c1.033.155,2.1.273,3.129.386,4.464.49,9.078,1,11.783,4.694C.594-8.636.913-4.233,1.022-.018c.066,2.48.145,5.566-.948,8.374-2.785,7.155-11.939,10.792-20.3,13.637A20.546,20.546,0,0,1-26.549,23.4,14.75,14.75,0,0,1-35.2,20.313C-41.09,16.139-44.6,9.7-44.6,3.259" fill="#b07abc"/>
    </g>
    <g id="Grupo_11623" data-name="Grupo 11623" transform="translate(511.509 -14.496)">
      <path id="Caminho_11748" data-name="Caminho 11748" d="M0,0C-.091-3.527-.338-6.916-2.315-9.619c-2.025-2.768-5.474-3.146-9.125-3.548-.861-.094-1.751-.192-2.625-.323a24.791,24.791,0,0,0-7.269-.368,15.207,15.207,0,0,0-5.022,1.771C-31.865-9.1-35.55-3.85-35.971,1.622s2.425,11.076,7.429,14.625a11.287,11.287,0,0,0,6.593,2.385,15.954,15.954,0,0,0,4.917-1.112c6.734-2.292,14.1-5.208,16.29-10.833A17.269,17.269,0,0,0,0,0M-36.857,2.693q0-.558.043-1.116c.438-5.691,4.269-11.153,10-14.256a16.143,16.143,0,0,1,5.334-1.873,25.93,25.93,0,0,1,7.566.368c.854.128,1.734.225,2.586.318,3.688.4,7.5.825,9.736,3.879C.491-7.136.754-3.5.844-.015a17.689,17.689,0,0,1-.783,6.92c-2.3,5.912-9.865,8.917-16.774,11.268a16.965,16.965,0,0,1-5.225,1.164,12.188,12.188,0,0,1-7.15-2.553A17.657,17.657,0,0,1-36.857,2.693" fill="#b07abc"/>
    </g>
    <g id="Grupo_11624" data-name="Grupo 11624" transform="translate(507.727 -14.009)">
      <path id="Caminho_11749" data-name="Caminho 11749" d="M0,0C-.072-2.785-.267-5.462-1.828-7.6c-1.6-2.186-4.323-2.485-7.207-2.8-.68-.074-1.383-.152-2.073-.255a19.6,19.6,0,0,0-5.741-.291,11.984,11.984,0,0,0-3.966,1.4c-4.352,2.357-7.262,6.5-7.594,10.827a13.237,13.237,0,0,0,5.867,11.551,8.918,8.918,0,0,0,5.207,1.884,12.626,12.626,0,0,0,3.884-.879C-8.133,12.027-2.315,9.724-.586,5.282A13.639,13.639,0,0,0,0,0M-29.109,2.127q0-.441.034-.882c.346-4.494,3.372-8.808,7.9-11.259a12.774,12.774,0,0,1,4.213-1.479,20.444,20.444,0,0,1,5.975.291c.675.1,1.37.177,2.043.251,2.912.32,5.924.651,7.689,3.064C.388-5.636.6-2.762.667-.012A13.979,13.979,0,0,1,.048,5.453c-1.817,4.67-7.791,7.043-13.248,8.9a13.406,13.406,0,0,1-4.126.919,9.625,9.625,0,0,1-5.647-2.016A13.946,13.946,0,0,1-29.109,2.127" fill="#b07abc"/>
    </g>
    <g id="Grupo_11625" data-name="Grupo 11625" transform="translate(503.945 -13.522)">
      <path id="Caminho_11750" data-name="Caminho 11750" d="M0,0C-.053-2.044-.2-4.008-1.342-5.575-2.515-7.179-4.514-7.4-6.63-7.631c-.5-.055-1.015-.112-1.521-.187a14.37,14.37,0,0,0-4.213-.214,8.835,8.835,0,0,0-2.911,1.027A10.277,10.277,0,0,0-20.848.94a9.717,9.717,0,0,0,4.306,8.477A6.543,6.543,0,0,0-12.721,10.8a9.262,9.262,0,0,0,2.85-.645C-5.968,8.826-1.7,7.136-.43,3.876A10,10,0,0,0,0,0M-21.361,1.561q0-.324.025-.647a10.684,10.684,0,0,1,5.794-8.262A9.34,9.34,0,0,1-12.45-8.434a15.037,15.037,0,0,1,4.385.213c.495.074,1,.131,1.5.185,2.138.235,4.348.477,5.643,2.248C.285-4.136.437-2.027.489-.009A10.24,10.24,0,0,1,.035,4C-1.3,7.429-5.682,9.17-9.686,10.532a9.832,9.832,0,0,1-3.028.675,7.058,7.058,0,0,1-4.144-1.479,10.233,10.233,0,0,1-4.5-8.167" fill="#b07abc"/>
    </g>
    <g id="Grupo_11626" data-name="Grupo 11626" transform="translate(500.162 -13.036)">
      <path id="Caminho_11751" data-name="Caminho 11751" d="M0,0A6.087,6.087,0,0,0-.855-3.553C-1.6-4.575-2.877-4.715-4.226-4.863c-.317-.035-.646-.071-.969-.12A9.173,9.173,0,0,0-7.88-5.119a5.619,5.619,0,0,0-1.855.655A6.547,6.547,0,0,0-13.286.6,6.188,6.188,0,0,0-10.542,6a4.165,4.165,0,0,0,2.435.881,5.891,5.891,0,0,0,1.816-.411c2.487-.846,5.208-1.924,6.017-4A6.381,6.381,0,0,0,0,0M-13.613,1c0-.138.005-.275.015-.413A6.81,6.81,0,0,1-9.9-4.683a5.967,5.967,0,0,1,1.97-.692,9.558,9.558,0,0,1,2.8.136c.315.047.641.083.955.118,1.362.149,2.771.3,3.6,1.432a6.357,6.357,0,0,1,.9,3.683A6.549,6.549,0,0,1,.023,2.55c-.85,2.184-3.644,3.294-6.2,4.162a6.257,6.257,0,0,1-1.93.43A4.5,4.5,0,0,1-10.744,6.2,6.522,6.522,0,0,1-13.613,1" fill="#b07abc"/>
    </g>
  </g>
</svg>
