<svg xmlns="http://www.w3.org/2000/svg" xmlns:xlink="http://www.w3.org/1999/xlink" width="26" height="53" viewBox="0 0 26 53">
  <defs>
    <clipPath id="clip-path">
      <rect id="Retângulo_109" data-name="Retângulo 109" width="26" height="53" transform="translate(272 404)" fill="#fff" stroke="#707070" stroke-width="1"/>
    </clipPath>
    <clipPath id="clip-path-2">
      <rect id="Retângulo_102" data-name="Retângulo 102" width="58.347" height="48.685" transform="translate(-3.793 -53.3)" fill="none"/>
    </clipPath>
    <clipPath id="clip-path-3">
      <rect id="Retângulo_103" data-name="Retângulo 103" width="50.953" height="41.23" transform="translate(-0.096 -49.572)" fill="none"/>
    </clipPath>
    <clipPath id="clip-path-4">
      <rect id="Retângulo_104" data-name="Retângulo 104" width="43.679" height="33.895" transform="translate(3.541 -45.905)" fill="none"/>
    </clipPath>
    <clipPath id="clip-path-5">
      <rect id="Retângulo_105" data-name="Retângulo 105" width="36.405" height="26.56" transform="translate(7.178 -42.237)" fill="none"/>
    </clipPath>
    <clipPath id="clip-path-6">
      <rect id="Retângulo_106" data-name="Retângulo 106" width="28.851" height="18.942" transform="translate(10.955 -38.428)" fill="none"/>
    </clipPath>
    <clipPath id="clip-path-7">
      <rect id="Retângulo_107" data-name="Retângulo 107" width="21.577" height="11.607" transform="translate(14.592 -34.761)" fill="none"/>
    </clipPath>
  </defs>
  <g id="pv_p0tit2mptextura1" transform="translate(-272 -404)" clip-path="url(#clip-path)">
    <g id="pv_p0tit2mptextura1-2" data-name="pv_p0tit2mptextura1" transform="translate(247 456.828)">
      <g id="Grupo_11629" data-name="Grupo 11629" transform="translate(25.38)">
        <path id="Caminho_11756" data-name="Caminho 11756" d="M0,0C14.017,0,25.38-11.621,25.38-25.957S14.017-51.914,0-51.914-25.38-40.293-25.38-25.957-14.017,0,0,0" fill="#9e2a96"/>
      </g>
      <g id="Grupo_11633" data-name="Grupo 11633" opacity="0.6">
        <g id="Grupo_11632" data-name="Grupo 11632">
          <g id="Grupo_11631" data-name="Grupo 11631" clip-path="url(#clip-path-2)">
            <g id="Grupo_11630" data-name="Grupo 11630" transform="translate(25.38 -6.194)">
              <path id="Caminho_11757" data-name="Caminho 11757" d="M0,0A19.7,19.7,0,0,0,19.594-19.763,19.7,19.7,0,0,0,0-39.526,19.7,19.7,0,0,0-19.594-19.763,19.7,19.7,0,0,0,0,0Z" fill="none" stroke="#e2d1e7" stroke-width="1.159"/>
            </g>
          </g>
        </g>
      </g>
      <g id="Grupo_11637" data-name="Grupo 11637" opacity="0.6">
        <g id="Grupo_11636" data-name="Grupo 11636">
          <g id="Grupo_11635" data-name="Grupo 11635" clip-path="url(#clip-path-3)">
            <g id="Grupo_11634" data-name="Grupo 11634" transform="translate(25.38 -9.922)">
              <path id="Caminho_11758" data-name="Caminho 11758" d="M0,0A15.984,15.984,0,0,0,15.9-16.035,15.985,15.985,0,0,0,0-32.071,15.985,15.985,0,0,0-15.9-16.035,15.984,15.984,0,0,0,0,0Z" fill="none" stroke="#e2d1e7" stroke-width="1.159"/>
            </g>
          </g>
        </g>
      </g>
      <g id="Grupo_11641" data-name="Grupo 11641" opacity="0.6">
        <g id="Grupo_11640" data-name="Grupo 11640">
          <g id="Grupo_11639" data-name="Grupo 11639" clip-path="url(#clip-path-4)">
            <g id="Grupo_11638" data-name="Grupo 11638" transform="translate(25.38 -13.59)">
              <path id="Caminho_11759" data-name="Caminho 11759" d="M0,0A12.328,12.328,0,0,0,12.26-12.368,12.328,12.328,0,0,0,0-24.735,12.328,12.328,0,0,0-12.26-12.368,12.328,12.328,0,0,0,0,0Z" fill="none" stroke="#e2d1e7" stroke-width="1.159"/>
            </g>
          </g>
        </g>
      </g>
      <g id="Grupo_11645" data-name="Grupo 11645" opacity="0.6">
        <g id="Grupo_11644" data-name="Grupo 11644">
          <g id="Grupo_11643" data-name="Grupo 11643" clip-path="url(#clip-path-5)">
            <g id="Grupo_11642" data-name="Grupo 11642" transform="translate(25.38 -17.257)">
              <path id="Caminho_11760" data-name="Caminho 11760" d="M0,0A8.672,8.672,0,0,0,8.623-8.7,8.671,8.671,0,0,0,0-17.4,8.671,8.671,0,0,0-8.623-8.7,8.672,8.672,0,0,0,0,0Z" fill="none" stroke="#e2d1e7" stroke-width="1.159"/>
            </g>
          </g>
        </g>
      </g>
      <g id="Grupo_11649" data-name="Grupo 11649" opacity="0.6">
        <g id="Grupo_11648" data-name="Grupo 11648">
          <g id="Grupo_11647" data-name="Grupo 11647" clip-path="url(#clip-path-6)">
            <g id="Grupo_11646" data-name="Grupo 11646" transform="translate(25.38 -21.066)">
              <path id="Caminho_11761" data-name="Caminho 11761" d="M0,0A4.874,4.874,0,0,0,4.846-4.892,4.874,4.874,0,0,0,0-9.783,4.874,4.874,0,0,0-4.846-4.892,4.874,4.874,0,0,0,0,0Z" fill="none" stroke="#e2d1e7" stroke-width="1.159"/>
            </g>
          </g>
        </g>
      </g>
      <g id="Grupo_11653" data-name="Grupo 11653" opacity="0.6">
        <g id="Grupo_11652" data-name="Grupo 11652">
          <g id="Grupo_11651" data-name="Grupo 11651" clip-path="url(#clip-path-7)">
            <g id="Grupo_11650" data-name="Grupo 11650" transform="translate(25.38 -24.733)">
              <path id="Caminho_11762" data-name="Caminho 11762" d="M0,0A1.218,1.218,0,0,0,1.209-1.224,1.218,1.218,0,0,0,0-2.448,1.218,1.218,0,0,0-1.209-1.224,1.218,1.218,0,0,0,0,0Z" fill="none" stroke="#e2d1e7" stroke-width="1.159"/>
            </g>
          </g>
        </g>
      </g>
    </g>
  </g>
</svg>
