<svg xmlns="http://www.w3.org/2000/svg" xmlns:xlink="http://www.w3.org/1999/xlink" width="490.394" height="34.016" viewBox="0 0 490.394 34.016">
  <defs>
    <clipPath id="clip-path">
      <path id="Caminho_12896" data-name="Caminho 12896" d="M0,0H490.394V-34.016H0Z" fill="none"/>
    </clipPath>
    <clipPath id="clip-path-2">
      <path id="Caminho_12899" data-name="Caminho 12899" d="M38.268-25.311V0H490.394V-25.317Z" fill="none"/>
    </clipPath>
  </defs>
  <g id="pv_sec7acao" transform="translate(0 34.016)">
    <g id="Grupo_12804" data-name="Grupo 12804" clip-path="url(#clip-path)">
      <g id="Grupo_12802" data-name="Grupo 12802" transform="translate(17.008 -34.016)">
        <path id="Caminho_12894" data-name="Caminho 12894" d="M0,0A17.008,17.008,0,0,0-17.008,17.008V34.016H22.677V0Z" fill="#f3e33f"/>
      </g>
      <g id="Grupo_12803" data-name="Grupo 12803" transform="translate(38.268 -25.313)">
        <path id="Caminho_12895" data-name="Caminho 12895" d="M0,0V25.312H452.126V12.25A12.254,12.254,0,0,0,439.872,0L0,0" fill="#6755ac"/>
      </g>
    </g>
    <g id="Grupo_12807" data-name="Grupo 12807" clip-path="url(#clip-path-2)">
      <g id="Grupo_12805" data-name="Grupo 12805" transform="translate(212.008 33.447)">
        <path id="Caminho_12897" data-name="Caminho 12897" d="M0,0A70.623,70.623,0,0,0,15.683,6.245a51.785,51.785,0,0,0,20.426.987A36.37,36.37,0,0,0,54.434-.8c5.571-4.851,8.82-11.35,11.963-17.635,3.946-7.89,7.672-15.342,15.587-19.829,11.295-6.4,25.722-2.983,33.316-.375,3.151,1.082,6.295,2.342,9.336,3.561,7.17,2.873,14.585,5.845,22.679,6.721a33.713,33.713,0,0,0,10.055-.353,19.958,19.958,0,0,0,8.954-4.008,11.256,11.256,0,0,0,4.168-9.154,7.28,7.28,0,0,0-3.808-6.141l-.384.491a6.772,6.772,0,0,1,3.528,5.722,10.667,10.667,0,0,1-3.945,8.681c-4.208,3.477-10.929,5-18.439,4.192-8-.865-15.367-3.819-22.494-6.676-3.049-1.222-6.2-2.485-9.368-3.572A57.851,57.851,0,0,0,98.477-42.5a31.906,31.906,0,0,0-16.829,3.76C73.549-34.148,69.6-26.26,65.79-18.632,62.674-12.4,59.452-5.957,53.979-1.192c-8.956,7.8-23.9,10.5-38.067,6.885C3.023,2.4-7.9-5.192-17.538-11.9l-.438.457A178.2,178.2,0,0,0,0,0" fill="#f3e33f"/>
      </g>
      <g id="Grupo_12806" data-name="Grupo 12806" transform="translate(271.883 17.023)">
        <path id="Caminho_12898" data-name="Caminho 12898" d="M0,0A30.423,30.423,0,0,0,17.407,3.293C28.147,2.116,38.261-4.94,42-13.865a49.9,49.9,0,0,0,1.855-5.669c1.245-4.388,2.42-8.533,6.052-11.515,3.477-2.855,8.943-4.072,14.623-3.254,4.517.649,8.7,2.385,12.743,4.064q.751.312,1.5.622c4.336,1.781,9.416,3.683,14.854,3.721a20.666,20.666,0,0,0,7.952-1.533,13.3,13.3,0,0,0,6.05-4.7,7.868,7.868,0,0,0,.644-7.523A6.8,6.8,0,0,0,103.4-43.6l-.2.559a6.226,6.226,0,0,1,4.461,3.628,7.345,7.345,0,0,1-.591,7.024c-2.421,3.635-7.673,5.958-13.38,5.918-5.306-.037-10.312-1.914-14.587-3.669l-1.5-.621c-4.083-1.7-8.305-3.448-12.91-4.111-5.889-.847-11.577.431-15.216,3.419-3.788,3.11-5.044,7.538-6.258,11.82a49.4,49.4,0,0,1-1.834,5.606c-3.65,8.712-13.522,15.6-24.007,16.75S-3.736-.767-8.462-8.561l-.593.294A23.207,23.207,0,0,0,0,0" fill="#f3e33f"/>
      </g>
    </g>
    <g id="Grupo_12820" data-name="Grupo 12820">
      <g id="Grupo_12808" data-name="Grupo 12808" transform="translate(24.095 0)">
        <path id="Caminho_12900" data-name="Caminho 12900" d="M0,0A17.008,17.008,0,0,1-17.008-17.008,17.008,17.008,0,0,1,0-34.016Z" fill="#1c2531"/>
      </g>
      <g id="Grupo_12809" data-name="Grupo 12809" transform="translate(38.268 0)">
        <path id="Caminho_12901" data-name="Caminho 12901" d="M0,0A17.008,17.008,0,0,1-17.008-17.008,17.008,17.008,0,0,1,0-34.016Z" fill="#1c2531"/>
      </g>
      <g id="Grupo_12810" data-name="Grupo 12810" transform="translate(38.268 0)">
        <path id="Caminho_12902" data-name="Caminho 12902" d="M0,0A17.008,17.008,0,0,0,17.008-17.008,17.008,17.008,0,0,0,0-34.016Z" fill="#6d5aab"/>
      </g>
      <g id="Grupo_12811" data-name="Grupo 12811" transform="translate(38.15 -30.682)">
        <path id="Caminho_12903" data-name="Caminho 12903" d="M0,0A13.689,13.689,0,0,0-13.673,13.673,13.689,13.689,0,0,0,0,27.347,13.689,13.689,0,0,0,13.673,13.673,13.689,13.689,0,0,0,0,0Z" fill="none" stroke="#f3e33f" stroke-width="1"/>
      </g>
      <g id="Grupo_12812" data-name="Grupo 12812" transform="translate(38.15 -28.084)">
        <path id="Caminho_12904" data-name="Caminho 12904" d="M0,0A11.076,11.076,0,1,0,0,22.152,11.089,11.089,0,0,0,11.076,11.076,11.089,11.089,0,0,0,0,0Z" fill="none" stroke="#f3e33f" stroke-width="1"/>
      </g>
      <g id="Grupo_12813" data-name="Grupo 12813" transform="translate(38.15 -25.529)">
        <path id="Caminho_12905" data-name="Caminho 12905" d="M0,0A8.521,8.521,0,0,0,0,17.042,8.531,8.531,0,0,0,8.521,8.521,8.531,8.531,0,0,0,0,0Z" fill="none" stroke="#f3e33f" stroke-width="1"/>
      </g>
      <g id="Grupo_12814" data-name="Grupo 12814" transform="translate(38.15 -22.973)">
        <path id="Caminho_12906" data-name="Caminho 12906" d="M0,0A5.972,5.972,0,0,0-5.965,5.965,5.972,5.972,0,0,0,0,11.931,5.972,5.972,0,0,0,5.965,5.965,5.972,5.972,0,0,0,0,0Z" fill="none" stroke="#f3e33f" stroke-width="1"/>
      </g>
      <g id="Grupo_12815" data-name="Grupo 12815" transform="translate(38.15 -20.32)">
        <path id="Caminho_12907" data-name="Caminho 12907" d="M0,0A3.312,3.312,0,0,0,0,6.624,3.316,3.316,0,0,0,3.312,3.312,3.316,3.316,0,0,0,0,0Z" fill="none" stroke="#f3e33f" stroke-width="1"/>
      </g>
      <g id="Grupo_12816" data-name="Grupo 12816" transform="translate(38.15 -17.765)">
        <path id="Caminho_12908" data-name="Caminho 12908" d="M0,0A.758.758,0,0,0-.757.756.758.758,0,0,0,0,1.513.758.758,0,0,0,.757.756.758.758,0,0,0,0,0Z" fill="none" stroke="#f3e33f" stroke-width="1"/>
      </g>
    </g>
  </g>
</svg>
