<svg xmlns="http://www.w3.org/2000/svg" width="490.395" height="48.754" viewBox="0 0 490.395 48.754">
  <g id="pv_trabalhojuventudes" transform="translate(0 48.754)">
    <path id="Caminho_7034" data-name="Caminho 7034" d="M0,0H490.394V-48.754H0Z" fill="#147231"/>
    <g id="Grupo_7129" data-name="Grupo 7129" transform="translate(0 -0.382)">
      <path id="Caminho_7035" data-name="Caminho 7035" d="M0,0,.574-.37,0-.615Z" fill="#52b547"/>
    </g>
    <g id="Grupo_7130" data-name="Grupo 7130" transform="translate(286.446 -48.754)">
      <path id="Caminho_7036" data-name="Caminho 7036" d="M0,0-.28,11.085l-19.281-8.2-.495,20.928-19.305-8.2-.519,20.962-19.281-8.2-.494,20.367h12.6l7-4.515,7.24-4.662,12.559-8.093,7.229-4.651,12.571-8.1,7.229-4.65,12.571-8.1,7.229-4.65L28.636,0ZM-79.146,48.754h18.1l-17.917-7.612Z" fill="#52b547"/>
    </g>
    <g id="Grupo_7131" data-name="Grupo 7131" transform="translate(253.24 -48.754)">
      <path id="Caminho_7037" data-name="Caminho 7037" d="M0,0-.078,3.3-7.847,0H-19.5l-.388,16.059L-39.172,7.851l-.506,20.95-19.316-8.184-.484,20.95-19.316-8.2-.363,15.383h17.31l2.218-1.431,5.447-3.488,14.343-9.266,5.455-3.5,14.355-9.232,5.445-3.522L-.216,9.059l5.432-3.5L13.868,0ZM-98.637,48.754h6.283L-98.572,46.1Z" fill="#52b547"/>
    </g>
    <g id="Grupo_7132" data-name="Grupo 7132" transform="translate(200.547 -48.754)">
      <path id="Caminho_7038" data-name="Caminho 7038" d="M0,0-.2,8.276-19.516.08-20,21.042l-19.315-8.208-.507,20.952L-59.1,25.579l-.518,20.974-19.293-8.232-.252,10.433h22.03l1.082-.694,16.142-10.406,3.659-2.348L-20.1,24.9l3.648-2.349L-.3,12.144,3.345,9.8,18.565,0Z" fill="#52b547"/>
    </g>
    <g id="Grupo_7133" data-name="Grupo 7133" transform="translate(167.321 -48.754)">
      <path id="Caminho_7039" data-name="Caminho 7039" d="M0,0-.012.518-1.227,0H-19.492l-.32,13.271L-39.106,5.054l-.506,20.973L-58.906,17.8l-.506,20.974-19.305-8.208-.43,18.192h7.236l12.453-8.015,1.842-1.2,17.981-11.568,1.841-1.186,17.936-11.558,1.853-1.2L-.058,2.474l1.853-1.2L3.778,0ZM-98.654,48.754h12.9l-12.775-5.436Z" fill="#52b547"/>
    </g>
    <g id="Grupo_7134" data-name="Grupo 7134" transform="translate(114.618 -48.754)">
      <path id="Caminho_7040" data-name="Caminho 7040" d="M0,0-.136,5.491-13.015,0h-6.469l-.441,18.245-19.305-8.22L-39.724,31l-19.317-8.219-.495,20.974-19.305-8.219-.312,13.218h11.942l7.663-4.941.07-.047,19.73-12.709.07-.034L-19.925,18.3l.046-.033L-.136,5.549-.067,5.5,8.481,0ZM-98.651,48.754h1.1l-1.089-.464Z" fill="#52b547"/>
    </g>
    <g id="Grupo_7135" data-name="Grupo 7135" transform="translate(2.762 -21.001)">
      <path id="Caminho_7041" data-name="Caminho 7041" d="M0,0-.461,19.133,17.59,7.495Z" fill="#52b547"/>
    </g>
    <g id="Grupo_7136" data-name="Grupo 7136" transform="translate(0 -31.301)">
      <path id="Caminho_7042" data-name="Caminho 7042" d="M0,0,5.387-3.467,0-5.759Z" fill="#52b547"/>
    </g>
    <g id="Grupo_7137" data-name="Grupo 7137" transform="translate(22.562 -33.756)">
      <path id="Caminho_7043" data-name="Caminho 7043" d="M0,0-.461,19.133,17.612,7.495Z" fill="#52b547"/>
    </g>
    <g id="Grupo_7138" data-name="Grupo 7138" transform="translate(9.213 -48.754)">
      <path id="Caminho_7044" data-name="Caminho 7044" d="M0,0-.283,11.706,15.973,1.23,13.084,0Z" fill="#52b547"/>
    </g>
    <g id="Grupo_7139" data-name="Grupo 7139" transform="translate(42.361 -46.51)">
      <path id="Caminho_7045" data-name="Caminho 7045" d="M0,0-.461,19.132,17.59,7.505Z" fill="#52b547"/>
    </g>
    <g id="Grupo_7140" data-name="Grupo 7140" transform="translate(61.915 -48.754)">
      <path id="Caminho_7046" data-name="Caminho 7046" d="M0,0-.2,8.621,13.182,0Z" fill="#52b547"/>
    </g>
    <g id="Grupo_7141" data-name="Grupo 7141" transform="translate(477.774 -48.754)">
      <path id="Caminho_7047" data-name="Caminho 7047" d="M0,0-.089,3.925-9.294,0H-52.706l-.22,8.9-16.6-7.066L-66.69,0H-85.916l-.027,1.128L-88.589,0h-16.818l-.336,13.871-18.351-7.805,4.9-3.165,4.5-2.9h-23.933l-.151,6.1L-153.109,0h-5.007l-.465,18.867-19.282-8.219-.518,20.974-19.292-8.22-.485,20.952-19.315-8.2-.3,12.6h27.4l1.006-.648,4.9-3.155-.09,3.8H-173.1l-10.4-4.424,4.9-3.154,9.036-5.824,4.9-3.154-.412,16.556h22.7l7.577-4.884,3.107-2-.167,6.887H-93.82l-.331-.14,1.3-.829,12.615-8.151,1.325-.83-.242,9.95h32.77l.452-.291-.007.291h16.631l-10.281-4.378,13.457-8.657-.316,13.035H1.608l5.233-3.365-.082,3.365h5.862V24.223L.025,18.867l12.6-8.108V0ZM-34.752,10.36l1.324-.864L-20.811,1.37l1.289-.829L-19.89,16.68Zm-54.565,4.225,3.1-2L-75.4,5.605l3.108-1.991-.416,18.039ZM-143.9,18.832l4.915-3.165,9.025-5.825,4.905-3.155-.484,19.939ZM-54.563,23.1l1.336-.841,12.6-8.138,1.324-.841-.4,16.152Zm-54.565,4.236,3.1-1.991,10.844-6.987,3.1-2-.435,18.051Zm-54.577,4.237,4.894-3.155,9.036-5.826,4.9-3.152-.483,19.938Zm143.931.046L-6.34,22.965l-.334,14.228Zm-54.577,4.235,1.312-.851,12.605-8.116,1.325-.852-.381,16.151Zm-54.577,4.237,3.109-2L-115,31.115l3.108-2-.437,18.05Z" fill="#52b547"/>
    </g>
  </g>
</svg>
