<svg id="tecla_2" xmlns="http://www.w3.org/2000/svg" xmlns:xlink="http://www.w3.org/1999/xlink" width="21.042" height="13.541" viewBox="0 0 21.042 13.541">
  <defs>
    <clipPath id="clip-path">
      <rect id="Retângulo_132" data-name="Retângulo 132" width="21.042" height="13.541" fill="none"/>
    </clipPath>
  </defs>
  <g id="Grupo_12866" data-name="Grupo 12866">
    <g id="Grupo_12865" data-name="Grupo 12865" clip-path="url(#clip-path)">
      <path id="Caminho_12955" data-name="Caminho 12955" d="M20.667.517c0-.082-4.124-.142-10.146-.142S.377.435.375.517l0,.047L.706,13.033c0,.073,4.112.132,9.815.132s9.817-.059,9.817-.132L20.665.564Z" fill="#b9c73a"/>
      <path id="Caminho_12956" data-name="Caminho 12956" d="M20.667.517c0-.082-4.124-.142-10.146-.142S.377.435.375.517l0,.047L.706,13.033c0,.073,4.112.132,9.815.132s9.817-.059,9.817-.132L20.665.564Z" fill="none" stroke="#669d3e" stroke-miterlimit="10" stroke-width="0.75"/>
      <path id="Caminho_12957" data-name="Caminho 12957" d="M19.431,1.469c0-.065-3.523-.117-8.8-.117S1.82,1.4,1.817,1.469l0,.04.288,10.352c0,.063,3.512.112,8.518.112s8.516-.049,8.516-.112l.287-10.352Z" fill="#b9c73a"/>
      <path id="Caminho_12958" data-name="Caminho 12958" d="M19.431,1.469c0-.065-3.523-.117-8.8-.117S1.82,1.4,1.817,1.469l0,.04.288,10.352c0,.063,3.512.112,8.518.112s8.516-.049,8.516-.112l.287-10.352Z" fill="none" stroke="#669d3e" stroke-miterlimit="10" stroke-width="0.75"/>
    </g>
  </g>
  <text id="_2" data-name="2" transform="translate(7.948 10.455)" fill="#161615" font-size="9.121" font-family="HelveticaNeueLTStd-Roman, Helvetica Neue LT Std"><tspan x="0" y="0">2</tspan></text>
</svg>
