<svg id="tecla_6" xmlns="http://www.w3.org/2000/svg" xmlns:xlink="http://www.w3.org/1999/xlink" width="21.043" height="13.542" viewBox="0 0 21.043 13.542">
  <defs>
    <clipPath id="clip-path">
      <rect id="Retângulo_136" data-name="Retângulo 136" width="21.043" height="13.542" transform="translate(0 0)" fill="none"/>
    </clipPath>
  </defs>
  <g id="Grupo_12874" data-name="Grupo 12874">
    <g id="Grupo_12873" data-name="Grupo 12873" clip-path="url(#clip-path)">
      <path id="Caminho_12971" data-name="Caminho 12971" d="M20.668.518c0-.083-4.125-.143-10.146-.143S.377.435.375.518l0,.047L.706,13.034c0,.074,4.112.134,9.816.134s9.817-.06,9.817-.134L20.666.565Z" fill="#b9c73a"/>
      <path id="Caminho_12972" data-name="Caminho 12972" d="M20.668.518c0-.083-4.125-.143-10.146-.143S.377.435.375.518l0,.047L.706,13.034c0,.074,4.112.134,9.816.134s9.817-.06,9.817-.134L20.666.565Z" fill="none" stroke="#669d3e" stroke-miterlimit="10" stroke-width="0.75"/>
      <path id="Caminho_12973" data-name="Caminho 12973" d="M19.431,1.47c0-.064-3.523-.117-8.8-.117s-8.807.053-8.808.117v.04l.29,10.353c0,.062,3.511.111,8.517.111s8.517-.049,8.517-.111L19.43,1.51Z" fill="#b9c73a"/>
      <path id="Caminho_12974" data-name="Caminho 12974" d="M19.431,1.47c0-.064-3.523-.117-8.8-.117s-8.807.053-8.808.117v.04l.29,10.353c0,.062,3.511.111,8.517.111s8.517-.049,8.517-.111L19.43,1.51Z" fill="none" stroke="#669d3e" stroke-miterlimit="10" stroke-width="0.75"/>
    </g>
  </g>
  <text id="_6" data-name="6" transform="translate(7.949 10.456)" fill="#161615" font-size="9.121" font-family="HelveticaNeueLTStd-Roman, Helvetica Neue LT Std"><tspan x="0" y="0">6</tspan></text>
</svg>
